G04 EAGLE Gerber RS-274X export*
G75*
%MOMM*%
%FSLAX34Y34*%
%LPD*%
%INBottom Copper*%
%IPPOS*%
%AMOC8*
5,1,8,0,0,1.08239X$1,22.5*%
G01*
%ADD10C,2.032000*%
%ADD11C,1.879600*%
%ADD12C,1.574800*%
%ADD13C,2.100000*%
%ADD14C,1.625600*%
%ADD15C,1.625600*%
%ADD16C,0.254000*%

G36*
X906900Y3064D02*
X906900Y3064D01*
X907019Y3071D01*
X907057Y3084D01*
X907098Y3089D01*
X907208Y3132D01*
X907321Y3169D01*
X907356Y3191D01*
X907393Y3206D01*
X907489Y3275D01*
X907590Y3339D01*
X907618Y3369D01*
X907651Y3392D01*
X907727Y3484D01*
X907808Y3571D01*
X907828Y3606D01*
X907853Y3637D01*
X907904Y3745D01*
X907962Y3849D01*
X907972Y3889D01*
X907989Y3925D01*
X908011Y4042D01*
X908041Y4157D01*
X908045Y4217D01*
X908049Y4237D01*
X908047Y4258D01*
X908051Y4318D01*
X908051Y503582D01*
X908036Y503700D01*
X908029Y503819D01*
X908016Y503857D01*
X908011Y503898D01*
X907968Y504008D01*
X907931Y504121D01*
X907909Y504156D01*
X907894Y504193D01*
X907825Y504289D01*
X907761Y504390D01*
X907731Y504418D01*
X907708Y504451D01*
X907616Y504527D01*
X907529Y504608D01*
X907494Y504628D01*
X907463Y504653D01*
X907355Y504704D01*
X907251Y504762D01*
X907211Y504772D01*
X907175Y504789D01*
X907058Y504811D01*
X906943Y504841D01*
X906883Y504845D01*
X906863Y504849D01*
X906842Y504847D01*
X906782Y504851D01*
X4318Y504851D01*
X4200Y504836D01*
X4081Y504829D01*
X4043Y504816D01*
X4002Y504811D01*
X3892Y504768D01*
X3779Y504731D01*
X3744Y504709D01*
X3707Y504694D01*
X3611Y504625D01*
X3510Y504561D01*
X3482Y504531D01*
X3449Y504508D01*
X3373Y504416D01*
X3292Y504329D01*
X3272Y504294D01*
X3247Y504263D01*
X3196Y504155D01*
X3138Y504051D01*
X3128Y504011D01*
X3111Y503975D01*
X3089Y503858D01*
X3059Y503743D01*
X3055Y503683D01*
X3051Y503663D01*
X3053Y503642D01*
X3049Y503582D01*
X3049Y4318D01*
X3064Y4200D01*
X3071Y4081D01*
X3084Y4043D01*
X3089Y4002D01*
X3132Y3892D01*
X3169Y3779D01*
X3191Y3744D01*
X3206Y3707D01*
X3275Y3611D01*
X3339Y3510D01*
X3369Y3482D01*
X3392Y3449D01*
X3484Y3373D01*
X3571Y3292D01*
X3606Y3272D01*
X3637Y3247D01*
X3745Y3196D01*
X3849Y3138D01*
X3889Y3128D01*
X3925Y3111D01*
X4042Y3089D01*
X4157Y3059D01*
X4217Y3055D01*
X4237Y3051D01*
X4258Y3053D01*
X4318Y3049D01*
X906782Y3049D01*
X906900Y3064D01*
G37*
%LPC*%
G36*
X860157Y27177D02*
X860157Y27177D01*
X856143Y28840D01*
X853070Y31913D01*
X851407Y35927D01*
X851407Y40273D01*
X853070Y44287D01*
X856143Y47360D01*
X856720Y47599D01*
X856745Y47613D01*
X856773Y47623D01*
X856883Y47692D01*
X856996Y47756D01*
X857017Y47777D01*
X857042Y47793D01*
X857131Y47887D01*
X857224Y47978D01*
X857240Y48003D01*
X857260Y48024D01*
X857323Y48138D01*
X857391Y48249D01*
X857399Y48277D01*
X857414Y48303D01*
X857446Y48429D01*
X857484Y48553D01*
X857486Y48582D01*
X857493Y48611D01*
X857503Y48771D01*
X857503Y88911D01*
X882532Y113939D01*
X882592Y114017D01*
X882660Y114090D01*
X882689Y114143D01*
X882726Y114190D01*
X882766Y114281D01*
X882814Y114368D01*
X882829Y114427D01*
X882853Y114482D01*
X882868Y114580D01*
X882893Y114676D01*
X882899Y114776D01*
X882903Y114796D01*
X882901Y114809D01*
X882903Y114837D01*
X882903Y121412D01*
X882888Y121530D01*
X882881Y121649D01*
X882868Y121687D01*
X882863Y121728D01*
X882820Y121838D01*
X882783Y121951D01*
X882761Y121986D01*
X882746Y122023D01*
X882677Y122119D01*
X882613Y122220D01*
X882583Y122248D01*
X882560Y122281D01*
X882468Y122357D01*
X882381Y122438D01*
X882346Y122458D01*
X882315Y122483D01*
X882207Y122534D01*
X882103Y122592D01*
X882063Y122602D01*
X882027Y122619D01*
X881910Y122641D01*
X881795Y122671D01*
X881735Y122675D01*
X881715Y122679D01*
X881694Y122677D01*
X881634Y122681D01*
X469731Y122681D01*
X469702Y122678D01*
X469673Y122680D01*
X469545Y122658D01*
X469416Y122641D01*
X469389Y122631D01*
X469359Y122626D01*
X469241Y122572D01*
X469120Y122524D01*
X469096Y122507D01*
X469069Y122495D01*
X468968Y122414D01*
X468863Y122338D01*
X468844Y122315D01*
X468821Y122296D01*
X468743Y122193D01*
X468660Y122093D01*
X468647Y122066D01*
X468630Y122042D01*
X468559Y121898D01*
X467752Y119950D01*
X464250Y116448D01*
X459676Y114553D01*
X454724Y114553D01*
X452237Y115583D01*
X452209Y115591D01*
X452182Y115605D01*
X452055Y115633D01*
X451930Y115667D01*
X451901Y115668D01*
X451872Y115674D01*
X451742Y115670D01*
X451612Y115672D01*
X451584Y115666D01*
X451554Y115665D01*
X451430Y115629D01*
X451303Y115598D01*
X451277Y115584D01*
X451249Y115576D01*
X451137Y115510D01*
X451022Y115450D01*
X451000Y115430D01*
X450975Y115415D01*
X450854Y115308D01*
X425314Y89769D01*
X425254Y89691D01*
X425186Y89619D01*
X425157Y89566D01*
X425120Y89518D01*
X425080Y89427D01*
X425032Y89340D01*
X425017Y89281D01*
X424993Y89226D01*
X424978Y89128D01*
X424953Y89032D01*
X424947Y88932D01*
X424943Y88912D01*
X424945Y88899D01*
X424943Y88871D01*
X424943Y62700D01*
X424946Y62671D01*
X424944Y62641D01*
X424960Y62551D01*
X424965Y62467D01*
X424977Y62430D01*
X424983Y62385D01*
X424993Y62357D01*
X424998Y62328D01*
X425039Y62238D01*
X425063Y62164D01*
X425081Y62135D01*
X425100Y62089D01*
X425117Y62065D01*
X425129Y62038D01*
X425195Y61956D01*
X425233Y61895D01*
X425255Y61875D01*
X425286Y61832D01*
X425309Y61813D01*
X425328Y61790D01*
X425417Y61723D01*
X425465Y61677D01*
X425488Y61664D01*
X425531Y61629D01*
X425558Y61616D01*
X425582Y61598D01*
X425726Y61528D01*
X426150Y61352D01*
X429652Y57850D01*
X431547Y53276D01*
X431547Y48324D01*
X429652Y43750D01*
X426150Y40248D01*
X421576Y38353D01*
X416624Y38353D01*
X412050Y40248D01*
X408548Y43750D01*
X406653Y48324D01*
X406653Y53276D01*
X408548Y57850D01*
X412050Y61352D01*
X415522Y62790D01*
X415547Y62805D01*
X415575Y62814D01*
X415685Y62883D01*
X415798Y62948D01*
X415819Y62968D01*
X415844Y62984D01*
X415902Y63045D01*
X415905Y63047D01*
X415912Y63056D01*
X415933Y63078D01*
X416026Y63169D01*
X416042Y63194D01*
X416062Y63216D01*
X416098Y63281D01*
X416107Y63292D01*
X416125Y63330D01*
X416193Y63440D01*
X416201Y63468D01*
X416216Y63494D01*
X416231Y63555D01*
X416243Y63580D01*
X416255Y63642D01*
X416286Y63744D01*
X416288Y63773D01*
X416295Y63802D01*
X416300Y63877D01*
X416303Y63892D01*
X416302Y63908D01*
X416305Y63963D01*
X416305Y88871D01*
X416293Y88970D01*
X416290Y89069D01*
X416273Y89127D01*
X416265Y89187D01*
X416229Y89279D01*
X416201Y89374D01*
X416171Y89426D01*
X416148Y89483D01*
X416090Y89563D01*
X416040Y89648D01*
X415974Y89723D01*
X415962Y89740D01*
X415952Y89748D01*
X415934Y89769D01*
X389501Y116201D01*
X389478Y116219D01*
X389459Y116242D01*
X389353Y116316D01*
X389250Y116396D01*
X389223Y116408D01*
X389199Y116425D01*
X389077Y116471D01*
X388958Y116522D01*
X388929Y116527D01*
X388901Y116537D01*
X388772Y116552D01*
X388644Y116572D01*
X388615Y116569D01*
X388585Y116573D01*
X388457Y116555D01*
X388328Y116542D01*
X388300Y116532D01*
X388270Y116528D01*
X388118Y116476D01*
X383476Y114553D01*
X378524Y114553D01*
X373950Y116448D01*
X370448Y119950D01*
X368553Y124524D01*
X368553Y129476D01*
X370448Y134050D01*
X373950Y137552D01*
X375898Y138359D01*
X375923Y138373D01*
X375951Y138383D01*
X376061Y138452D01*
X376174Y138516D01*
X376195Y138537D01*
X376220Y138553D01*
X376309Y138647D01*
X376402Y138738D01*
X376418Y138763D01*
X376438Y138784D01*
X376501Y138898D01*
X376569Y139009D01*
X376577Y139037D01*
X376592Y139063D01*
X376624Y139189D01*
X376662Y139313D01*
X376664Y139342D01*
X376671Y139371D01*
X376681Y139531D01*
X376681Y151609D01*
X376669Y151708D01*
X376666Y151807D01*
X376649Y151865D01*
X376641Y151925D01*
X376605Y152017D01*
X376577Y152112D01*
X376547Y152164D01*
X376524Y152221D01*
X376466Y152301D01*
X376416Y152386D01*
X376350Y152461D01*
X376338Y152478D01*
X376328Y152486D01*
X376310Y152507D01*
X327151Y201665D01*
X327151Y216917D01*
X327148Y216946D01*
X327150Y216976D01*
X327128Y217104D01*
X327111Y217233D01*
X327101Y217260D01*
X327096Y217289D01*
X327042Y217408D01*
X326994Y217528D01*
X326977Y217552D01*
X326965Y217579D01*
X326884Y217681D01*
X326808Y217786D01*
X326785Y217805D01*
X326766Y217828D01*
X326663Y217906D01*
X326563Y217989D01*
X326536Y218001D01*
X326512Y218019D01*
X326368Y218090D01*
X323869Y219125D01*
X320725Y222269D01*
X319023Y226377D01*
X319023Y230823D01*
X320725Y234931D01*
X323869Y238075D01*
X327977Y239777D01*
X332423Y239777D01*
X336531Y238075D01*
X339675Y234931D01*
X341377Y230823D01*
X341377Y226377D01*
X339675Y222269D01*
X336527Y219121D01*
X336519Y219118D01*
X336409Y219049D01*
X336296Y218984D01*
X336275Y218964D01*
X336250Y218948D01*
X336161Y218853D01*
X336068Y218763D01*
X336052Y218738D01*
X336032Y218716D01*
X335969Y218603D01*
X335901Y218492D01*
X335893Y218464D01*
X335878Y218438D01*
X335846Y218312D01*
X335808Y218188D01*
X335806Y218158D01*
X335799Y218130D01*
X335789Y217969D01*
X335789Y205769D01*
X335801Y205670D01*
X335804Y205571D01*
X335821Y205513D01*
X335829Y205453D01*
X335865Y205361D01*
X335893Y205266D01*
X335923Y205214D01*
X335946Y205157D01*
X336004Y205077D01*
X336054Y204992D01*
X336120Y204917D01*
X336132Y204900D01*
X336142Y204892D01*
X336160Y204871D01*
X382417Y158614D01*
X385319Y155713D01*
X385319Y139531D01*
X385322Y139502D01*
X385320Y139473D01*
X385342Y139345D01*
X385359Y139216D01*
X385369Y139189D01*
X385374Y139159D01*
X385428Y139041D01*
X385476Y138920D01*
X385493Y138896D01*
X385505Y138869D01*
X385586Y138768D01*
X385662Y138663D01*
X385685Y138644D01*
X385704Y138621D01*
X385807Y138543D01*
X385907Y138460D01*
X385934Y138447D01*
X385958Y138430D01*
X386102Y138359D01*
X388050Y137552D01*
X391552Y134050D01*
X393447Y129476D01*
X393447Y124997D01*
X393459Y124898D01*
X393462Y124799D01*
X393479Y124741D01*
X393487Y124681D01*
X393523Y124589D01*
X393551Y124494D01*
X393581Y124442D01*
X393604Y124385D01*
X393662Y124305D01*
X393712Y124220D01*
X393778Y124145D01*
X393790Y124128D01*
X393800Y124120D01*
X393818Y124099D01*
X419727Y98191D01*
X419821Y98118D01*
X419910Y98039D01*
X419946Y98021D01*
X419978Y97996D01*
X420087Y97949D01*
X420193Y97895D01*
X420232Y97886D01*
X420270Y97870D01*
X420387Y97851D01*
X420503Y97825D01*
X420544Y97826D01*
X420584Y97820D01*
X420702Y97831D01*
X420821Y97835D01*
X420860Y97846D01*
X420900Y97850D01*
X421013Y97890D01*
X421127Y97923D01*
X421162Y97944D01*
X421200Y97957D01*
X421298Y98024D01*
X421401Y98085D01*
X421446Y98124D01*
X421463Y98136D01*
X421476Y98151D01*
X421522Y98191D01*
X445062Y121732D01*
X445080Y121755D01*
X445103Y121774D01*
X445177Y121880D01*
X445257Y121983D01*
X445269Y122010D01*
X445286Y122034D01*
X445332Y122155D01*
X445383Y122275D01*
X445388Y122304D01*
X445398Y122331D01*
X445413Y122460D01*
X445433Y122589D01*
X445430Y122618D01*
X445434Y122648D01*
X445415Y122776D01*
X445403Y122905D01*
X445393Y122933D01*
X445389Y122962D01*
X445337Y123115D01*
X444753Y124524D01*
X444753Y129476D01*
X446648Y134050D01*
X450150Y137552D01*
X454724Y139447D01*
X459676Y139447D01*
X464250Y137552D01*
X467752Y134050D01*
X468559Y132102D01*
X468573Y132077D01*
X468583Y132049D01*
X468652Y131939D01*
X468716Y131826D01*
X468737Y131805D01*
X468753Y131780D01*
X468847Y131691D01*
X468938Y131598D01*
X468963Y131582D01*
X468984Y131562D01*
X469098Y131499D01*
X469209Y131431D01*
X469237Y131423D01*
X469263Y131408D01*
X469389Y131376D01*
X469513Y131338D01*
X469542Y131336D01*
X469571Y131329D01*
X469731Y131319D01*
X881634Y131319D01*
X881752Y131334D01*
X881871Y131341D01*
X881909Y131354D01*
X881950Y131359D01*
X882060Y131402D01*
X882173Y131439D01*
X882208Y131461D01*
X882245Y131476D01*
X882341Y131545D01*
X882442Y131609D01*
X882470Y131639D01*
X882503Y131662D01*
X882579Y131754D01*
X882660Y131841D01*
X882680Y131876D01*
X882705Y131907D01*
X882756Y132015D01*
X882814Y132119D01*
X882824Y132159D01*
X882841Y132195D01*
X882863Y132312D01*
X882893Y132427D01*
X882897Y132487D01*
X882901Y132507D01*
X882899Y132528D01*
X882903Y132588D01*
X882903Y214290D01*
X882897Y214339D01*
X882899Y214389D01*
X882877Y214496D01*
X882863Y214606D01*
X882845Y214652D01*
X882835Y214700D01*
X882787Y214799D01*
X882746Y214901D01*
X882717Y214941D01*
X882695Y214986D01*
X882624Y215070D01*
X882560Y215159D01*
X882521Y215190D01*
X882489Y215228D01*
X882399Y215291D01*
X882315Y215361D01*
X882270Y215383D01*
X882229Y215411D01*
X882126Y215450D01*
X882027Y215497D01*
X881978Y215506D01*
X881932Y215524D01*
X881822Y215536D01*
X881715Y215557D01*
X881665Y215554D01*
X881616Y215559D01*
X881507Y215544D01*
X881397Y215537D01*
X881350Y215522D01*
X881301Y215515D01*
X881148Y215463D01*
X878523Y214375D01*
X874077Y214375D01*
X869969Y216077D01*
X866825Y219221D01*
X865123Y223329D01*
X865123Y244031D01*
X866825Y248139D01*
X869969Y251283D01*
X871198Y251792D01*
X871223Y251807D01*
X871251Y251816D01*
X871361Y251885D01*
X871474Y251950D01*
X871495Y251970D01*
X871520Y251986D01*
X871609Y252081D01*
X871702Y252171D01*
X871718Y252196D01*
X871738Y252218D01*
X871801Y252331D01*
X871869Y252442D01*
X871877Y252470D01*
X871892Y252496D01*
X871924Y252622D01*
X871962Y252746D01*
X871964Y252776D01*
X871971Y252804D01*
X871981Y252965D01*
X871981Y254225D01*
X871969Y254324D01*
X871966Y254423D01*
X871949Y254481D01*
X871941Y254541D01*
X871905Y254633D01*
X871877Y254728D01*
X871847Y254780D01*
X871824Y254837D01*
X871766Y254917D01*
X871716Y255002D01*
X871650Y255077D01*
X871638Y255094D01*
X871628Y255102D01*
X871610Y255123D01*
X784713Y342020D01*
X784635Y342080D01*
X784562Y342148D01*
X784509Y342177D01*
X784462Y342214D01*
X784371Y342254D01*
X784284Y342302D01*
X784225Y342317D01*
X784170Y342341D01*
X784072Y342356D01*
X783976Y342381D01*
X783876Y342387D01*
X783856Y342391D01*
X783843Y342389D01*
X783815Y342391D01*
X766466Y342391D01*
X766437Y342388D01*
X766408Y342390D01*
X766280Y342368D01*
X766151Y342351D01*
X766123Y342341D01*
X766094Y342336D01*
X765976Y342282D01*
X765855Y342234D01*
X765831Y342217D01*
X765804Y342205D01*
X765703Y342124D01*
X765598Y342048D01*
X765579Y342025D01*
X765556Y342006D01*
X765478Y341903D01*
X765395Y341803D01*
X765382Y341776D01*
X765365Y341752D01*
X765294Y341608D01*
X764308Y339228D01*
X760592Y335512D01*
X755898Y333568D01*
X755872Y333553D01*
X755844Y333544D01*
X755734Y333474D01*
X755622Y333410D01*
X755600Y333389D01*
X755575Y333373D01*
X755486Y333279D01*
X755393Y333189D01*
X755378Y333164D01*
X755357Y333142D01*
X755295Y333028D01*
X755227Y332918D01*
X755218Y332889D01*
X755204Y332863D01*
X755172Y332738D01*
X755133Y332614D01*
X755132Y332584D01*
X755125Y332555D01*
X755125Y332425D01*
X755118Y332296D01*
X755124Y332267D01*
X755124Y332237D01*
X755156Y332112D01*
X755183Y331985D01*
X755196Y331958D01*
X755203Y331929D01*
X755265Y331816D01*
X755322Y331699D01*
X755342Y331676D01*
X755356Y331650D01*
X755444Y331556D01*
X755529Y331457D01*
X755553Y331440D01*
X755574Y331418D01*
X755683Y331349D01*
X755789Y331274D01*
X755817Y331263D01*
X755842Y331247D01*
X755992Y331188D01*
X757985Y330540D01*
X759767Y329633D01*
X761384Y328458D01*
X762798Y327044D01*
X763973Y325427D01*
X764880Y323645D01*
X765498Y321744D01*
X765567Y321309D01*
X754380Y321309D01*
X754262Y321294D01*
X754143Y321287D01*
X754105Y321274D01*
X754065Y321269D01*
X753954Y321226D01*
X753841Y321189D01*
X753807Y321167D01*
X753769Y321152D01*
X753673Y321082D01*
X753572Y321019D01*
X753544Y320989D01*
X753512Y320965D01*
X753436Y320874D01*
X753354Y320787D01*
X753335Y320752D01*
X753309Y320721D01*
X753258Y320613D01*
X753201Y320509D01*
X753190Y320469D01*
X753173Y320433D01*
X753151Y320316D01*
X753121Y320201D01*
X753117Y320140D01*
X753113Y320120D01*
X753115Y320100D01*
X753111Y320040D01*
X753111Y318769D01*
X753109Y318769D01*
X753109Y320040D01*
X753094Y320158D01*
X753087Y320277D01*
X753074Y320315D01*
X753069Y320355D01*
X753025Y320466D01*
X752989Y320579D01*
X752967Y320614D01*
X752952Y320651D01*
X752882Y320747D01*
X752819Y320848D01*
X752789Y320876D01*
X752765Y320909D01*
X752674Y320984D01*
X752587Y321066D01*
X752552Y321086D01*
X752520Y321111D01*
X752413Y321162D01*
X752308Y321220D01*
X752269Y321230D01*
X752233Y321247D01*
X752116Y321269D01*
X752001Y321299D01*
X751940Y321303D01*
X751920Y321307D01*
X751900Y321305D01*
X751840Y321309D01*
X740653Y321309D01*
X740722Y321744D01*
X741340Y323645D01*
X742247Y325427D01*
X743422Y327044D01*
X744836Y328458D01*
X746453Y329633D01*
X748235Y330540D01*
X750228Y331188D01*
X750256Y331201D01*
X750285Y331208D01*
X750399Y331268D01*
X750516Y331323D01*
X750539Y331342D01*
X750566Y331356D01*
X750662Y331444D01*
X750761Y331526D01*
X750779Y331550D01*
X750801Y331570D01*
X750872Y331678D01*
X750948Y331783D01*
X750959Y331811D01*
X750976Y331836D01*
X751018Y331958D01*
X751066Y332079D01*
X751069Y332109D01*
X751079Y332137D01*
X751089Y332266D01*
X751106Y332394D01*
X751102Y332424D01*
X751104Y332454D01*
X751082Y332582D01*
X751066Y332710D01*
X751055Y332738D01*
X751050Y332767D01*
X750997Y332885D01*
X750949Y333006D01*
X750931Y333030D01*
X750919Y333057D01*
X750838Y333158D01*
X750762Y333263D01*
X750739Y333282D01*
X750721Y333306D01*
X750617Y333384D01*
X750517Y333466D01*
X750490Y333479D01*
X750467Y333497D01*
X750322Y333568D01*
X745628Y335512D01*
X741912Y339228D01*
X739901Y344083D01*
X739901Y349337D01*
X741912Y354192D01*
X745628Y357908D01*
X750483Y359919D01*
X755737Y359919D01*
X760592Y357908D01*
X764308Y354192D01*
X765294Y351812D01*
X765308Y351787D01*
X765317Y351759D01*
X765387Y351649D01*
X765451Y351536D01*
X765472Y351515D01*
X765487Y351490D01*
X765582Y351401D01*
X765672Y351308D01*
X765698Y351292D01*
X765719Y351272D01*
X765833Y351209D01*
X765944Y351141D01*
X765972Y351133D01*
X765998Y351118D01*
X766123Y351086D01*
X766247Y351048D01*
X766277Y351046D01*
X766306Y351039D01*
X766466Y351029D01*
X787919Y351029D01*
X880619Y258329D01*
X880619Y252965D01*
X880622Y252935D01*
X880620Y252906D01*
X880642Y252778D01*
X880659Y252649D01*
X880669Y252622D01*
X880674Y252593D01*
X880728Y252474D01*
X880776Y252354D01*
X880793Y252330D01*
X880805Y252303D01*
X880886Y252201D01*
X880962Y252096D01*
X880985Y252077D01*
X881004Y252054D01*
X881107Y251976D01*
X881207Y251893D01*
X881234Y251881D01*
X881258Y251863D01*
X881402Y251792D01*
X882631Y251283D01*
X885775Y248139D01*
X887477Y244031D01*
X887477Y229137D01*
X887489Y229038D01*
X887492Y228939D01*
X887509Y228881D01*
X887517Y228821D01*
X887553Y228729D01*
X887581Y228634D01*
X887611Y228582D01*
X887634Y228525D01*
X887692Y228445D01*
X887742Y228360D01*
X887808Y228285D01*
X887820Y228268D01*
X887830Y228260D01*
X887848Y228239D01*
X891541Y224547D01*
X891541Y110733D01*
X866512Y85705D01*
X866452Y85627D01*
X866384Y85554D01*
X866355Y85501D01*
X866318Y85454D01*
X866278Y85363D01*
X866230Y85276D01*
X866215Y85217D01*
X866191Y85162D01*
X866176Y85064D01*
X866151Y84968D01*
X866145Y84868D01*
X866141Y84848D01*
X866143Y84835D01*
X866141Y84807D01*
X866141Y49192D01*
X866144Y49163D01*
X866142Y49134D01*
X866164Y49005D01*
X866181Y48877D01*
X866191Y48849D01*
X866196Y48820D01*
X866250Y48702D01*
X866298Y48581D01*
X866315Y48557D01*
X866327Y48530D01*
X866408Y48429D01*
X866484Y48324D01*
X866507Y48305D01*
X866526Y48282D01*
X866629Y48204D01*
X866729Y48121D01*
X866756Y48108D01*
X866780Y48091D01*
X866924Y48020D01*
X868517Y47360D01*
X871590Y44287D01*
X873253Y40273D01*
X873253Y35927D01*
X871590Y31913D01*
X868517Y28840D01*
X864503Y27177D01*
X860157Y27177D01*
G37*
%LPD*%
%LPC*%
G36*
X25399Y203199D02*
X25399Y203199D01*
X25399Y204470D01*
X25384Y204588D01*
X25377Y204707D01*
X25364Y204745D01*
X25359Y204785D01*
X25315Y204896D01*
X25279Y205009D01*
X25257Y205044D01*
X25242Y205081D01*
X25172Y205177D01*
X25109Y205278D01*
X25079Y205306D01*
X25055Y205339D01*
X24964Y205414D01*
X24877Y205496D01*
X24842Y205516D01*
X24810Y205541D01*
X24703Y205592D01*
X24598Y205650D01*
X24559Y205660D01*
X24523Y205677D01*
X24406Y205699D01*
X24291Y205729D01*
X24230Y205733D01*
X24210Y205737D01*
X24190Y205735D01*
X24130Y205739D01*
X13715Y205739D01*
X13755Y205996D01*
X14336Y207783D01*
X15189Y209457D01*
X16294Y210978D01*
X17622Y212306D01*
X19143Y213411D01*
X20817Y214264D01*
X21282Y214415D01*
X21309Y214428D01*
X21338Y214435D01*
X21452Y214495D01*
X21570Y214550D01*
X21593Y214569D01*
X21619Y214583D01*
X21715Y214670D01*
X21815Y214753D01*
X21832Y214777D01*
X21854Y214797D01*
X21926Y214906D01*
X22002Y215010D01*
X22013Y215038D01*
X22029Y215063D01*
X22071Y215186D01*
X22119Y215306D01*
X22123Y215336D01*
X22132Y215364D01*
X22143Y215493D01*
X22159Y215621D01*
X22155Y215651D01*
X22158Y215681D01*
X22135Y215809D01*
X22119Y215937D01*
X22108Y215965D01*
X22103Y215994D01*
X22050Y216112D01*
X22002Y216233D01*
X21985Y216257D01*
X21973Y216284D01*
X21892Y216385D01*
X21816Y216490D01*
X21793Y216509D01*
X21774Y216533D01*
X21670Y216611D01*
X21571Y216693D01*
X21544Y216706D01*
X21520Y216724D01*
X21375Y216795D01*
X18350Y218048D01*
X14848Y221550D01*
X12953Y226124D01*
X12953Y231076D01*
X14848Y235650D01*
X18350Y239152D01*
X21375Y240405D01*
X21401Y240420D01*
X21430Y240429D01*
X21539Y240499D01*
X21652Y240563D01*
X21673Y240584D01*
X21698Y240600D01*
X21787Y240694D01*
X21880Y240784D01*
X21896Y240810D01*
X21916Y240831D01*
X21979Y240945D01*
X22046Y241055D01*
X22055Y241084D01*
X22069Y241110D01*
X22102Y241235D01*
X22140Y241359D01*
X22141Y241389D01*
X22149Y241418D01*
X22149Y241548D01*
X22155Y241677D01*
X22149Y241706D01*
X22149Y241736D01*
X22117Y241861D01*
X22091Y241988D01*
X22078Y242015D01*
X22070Y242044D01*
X22008Y242157D01*
X21951Y242274D01*
X21932Y242297D01*
X21917Y242323D01*
X21829Y242417D01*
X21745Y242516D01*
X21720Y242533D01*
X21700Y242555D01*
X21591Y242624D01*
X21485Y242699D01*
X21457Y242710D01*
X21431Y242726D01*
X21282Y242785D01*
X20817Y242936D01*
X19143Y243789D01*
X17622Y244894D01*
X16294Y246222D01*
X15189Y247743D01*
X14336Y249417D01*
X13755Y251204D01*
X13715Y251461D01*
X24130Y251461D01*
X24248Y251476D01*
X24367Y251483D01*
X24405Y251496D01*
X24445Y251501D01*
X24556Y251544D01*
X24669Y251581D01*
X24703Y251603D01*
X24741Y251618D01*
X24837Y251688D01*
X24938Y251751D01*
X24966Y251781D01*
X24998Y251804D01*
X25074Y251896D01*
X25156Y251983D01*
X25175Y252018D01*
X25201Y252049D01*
X25252Y252157D01*
X25309Y252261D01*
X25320Y252301D01*
X25337Y252337D01*
X25359Y252454D01*
X25389Y252569D01*
X25393Y252630D01*
X25397Y252650D01*
X25395Y252670D01*
X25399Y252730D01*
X25399Y255270D01*
X25384Y255388D01*
X25377Y255507D01*
X25364Y255545D01*
X25359Y255585D01*
X25315Y255696D01*
X25279Y255809D01*
X25257Y255844D01*
X25242Y255881D01*
X25172Y255977D01*
X25109Y256078D01*
X25079Y256106D01*
X25055Y256139D01*
X24964Y256214D01*
X24877Y256296D01*
X24842Y256316D01*
X24810Y256341D01*
X24703Y256392D01*
X24598Y256450D01*
X24559Y256460D01*
X24523Y256477D01*
X24406Y256499D01*
X24291Y256529D01*
X24230Y256533D01*
X24210Y256537D01*
X24190Y256535D01*
X24130Y256539D01*
X13715Y256539D01*
X13755Y256796D01*
X14336Y258583D01*
X15189Y260257D01*
X16294Y261778D01*
X17622Y263106D01*
X19143Y264211D01*
X20817Y265064D01*
X21282Y265215D01*
X21309Y265228D01*
X21338Y265235D01*
X21452Y265295D01*
X21570Y265350D01*
X21593Y265369D01*
X21619Y265383D01*
X21715Y265470D01*
X21815Y265553D01*
X21832Y265577D01*
X21854Y265597D01*
X21926Y265706D01*
X22002Y265810D01*
X22013Y265838D01*
X22029Y265863D01*
X22071Y265986D01*
X22119Y266106D01*
X22123Y266136D01*
X22132Y266164D01*
X22143Y266293D01*
X22159Y266421D01*
X22155Y266451D01*
X22158Y266481D01*
X22135Y266609D01*
X22119Y266737D01*
X22108Y266765D01*
X22103Y266794D01*
X22050Y266912D01*
X22002Y267033D01*
X21985Y267057D01*
X21973Y267084D01*
X21892Y267185D01*
X21816Y267290D01*
X21793Y267309D01*
X21774Y267333D01*
X21670Y267411D01*
X21571Y267493D01*
X21544Y267506D01*
X21520Y267524D01*
X21375Y267595D01*
X18350Y268848D01*
X14848Y272350D01*
X12953Y276924D01*
X12953Y281876D01*
X14848Y286450D01*
X18350Y289952D01*
X21375Y291205D01*
X21401Y291220D01*
X21430Y291229D01*
X21539Y291299D01*
X21652Y291363D01*
X21673Y291384D01*
X21698Y291400D01*
X21787Y291494D01*
X21880Y291584D01*
X21896Y291610D01*
X21916Y291631D01*
X21979Y291745D01*
X22046Y291855D01*
X22055Y291884D01*
X22069Y291910D01*
X22102Y292035D01*
X22140Y292159D01*
X22141Y292189D01*
X22149Y292218D01*
X22149Y292348D01*
X22155Y292477D01*
X22149Y292506D01*
X22149Y292536D01*
X22117Y292661D01*
X22091Y292788D01*
X22078Y292815D01*
X22070Y292844D01*
X22008Y292957D01*
X21951Y293074D01*
X21932Y293097D01*
X21917Y293123D01*
X21829Y293217D01*
X21745Y293316D01*
X21720Y293333D01*
X21700Y293355D01*
X21591Y293424D01*
X21485Y293499D01*
X21457Y293510D01*
X21431Y293526D01*
X21282Y293585D01*
X20817Y293736D01*
X19143Y294589D01*
X17622Y295694D01*
X16294Y297022D01*
X15189Y298543D01*
X14336Y300217D01*
X13755Y302004D01*
X13715Y302261D01*
X24130Y302261D01*
X24248Y302276D01*
X24367Y302283D01*
X24405Y302296D01*
X24445Y302301D01*
X24556Y302344D01*
X24669Y302381D01*
X24703Y302403D01*
X24741Y302418D01*
X24837Y302488D01*
X24938Y302551D01*
X24966Y302581D01*
X24998Y302604D01*
X25074Y302696D01*
X25156Y302783D01*
X25175Y302818D01*
X25201Y302849D01*
X25252Y302957D01*
X25309Y303061D01*
X25320Y303101D01*
X25337Y303137D01*
X25359Y303254D01*
X25389Y303369D01*
X25393Y303430D01*
X25397Y303450D01*
X25395Y303470D01*
X25399Y303530D01*
X25399Y306070D01*
X25384Y306188D01*
X25377Y306307D01*
X25364Y306345D01*
X25359Y306385D01*
X25315Y306496D01*
X25279Y306609D01*
X25257Y306644D01*
X25242Y306681D01*
X25172Y306777D01*
X25109Y306878D01*
X25079Y306906D01*
X25055Y306939D01*
X24964Y307014D01*
X24877Y307096D01*
X24842Y307116D01*
X24810Y307141D01*
X24703Y307192D01*
X24598Y307250D01*
X24559Y307260D01*
X24523Y307277D01*
X24406Y307299D01*
X24291Y307329D01*
X24230Y307333D01*
X24210Y307337D01*
X24190Y307335D01*
X24130Y307339D01*
X13715Y307339D01*
X13755Y307596D01*
X14336Y309383D01*
X15189Y311057D01*
X16294Y312578D01*
X17622Y313906D01*
X19143Y315011D01*
X20817Y315864D01*
X21282Y316015D01*
X21309Y316028D01*
X21338Y316035D01*
X21452Y316095D01*
X21570Y316150D01*
X21593Y316169D01*
X21619Y316183D01*
X21715Y316270D01*
X21815Y316353D01*
X21832Y316377D01*
X21854Y316397D01*
X21925Y316505D01*
X22002Y316610D01*
X22013Y316638D01*
X22029Y316663D01*
X22071Y316786D01*
X22119Y316906D01*
X22123Y316936D01*
X22132Y316964D01*
X22143Y317093D01*
X22159Y317221D01*
X22155Y317251D01*
X22158Y317281D01*
X22135Y317409D01*
X22119Y317537D01*
X22108Y317565D01*
X22103Y317594D01*
X22050Y317712D01*
X22002Y317833D01*
X21985Y317857D01*
X21973Y317884D01*
X21892Y317985D01*
X21816Y318090D01*
X21793Y318109D01*
X21774Y318133D01*
X21670Y318211D01*
X21571Y318293D01*
X21544Y318306D01*
X21520Y318324D01*
X21375Y318395D01*
X18350Y319648D01*
X14848Y323150D01*
X12953Y327724D01*
X12953Y332676D01*
X14848Y337250D01*
X18350Y340752D01*
X21375Y342005D01*
X21401Y342020D01*
X21430Y342029D01*
X21539Y342098D01*
X21652Y342163D01*
X21673Y342184D01*
X21698Y342200D01*
X21787Y342294D01*
X21880Y342384D01*
X21896Y342410D01*
X21916Y342431D01*
X21979Y342545D01*
X22046Y342655D01*
X22055Y342684D01*
X22069Y342710D01*
X22102Y342836D01*
X22140Y342959D01*
X22141Y342989D01*
X22149Y343018D01*
X22149Y343148D01*
X22155Y343277D01*
X22149Y343306D01*
X22149Y343336D01*
X22117Y343462D01*
X22091Y343588D01*
X22078Y343615D01*
X22070Y343644D01*
X22008Y343758D01*
X21951Y343874D01*
X21932Y343897D01*
X21917Y343923D01*
X21829Y344018D01*
X21745Y344116D01*
X21720Y344133D01*
X21700Y344155D01*
X21591Y344224D01*
X21485Y344299D01*
X21457Y344310D01*
X21431Y344326D01*
X21282Y344385D01*
X20817Y344536D01*
X19143Y345389D01*
X17622Y346494D01*
X16294Y347822D01*
X15189Y349343D01*
X14336Y351017D01*
X13755Y352804D01*
X13715Y353061D01*
X24130Y353061D01*
X24248Y353076D01*
X24367Y353083D01*
X24405Y353096D01*
X24445Y353101D01*
X24556Y353144D01*
X24669Y353181D01*
X24703Y353203D01*
X24741Y353218D01*
X24837Y353288D01*
X24938Y353351D01*
X24966Y353381D01*
X24998Y353404D01*
X25074Y353496D01*
X25156Y353583D01*
X25175Y353618D01*
X25201Y353649D01*
X25252Y353757D01*
X25309Y353861D01*
X25320Y353901D01*
X25337Y353937D01*
X25359Y354054D01*
X25389Y354169D01*
X25393Y354230D01*
X25397Y354250D01*
X25395Y354270D01*
X25399Y354330D01*
X25399Y356870D01*
X25384Y356988D01*
X25377Y357107D01*
X25364Y357145D01*
X25359Y357185D01*
X25315Y357296D01*
X25279Y357409D01*
X25257Y357444D01*
X25242Y357481D01*
X25172Y357577D01*
X25109Y357678D01*
X25079Y357706D01*
X25055Y357739D01*
X24964Y357814D01*
X24877Y357896D01*
X24842Y357916D01*
X24810Y357941D01*
X24703Y357992D01*
X24598Y358050D01*
X24559Y358060D01*
X24523Y358077D01*
X24406Y358099D01*
X24291Y358129D01*
X24230Y358133D01*
X24210Y358137D01*
X24190Y358135D01*
X24130Y358139D01*
X13715Y358139D01*
X13755Y358396D01*
X14336Y360183D01*
X15189Y361857D01*
X16294Y363378D01*
X17622Y364706D01*
X19143Y365811D01*
X20817Y366664D01*
X21282Y366815D01*
X21309Y366828D01*
X21338Y366835D01*
X21453Y366895D01*
X21570Y366950D01*
X21593Y366969D01*
X21619Y366983D01*
X21715Y367071D01*
X21815Y367153D01*
X21832Y367177D01*
X21854Y367197D01*
X21926Y367306D01*
X22002Y367410D01*
X22013Y367438D01*
X22029Y367463D01*
X22071Y367586D01*
X22119Y367706D01*
X22123Y367736D01*
X22132Y367764D01*
X22143Y367893D01*
X22159Y368021D01*
X22155Y368051D01*
X22158Y368081D01*
X22135Y368209D01*
X22119Y368337D01*
X22108Y368365D01*
X22103Y368394D01*
X22050Y368512D01*
X22002Y368633D01*
X21985Y368657D01*
X21973Y368684D01*
X21892Y368785D01*
X21816Y368890D01*
X21793Y368909D01*
X21774Y368933D01*
X21671Y369010D01*
X21571Y369093D01*
X21544Y369106D01*
X21520Y369124D01*
X21375Y369195D01*
X18350Y370448D01*
X14848Y373950D01*
X12953Y378524D01*
X12953Y383476D01*
X14848Y388050D01*
X18350Y391552D01*
X21375Y392805D01*
X21401Y392820D01*
X21430Y392829D01*
X21464Y392851D01*
X21501Y392865D01*
X21573Y392918D01*
X21652Y392963D01*
X21673Y392984D01*
X21698Y393000D01*
X21726Y393029D01*
X21758Y393052D01*
X21815Y393121D01*
X21880Y393184D01*
X21896Y393210D01*
X21916Y393231D01*
X21936Y393267D01*
X21961Y393297D01*
X21999Y393377D01*
X22046Y393455D01*
X22055Y393484D01*
X22069Y393510D01*
X22080Y393550D01*
X22096Y393585D01*
X22113Y393671D01*
X22140Y393759D01*
X22141Y393789D01*
X22149Y393818D01*
X22149Y393859D01*
X22156Y393897D01*
X22151Y393985D01*
X22155Y394077D01*
X22149Y394106D01*
X22149Y394136D01*
X22139Y394176D01*
X22136Y394215D01*
X22109Y394298D01*
X22091Y394388D01*
X22078Y394415D01*
X22070Y394444D01*
X22050Y394480D01*
X22038Y394517D01*
X21991Y394591D01*
X21951Y394674D01*
X21932Y394697D01*
X21917Y394723D01*
X21889Y394753D01*
X21868Y394786D01*
X21804Y394846D01*
X21745Y394916D01*
X21720Y394933D01*
X21700Y394955D01*
X21665Y394977D01*
X21637Y395004D01*
X21560Y395046D01*
X21485Y395099D01*
X21457Y395110D01*
X21431Y395126D01*
X21375Y395148D01*
X21358Y395157D01*
X21340Y395162D01*
X21282Y395185D01*
X20817Y395336D01*
X19143Y396189D01*
X17622Y397294D01*
X16294Y398622D01*
X15189Y400143D01*
X14336Y401817D01*
X13755Y403604D01*
X13715Y403861D01*
X24130Y403861D01*
X24248Y403876D01*
X24367Y403883D01*
X24405Y403896D01*
X24445Y403901D01*
X24556Y403944D01*
X24669Y403981D01*
X24703Y404003D01*
X24741Y404018D01*
X24837Y404088D01*
X24938Y404151D01*
X24966Y404181D01*
X24998Y404204D01*
X25074Y404296D01*
X25156Y404383D01*
X25175Y404418D01*
X25201Y404449D01*
X25252Y404557D01*
X25309Y404661D01*
X25320Y404701D01*
X25337Y404737D01*
X25359Y404854D01*
X25389Y404969D01*
X25393Y405030D01*
X25397Y405050D01*
X25395Y405070D01*
X25399Y405130D01*
X25399Y407670D01*
X25384Y407788D01*
X25377Y407907D01*
X25364Y407945D01*
X25359Y407985D01*
X25315Y408096D01*
X25279Y408209D01*
X25257Y408244D01*
X25242Y408281D01*
X25172Y408377D01*
X25109Y408478D01*
X25079Y408506D01*
X25055Y408539D01*
X24964Y408614D01*
X24877Y408696D01*
X24842Y408716D01*
X24810Y408741D01*
X24703Y408792D01*
X24598Y408850D01*
X24559Y408860D01*
X24523Y408877D01*
X24406Y408899D01*
X24291Y408929D01*
X24230Y408933D01*
X24210Y408937D01*
X24190Y408935D01*
X24130Y408939D01*
X13715Y408939D01*
X13755Y409196D01*
X14336Y410983D01*
X15189Y412657D01*
X16294Y414178D01*
X17622Y415506D01*
X19143Y416611D01*
X20817Y417464D01*
X21282Y417615D01*
X21309Y417628D01*
X21338Y417635D01*
X21452Y417695D01*
X21570Y417750D01*
X21593Y417769D01*
X21619Y417783D01*
X21715Y417870D01*
X21815Y417953D01*
X21832Y417977D01*
X21854Y417997D01*
X21926Y418106D01*
X22002Y418210D01*
X22013Y418238D01*
X22029Y418263D01*
X22071Y418386D01*
X22119Y418506D01*
X22123Y418536D01*
X22132Y418564D01*
X22143Y418693D01*
X22159Y418821D01*
X22155Y418851D01*
X22158Y418881D01*
X22135Y419009D01*
X22119Y419137D01*
X22108Y419165D01*
X22103Y419194D01*
X22050Y419312D01*
X22002Y419433D01*
X21985Y419457D01*
X21973Y419484D01*
X21892Y419585D01*
X21816Y419690D01*
X21793Y419709D01*
X21774Y419733D01*
X21670Y419811D01*
X21571Y419893D01*
X21544Y419906D01*
X21520Y419924D01*
X21375Y419995D01*
X18350Y421248D01*
X14848Y424750D01*
X12953Y429324D01*
X12953Y434276D01*
X14848Y438850D01*
X18350Y442352D01*
X21375Y443605D01*
X21401Y443620D01*
X21430Y443629D01*
X21539Y443699D01*
X21652Y443763D01*
X21673Y443784D01*
X21698Y443800D01*
X21787Y443894D01*
X21880Y443984D01*
X21896Y444010D01*
X21916Y444031D01*
X21979Y444145D01*
X22046Y444255D01*
X22055Y444284D01*
X22069Y444310D01*
X22102Y444435D01*
X22140Y444559D01*
X22141Y444589D01*
X22149Y444618D01*
X22149Y444748D01*
X22155Y444877D01*
X22149Y444906D01*
X22149Y444936D01*
X22117Y445061D01*
X22091Y445188D01*
X22078Y445215D01*
X22070Y445244D01*
X22008Y445357D01*
X21951Y445474D01*
X21932Y445497D01*
X21917Y445523D01*
X21829Y445617D01*
X21745Y445716D01*
X21720Y445733D01*
X21700Y445755D01*
X21591Y445824D01*
X21485Y445899D01*
X21457Y445910D01*
X21431Y445926D01*
X21282Y445985D01*
X20817Y446136D01*
X19143Y446989D01*
X17622Y448094D01*
X16294Y449422D01*
X15189Y450943D01*
X14336Y452617D01*
X13755Y454404D01*
X13715Y454661D01*
X24130Y454661D01*
X24248Y454676D01*
X24367Y454683D01*
X24405Y454696D01*
X24445Y454701D01*
X24556Y454744D01*
X24669Y454781D01*
X24703Y454803D01*
X24741Y454818D01*
X24837Y454888D01*
X24938Y454951D01*
X24966Y454981D01*
X24998Y455004D01*
X25074Y455096D01*
X25156Y455183D01*
X25175Y455218D01*
X25201Y455249D01*
X25252Y455357D01*
X25309Y455461D01*
X25320Y455501D01*
X25337Y455537D01*
X25359Y455654D01*
X25389Y455769D01*
X25393Y455830D01*
X25397Y455850D01*
X25395Y455870D01*
X25399Y455930D01*
X25399Y458470D01*
X25384Y458588D01*
X25377Y458707D01*
X25364Y458745D01*
X25359Y458785D01*
X25315Y458896D01*
X25279Y459009D01*
X25257Y459044D01*
X25242Y459081D01*
X25172Y459177D01*
X25109Y459278D01*
X25079Y459306D01*
X25055Y459339D01*
X24964Y459414D01*
X24877Y459496D01*
X24842Y459516D01*
X24810Y459541D01*
X24703Y459592D01*
X24598Y459650D01*
X24559Y459660D01*
X24523Y459677D01*
X24406Y459699D01*
X24291Y459729D01*
X24230Y459733D01*
X24210Y459737D01*
X24190Y459735D01*
X24130Y459739D01*
X13715Y459739D01*
X13755Y459996D01*
X14336Y461783D01*
X15189Y463457D01*
X16294Y464978D01*
X17622Y466306D01*
X19143Y467411D01*
X20817Y468264D01*
X21282Y468415D01*
X21309Y468428D01*
X21338Y468435D01*
X21452Y468495D01*
X21570Y468550D01*
X21593Y468569D01*
X21619Y468583D01*
X21715Y468670D01*
X21815Y468753D01*
X21832Y468777D01*
X21854Y468797D01*
X21925Y468905D01*
X22002Y469010D01*
X22013Y469038D01*
X22029Y469063D01*
X22071Y469186D01*
X22119Y469306D01*
X22123Y469336D01*
X22132Y469364D01*
X22143Y469493D01*
X22159Y469621D01*
X22155Y469651D01*
X22158Y469681D01*
X22135Y469809D01*
X22119Y469937D01*
X22108Y469965D01*
X22103Y469994D01*
X22050Y470112D01*
X22002Y470233D01*
X21985Y470257D01*
X21973Y470284D01*
X21892Y470385D01*
X21816Y470490D01*
X21793Y470509D01*
X21774Y470533D01*
X21670Y470611D01*
X21571Y470693D01*
X21544Y470706D01*
X21520Y470724D01*
X21375Y470795D01*
X18350Y472048D01*
X14848Y475550D01*
X12953Y480124D01*
X12953Y485076D01*
X14848Y489650D01*
X18350Y493152D01*
X22924Y495047D01*
X27876Y495047D01*
X32450Y493152D01*
X35952Y489650D01*
X37847Y485076D01*
X37847Y480124D01*
X35952Y475550D01*
X32450Y472048D01*
X29425Y470795D01*
X29399Y470780D01*
X29370Y470771D01*
X29261Y470701D01*
X29148Y470637D01*
X29127Y470616D01*
X29102Y470600D01*
X29013Y470506D01*
X28920Y470416D01*
X28904Y470390D01*
X28884Y470369D01*
X28821Y470255D01*
X28754Y470145D01*
X28745Y470116D01*
X28731Y470090D01*
X28698Y469965D01*
X28660Y469841D01*
X28659Y469811D01*
X28651Y469782D01*
X28651Y469652D01*
X28645Y469523D01*
X28651Y469494D01*
X28651Y469464D01*
X28683Y469339D01*
X28709Y469212D01*
X28722Y469185D01*
X28730Y469156D01*
X28792Y469043D01*
X28849Y468926D01*
X28868Y468903D01*
X28883Y468877D01*
X28971Y468783D01*
X29055Y468684D01*
X29080Y468667D01*
X29100Y468645D01*
X29209Y468576D01*
X29315Y468501D01*
X29343Y468490D01*
X29369Y468474D01*
X29518Y468415D01*
X29983Y468264D01*
X31657Y467411D01*
X33178Y466306D01*
X34506Y464978D01*
X35611Y463457D01*
X36464Y461783D01*
X37045Y459996D01*
X37085Y459739D01*
X26670Y459739D01*
X26552Y459724D01*
X26433Y459717D01*
X26395Y459704D01*
X26355Y459699D01*
X26244Y459656D01*
X26131Y459619D01*
X26097Y459597D01*
X26059Y459582D01*
X25963Y459512D01*
X25862Y459449D01*
X25834Y459419D01*
X25802Y459395D01*
X25726Y459304D01*
X25644Y459217D01*
X25625Y459182D01*
X25599Y459151D01*
X25548Y459043D01*
X25491Y458939D01*
X25480Y458899D01*
X25463Y458863D01*
X25441Y458746D01*
X25411Y458631D01*
X25407Y458570D01*
X25403Y458550D01*
X25405Y458530D01*
X25401Y458470D01*
X25401Y455930D01*
X25416Y455812D01*
X25423Y455693D01*
X25436Y455655D01*
X25441Y455614D01*
X25485Y455503D01*
X25521Y455391D01*
X25543Y455356D01*
X25558Y455319D01*
X25628Y455223D01*
X25691Y455122D01*
X25721Y455094D01*
X25745Y455061D01*
X25836Y454986D01*
X25923Y454904D01*
X25958Y454884D01*
X25990Y454859D01*
X26097Y454808D01*
X26202Y454750D01*
X26241Y454740D01*
X26277Y454723D01*
X26394Y454701D01*
X26509Y454671D01*
X26570Y454667D01*
X26590Y454663D01*
X26610Y454665D01*
X26670Y454661D01*
X37085Y454661D01*
X37045Y454404D01*
X36464Y452617D01*
X35611Y450943D01*
X34506Y449422D01*
X33178Y448094D01*
X31657Y446989D01*
X29983Y446136D01*
X29518Y445985D01*
X29491Y445972D01*
X29462Y445965D01*
X29348Y445905D01*
X29230Y445850D01*
X29207Y445831D01*
X29181Y445817D01*
X29085Y445730D01*
X28985Y445647D01*
X28968Y445623D01*
X28946Y445603D01*
X28874Y445494D01*
X28798Y445390D01*
X28787Y445362D01*
X28771Y445337D01*
X28729Y445214D01*
X28681Y445094D01*
X28677Y445064D01*
X28668Y445036D01*
X28657Y444907D01*
X28641Y444779D01*
X28645Y444749D01*
X28642Y444719D01*
X28665Y444591D01*
X28681Y444463D01*
X28692Y444435D01*
X28697Y444406D01*
X28750Y444288D01*
X28798Y444167D01*
X28815Y444143D01*
X28827Y444116D01*
X28908Y444015D01*
X28984Y443910D01*
X29007Y443891D01*
X29026Y443867D01*
X29130Y443789D01*
X29229Y443707D01*
X29256Y443694D01*
X29280Y443676D01*
X29425Y443605D01*
X32450Y442352D01*
X35952Y438850D01*
X37847Y434276D01*
X37847Y429324D01*
X35952Y424750D01*
X32450Y421248D01*
X29425Y419995D01*
X29399Y419980D01*
X29370Y419971D01*
X29261Y419901D01*
X29148Y419837D01*
X29127Y419816D01*
X29102Y419800D01*
X29013Y419706D01*
X28920Y419616D01*
X28904Y419590D01*
X28884Y419569D01*
X28821Y419455D01*
X28754Y419345D01*
X28745Y419316D01*
X28731Y419290D01*
X28698Y419165D01*
X28660Y419041D01*
X28659Y419011D01*
X28651Y418982D01*
X28651Y418852D01*
X28645Y418723D01*
X28651Y418694D01*
X28651Y418664D01*
X28683Y418539D01*
X28709Y418412D01*
X28722Y418385D01*
X28730Y418356D01*
X28792Y418243D01*
X28849Y418126D01*
X28868Y418103D01*
X28883Y418077D01*
X28971Y417983D01*
X29055Y417884D01*
X29080Y417867D01*
X29100Y417845D01*
X29209Y417776D01*
X29315Y417701D01*
X29343Y417690D01*
X29369Y417674D01*
X29518Y417615D01*
X29983Y417464D01*
X31657Y416611D01*
X33178Y415506D01*
X34506Y414178D01*
X35611Y412657D01*
X36464Y410983D01*
X37045Y409196D01*
X37085Y408939D01*
X26670Y408939D01*
X26552Y408924D01*
X26433Y408917D01*
X26395Y408904D01*
X26355Y408899D01*
X26244Y408856D01*
X26131Y408819D01*
X26097Y408797D01*
X26059Y408782D01*
X25963Y408712D01*
X25862Y408649D01*
X25834Y408619D01*
X25802Y408595D01*
X25726Y408504D01*
X25644Y408417D01*
X25625Y408382D01*
X25599Y408351D01*
X25548Y408243D01*
X25491Y408139D01*
X25480Y408099D01*
X25463Y408063D01*
X25441Y407946D01*
X25411Y407831D01*
X25407Y407770D01*
X25403Y407750D01*
X25405Y407730D01*
X25401Y407670D01*
X25401Y405130D01*
X25416Y405012D01*
X25423Y404893D01*
X25436Y404855D01*
X25441Y404814D01*
X25485Y404704D01*
X25521Y404591D01*
X25543Y404556D01*
X25558Y404519D01*
X25628Y404423D01*
X25691Y404322D01*
X25721Y404294D01*
X25745Y404261D01*
X25836Y404186D01*
X25923Y404104D01*
X25958Y404084D01*
X25990Y404059D01*
X26097Y404008D01*
X26202Y403950D01*
X26241Y403940D01*
X26277Y403923D01*
X26394Y403901D01*
X26509Y403871D01*
X26570Y403867D01*
X26590Y403863D01*
X26610Y403865D01*
X26670Y403861D01*
X37085Y403861D01*
X37045Y403604D01*
X36464Y401817D01*
X35611Y400143D01*
X34506Y398622D01*
X33178Y397294D01*
X31657Y396189D01*
X29983Y395336D01*
X29518Y395185D01*
X29491Y395172D01*
X29462Y395165D01*
X29381Y395122D01*
X29299Y395090D01*
X29268Y395067D01*
X29230Y395050D01*
X29207Y395031D01*
X29181Y395017D01*
X29113Y394955D01*
X29042Y394903D01*
X29017Y394873D01*
X28985Y394847D01*
X28968Y394823D01*
X28946Y394803D01*
X28895Y394726D01*
X28839Y394658D01*
X28823Y394623D01*
X28798Y394590D01*
X28787Y394562D01*
X28771Y394537D01*
X28741Y394450D01*
X28704Y394371D01*
X28696Y394333D01*
X28681Y394294D01*
X28677Y394264D01*
X28668Y394236D01*
X28660Y394144D01*
X28644Y394058D01*
X28646Y394020D01*
X28641Y393979D01*
X28645Y393949D01*
X28642Y393919D01*
X28658Y393828D01*
X28664Y393741D01*
X28676Y393704D01*
X28681Y393663D01*
X28692Y393635D01*
X28697Y393606D01*
X28735Y393522D01*
X28762Y393438D01*
X28783Y393405D01*
X28798Y393367D01*
X28815Y393343D01*
X28827Y393316D01*
X28884Y393245D01*
X28932Y393170D01*
X28960Y393143D01*
X28984Y393110D01*
X29007Y393091D01*
X29026Y393067D01*
X29099Y393013D01*
X29163Y392952D01*
X29198Y392933D01*
X29229Y392907D01*
X29256Y392894D01*
X29280Y392876D01*
X29425Y392805D01*
X32450Y391552D01*
X35952Y388050D01*
X37847Y383476D01*
X37847Y378524D01*
X35952Y373950D01*
X32450Y370448D01*
X29425Y369195D01*
X29399Y369180D01*
X29370Y369171D01*
X29261Y369101D01*
X29148Y369037D01*
X29127Y369017D01*
X29102Y369001D01*
X29013Y368906D01*
X28920Y368816D01*
X28904Y368791D01*
X28884Y368769D01*
X28821Y368655D01*
X28754Y368545D01*
X28745Y368516D01*
X28731Y368490D01*
X28698Y368365D01*
X28660Y368241D01*
X28659Y368211D01*
X28651Y368182D01*
X28651Y368052D01*
X28645Y367923D01*
X28651Y367894D01*
X28651Y367864D01*
X28683Y367739D01*
X28709Y367612D01*
X28722Y367585D01*
X28730Y367556D01*
X28792Y367443D01*
X28849Y367326D01*
X28868Y367303D01*
X28883Y367277D01*
X28971Y367183D01*
X29055Y367084D01*
X29080Y367067D01*
X29100Y367045D01*
X29209Y366976D01*
X29315Y366901D01*
X29343Y366890D01*
X29368Y366874D01*
X29518Y366815D01*
X29983Y366664D01*
X31657Y365811D01*
X33178Y364706D01*
X34506Y363378D01*
X35611Y361857D01*
X36464Y360183D01*
X37045Y358396D01*
X37085Y358139D01*
X26670Y358139D01*
X26552Y358124D01*
X26433Y358117D01*
X26395Y358104D01*
X26355Y358099D01*
X26244Y358056D01*
X26131Y358019D01*
X26097Y357997D01*
X26059Y357982D01*
X25963Y357912D01*
X25862Y357849D01*
X25834Y357819D01*
X25802Y357795D01*
X25726Y357704D01*
X25644Y357617D01*
X25625Y357582D01*
X25599Y357551D01*
X25548Y357443D01*
X25491Y357339D01*
X25480Y357299D01*
X25463Y357263D01*
X25441Y357146D01*
X25411Y357031D01*
X25407Y356970D01*
X25403Y356950D01*
X25405Y356930D01*
X25401Y356870D01*
X25401Y354330D01*
X25416Y354212D01*
X25423Y354093D01*
X25436Y354055D01*
X25441Y354014D01*
X25485Y353904D01*
X25521Y353791D01*
X25543Y353756D01*
X25558Y353719D01*
X25628Y353623D01*
X25691Y353522D01*
X25721Y353494D01*
X25745Y353461D01*
X25836Y353386D01*
X25923Y353304D01*
X25958Y353284D01*
X25990Y353259D01*
X26097Y353208D01*
X26202Y353150D01*
X26241Y353140D01*
X26277Y353123D01*
X26394Y353101D01*
X26509Y353071D01*
X26570Y353067D01*
X26590Y353063D01*
X26610Y353065D01*
X26670Y353061D01*
X37085Y353061D01*
X37045Y352804D01*
X36464Y351017D01*
X35611Y349343D01*
X34506Y347822D01*
X33178Y346494D01*
X31657Y345389D01*
X29983Y344536D01*
X29518Y344385D01*
X29491Y344372D01*
X29462Y344365D01*
X29347Y344305D01*
X29230Y344250D01*
X29207Y344231D01*
X29181Y344217D01*
X29085Y344129D01*
X28985Y344047D01*
X28968Y344023D01*
X28946Y344003D01*
X28874Y343894D01*
X28798Y343790D01*
X28787Y343762D01*
X28771Y343737D01*
X28729Y343614D01*
X28681Y343494D01*
X28677Y343464D01*
X28668Y343436D01*
X28657Y343307D01*
X28641Y343179D01*
X28645Y343149D01*
X28642Y343119D01*
X28665Y342991D01*
X28681Y342863D01*
X28692Y342835D01*
X28697Y342806D01*
X28750Y342688D01*
X28798Y342567D01*
X28815Y342543D01*
X28827Y342516D01*
X28908Y342415D01*
X28984Y342310D01*
X29007Y342291D01*
X29026Y342267D01*
X29129Y342190D01*
X29229Y342107D01*
X29256Y342094D01*
X29280Y342076D01*
X29425Y342005D01*
X32450Y340752D01*
X35952Y337250D01*
X37847Y332676D01*
X37847Y327724D01*
X35952Y323150D01*
X32450Y319648D01*
X29425Y318395D01*
X29399Y318380D01*
X29370Y318371D01*
X29261Y318301D01*
X29148Y318237D01*
X29127Y318216D01*
X29102Y318200D01*
X29013Y318106D01*
X28920Y318016D01*
X28904Y317990D01*
X28884Y317969D01*
X28821Y317855D01*
X28754Y317745D01*
X28745Y317716D01*
X28731Y317690D01*
X28698Y317565D01*
X28660Y317441D01*
X28659Y317411D01*
X28651Y317382D01*
X28651Y317252D01*
X28645Y317123D01*
X28651Y317094D01*
X28651Y317064D01*
X28683Y316939D01*
X28709Y316812D01*
X28722Y316785D01*
X28730Y316756D01*
X28792Y316643D01*
X28849Y316526D01*
X28868Y316503D01*
X28883Y316477D01*
X28971Y316383D01*
X29055Y316284D01*
X29080Y316267D01*
X29100Y316245D01*
X29209Y316176D01*
X29315Y316101D01*
X29343Y316090D01*
X29369Y316074D01*
X29518Y316015D01*
X29983Y315864D01*
X31657Y315011D01*
X33178Y313906D01*
X34506Y312578D01*
X35611Y311057D01*
X36464Y309383D01*
X37045Y307596D01*
X37085Y307339D01*
X26670Y307339D01*
X26552Y307324D01*
X26433Y307317D01*
X26395Y307304D01*
X26355Y307299D01*
X26244Y307256D01*
X26131Y307219D01*
X26097Y307197D01*
X26059Y307182D01*
X25963Y307112D01*
X25862Y307049D01*
X25834Y307019D01*
X25802Y306995D01*
X25726Y306904D01*
X25644Y306817D01*
X25625Y306782D01*
X25599Y306751D01*
X25548Y306643D01*
X25491Y306539D01*
X25480Y306499D01*
X25463Y306463D01*
X25441Y306346D01*
X25411Y306231D01*
X25407Y306170D01*
X25403Y306150D01*
X25405Y306130D01*
X25401Y306070D01*
X25401Y303530D01*
X25416Y303412D01*
X25423Y303293D01*
X25436Y303255D01*
X25441Y303214D01*
X25485Y303104D01*
X25521Y302991D01*
X25543Y302956D01*
X25558Y302919D01*
X25628Y302823D01*
X25691Y302722D01*
X25721Y302694D01*
X25745Y302661D01*
X25836Y302586D01*
X25923Y302504D01*
X25958Y302484D01*
X25990Y302459D01*
X26097Y302408D01*
X26202Y302350D01*
X26241Y302340D01*
X26277Y302323D01*
X26394Y302301D01*
X26509Y302271D01*
X26570Y302267D01*
X26590Y302263D01*
X26610Y302265D01*
X26670Y302261D01*
X37085Y302261D01*
X37045Y302004D01*
X36464Y300217D01*
X35611Y298543D01*
X34506Y297022D01*
X33178Y295694D01*
X31657Y294589D01*
X29983Y293736D01*
X29518Y293585D01*
X29491Y293572D01*
X29462Y293565D01*
X29348Y293505D01*
X29230Y293450D01*
X29207Y293431D01*
X29181Y293417D01*
X29085Y293330D01*
X28985Y293247D01*
X28968Y293223D01*
X28946Y293203D01*
X28874Y293094D01*
X28798Y292990D01*
X28787Y292962D01*
X28771Y292937D01*
X28729Y292814D01*
X28681Y292694D01*
X28677Y292664D01*
X28668Y292636D01*
X28657Y292507D01*
X28641Y292379D01*
X28645Y292349D01*
X28642Y292319D01*
X28665Y292191D01*
X28681Y292063D01*
X28692Y292035D01*
X28697Y292006D01*
X28750Y291888D01*
X28798Y291767D01*
X28815Y291743D01*
X28827Y291716D01*
X28908Y291615D01*
X28984Y291510D01*
X29007Y291491D01*
X29026Y291467D01*
X29130Y291389D01*
X29229Y291307D01*
X29256Y291294D01*
X29280Y291276D01*
X29425Y291205D01*
X32450Y289952D01*
X35952Y286450D01*
X37847Y281876D01*
X37847Y276924D01*
X35952Y272350D01*
X32450Y268848D01*
X29425Y267595D01*
X29399Y267580D01*
X29370Y267571D01*
X29261Y267501D01*
X29148Y267437D01*
X29127Y267416D01*
X29102Y267400D01*
X29013Y267306D01*
X28920Y267216D01*
X28904Y267190D01*
X28884Y267169D01*
X28821Y267055D01*
X28754Y266945D01*
X28745Y266916D01*
X28731Y266890D01*
X28698Y266765D01*
X28660Y266641D01*
X28659Y266611D01*
X28651Y266582D01*
X28651Y266452D01*
X28645Y266323D01*
X28651Y266294D01*
X28651Y266264D01*
X28683Y266139D01*
X28709Y266012D01*
X28722Y265985D01*
X28730Y265956D01*
X28792Y265843D01*
X28849Y265726D01*
X28868Y265703D01*
X28883Y265677D01*
X28971Y265583D01*
X29055Y265484D01*
X29080Y265467D01*
X29100Y265445D01*
X29209Y265376D01*
X29315Y265301D01*
X29343Y265290D01*
X29369Y265274D01*
X29518Y265215D01*
X29983Y265064D01*
X31657Y264211D01*
X33178Y263106D01*
X34506Y261778D01*
X35611Y260257D01*
X36464Y258583D01*
X37045Y256796D01*
X37085Y256539D01*
X26670Y256539D01*
X26552Y256524D01*
X26433Y256517D01*
X26395Y256504D01*
X26355Y256499D01*
X26244Y256456D01*
X26131Y256419D01*
X26097Y256397D01*
X26059Y256382D01*
X25963Y256312D01*
X25862Y256249D01*
X25834Y256219D01*
X25802Y256195D01*
X25726Y256104D01*
X25644Y256017D01*
X25625Y255982D01*
X25599Y255951D01*
X25548Y255843D01*
X25491Y255739D01*
X25480Y255699D01*
X25463Y255663D01*
X25441Y255546D01*
X25411Y255431D01*
X25407Y255370D01*
X25403Y255350D01*
X25405Y255330D01*
X25401Y255270D01*
X25401Y252730D01*
X25416Y252612D01*
X25423Y252493D01*
X25436Y252455D01*
X25441Y252414D01*
X25485Y252304D01*
X25521Y252191D01*
X25543Y252156D01*
X25558Y252119D01*
X25628Y252023D01*
X25691Y251922D01*
X25721Y251894D01*
X25745Y251861D01*
X25836Y251786D01*
X25923Y251704D01*
X25958Y251684D01*
X25990Y251659D01*
X26097Y251608D01*
X26202Y251550D01*
X26241Y251540D01*
X26277Y251523D01*
X26394Y251501D01*
X26509Y251471D01*
X26570Y251467D01*
X26590Y251463D01*
X26610Y251465D01*
X26670Y251461D01*
X37085Y251461D01*
X37045Y251204D01*
X36961Y250945D01*
X36464Y249417D01*
X35611Y247743D01*
X34506Y246222D01*
X33178Y244894D01*
X31657Y243789D01*
X29983Y242936D01*
X29518Y242785D01*
X29491Y242772D01*
X29462Y242765D01*
X29348Y242705D01*
X29230Y242650D01*
X29207Y242631D01*
X29181Y242617D01*
X29085Y242530D01*
X28985Y242447D01*
X28968Y242423D01*
X28946Y242403D01*
X28874Y242294D01*
X28798Y242190D01*
X28787Y242162D01*
X28771Y242137D01*
X28729Y242014D01*
X28681Y241894D01*
X28677Y241864D01*
X28668Y241836D01*
X28657Y241707D01*
X28641Y241579D01*
X28645Y241549D01*
X28642Y241519D01*
X28665Y241391D01*
X28681Y241263D01*
X28692Y241235D01*
X28697Y241206D01*
X28750Y241088D01*
X28798Y240967D01*
X28815Y240943D01*
X28827Y240916D01*
X28908Y240815D01*
X28984Y240710D01*
X29007Y240691D01*
X29026Y240667D01*
X29130Y240589D01*
X29229Y240507D01*
X29256Y240494D01*
X29280Y240476D01*
X29425Y240405D01*
X32450Y239152D01*
X35952Y235650D01*
X37847Y231076D01*
X37847Y226124D01*
X35952Y221550D01*
X32450Y218048D01*
X29425Y216795D01*
X29399Y216780D01*
X29370Y216771D01*
X29261Y216701D01*
X29148Y216637D01*
X29127Y216616D01*
X29102Y216600D01*
X29013Y216506D01*
X28920Y216416D01*
X28904Y216390D01*
X28884Y216369D01*
X28821Y216255D01*
X28754Y216145D01*
X28745Y216116D01*
X28731Y216090D01*
X28698Y215965D01*
X28660Y215841D01*
X28659Y215811D01*
X28651Y215782D01*
X28651Y215652D01*
X28645Y215523D01*
X28651Y215494D01*
X28651Y215464D01*
X28683Y215339D01*
X28709Y215212D01*
X28722Y215185D01*
X28730Y215156D01*
X28792Y215043D01*
X28849Y214926D01*
X28868Y214903D01*
X28883Y214877D01*
X28971Y214783D01*
X29055Y214684D01*
X29080Y214667D01*
X29100Y214645D01*
X29209Y214576D01*
X29315Y214501D01*
X29343Y214490D01*
X29369Y214474D01*
X29518Y214415D01*
X29983Y214264D01*
X31657Y213411D01*
X33178Y212306D01*
X34506Y210978D01*
X35611Y209457D01*
X36464Y207783D01*
X37045Y205996D01*
X37085Y205739D01*
X26670Y205739D01*
X26552Y205724D01*
X26433Y205717D01*
X26395Y205704D01*
X26355Y205699D01*
X26244Y205656D01*
X26131Y205619D01*
X26097Y205597D01*
X26059Y205582D01*
X25963Y205512D01*
X25862Y205449D01*
X25834Y205419D01*
X25802Y205395D01*
X25726Y205304D01*
X25644Y205217D01*
X25625Y205182D01*
X25599Y205151D01*
X25548Y205043D01*
X25491Y204939D01*
X25480Y204899D01*
X25463Y204863D01*
X25441Y204746D01*
X25411Y204631D01*
X25407Y204570D01*
X25403Y204550D01*
X25405Y204530D01*
X25401Y204470D01*
X25401Y203199D01*
X25399Y203199D01*
G37*
%LPD*%
%LPC*%
G36*
X50281Y75691D02*
X50281Y75691D01*
X26161Y99811D01*
X26161Y114170D01*
X26158Y114199D01*
X26160Y114229D01*
X26138Y114357D01*
X26121Y114485D01*
X26111Y114513D01*
X26106Y114542D01*
X26052Y114660D01*
X26004Y114781D01*
X25987Y114805D01*
X25975Y114832D01*
X25894Y114933D01*
X25818Y115038D01*
X25795Y115057D01*
X25776Y115080D01*
X25673Y115158D01*
X25573Y115241D01*
X25546Y115254D01*
X25522Y115272D01*
X25378Y115342D01*
X24268Y115802D01*
X20552Y119518D01*
X18541Y124373D01*
X18541Y129627D01*
X20552Y134482D01*
X24268Y138198D01*
X29123Y140209D01*
X34377Y140209D01*
X39232Y138198D01*
X42948Y134482D01*
X44547Y130620D01*
X44616Y130500D01*
X44681Y130377D01*
X44695Y130362D01*
X44705Y130344D01*
X44802Y130244D01*
X44895Y130141D01*
X44912Y130130D01*
X44926Y130116D01*
X45045Y130043D01*
X45161Y129967D01*
X45180Y129960D01*
X45197Y129950D01*
X45330Y129909D01*
X45462Y129864D01*
X45482Y129862D01*
X45501Y129856D01*
X45640Y129849D01*
X45779Y129838D01*
X45799Y129842D01*
X45819Y129841D01*
X45955Y129869D01*
X46092Y129893D01*
X46111Y129901D01*
X46130Y129905D01*
X46256Y129966D01*
X46382Y130023D01*
X46398Y130036D01*
X46416Y130045D01*
X46522Y130135D01*
X46630Y130222D01*
X46643Y130238D01*
X46658Y130251D01*
X46738Y130365D01*
X46822Y130476D01*
X46834Y130501D01*
X46841Y130511D01*
X46848Y130530D01*
X46893Y130620D01*
X48492Y134482D01*
X52208Y138198D01*
X57063Y140209D01*
X62317Y140209D01*
X67172Y138198D01*
X70888Y134482D01*
X72899Y129627D01*
X72899Y124373D01*
X70888Y119518D01*
X67172Y115802D01*
X62317Y113791D01*
X57063Y113791D01*
X52208Y115802D01*
X48492Y119518D01*
X46893Y123380D01*
X46824Y123500D01*
X46759Y123623D01*
X46745Y123638D01*
X46735Y123656D01*
X46638Y123756D01*
X46545Y123859D01*
X46528Y123870D01*
X46514Y123884D01*
X46396Y123957D01*
X46279Y124033D01*
X46260Y124040D01*
X46243Y124050D01*
X46110Y124091D01*
X45978Y124136D01*
X45958Y124138D01*
X45939Y124144D01*
X45800Y124151D01*
X45661Y124162D01*
X45641Y124158D01*
X45621Y124159D01*
X45485Y124131D01*
X45348Y124107D01*
X45329Y124099D01*
X45310Y124095D01*
X45185Y124034D01*
X45058Y123977D01*
X45042Y123964D01*
X45024Y123955D01*
X44918Y123865D01*
X44810Y123778D01*
X44797Y123762D01*
X44782Y123749D01*
X44702Y123635D01*
X44618Y123524D01*
X44606Y123499D01*
X44599Y123489D01*
X44592Y123470D01*
X44547Y123380D01*
X42948Y119518D01*
X39232Y115802D01*
X35582Y114290D01*
X35557Y114276D01*
X35529Y114267D01*
X35419Y114197D01*
X35306Y114133D01*
X35285Y114112D01*
X35260Y114096D01*
X35171Y114002D01*
X35078Y113912D01*
X35062Y113886D01*
X35042Y113865D01*
X34979Y113751D01*
X34911Y113640D01*
X34903Y113612D01*
X34888Y113586D01*
X34856Y113461D01*
X34818Y113336D01*
X34816Y113307D01*
X34809Y113278D01*
X34799Y113118D01*
X34799Y103915D01*
X34811Y103816D01*
X34814Y103717D01*
X34831Y103659D01*
X34839Y103599D01*
X34875Y103507D01*
X34903Y103412D01*
X34933Y103360D01*
X34956Y103303D01*
X35014Y103223D01*
X35064Y103138D01*
X35130Y103063D01*
X35142Y103046D01*
X35152Y103038D01*
X35170Y103017D01*
X53487Y84700D01*
X53565Y84640D01*
X53638Y84572D01*
X53691Y84543D01*
X53738Y84506D01*
X53829Y84466D01*
X53916Y84418D01*
X53975Y84403D01*
X54030Y84379D01*
X54128Y84364D01*
X54224Y84339D01*
X54324Y84333D01*
X54344Y84329D01*
X54357Y84331D01*
X54385Y84329D01*
X60644Y84329D01*
X60742Y84341D01*
X60841Y84344D01*
X60899Y84361D01*
X60959Y84369D01*
X61051Y84405D01*
X61147Y84433D01*
X61199Y84463D01*
X61255Y84486D01*
X61335Y84544D01*
X61420Y84594D01*
X61496Y84660D01*
X61512Y84672D01*
X61520Y84682D01*
X61541Y84700D01*
X100472Y123632D01*
X100490Y123655D01*
X100513Y123674D01*
X100588Y123780D01*
X100667Y123883D01*
X100679Y123910D01*
X100696Y123934D01*
X100742Y124055D01*
X100794Y124175D01*
X100798Y124204D01*
X100809Y124231D01*
X100823Y124360D01*
X100843Y124489D01*
X100841Y124518D01*
X100844Y124547D01*
X100826Y124676D01*
X100814Y124805D01*
X100804Y124833D01*
X100800Y124862D01*
X100747Y125015D01*
X100312Y126065D01*
X100312Y131017D01*
X102207Y135591D01*
X105709Y139093D01*
X110468Y141064D01*
X110493Y141078D01*
X110521Y141088D01*
X110631Y141157D01*
X110744Y141221D01*
X110765Y141242D01*
X110790Y141258D01*
X110879Y141352D01*
X110972Y141443D01*
X110988Y141468D01*
X111008Y141489D01*
X111071Y141603D01*
X111139Y141714D01*
X111147Y141742D01*
X111162Y141768D01*
X111194Y141894D01*
X111232Y142018D01*
X111234Y142047D01*
X111241Y142076D01*
X111251Y142236D01*
X111251Y227944D01*
X111248Y227973D01*
X111250Y228002D01*
X111228Y228130D01*
X111211Y228259D01*
X111201Y228287D01*
X111196Y228316D01*
X111142Y228434D01*
X111094Y228555D01*
X111077Y228579D01*
X111065Y228606D01*
X110984Y228707D01*
X110908Y228812D01*
X110885Y228831D01*
X110866Y228854D01*
X110763Y228932D01*
X110663Y229015D01*
X110636Y229028D01*
X110612Y229045D01*
X110468Y229116D01*
X108088Y230102D01*
X104372Y233818D01*
X102773Y237680D01*
X102704Y237800D01*
X102639Y237923D01*
X102625Y237938D01*
X102615Y237956D01*
X102518Y238056D01*
X102425Y238159D01*
X102408Y238170D01*
X102394Y238184D01*
X102275Y238257D01*
X102159Y238333D01*
X102140Y238340D01*
X102123Y238350D01*
X101990Y238391D01*
X101858Y238436D01*
X101838Y238438D01*
X101819Y238444D01*
X101680Y238451D01*
X101541Y238462D01*
X101521Y238458D01*
X101501Y238459D01*
X101365Y238431D01*
X101228Y238407D01*
X101209Y238399D01*
X101190Y238395D01*
X101064Y238334D01*
X100938Y238277D01*
X100922Y238264D01*
X100904Y238255D01*
X100798Y238165D01*
X100690Y238078D01*
X100677Y238062D01*
X100662Y238049D01*
X100582Y237935D01*
X100498Y237824D01*
X100486Y237799D01*
X100479Y237789D01*
X100472Y237770D01*
X100427Y237680D01*
X98828Y233818D01*
X95112Y230102D01*
X90257Y228091D01*
X85003Y228091D01*
X80148Y230102D01*
X76432Y233818D01*
X74421Y238673D01*
X74421Y243927D01*
X76432Y248782D01*
X80148Y252498D01*
X85003Y254509D01*
X90257Y254509D01*
X95112Y252498D01*
X98828Y248782D01*
X100427Y244920D01*
X100496Y244800D01*
X100561Y244677D01*
X100575Y244662D01*
X100585Y244644D01*
X100682Y244544D01*
X100775Y244441D01*
X100792Y244430D01*
X100806Y244416D01*
X100924Y244343D01*
X101041Y244267D01*
X101060Y244260D01*
X101077Y244250D01*
X101210Y244209D01*
X101342Y244164D01*
X101362Y244162D01*
X101381Y244156D01*
X101520Y244149D01*
X101659Y244138D01*
X101679Y244142D01*
X101699Y244141D01*
X101835Y244169D01*
X101972Y244193D01*
X101991Y244201D01*
X102010Y244205D01*
X102135Y244266D01*
X102262Y244323D01*
X102278Y244336D01*
X102296Y244345D01*
X102402Y244435D01*
X102510Y244522D01*
X102523Y244538D01*
X102538Y244551D01*
X102618Y244665D01*
X102702Y244776D01*
X102714Y244801D01*
X102721Y244811D01*
X102728Y244830D01*
X102773Y244920D01*
X104372Y248782D01*
X108088Y252498D01*
X112943Y254509D01*
X118197Y254509D01*
X123052Y252498D01*
X126768Y248782D01*
X128779Y243927D01*
X128779Y238673D01*
X126768Y233818D01*
X123052Y230102D01*
X120672Y229116D01*
X120647Y229102D01*
X120619Y229093D01*
X120509Y229023D01*
X120396Y228959D01*
X120375Y228938D01*
X120350Y228923D01*
X120261Y228828D01*
X120168Y228738D01*
X120152Y228712D01*
X120132Y228691D01*
X120069Y228577D01*
X120001Y228466D01*
X119993Y228438D01*
X119978Y228412D01*
X119946Y228287D01*
X119908Y228163D01*
X119906Y228133D01*
X119899Y228104D01*
X119889Y227944D01*
X119889Y139539D01*
X119901Y139441D01*
X119904Y139342D01*
X119921Y139284D01*
X119929Y139224D01*
X119965Y139132D01*
X119993Y139037D01*
X120023Y138984D01*
X120046Y138928D01*
X120104Y138848D01*
X120154Y138763D01*
X120220Y138687D01*
X120232Y138671D01*
X120242Y138663D01*
X120260Y138642D01*
X123311Y135591D01*
X125206Y131017D01*
X125206Y126065D01*
X123311Y121490D01*
X119810Y117989D01*
X115235Y116094D01*
X110283Y116094D01*
X107437Y117273D01*
X107409Y117281D01*
X107382Y117294D01*
X107256Y117323D01*
X107130Y117357D01*
X107101Y117357D01*
X107072Y117364D01*
X106942Y117360D01*
X106812Y117362D01*
X106784Y117355D01*
X106754Y117354D01*
X106630Y117318D01*
X106503Y117288D01*
X106477Y117274D01*
X106449Y117266D01*
X106337Y117200D01*
X106222Y117139D01*
X106200Y117119D01*
X106175Y117104D01*
X106054Y116998D01*
X67649Y78593D01*
X64747Y75691D01*
X50281Y75691D01*
G37*
%LPD*%
%LPC*%
G36*
X594677Y306323D02*
X594677Y306323D01*
X590569Y308025D01*
X587425Y311169D01*
X586916Y312398D01*
X586901Y312423D01*
X586892Y312451D01*
X586823Y312561D01*
X586758Y312674D01*
X586738Y312695D01*
X586722Y312720D01*
X586627Y312809D01*
X586537Y312902D01*
X586512Y312918D01*
X586490Y312938D01*
X586377Y313001D01*
X586266Y313069D01*
X586238Y313077D01*
X586212Y313092D01*
X586086Y313124D01*
X585962Y313162D01*
X585932Y313164D01*
X585904Y313171D01*
X585743Y313181D01*
X574791Y313181D01*
X465581Y422391D01*
X465581Y454885D01*
X465569Y454984D01*
X465566Y455083D01*
X465549Y455141D01*
X465541Y455201D01*
X465505Y455293D01*
X465477Y455388D01*
X465447Y455440D01*
X465424Y455497D01*
X465366Y455577D01*
X465316Y455662D01*
X465276Y455707D01*
X465274Y455710D01*
X465271Y455713D01*
X465250Y455737D01*
X465238Y455754D01*
X465228Y455762D01*
X465210Y455783D01*
X455783Y465210D01*
X455705Y465270D01*
X455632Y465338D01*
X455579Y465367D01*
X455532Y465404D01*
X455441Y465444D01*
X455354Y465492D01*
X455295Y465507D01*
X455240Y465531D01*
X455142Y465546D01*
X455046Y465571D01*
X454946Y465577D01*
X454926Y465581D01*
X454913Y465579D01*
X454885Y465581D01*
X445516Y465581D01*
X445398Y465566D01*
X445279Y465559D01*
X445241Y465546D01*
X445200Y465541D01*
X445090Y465498D01*
X444977Y465461D01*
X444942Y465439D01*
X444905Y465424D01*
X444809Y465355D01*
X444708Y465291D01*
X444680Y465261D01*
X444647Y465238D01*
X444571Y465146D01*
X444490Y465059D01*
X444470Y465024D01*
X444445Y464993D01*
X444394Y464885D01*
X444336Y464781D01*
X444326Y464741D01*
X444309Y464705D01*
X444287Y464588D01*
X444257Y464473D01*
X444253Y464413D01*
X444249Y464393D01*
X444251Y464372D01*
X444247Y464312D01*
X444247Y461074D01*
X443264Y458702D01*
X443251Y458654D01*
X443230Y458609D01*
X443209Y458501D01*
X443180Y458395D01*
X443179Y458345D01*
X443170Y458296D01*
X443177Y458187D01*
X443175Y458077D01*
X443187Y458029D01*
X443190Y457979D01*
X443224Y457875D01*
X443249Y457768D01*
X443272Y457724D01*
X443288Y457677D01*
X443347Y457584D01*
X443398Y457487D01*
X443431Y457450D01*
X443458Y457408D01*
X443538Y457333D01*
X443612Y457251D01*
X443653Y457224D01*
X443690Y457190D01*
X443786Y457137D01*
X443878Y457077D01*
X443925Y457060D01*
X443968Y457036D01*
X444074Y457009D01*
X444178Y456973D01*
X444228Y456969D01*
X444276Y456957D01*
X444437Y456947D01*
X446976Y456947D01*
X451550Y455052D01*
X455052Y451550D01*
X456947Y446976D01*
X456947Y442024D01*
X455052Y437450D01*
X451550Y433948D01*
X446976Y432053D01*
X442024Y432053D01*
X437450Y433948D01*
X433948Y437450D01*
X432973Y439805D01*
X432904Y439925D01*
X432839Y440048D01*
X432825Y440063D01*
X432815Y440081D01*
X432718Y440181D01*
X432625Y440284D01*
X432608Y440295D01*
X432594Y440309D01*
X432475Y440382D01*
X432359Y440458D01*
X432340Y440465D01*
X432323Y440476D01*
X432190Y440516D01*
X432058Y440562D01*
X432038Y440563D01*
X432019Y440569D01*
X431880Y440576D01*
X431741Y440587D01*
X431721Y440583D01*
X431701Y440584D01*
X431565Y440556D01*
X431428Y440532D01*
X431409Y440524D01*
X431390Y440520D01*
X431264Y440459D01*
X431138Y440402D01*
X431122Y440389D01*
X431104Y440380D01*
X430998Y440290D01*
X430890Y440203D01*
X430877Y440187D01*
X430862Y440174D01*
X430782Y440060D01*
X430698Y439949D01*
X430686Y439924D01*
X430679Y439914D01*
X430672Y439895D01*
X430627Y439805D01*
X429652Y437450D01*
X426150Y433948D01*
X421576Y432053D01*
X416624Y432053D01*
X412050Y433948D01*
X408548Y437450D01*
X406653Y442024D01*
X406653Y446976D01*
X408548Y451550D01*
X412050Y455052D01*
X416624Y456947D01*
X419163Y456947D01*
X419213Y456953D01*
X419262Y456951D01*
X419370Y456973D01*
X419479Y456987D01*
X419525Y457005D01*
X419574Y457015D01*
X419672Y457063D01*
X419775Y457104D01*
X419815Y457133D01*
X419859Y457155D01*
X419943Y457226D01*
X420032Y457290D01*
X420064Y457329D01*
X420101Y457361D01*
X420165Y457451D01*
X420235Y457535D01*
X420256Y457580D01*
X420285Y457621D01*
X420323Y457724D01*
X420370Y457823D01*
X420380Y457872D01*
X420397Y457918D01*
X420409Y458028D01*
X420430Y458135D01*
X420427Y458185D01*
X420432Y458234D01*
X420417Y458343D01*
X420410Y458453D01*
X420395Y458500D01*
X420388Y458549D01*
X420336Y458702D01*
X419353Y461074D01*
X419353Y466026D01*
X421248Y470600D01*
X424750Y474102D01*
X429324Y475997D01*
X434276Y475997D01*
X438335Y474315D01*
X438344Y474313D01*
X438352Y474308D01*
X438497Y474271D01*
X438642Y474231D01*
X438651Y474231D01*
X438660Y474229D01*
X438821Y474219D01*
X458989Y474219D01*
X474219Y458989D01*
X474219Y426495D01*
X474231Y426396D01*
X474234Y426297D01*
X474251Y426239D01*
X474259Y426179D01*
X474295Y426087D01*
X474323Y425992D01*
X474353Y425940D01*
X474376Y425883D01*
X474434Y425803D01*
X474484Y425718D01*
X474550Y425643D01*
X474562Y425626D01*
X474572Y425618D01*
X474590Y425597D01*
X577997Y322190D01*
X578075Y322130D01*
X578148Y322062D01*
X578201Y322033D01*
X578248Y321996D01*
X578339Y321956D01*
X578426Y321908D01*
X578485Y321893D01*
X578540Y321869D01*
X578638Y321854D01*
X578734Y321829D01*
X578834Y321823D01*
X578854Y321819D01*
X578867Y321821D01*
X578895Y321819D01*
X585743Y321819D01*
X585773Y321822D01*
X585802Y321820D01*
X585930Y321842D01*
X586059Y321859D01*
X586086Y321869D01*
X586115Y321874D01*
X586234Y321928D01*
X586354Y321976D01*
X586378Y321993D01*
X586405Y322005D01*
X586507Y322086D01*
X586612Y322162D01*
X586631Y322185D01*
X586654Y322204D01*
X586732Y322307D01*
X586815Y322407D01*
X586827Y322434D01*
X586845Y322458D01*
X586916Y322602D01*
X587425Y323831D01*
X590569Y326975D01*
X594677Y328677D01*
X599123Y328677D01*
X603231Y326975D01*
X606375Y323831D01*
X608077Y319723D01*
X608077Y315277D01*
X606375Y311169D01*
X603231Y308025D01*
X599123Y306323D01*
X594677Y306323D01*
G37*
%LPD*%
%LPC*%
G36*
X217667Y271525D02*
X217667Y271525D01*
X198881Y290311D01*
X198881Y315185D01*
X198869Y315284D01*
X198866Y315383D01*
X198849Y315441D01*
X198841Y315501D01*
X198805Y315593D01*
X198777Y315688D01*
X198747Y315740D01*
X198724Y315797D01*
X198666Y315877D01*
X198616Y315962D01*
X198550Y316037D01*
X198538Y316054D01*
X198528Y316062D01*
X198510Y316083D01*
X190699Y323894D01*
X190604Y323967D01*
X190515Y324045D01*
X190479Y324064D01*
X190447Y324089D01*
X190338Y324136D01*
X190232Y324190D01*
X190193Y324199D01*
X190156Y324215D01*
X190038Y324234D01*
X189922Y324260D01*
X189881Y324258D01*
X189841Y324265D01*
X189723Y324254D01*
X189604Y324250D01*
X189565Y324239D01*
X189525Y324235D01*
X189413Y324195D01*
X189298Y324162D01*
X189264Y324141D01*
X189226Y324127D01*
X189127Y324060D01*
X189025Y324000D01*
X188979Y323960D01*
X188962Y323949D01*
X188949Y323934D01*
X188904Y323894D01*
X185282Y320272D01*
X180588Y318328D01*
X180562Y318313D01*
X180534Y318304D01*
X180424Y318234D01*
X180312Y318170D01*
X180290Y318149D01*
X180265Y318133D01*
X180176Y318039D01*
X180083Y317949D01*
X180068Y317924D01*
X180047Y317902D01*
X179985Y317788D01*
X179917Y317678D01*
X179908Y317649D01*
X179894Y317623D01*
X179862Y317498D01*
X179824Y317374D01*
X179822Y317344D01*
X179815Y317315D01*
X179815Y317185D01*
X179808Y317056D01*
X179814Y317027D01*
X179814Y316997D01*
X179847Y316872D01*
X179873Y316745D01*
X179886Y316718D01*
X179893Y316689D01*
X179955Y316576D01*
X180012Y316459D01*
X180032Y316436D01*
X180046Y316410D01*
X180134Y316316D01*
X180219Y316217D01*
X180243Y316200D01*
X180264Y316178D01*
X180373Y316109D01*
X180479Y316034D01*
X180507Y316023D01*
X180532Y316007D01*
X180682Y315948D01*
X182675Y315300D01*
X184457Y314393D01*
X186074Y313218D01*
X187488Y311804D01*
X188663Y310187D01*
X189570Y308405D01*
X190188Y306504D01*
X190257Y306069D01*
X179070Y306069D01*
X178952Y306054D01*
X178833Y306047D01*
X178795Y306034D01*
X178755Y306029D01*
X178644Y305986D01*
X178531Y305949D01*
X178497Y305927D01*
X178459Y305912D01*
X178363Y305842D01*
X178262Y305779D01*
X178234Y305749D01*
X178202Y305725D01*
X178126Y305634D01*
X178044Y305547D01*
X178025Y305512D01*
X177999Y305481D01*
X177948Y305373D01*
X177891Y305269D01*
X177880Y305229D01*
X177863Y305193D01*
X177841Y305076D01*
X177811Y304961D01*
X177807Y304900D01*
X177803Y304880D01*
X177805Y304860D01*
X177801Y304800D01*
X177801Y303529D01*
X177799Y303529D01*
X177799Y304800D01*
X177784Y304918D01*
X177777Y305037D01*
X177764Y305075D01*
X177759Y305115D01*
X177715Y305226D01*
X177679Y305339D01*
X177657Y305374D01*
X177642Y305411D01*
X177572Y305507D01*
X177509Y305608D01*
X177479Y305636D01*
X177455Y305669D01*
X177364Y305744D01*
X177277Y305826D01*
X177242Y305846D01*
X177210Y305871D01*
X177103Y305922D01*
X176998Y305980D01*
X176959Y305990D01*
X176923Y306007D01*
X176806Y306029D01*
X176691Y306059D01*
X176630Y306063D01*
X176610Y306067D01*
X176590Y306065D01*
X176530Y306069D01*
X165343Y306069D01*
X165412Y306504D01*
X166030Y308405D01*
X166937Y310187D01*
X168112Y311804D01*
X169526Y313218D01*
X171143Y314393D01*
X172925Y315300D01*
X174918Y315948D01*
X174945Y315961D01*
X174975Y315968D01*
X175089Y316028D01*
X175206Y316083D01*
X175229Y316102D01*
X175256Y316116D01*
X175351Y316203D01*
X175451Y316286D01*
X175469Y316310D01*
X175491Y316330D01*
X175562Y316439D01*
X175638Y316543D01*
X175649Y316571D01*
X175666Y316596D01*
X175708Y316718D01*
X175755Y316839D01*
X175759Y316869D01*
X175769Y316897D01*
X175779Y317026D01*
X175795Y317154D01*
X175792Y317184D01*
X175794Y317214D01*
X175772Y317342D01*
X175756Y317470D01*
X175745Y317498D01*
X175740Y317527D01*
X175687Y317645D01*
X175639Y317766D01*
X175621Y317790D01*
X175609Y317817D01*
X175528Y317918D01*
X175452Y318023D01*
X175429Y318042D01*
X175411Y318066D01*
X175307Y318144D01*
X175207Y318226D01*
X175180Y318239D01*
X175156Y318257D01*
X175012Y318328D01*
X170318Y320272D01*
X166602Y323988D01*
X164591Y328843D01*
X164591Y334097D01*
X166602Y338952D01*
X170318Y342668D01*
X175173Y344679D01*
X180427Y344679D01*
X185282Y342668D01*
X188998Y338952D01*
X189984Y336572D01*
X189998Y336547D01*
X190007Y336519D01*
X190077Y336409D01*
X190141Y336296D01*
X190162Y336275D01*
X190177Y336250D01*
X190272Y336161D01*
X190362Y336068D01*
X190388Y336052D01*
X190409Y336032D01*
X190523Y335969D01*
X190634Y335901D01*
X190662Y335893D01*
X190688Y335878D01*
X190813Y335846D01*
X190937Y335808D01*
X190967Y335806D01*
X190996Y335799D01*
X191010Y335798D01*
X207519Y319289D01*
X207519Y294415D01*
X207531Y294316D01*
X207534Y294217D01*
X207551Y294159D01*
X207559Y294099D01*
X207595Y294007D01*
X207623Y293912D01*
X207653Y293860D01*
X207676Y293803D01*
X207734Y293723D01*
X207784Y293638D01*
X207850Y293563D01*
X207862Y293546D01*
X207872Y293538D01*
X207890Y293517D01*
X220873Y280534D01*
X220951Y280474D01*
X221024Y280406D01*
X221077Y280377D01*
X221124Y280340D01*
X221215Y280300D01*
X221302Y280252D01*
X221361Y280237D01*
X221416Y280213D01*
X221514Y280198D01*
X221610Y280173D01*
X221710Y280167D01*
X221730Y280163D01*
X221743Y280165D01*
X221771Y280163D01*
X375729Y280163D01*
X375828Y280175D01*
X375927Y280178D01*
X375985Y280195D01*
X376045Y280203D01*
X376137Y280239D01*
X376232Y280267D01*
X376284Y280297D01*
X376341Y280320D01*
X376421Y280378D01*
X376506Y280428D01*
X376581Y280494D01*
X376598Y280506D01*
X376606Y280516D01*
X376627Y280534D01*
X399010Y302917D01*
X399070Y302995D01*
X399138Y303068D01*
X399167Y303121D01*
X399204Y303168D01*
X399244Y303259D01*
X399292Y303346D01*
X399307Y303405D01*
X399331Y303460D01*
X399346Y303558D01*
X399371Y303654D01*
X399377Y303754D01*
X399381Y303774D01*
X399379Y303787D01*
X399381Y303815D01*
X399381Y325876D01*
X399378Y325905D01*
X399380Y325934D01*
X399358Y326063D01*
X399341Y326191D01*
X399331Y326219D01*
X399326Y326248D01*
X399272Y326366D01*
X399224Y326487D01*
X399207Y326511D01*
X399195Y326538D01*
X399114Y326639D01*
X399038Y326744D01*
X399015Y326763D01*
X398996Y326786D01*
X398893Y326864D01*
X398793Y326947D01*
X398766Y326960D01*
X398742Y326977D01*
X398598Y327048D01*
X396025Y328114D01*
X392214Y331925D01*
X390151Y336905D01*
X390151Y342295D01*
X392214Y347275D01*
X396025Y351086D01*
X401005Y353149D01*
X406395Y353149D01*
X411375Y351086D01*
X415186Y347275D01*
X417249Y342295D01*
X417249Y336905D01*
X415186Y331925D01*
X411375Y328114D01*
X408802Y327048D01*
X408777Y327034D01*
X408749Y327025D01*
X408639Y326955D01*
X408526Y326891D01*
X408505Y326870D01*
X408480Y326855D01*
X408391Y326760D01*
X408298Y326670D01*
X408282Y326644D01*
X408262Y326623D01*
X408199Y326509D01*
X408131Y326398D01*
X408123Y326370D01*
X408108Y326344D01*
X408076Y326219D01*
X408038Y326095D01*
X408036Y326065D01*
X408029Y326036D01*
X408019Y325876D01*
X408019Y299711D01*
X379833Y271525D01*
X217667Y271525D01*
G37*
%LPD*%
%LPC*%
G36*
X682357Y179577D02*
X682357Y179577D01*
X678343Y181240D01*
X675270Y184313D01*
X673607Y188327D01*
X673607Y192673D01*
X675270Y196687D01*
X678343Y199760D01*
X682357Y201423D01*
X686703Y201423D01*
X687788Y200973D01*
X687816Y200966D01*
X687842Y200952D01*
X687969Y200924D01*
X688094Y200889D01*
X688124Y200889D01*
X688153Y200882D01*
X688282Y200886D01*
X688412Y200884D01*
X688441Y200891D01*
X688471Y200892D01*
X688595Y200928D01*
X688722Y200958D01*
X688748Y200972D01*
X688776Y200981D01*
X688888Y201046D01*
X689003Y201107D01*
X689025Y201127D01*
X689050Y201142D01*
X689171Y201248D01*
X717940Y230017D01*
X718000Y230095D01*
X718068Y230168D01*
X718097Y230221D01*
X718134Y230268D01*
X718174Y230359D01*
X718222Y230446D01*
X718237Y230505D01*
X718261Y230560D01*
X718276Y230658D01*
X718301Y230754D01*
X718307Y230854D01*
X718311Y230874D01*
X718309Y230887D01*
X718311Y230915D01*
X718311Y270735D01*
X718299Y270834D01*
X718296Y270933D01*
X718279Y270991D01*
X718271Y271051D01*
X718235Y271143D01*
X718207Y271238D01*
X718177Y271290D01*
X718154Y271347D01*
X718096Y271427D01*
X718046Y271512D01*
X717980Y271587D01*
X717968Y271604D01*
X717958Y271612D01*
X717940Y271633D01*
X694181Y295391D01*
X694181Y433589D01*
X734811Y474219D01*
X749469Y474219D01*
X749498Y474222D01*
X749527Y474220D01*
X749655Y474242D01*
X749784Y474259D01*
X749811Y474269D01*
X749841Y474274D01*
X749959Y474328D01*
X750080Y474376D01*
X750104Y474393D01*
X750131Y474405D01*
X750232Y474486D01*
X750337Y474562D01*
X750356Y474585D01*
X750379Y474604D01*
X750457Y474707D01*
X750540Y474807D01*
X750553Y474834D01*
X750570Y474858D01*
X750641Y475002D01*
X751448Y476950D01*
X754950Y480452D01*
X759524Y482347D01*
X764476Y482347D01*
X769050Y480452D01*
X772552Y476950D01*
X774447Y472376D01*
X774447Y467424D01*
X772552Y462850D01*
X769050Y459348D01*
X764476Y457453D01*
X759524Y457453D01*
X754950Y459348D01*
X751448Y462850D01*
X750641Y464798D01*
X750627Y464823D01*
X750617Y464851D01*
X750548Y464961D01*
X750484Y465074D01*
X750463Y465095D01*
X750447Y465120D01*
X750353Y465209D01*
X750262Y465302D01*
X750237Y465318D01*
X750216Y465338D01*
X750102Y465401D01*
X749991Y465469D01*
X749963Y465477D01*
X749937Y465492D01*
X749811Y465524D01*
X749687Y465562D01*
X749658Y465564D01*
X749629Y465571D01*
X749469Y465581D01*
X738915Y465581D01*
X738816Y465569D01*
X738717Y465566D01*
X738659Y465549D01*
X738599Y465541D01*
X738507Y465505D01*
X738412Y465477D01*
X738360Y465447D01*
X738303Y465424D01*
X738223Y465366D01*
X738138Y465316D01*
X738063Y465250D01*
X738046Y465238D01*
X738038Y465228D01*
X738017Y465210D01*
X703190Y430383D01*
X703130Y430305D01*
X703062Y430232D01*
X703033Y430179D01*
X702996Y430132D01*
X702956Y430041D01*
X702908Y429954D01*
X702893Y429895D01*
X702869Y429840D01*
X702854Y429742D01*
X702829Y429646D01*
X702823Y429546D01*
X702819Y429526D01*
X702821Y429513D01*
X702819Y429485D01*
X702819Y299495D01*
X702831Y299396D01*
X702834Y299297D01*
X702851Y299239D01*
X702859Y299179D01*
X702895Y299087D01*
X702923Y298992D01*
X702953Y298940D01*
X702976Y298883D01*
X703034Y298803D01*
X703084Y298718D01*
X703150Y298643D01*
X703162Y298626D01*
X703172Y298618D01*
X703190Y298597D01*
X726949Y274839D01*
X726949Y226811D01*
X695278Y195141D01*
X695260Y195117D01*
X695238Y195098D01*
X695163Y194992D01*
X695084Y194890D01*
X695072Y194862D01*
X695055Y194838D01*
X695009Y194717D01*
X694957Y194598D01*
X694953Y194569D01*
X694942Y194541D01*
X694928Y194412D01*
X694907Y194284D01*
X694910Y194254D01*
X694907Y194225D01*
X694925Y194096D01*
X694937Y193967D01*
X694947Y193939D01*
X694951Y193910D01*
X695003Y193758D01*
X695453Y192673D01*
X695453Y188327D01*
X693790Y184313D01*
X690717Y181240D01*
X686703Y179577D01*
X682357Y179577D01*
G37*
%LPD*%
%LPC*%
G36*
X846486Y350011D02*
X846486Y350011D01*
X837958Y352296D01*
X830313Y356710D01*
X824070Y362953D01*
X819656Y370598D01*
X817371Y379126D01*
X817371Y387954D01*
X819656Y396482D01*
X824070Y404127D01*
X830313Y410370D01*
X837958Y414784D01*
X846486Y417069D01*
X855314Y417069D01*
X863842Y414784D01*
X871487Y410370D01*
X877730Y404127D01*
X882144Y396482D01*
X884429Y387954D01*
X884429Y379126D01*
X882144Y370598D01*
X877730Y362953D01*
X871487Y356710D01*
X863842Y352296D01*
X855314Y350011D01*
X846486Y350011D01*
G37*
%LPD*%
%LPC*%
G36*
X413501Y12191D02*
X413501Y12191D01*
X386807Y38885D01*
X386784Y38903D01*
X386765Y38926D01*
X386659Y39001D01*
X386556Y39080D01*
X386529Y39092D01*
X386505Y39109D01*
X386383Y39155D01*
X386264Y39206D01*
X386235Y39211D01*
X386207Y39221D01*
X386078Y39236D01*
X385950Y39256D01*
X385921Y39253D01*
X385891Y39257D01*
X385763Y39239D01*
X385633Y39226D01*
X385606Y39216D01*
X385576Y39212D01*
X385424Y39160D01*
X383476Y38353D01*
X378524Y38353D01*
X373950Y40248D01*
X370448Y43750D01*
X368553Y48324D01*
X368553Y53276D01*
X370448Y57850D01*
X373950Y61352D01*
X378524Y63247D01*
X383476Y63247D01*
X388050Y61352D01*
X391552Y57850D01*
X393447Y53276D01*
X393447Y48324D01*
X392640Y46376D01*
X392632Y46348D01*
X392619Y46321D01*
X392590Y46194D01*
X392556Y46069D01*
X392555Y46040D01*
X392549Y46011D01*
X392553Y45881D01*
X392551Y45751D01*
X392558Y45723D01*
X392559Y45693D01*
X392595Y45568D01*
X392625Y45442D01*
X392639Y45416D01*
X392647Y45388D01*
X392713Y45276D01*
X392774Y45161D01*
X392793Y45139D01*
X392808Y45114D01*
X392915Y44993D01*
X416707Y21200D01*
X416785Y21140D01*
X416858Y21072D01*
X416911Y21043D01*
X416958Y21006D01*
X417049Y20966D01*
X417136Y20918D01*
X417195Y20903D01*
X417250Y20879D01*
X417348Y20864D01*
X417444Y20839D01*
X417544Y20833D01*
X417564Y20829D01*
X417577Y20831D01*
X417605Y20829D01*
X456155Y20829D01*
X456254Y20841D01*
X456353Y20844D01*
X456411Y20861D01*
X456471Y20869D01*
X456563Y20905D01*
X456658Y20933D01*
X456710Y20963D01*
X456767Y20986D01*
X456847Y21044D01*
X456932Y21094D01*
X457007Y21160D01*
X457024Y21172D01*
X457032Y21182D01*
X457053Y21200D01*
X498845Y62993D01*
X640345Y62993D01*
X654489Y48848D01*
X654513Y48830D01*
X654532Y48808D01*
X654638Y48733D01*
X654740Y48654D01*
X654768Y48642D01*
X654792Y48625D01*
X654913Y48579D01*
X655032Y48527D01*
X655061Y48523D01*
X655089Y48512D01*
X655218Y48498D01*
X655346Y48477D01*
X655376Y48480D01*
X655405Y48477D01*
X655534Y48495D01*
X655663Y48507D01*
X655691Y48517D01*
X655720Y48521D01*
X655872Y48573D01*
X656957Y49023D01*
X661303Y49023D01*
X665317Y47360D01*
X668390Y44287D01*
X670053Y40273D01*
X670053Y35927D01*
X668390Y31913D01*
X665317Y28840D01*
X661303Y27177D01*
X656957Y27177D01*
X652943Y28840D01*
X649870Y31913D01*
X648207Y35927D01*
X648207Y40273D01*
X648657Y41358D01*
X648664Y41386D01*
X648678Y41412D01*
X648706Y41539D01*
X648741Y41664D01*
X648741Y41694D01*
X648748Y41723D01*
X648744Y41852D01*
X648746Y41982D01*
X648739Y42011D01*
X648738Y42041D01*
X648702Y42165D01*
X648672Y42292D01*
X648658Y42318D01*
X648649Y42346D01*
X648584Y42458D01*
X648523Y42573D01*
X648503Y42595D01*
X648488Y42620D01*
X648382Y42741D01*
X637139Y53984D01*
X637061Y54044D01*
X636988Y54112D01*
X636935Y54141D01*
X636888Y54178D01*
X636797Y54218D01*
X636710Y54266D01*
X636651Y54281D01*
X636596Y54305D01*
X636498Y54320D01*
X636402Y54345D01*
X636302Y54351D01*
X636282Y54355D01*
X636269Y54353D01*
X636241Y54355D01*
X502949Y54355D01*
X502850Y54343D01*
X502751Y54340D01*
X502693Y54323D01*
X502633Y54315D01*
X502541Y54279D01*
X502446Y54251D01*
X502394Y54221D01*
X502337Y54198D01*
X502257Y54140D01*
X502172Y54090D01*
X502097Y54024D01*
X502080Y54012D01*
X502072Y54002D01*
X502051Y53984D01*
X460259Y12191D01*
X413501Y12191D01*
G37*
%LPD*%
%LPC*%
G36*
X707757Y179577D02*
X707757Y179577D01*
X703743Y181240D01*
X700670Y184313D01*
X699007Y188327D01*
X699007Y192673D01*
X700670Y196687D01*
X703743Y199760D01*
X707757Y201423D01*
X712103Y201423D01*
X713188Y200973D01*
X713216Y200966D01*
X713242Y200952D01*
X713369Y200924D01*
X713494Y200889D01*
X713524Y200889D01*
X713553Y200882D01*
X713682Y200886D01*
X713812Y200884D01*
X713841Y200891D01*
X713871Y200892D01*
X713995Y200928D01*
X714122Y200958D01*
X714148Y200972D01*
X714176Y200981D01*
X714288Y201046D01*
X714403Y201107D01*
X714425Y201127D01*
X714450Y201142D01*
X714571Y201248D01*
X732164Y218841D01*
X732224Y218919D01*
X732292Y218992D01*
X732321Y219045D01*
X732358Y219092D01*
X732398Y219183D01*
X732446Y219270D01*
X732461Y219329D01*
X732485Y219384D01*
X732500Y219482D01*
X732525Y219578D01*
X732531Y219678D01*
X732535Y219698D01*
X732533Y219711D01*
X732535Y219739D01*
X732535Y279371D01*
X732523Y279470D01*
X732520Y279569D01*
X732503Y279627D01*
X732495Y279687D01*
X732459Y279779D01*
X732431Y279874D01*
X732401Y279926D01*
X732378Y279983D01*
X732320Y280063D01*
X732270Y280148D01*
X732204Y280223D01*
X732192Y280240D01*
X732182Y280248D01*
X732164Y280269D01*
X710691Y301741D01*
X710691Y411999D01*
X737385Y438693D01*
X737403Y438716D01*
X737426Y438735D01*
X737500Y438841D01*
X737580Y438944D01*
X737592Y438971D01*
X737609Y438995D01*
X737655Y439117D01*
X737706Y439236D01*
X737711Y439265D01*
X737722Y439293D01*
X737736Y439422D01*
X737756Y439550D01*
X737753Y439579D01*
X737757Y439609D01*
X737739Y439737D01*
X737726Y439867D01*
X737716Y439894D01*
X737712Y439924D01*
X737660Y440076D01*
X736853Y442024D01*
X736853Y446976D01*
X738748Y451550D01*
X742250Y455052D01*
X746824Y456947D01*
X751776Y456947D01*
X756350Y455052D01*
X759852Y451550D01*
X761747Y446976D01*
X761747Y442024D01*
X759852Y437450D01*
X756350Y433948D01*
X751776Y432053D01*
X746824Y432053D01*
X744876Y432860D01*
X744847Y432868D01*
X744821Y432881D01*
X744695Y432910D01*
X744569Y432944D01*
X744540Y432945D01*
X744511Y432951D01*
X744381Y432947D01*
X744251Y432949D01*
X744223Y432942D01*
X744193Y432941D01*
X744068Y432905D01*
X743942Y432875D01*
X743916Y432861D01*
X743888Y432853D01*
X743776Y432787D01*
X743661Y432726D01*
X743639Y432707D01*
X743614Y432692D01*
X743493Y432585D01*
X719700Y408793D01*
X719640Y408715D01*
X719572Y408642D01*
X719543Y408589D01*
X719506Y408542D01*
X719466Y408451D01*
X719418Y408364D01*
X719403Y408305D01*
X719379Y408250D01*
X719364Y408152D01*
X719339Y408056D01*
X719333Y407956D01*
X719329Y407936D01*
X719331Y407923D01*
X719329Y407895D01*
X719329Y305845D01*
X719341Y305746D01*
X719344Y305647D01*
X719361Y305589D01*
X719369Y305529D01*
X719405Y305437D01*
X719433Y305342D01*
X719463Y305290D01*
X719486Y305233D01*
X719544Y305153D01*
X719594Y305068D01*
X719660Y304993D01*
X719672Y304976D01*
X719682Y304968D01*
X719700Y304947D01*
X741173Y283475D01*
X741173Y215635D01*
X738271Y212734D01*
X720678Y195141D01*
X720660Y195117D01*
X720638Y195098D01*
X720563Y194992D01*
X720484Y194890D01*
X720472Y194862D01*
X720455Y194838D01*
X720409Y194717D01*
X720357Y194598D01*
X720353Y194569D01*
X720342Y194541D01*
X720328Y194412D01*
X720307Y194284D01*
X720310Y194254D01*
X720307Y194225D01*
X720325Y194096D01*
X720337Y193967D01*
X720347Y193939D01*
X720351Y193910D01*
X720403Y193758D01*
X720853Y192673D01*
X720853Y188327D01*
X719190Y184313D01*
X716117Y181240D01*
X712103Y179577D01*
X707757Y179577D01*
G37*
%LPD*%
%LPC*%
G36*
X594677Y382523D02*
X594677Y382523D01*
X590569Y384225D01*
X587425Y387369D01*
X586705Y389106D01*
X586691Y389131D01*
X586682Y389159D01*
X586612Y389269D01*
X586548Y389382D01*
X586527Y389403D01*
X586512Y389428D01*
X586417Y389517D01*
X586327Y389610D01*
X586301Y389626D01*
X586280Y389646D01*
X586166Y389709D01*
X586055Y389777D01*
X586027Y389785D01*
X586001Y389800D01*
X585876Y389832D01*
X585752Y389870D01*
X585722Y389872D01*
X585693Y389879D01*
X585533Y389889D01*
X544565Y389889D01*
X501646Y432808D01*
X501623Y432826D01*
X501604Y432849D01*
X501498Y432923D01*
X501395Y433003D01*
X501368Y433015D01*
X501344Y433032D01*
X501222Y433078D01*
X501103Y433130D01*
X501074Y433134D01*
X501046Y433145D01*
X500917Y433159D01*
X500789Y433179D01*
X500759Y433177D01*
X500730Y433180D01*
X500602Y433162D01*
X500472Y433150D01*
X500444Y433140D01*
X500415Y433136D01*
X500263Y433083D01*
X497776Y432053D01*
X492824Y432053D01*
X488250Y433948D01*
X484748Y437450D01*
X482853Y442024D01*
X482853Y446976D01*
X484748Y451550D01*
X488250Y455052D01*
X492824Y456947D01*
X495363Y456947D01*
X495413Y456953D01*
X495462Y456951D01*
X495570Y456973D01*
X495679Y456987D01*
X495725Y457005D01*
X495774Y457015D01*
X495872Y457063D01*
X495975Y457104D01*
X496015Y457133D01*
X496059Y457155D01*
X496143Y457226D01*
X496232Y457290D01*
X496264Y457329D01*
X496301Y457361D01*
X496365Y457451D01*
X496435Y457535D01*
X496456Y457580D01*
X496485Y457621D01*
X496523Y457724D01*
X496570Y457823D01*
X496580Y457872D01*
X496597Y457918D01*
X496609Y458028D01*
X496630Y458135D01*
X496627Y458185D01*
X496632Y458234D01*
X496617Y458343D01*
X496610Y458453D01*
X496595Y458500D01*
X496588Y458549D01*
X496536Y458702D01*
X495553Y461074D01*
X495553Y466026D01*
X497448Y470600D01*
X500950Y474102D01*
X505524Y475997D01*
X510476Y475997D01*
X515050Y474102D01*
X518552Y470600D01*
X520447Y466026D01*
X520447Y461074D01*
X519464Y458702D01*
X519451Y458654D01*
X519430Y458609D01*
X519409Y458501D01*
X519380Y458395D01*
X519379Y458345D01*
X519370Y458296D01*
X519377Y458187D01*
X519375Y458077D01*
X519387Y458029D01*
X519390Y457979D01*
X519424Y457875D01*
X519449Y457768D01*
X519472Y457724D01*
X519488Y457677D01*
X519547Y457584D01*
X519598Y457487D01*
X519631Y457450D01*
X519658Y457408D01*
X519738Y457333D01*
X519812Y457251D01*
X519853Y457224D01*
X519890Y457190D01*
X519986Y457137D01*
X520078Y457077D01*
X520125Y457060D01*
X520168Y457036D01*
X520274Y457009D01*
X520378Y456973D01*
X520428Y456969D01*
X520476Y456957D01*
X520637Y456947D01*
X523176Y456947D01*
X527750Y455052D01*
X531252Y451550D01*
X533147Y446976D01*
X533147Y442024D01*
X531252Y437450D01*
X527750Y433948D01*
X523176Y432053D01*
X518224Y432053D01*
X517960Y432163D01*
X517893Y432181D01*
X517829Y432209D01*
X517740Y432223D01*
X517654Y432246D01*
X517584Y432248D01*
X517515Y432259D01*
X517425Y432250D01*
X517336Y432252D01*
X517268Y432235D01*
X517198Y432229D01*
X517114Y432198D01*
X517026Y432177D01*
X516965Y432145D01*
X516899Y432121D01*
X516825Y432071D01*
X516745Y432029D01*
X516694Y431982D01*
X516636Y431943D01*
X516576Y431875D01*
X516510Y431815D01*
X516472Y431756D01*
X516425Y431704D01*
X516385Y431624D01*
X516335Y431549D01*
X516313Y431483D01*
X516281Y431421D01*
X516261Y431333D01*
X516232Y431248D01*
X516226Y431179D01*
X516211Y431111D01*
X516214Y431021D01*
X516207Y430931D01*
X516219Y430862D01*
X516221Y430793D01*
X516246Y430706D01*
X516261Y430618D01*
X516290Y430554D01*
X516309Y430487D01*
X516355Y430410D01*
X516392Y430328D01*
X516435Y430273D01*
X516471Y430213D01*
X516577Y430092D01*
X547771Y398898D01*
X547849Y398838D01*
X547922Y398770D01*
X547975Y398741D01*
X548022Y398704D01*
X548113Y398664D01*
X548200Y398616D01*
X548259Y398601D01*
X548314Y398577D01*
X548412Y398562D01*
X548508Y398537D01*
X548608Y398531D01*
X548628Y398527D01*
X548641Y398529D01*
X548669Y398527D01*
X585954Y398527D01*
X585983Y398530D01*
X586012Y398528D01*
X586140Y398550D01*
X586269Y398567D01*
X586297Y398577D01*
X586326Y398582D01*
X586444Y398636D01*
X586565Y398684D01*
X586589Y398701D01*
X586616Y398713D01*
X586717Y398794D01*
X586822Y398870D01*
X586841Y398893D01*
X586864Y398912D01*
X586942Y399015D01*
X587025Y399115D01*
X587038Y399142D01*
X587055Y399166D01*
X587126Y399310D01*
X587425Y400031D01*
X590569Y403175D01*
X594677Y404877D01*
X599123Y404877D01*
X603231Y403175D01*
X606375Y400031D01*
X608077Y395923D01*
X608077Y391477D01*
X606375Y387369D01*
X603231Y384225D01*
X599123Y382523D01*
X594677Y382523D01*
G37*
%LPD*%
%LPC*%
G36*
X227242Y69591D02*
X227242Y69591D01*
X222667Y71485D01*
X219166Y74987D01*
X217271Y79561D01*
X217271Y84513D01*
X219166Y89088D01*
X222667Y92589D01*
X224514Y93354D01*
X224539Y93369D01*
X224567Y93378D01*
X224677Y93447D01*
X224790Y93512D01*
X224811Y93532D01*
X224836Y93548D01*
X224925Y93643D01*
X225018Y93733D01*
X225034Y93758D01*
X225054Y93779D01*
X225117Y93893D01*
X225185Y94004D01*
X225193Y94032D01*
X225208Y94058D01*
X225240Y94184D01*
X225278Y94308D01*
X225280Y94337D01*
X225287Y94366D01*
X225297Y94527D01*
X225297Y160539D01*
X249056Y184297D01*
X249116Y184375D01*
X249184Y184448D01*
X249213Y184501D01*
X249250Y184548D01*
X249290Y184639D01*
X249338Y184726D01*
X249353Y184785D01*
X249377Y184840D01*
X249392Y184938D01*
X249417Y185034D01*
X249423Y185134D01*
X249427Y185154D01*
X249425Y185167D01*
X249427Y185195D01*
X249427Y217548D01*
X249424Y217578D01*
X249426Y217607D01*
X249404Y217735D01*
X249387Y217864D01*
X249377Y217891D01*
X249372Y217920D01*
X249318Y218039D01*
X249302Y218079D01*
X249298Y218091D01*
X249296Y218095D01*
X249270Y218160D01*
X249253Y218183D01*
X249241Y218210D01*
X249160Y218312D01*
X249150Y218325D01*
X249128Y218360D01*
X249118Y218370D01*
X249084Y218417D01*
X249061Y218436D01*
X249042Y218459D01*
X248946Y218531D01*
X248896Y218578D01*
X248874Y218590D01*
X248839Y218620D01*
X248812Y218632D01*
X248788Y218650D01*
X248644Y218721D01*
X247669Y219125D01*
X244525Y222269D01*
X242823Y226377D01*
X242823Y230823D01*
X244525Y234931D01*
X247669Y238075D01*
X251777Y239777D01*
X256223Y239777D01*
X260331Y238075D01*
X263475Y234931D01*
X265177Y230823D01*
X265177Y226377D01*
X263475Y222269D01*
X260331Y219125D01*
X258848Y218511D01*
X258823Y218496D01*
X258795Y218487D01*
X258685Y218417D01*
X258572Y218353D01*
X258551Y218333D01*
X258526Y218317D01*
X258437Y218222D01*
X258344Y218132D01*
X258328Y218107D01*
X258308Y218085D01*
X258245Y217971D01*
X258177Y217861D01*
X258169Y217832D01*
X258154Y217807D01*
X258122Y217681D01*
X258084Y217557D01*
X258082Y217527D01*
X258075Y217499D01*
X258065Y217338D01*
X258065Y181091D01*
X234306Y157333D01*
X234246Y157255D01*
X234178Y157182D01*
X234149Y157129D01*
X234112Y157082D01*
X234072Y156991D01*
X234024Y156904D01*
X234009Y156845D01*
X233985Y156790D01*
X233970Y156692D01*
X233945Y156596D01*
X233939Y156496D01*
X233935Y156476D01*
X233937Y156463D01*
X233935Y156435D01*
X233935Y94611D01*
X233938Y94581D01*
X233936Y94552D01*
X233958Y94424D01*
X233975Y94295D01*
X233985Y94268D01*
X233990Y94239D01*
X234044Y94120D01*
X234092Y94000D01*
X234109Y93976D01*
X234121Y93949D01*
X234202Y93847D01*
X234278Y93742D01*
X234301Y93723D01*
X234320Y93700D01*
X234423Y93622D01*
X234523Y93539D01*
X234550Y93527D01*
X234574Y93509D01*
X234718Y93438D01*
X236768Y92589D01*
X240270Y89088D01*
X242164Y84513D01*
X242164Y79561D01*
X240270Y74987D01*
X236768Y71485D01*
X232194Y69591D01*
X227242Y69591D01*
G37*
%LPD*%
%LPC*%
G36*
X871904Y447801D02*
X871904Y447801D01*
X863782Y451166D01*
X857566Y457382D01*
X854201Y465504D01*
X854201Y474296D01*
X857566Y482418D01*
X863782Y488634D01*
X871904Y491999D01*
X880696Y491999D01*
X888818Y488634D01*
X895034Y482418D01*
X898399Y474296D01*
X898399Y465504D01*
X895034Y457382D01*
X888818Y451166D01*
X880696Y447801D01*
X871904Y447801D01*
G37*
%LPD*%
%LPC*%
G36*
X33704Y16001D02*
X33704Y16001D01*
X25582Y19366D01*
X19366Y25582D01*
X16001Y33704D01*
X16001Y42496D01*
X19366Y50618D01*
X25582Y56834D01*
X33704Y60199D01*
X42496Y60199D01*
X50618Y56834D01*
X56834Y50618D01*
X60199Y42496D01*
X60199Y33704D01*
X56834Y25582D01*
X50618Y19366D01*
X42496Y16001D01*
X33704Y16001D01*
G37*
%LPD*%
%LPC*%
G36*
X823277Y214375D02*
X823277Y214375D01*
X819169Y216077D01*
X816025Y219221D01*
X814323Y223329D01*
X814323Y244031D01*
X816025Y248139D01*
X819169Y251283D01*
X823277Y252985D01*
X827723Y252985D01*
X831831Y251283D01*
X834975Y248139D01*
X836677Y244031D01*
X836677Y223329D01*
X834975Y219221D01*
X831831Y216077D01*
X827723Y214375D01*
X823277Y214375D01*
G37*
%LPD*%
%LPC*%
G36*
X177799Y379729D02*
X177799Y379729D01*
X177799Y381000D01*
X177784Y381118D01*
X177777Y381237D01*
X177764Y381275D01*
X177759Y381315D01*
X177715Y381426D01*
X177679Y381539D01*
X177657Y381574D01*
X177642Y381611D01*
X177572Y381707D01*
X177509Y381808D01*
X177479Y381836D01*
X177455Y381869D01*
X177364Y381944D01*
X177277Y382026D01*
X177242Y382046D01*
X177210Y382071D01*
X177103Y382122D01*
X176998Y382180D01*
X176959Y382190D01*
X176923Y382207D01*
X176806Y382229D01*
X176691Y382259D01*
X176630Y382263D01*
X176610Y382267D01*
X176590Y382265D01*
X176530Y382269D01*
X165343Y382269D01*
X165412Y382704D01*
X166030Y384605D01*
X166937Y386387D01*
X168112Y388004D01*
X169526Y389418D01*
X171143Y390593D01*
X172925Y391500D01*
X174918Y392148D01*
X174945Y392161D01*
X174975Y392168D01*
X175089Y392228D01*
X175206Y392283D01*
X175229Y392302D01*
X175256Y392316D01*
X175351Y392403D01*
X175451Y392486D01*
X175469Y392510D01*
X175491Y392530D01*
X175562Y392639D01*
X175638Y392743D01*
X175649Y392771D01*
X175666Y392796D01*
X175708Y392918D01*
X175755Y393039D01*
X175759Y393069D01*
X175769Y393097D01*
X175779Y393226D01*
X175795Y393354D01*
X175792Y393384D01*
X175794Y393414D01*
X175772Y393542D01*
X175756Y393670D01*
X175745Y393698D01*
X175740Y393727D01*
X175687Y393845D01*
X175639Y393966D01*
X175621Y393990D01*
X175609Y394017D01*
X175528Y394118D01*
X175452Y394223D01*
X175429Y394242D01*
X175411Y394266D01*
X175307Y394344D01*
X175207Y394426D01*
X175180Y394439D01*
X175156Y394457D01*
X175012Y394528D01*
X170318Y396472D01*
X166602Y400188D01*
X164591Y405043D01*
X164591Y410297D01*
X166602Y415152D01*
X170318Y418868D01*
X175173Y420879D01*
X180427Y420879D01*
X185282Y418868D01*
X188998Y415152D01*
X191009Y410297D01*
X191009Y405043D01*
X188998Y400188D01*
X185282Y396472D01*
X180588Y394528D01*
X180562Y394513D01*
X180534Y394504D01*
X180424Y394434D01*
X180312Y394370D01*
X180290Y394349D01*
X180265Y394333D01*
X180176Y394239D01*
X180083Y394149D01*
X180068Y394124D01*
X180047Y394102D01*
X179985Y393988D01*
X179917Y393878D01*
X179908Y393849D01*
X179894Y393823D01*
X179862Y393698D01*
X179824Y393574D01*
X179822Y393544D01*
X179815Y393515D01*
X179815Y393385D01*
X179808Y393256D01*
X179814Y393227D01*
X179814Y393197D01*
X179846Y393072D01*
X179873Y392945D01*
X179886Y392918D01*
X179893Y392889D01*
X179955Y392776D01*
X180012Y392659D01*
X180032Y392636D01*
X180046Y392610D01*
X180134Y392516D01*
X180219Y392417D01*
X180243Y392400D01*
X180264Y392378D01*
X180373Y392309D01*
X180479Y392234D01*
X180507Y392223D01*
X180532Y392207D01*
X180682Y392148D01*
X182675Y391500D01*
X184457Y390593D01*
X186074Y389418D01*
X187488Y388004D01*
X188663Y386387D01*
X189570Y384605D01*
X190188Y382704D01*
X190257Y382269D01*
X179070Y382269D01*
X178952Y382254D01*
X178833Y382247D01*
X178795Y382234D01*
X178755Y382229D01*
X178644Y382186D01*
X178531Y382149D01*
X178497Y382127D01*
X178459Y382112D01*
X178363Y382042D01*
X178262Y381979D01*
X178234Y381949D01*
X178202Y381925D01*
X178126Y381834D01*
X178044Y381747D01*
X178025Y381712D01*
X177999Y381681D01*
X177948Y381573D01*
X177891Y381469D01*
X177880Y381429D01*
X177863Y381393D01*
X177841Y381276D01*
X177811Y381161D01*
X177807Y381100D01*
X177803Y381080D01*
X177805Y381060D01*
X177801Y381000D01*
X177801Y379729D01*
X177799Y379729D01*
G37*
%LPD*%
%LPC*%
G36*
X177799Y455929D02*
X177799Y455929D01*
X177799Y457200D01*
X177784Y457318D01*
X177777Y457437D01*
X177764Y457475D01*
X177759Y457515D01*
X177715Y457626D01*
X177679Y457739D01*
X177657Y457774D01*
X177642Y457811D01*
X177572Y457907D01*
X177509Y458008D01*
X177479Y458036D01*
X177455Y458069D01*
X177364Y458144D01*
X177277Y458226D01*
X177242Y458246D01*
X177210Y458271D01*
X177103Y458322D01*
X176998Y458380D01*
X176959Y458390D01*
X176923Y458407D01*
X176806Y458429D01*
X176691Y458459D01*
X176630Y458463D01*
X176610Y458467D01*
X176590Y458465D01*
X176530Y458469D01*
X165343Y458469D01*
X165412Y458904D01*
X166030Y460805D01*
X166937Y462587D01*
X168112Y464204D01*
X169526Y465618D01*
X171143Y466793D01*
X172925Y467700D01*
X174918Y468348D01*
X174946Y468361D01*
X174975Y468368D01*
X175089Y468428D01*
X175206Y468483D01*
X175229Y468502D01*
X175256Y468516D01*
X175352Y468604D01*
X175451Y468686D01*
X175469Y468710D01*
X175491Y468730D01*
X175562Y468838D01*
X175638Y468943D01*
X175649Y468971D01*
X175666Y468996D01*
X175708Y469118D01*
X175756Y469239D01*
X175759Y469269D01*
X175769Y469297D01*
X175779Y469426D01*
X175796Y469554D01*
X175792Y469584D01*
X175794Y469614D01*
X175772Y469742D01*
X175756Y469870D01*
X175745Y469898D01*
X175740Y469927D01*
X175687Y470045D01*
X175639Y470166D01*
X175621Y470190D01*
X175609Y470217D01*
X175528Y470318D01*
X175452Y470423D01*
X175429Y470442D01*
X175411Y470466D01*
X175307Y470544D01*
X175207Y470626D01*
X175180Y470639D01*
X175157Y470657D01*
X175012Y470728D01*
X170318Y472672D01*
X166602Y476388D01*
X164591Y481243D01*
X164591Y486497D01*
X166602Y491352D01*
X170318Y495068D01*
X175173Y497079D01*
X180427Y497079D01*
X185282Y495068D01*
X188998Y491352D01*
X191009Y486497D01*
X191009Y481243D01*
X188998Y476388D01*
X185282Y472672D01*
X180588Y470728D01*
X180562Y470713D01*
X180534Y470704D01*
X180424Y470634D01*
X180312Y470570D01*
X180290Y470549D01*
X180265Y470533D01*
X180176Y470439D01*
X180083Y470349D01*
X180068Y470324D01*
X180047Y470302D01*
X179985Y470188D01*
X179917Y470078D01*
X179908Y470049D01*
X179894Y470023D01*
X179862Y469898D01*
X179823Y469774D01*
X179822Y469744D01*
X179815Y469715D01*
X179815Y469585D01*
X179808Y469456D01*
X179814Y469427D01*
X179814Y469397D01*
X179846Y469272D01*
X179873Y469145D01*
X179886Y469118D01*
X179893Y469089D01*
X179955Y468976D01*
X180012Y468859D01*
X180032Y468836D01*
X180046Y468810D01*
X180134Y468716D01*
X180219Y468617D01*
X180243Y468600D01*
X180264Y468578D01*
X180373Y468509D01*
X180479Y468434D01*
X180507Y468423D01*
X180532Y468407D01*
X180682Y468348D01*
X182675Y467700D01*
X184457Y466793D01*
X186074Y465618D01*
X187488Y464204D01*
X188663Y462587D01*
X189570Y460805D01*
X190188Y458904D01*
X190257Y458469D01*
X179070Y458469D01*
X178952Y458454D01*
X178833Y458447D01*
X178795Y458434D01*
X178755Y458429D01*
X178644Y458386D01*
X178531Y458349D01*
X178497Y458327D01*
X178459Y458312D01*
X178363Y458242D01*
X178262Y458179D01*
X178234Y458149D01*
X178202Y458125D01*
X178126Y458034D01*
X178044Y457947D01*
X178025Y457912D01*
X177999Y457881D01*
X177948Y457773D01*
X177891Y457669D01*
X177880Y457629D01*
X177863Y457593D01*
X177841Y457476D01*
X177811Y457361D01*
X177807Y457300D01*
X177803Y457280D01*
X177805Y457260D01*
X177801Y457200D01*
X177801Y455929D01*
X177799Y455929D01*
G37*
%LPD*%
%LPC*%
G36*
X508005Y231051D02*
X508005Y231051D01*
X503025Y233114D01*
X499214Y236925D01*
X497151Y241905D01*
X497151Y247295D01*
X499214Y252275D01*
X503025Y256086D01*
X508005Y258149D01*
X513395Y258149D01*
X518375Y256086D01*
X522186Y252275D01*
X524249Y247295D01*
X524249Y241905D01*
X522186Y236925D01*
X518375Y233114D01*
X513395Y231051D01*
X508005Y231051D01*
G37*
%LPD*%
%LPC*%
G36*
X342905Y307251D02*
X342905Y307251D01*
X337925Y309314D01*
X334114Y313125D01*
X332051Y318105D01*
X332051Y323495D01*
X334114Y328475D01*
X337925Y332286D01*
X342905Y334349D01*
X348295Y334349D01*
X353275Y332286D01*
X357086Y328475D01*
X359149Y323495D01*
X359149Y318105D01*
X357086Y313125D01*
X353275Y309314D01*
X348295Y307251D01*
X342905Y307251D01*
G37*
%LPD*%
%LPC*%
G36*
X235905Y402251D02*
X235905Y402251D01*
X230925Y404314D01*
X227114Y408125D01*
X225051Y413105D01*
X225051Y418495D01*
X227114Y423475D01*
X230925Y427286D01*
X235905Y429349D01*
X241295Y429349D01*
X246275Y427286D01*
X250086Y423475D01*
X252149Y418495D01*
X252149Y413105D01*
X250086Y408125D01*
X246275Y404314D01*
X241295Y402251D01*
X235905Y402251D01*
G37*
%LPD*%
%LPC*%
G36*
X759524Y266953D02*
X759524Y266953D01*
X754950Y268848D01*
X751448Y272350D01*
X749553Y276924D01*
X749553Y281876D01*
X751448Y286450D01*
X754950Y289952D01*
X759524Y291847D01*
X764476Y291847D01*
X769050Y289952D01*
X772552Y286450D01*
X774447Y281876D01*
X774447Y276924D01*
X772552Y272350D01*
X769050Y268848D01*
X764476Y266953D01*
X759524Y266953D01*
G37*
%LPD*%
%LPC*%
G36*
X632524Y432053D02*
X632524Y432053D01*
X627950Y433948D01*
X624448Y437450D01*
X622553Y442024D01*
X622553Y446976D01*
X624448Y451550D01*
X627950Y455052D01*
X632524Y456947D01*
X637476Y456947D01*
X642050Y455052D01*
X645552Y451550D01*
X647447Y446976D01*
X647447Y442024D01*
X645552Y437450D01*
X642050Y433948D01*
X637476Y432053D01*
X632524Y432053D01*
G37*
%LPD*%
%LPC*%
G36*
X169126Y118876D02*
X169126Y118876D01*
X164552Y120771D01*
X161050Y124272D01*
X159156Y128847D01*
X159156Y133799D01*
X161050Y138373D01*
X164552Y141875D01*
X169126Y143769D01*
X174078Y143769D01*
X178653Y141875D01*
X182154Y138373D01*
X184049Y133799D01*
X184049Y128847D01*
X182154Y124272D01*
X178653Y120771D01*
X174078Y118876D01*
X169126Y118876D01*
G37*
%LPD*%
%LPC*%
G36*
X416624Y114553D02*
X416624Y114553D01*
X412050Y116448D01*
X408548Y119950D01*
X406653Y124524D01*
X406653Y129476D01*
X408548Y134050D01*
X412050Y137552D01*
X416624Y139447D01*
X421576Y139447D01*
X426150Y137552D01*
X429652Y134050D01*
X431547Y129476D01*
X431547Y124524D01*
X429652Y119950D01*
X426150Y116448D01*
X421576Y114553D01*
X416624Y114553D01*
G37*
%LPD*%
%LPC*%
G36*
X683324Y266953D02*
X683324Y266953D01*
X678750Y268848D01*
X675248Y272350D01*
X673353Y276924D01*
X673353Y281876D01*
X675248Y286450D01*
X678750Y289952D01*
X683324Y291847D01*
X688276Y291847D01*
X692850Y289952D01*
X696352Y286450D01*
X698247Y281876D01*
X698247Y276924D01*
X696352Y272350D01*
X692850Y268848D01*
X688276Y266953D01*
X683324Y266953D01*
G37*
%LPD*%
%LPC*%
G36*
X162624Y165353D02*
X162624Y165353D01*
X158050Y167248D01*
X154548Y170750D01*
X152653Y175324D01*
X152653Y180276D01*
X154548Y184850D01*
X158050Y188352D01*
X162624Y190247D01*
X167576Y190247D01*
X172150Y188352D01*
X175652Y184850D01*
X177547Y180276D01*
X177547Y175324D01*
X175652Y170750D01*
X172150Y167248D01*
X167576Y165353D01*
X162624Y165353D01*
G37*
%LPD*%
%LPC*%
G36*
X200724Y165353D02*
X200724Y165353D01*
X196150Y167248D01*
X192648Y170750D01*
X190753Y175324D01*
X190753Y180276D01*
X192648Y184850D01*
X196150Y188352D01*
X200724Y190247D01*
X205676Y190247D01*
X210250Y188352D01*
X213752Y184850D01*
X215647Y180276D01*
X215647Y175324D01*
X213752Y170750D01*
X210250Y167248D01*
X205676Y165353D01*
X200724Y165353D01*
G37*
%LPD*%
%LPC*%
G36*
X632524Y266953D02*
X632524Y266953D01*
X627950Y268848D01*
X624448Y272350D01*
X622553Y276924D01*
X622553Y281876D01*
X624448Y286450D01*
X627950Y289952D01*
X632524Y291847D01*
X637476Y291847D01*
X642050Y289952D01*
X645552Y286450D01*
X647447Y281876D01*
X647447Y276924D01*
X645552Y272350D01*
X642050Y268848D01*
X637476Y266953D01*
X632524Y266953D01*
G37*
%LPD*%
%LPC*%
G36*
X556324Y266953D02*
X556324Y266953D01*
X551750Y268848D01*
X548248Y272350D01*
X546353Y276924D01*
X546353Y281876D01*
X548248Y286450D01*
X551750Y289952D01*
X556324Y291847D01*
X561276Y291847D01*
X565850Y289952D01*
X569352Y286450D01*
X571247Y281876D01*
X571247Y276924D01*
X569352Y272350D01*
X565850Y268848D01*
X561276Y266953D01*
X556324Y266953D01*
G37*
%LPD*%
%LPC*%
G36*
X645224Y241553D02*
X645224Y241553D01*
X640650Y243448D01*
X637148Y246950D01*
X635253Y251524D01*
X635253Y256476D01*
X637148Y261050D01*
X640650Y264552D01*
X645224Y266447D01*
X650176Y266447D01*
X654750Y264552D01*
X658252Y261050D01*
X660147Y256476D01*
X660147Y251524D01*
X658252Y246950D01*
X654750Y243448D01*
X650176Y241553D01*
X645224Y241553D01*
G37*
%LPD*%
%LPC*%
G36*
X164165Y62212D02*
X164165Y62212D01*
X159590Y64107D01*
X156089Y67609D01*
X154194Y72183D01*
X154194Y77135D01*
X156089Y81710D01*
X159590Y85211D01*
X164165Y87106D01*
X169117Y87106D01*
X173691Y85211D01*
X177193Y81710D01*
X179087Y77135D01*
X179087Y72183D01*
X177193Y67609D01*
X173691Y64107D01*
X169117Y62212D01*
X164165Y62212D01*
G37*
%LPD*%
%LPC*%
G36*
X696024Y241553D02*
X696024Y241553D01*
X691450Y243448D01*
X687948Y246950D01*
X686053Y251524D01*
X686053Y256476D01*
X687948Y261050D01*
X691450Y264552D01*
X696024Y266447D01*
X700976Y266447D01*
X705550Y264552D01*
X709052Y261050D01*
X710947Y256476D01*
X710947Y251524D01*
X709052Y246950D01*
X705550Y243448D01*
X700976Y241553D01*
X696024Y241553D01*
G37*
%LPD*%
%LPC*%
G36*
X454724Y38353D02*
X454724Y38353D01*
X450150Y40248D01*
X446648Y43750D01*
X444753Y48324D01*
X444753Y53276D01*
X446648Y57850D01*
X450150Y61352D01*
X454724Y63247D01*
X459676Y63247D01*
X464250Y61352D01*
X467752Y57850D01*
X469647Y53276D01*
X469647Y48324D01*
X467752Y43750D01*
X464250Y40248D01*
X459676Y38353D01*
X454724Y38353D01*
G37*
%LPD*%
%LPC*%
G36*
X670624Y432053D02*
X670624Y432053D01*
X666050Y433948D01*
X662548Y437450D01*
X660653Y442024D01*
X660653Y446976D01*
X662548Y451550D01*
X666050Y455052D01*
X670624Y456947D01*
X675576Y456947D01*
X680150Y455052D01*
X683652Y451550D01*
X685547Y446976D01*
X685547Y442024D01*
X683652Y437450D01*
X680150Y433948D01*
X675576Y432053D01*
X670624Y432053D01*
G37*
%LPD*%
%LPC*%
G36*
X162624Y241553D02*
X162624Y241553D01*
X158050Y243448D01*
X154548Y246950D01*
X152653Y251524D01*
X152653Y256476D01*
X154548Y261050D01*
X158050Y264552D01*
X162624Y266447D01*
X167576Y266447D01*
X172150Y264552D01*
X175652Y261050D01*
X177547Y256476D01*
X177547Y251524D01*
X175652Y246950D01*
X172150Y243448D01*
X167576Y241553D01*
X162624Y241553D01*
G37*
%LPD*%
%LPC*%
G36*
X683324Y457453D02*
X683324Y457453D01*
X678750Y459348D01*
X675248Y462850D01*
X673353Y467424D01*
X673353Y472376D01*
X675248Y476950D01*
X678750Y480452D01*
X683324Y482347D01*
X688276Y482347D01*
X692850Y480452D01*
X696352Y476950D01*
X698247Y472376D01*
X698247Y467424D01*
X696352Y462850D01*
X692850Y459348D01*
X688276Y457453D01*
X683324Y457453D01*
G37*
%LPD*%
%LPC*%
G36*
X569024Y457453D02*
X569024Y457453D01*
X564450Y459348D01*
X560948Y462850D01*
X559053Y467424D01*
X559053Y472376D01*
X560948Y476950D01*
X564450Y480452D01*
X569024Y482347D01*
X573976Y482347D01*
X578550Y480452D01*
X582052Y476950D01*
X583947Y472376D01*
X583947Y467424D01*
X582052Y462850D01*
X578550Y459348D01*
X573976Y457453D01*
X569024Y457453D01*
G37*
%LPD*%
%LPC*%
G36*
X645224Y457453D02*
X645224Y457453D01*
X640650Y459348D01*
X637148Y462850D01*
X635253Y467424D01*
X635253Y472376D01*
X637148Y476950D01*
X640650Y480452D01*
X645224Y482347D01*
X650176Y482347D01*
X654750Y480452D01*
X658252Y476950D01*
X660147Y472376D01*
X660147Y467424D01*
X658252Y462850D01*
X654750Y459348D01*
X650176Y457453D01*
X645224Y457453D01*
G37*
%LPD*%
%LPC*%
G36*
X772224Y241553D02*
X772224Y241553D01*
X767650Y243448D01*
X764148Y246950D01*
X762253Y251524D01*
X762253Y256476D01*
X764148Y261050D01*
X767650Y264552D01*
X772224Y266447D01*
X777176Y266447D01*
X781750Y264552D01*
X785252Y261050D01*
X787147Y256476D01*
X787147Y251524D01*
X785252Y246950D01*
X781750Y243448D01*
X777176Y241553D01*
X772224Y241553D01*
G37*
%LPD*%
%LPC*%
G36*
X251777Y141223D02*
X251777Y141223D01*
X247669Y142925D01*
X244525Y146069D01*
X242823Y150177D01*
X242823Y154623D01*
X244525Y158731D01*
X247669Y161875D01*
X251777Y163577D01*
X256223Y163577D01*
X260331Y161875D01*
X263475Y158731D01*
X265177Y154623D01*
X265177Y150177D01*
X263475Y146069D01*
X260331Y142925D01*
X256223Y141223D01*
X251777Y141223D01*
G37*
%LPD*%
%LPC*%
G36*
X302577Y217423D02*
X302577Y217423D01*
X298469Y219125D01*
X295325Y222269D01*
X293623Y226377D01*
X293623Y230823D01*
X295325Y234931D01*
X298469Y238075D01*
X302577Y239777D01*
X307023Y239777D01*
X311131Y238075D01*
X314275Y234931D01*
X315977Y230823D01*
X315977Y226377D01*
X314275Y222269D01*
X311131Y219125D01*
X307023Y217423D01*
X302577Y217423D01*
G37*
%LPD*%
%LPC*%
G36*
X277177Y217423D02*
X277177Y217423D01*
X273069Y219125D01*
X269925Y222269D01*
X268223Y226377D01*
X268223Y230823D01*
X269925Y234931D01*
X273069Y238075D01*
X277177Y239777D01*
X281623Y239777D01*
X285731Y238075D01*
X288875Y234931D01*
X290577Y230823D01*
X290577Y226377D01*
X288875Y222269D01*
X285731Y219125D01*
X281623Y217423D01*
X277177Y217423D01*
G37*
%LPD*%
%LPC*%
G36*
X620077Y306323D02*
X620077Y306323D01*
X615969Y308025D01*
X612825Y311169D01*
X611123Y315277D01*
X611123Y319723D01*
X612825Y323831D01*
X615969Y326975D01*
X620077Y328677D01*
X624523Y328677D01*
X628631Y326975D01*
X631775Y323831D01*
X633477Y319723D01*
X633477Y315277D01*
X631775Y311169D01*
X628631Y308025D01*
X624523Y306323D01*
X620077Y306323D01*
G37*
%LPD*%
%LPC*%
G36*
X645477Y306323D02*
X645477Y306323D01*
X641369Y308025D01*
X638225Y311169D01*
X636523Y315277D01*
X636523Y319723D01*
X638225Y323831D01*
X641369Y326975D01*
X645477Y328677D01*
X649923Y328677D01*
X654031Y326975D01*
X657175Y323831D01*
X658877Y319723D01*
X658877Y315277D01*
X657175Y311169D01*
X654031Y308025D01*
X649923Y306323D01*
X645477Y306323D01*
G37*
%LPD*%
%LPC*%
G36*
X620077Y382523D02*
X620077Y382523D01*
X615969Y384225D01*
X612825Y387369D01*
X611123Y391477D01*
X611123Y395923D01*
X612825Y400031D01*
X615969Y403175D01*
X620077Y404877D01*
X624523Y404877D01*
X628631Y403175D01*
X631775Y400031D01*
X633477Y395923D01*
X633477Y391477D01*
X631775Y387369D01*
X628631Y384225D01*
X624523Y382523D01*
X620077Y382523D01*
G37*
%LPD*%
%LPC*%
G36*
X645477Y382523D02*
X645477Y382523D01*
X641369Y384225D01*
X638225Y387369D01*
X636523Y391477D01*
X636523Y395923D01*
X638225Y400031D01*
X641369Y403175D01*
X645477Y404877D01*
X649923Y404877D01*
X654031Y403175D01*
X657175Y400031D01*
X658877Y395923D01*
X658877Y391477D01*
X657175Y387369D01*
X654031Y384225D01*
X649923Y382523D01*
X645477Y382523D01*
G37*
%LPD*%
%LPC*%
G36*
X670877Y382523D02*
X670877Y382523D01*
X666769Y384225D01*
X663625Y387369D01*
X661923Y391477D01*
X661923Y395923D01*
X663625Y400031D01*
X666769Y403175D01*
X670877Y404877D01*
X675323Y404877D01*
X679431Y403175D01*
X682575Y400031D01*
X684277Y395923D01*
X684277Y391477D01*
X682575Y387369D01*
X679431Y384225D01*
X675323Y382523D01*
X670877Y382523D01*
G37*
%LPD*%
%LPC*%
G36*
X302577Y141223D02*
X302577Y141223D01*
X298469Y142925D01*
X295325Y146069D01*
X293623Y150177D01*
X293623Y154623D01*
X295325Y158731D01*
X298469Y161875D01*
X302577Y163577D01*
X307023Y163577D01*
X311131Y161875D01*
X314275Y158731D01*
X315977Y154623D01*
X315977Y150177D01*
X314275Y146069D01*
X311131Y142925D01*
X307023Y141223D01*
X302577Y141223D01*
G37*
%LPD*%
%LPC*%
G36*
X277177Y141223D02*
X277177Y141223D01*
X273069Y142925D01*
X269925Y146069D01*
X268223Y150177D01*
X268223Y154623D01*
X269925Y158731D01*
X273069Y161875D01*
X277177Y163577D01*
X281623Y163577D01*
X285731Y161875D01*
X288875Y158731D01*
X290577Y154623D01*
X290577Y150177D01*
X288875Y146069D01*
X285731Y142925D01*
X281623Y141223D01*
X277177Y141223D01*
G37*
%LPD*%
%LPC*%
G36*
X529957Y27177D02*
X529957Y27177D01*
X525943Y28840D01*
X522870Y31913D01*
X521207Y35927D01*
X521207Y40273D01*
X522870Y44287D01*
X525943Y47360D01*
X529957Y49023D01*
X534303Y49023D01*
X538317Y47360D01*
X541390Y44287D01*
X543053Y40273D01*
X543053Y35927D01*
X541390Y31913D01*
X538317Y28840D01*
X534303Y27177D01*
X529957Y27177D01*
G37*
%LPD*%
%LPC*%
G36*
X758557Y179577D02*
X758557Y179577D01*
X754543Y181240D01*
X751470Y184313D01*
X749807Y188327D01*
X749807Y192673D01*
X751470Y196687D01*
X754543Y199760D01*
X758557Y201423D01*
X762903Y201423D01*
X766917Y199760D01*
X769990Y196687D01*
X771653Y192673D01*
X771653Y188327D01*
X769990Y184313D01*
X766917Y181240D01*
X762903Y179577D01*
X758557Y179577D01*
G37*
%LPD*%
%LPC*%
G36*
X555357Y27177D02*
X555357Y27177D01*
X551343Y28840D01*
X548270Y31913D01*
X546607Y35927D01*
X546607Y40273D01*
X548270Y44287D01*
X551343Y47360D01*
X555357Y49023D01*
X559703Y49023D01*
X563717Y47360D01*
X566790Y44287D01*
X568453Y40273D01*
X568453Y35927D01*
X566790Y31913D01*
X563717Y28840D01*
X559703Y27177D01*
X555357Y27177D01*
G37*
%LPD*%
%LPC*%
G36*
X580757Y27177D02*
X580757Y27177D01*
X576743Y28840D01*
X573670Y31913D01*
X572007Y35927D01*
X572007Y40273D01*
X573670Y44287D01*
X576743Y47360D01*
X580757Y49023D01*
X585103Y49023D01*
X589117Y47360D01*
X592190Y44287D01*
X593853Y40273D01*
X593853Y35927D01*
X592190Y31913D01*
X589117Y28840D01*
X585103Y27177D01*
X580757Y27177D01*
G37*
%LPD*%
%LPC*%
G36*
X606157Y179577D02*
X606157Y179577D01*
X602143Y181240D01*
X599070Y184313D01*
X597407Y188327D01*
X597407Y192673D01*
X599070Y196687D01*
X602143Y199760D01*
X606157Y201423D01*
X610503Y201423D01*
X614517Y199760D01*
X617590Y196687D01*
X619253Y192673D01*
X619253Y188327D01*
X617590Y184313D01*
X614517Y181240D01*
X610503Y179577D01*
X606157Y179577D01*
G37*
%LPD*%
%LPC*%
G36*
X606157Y27177D02*
X606157Y27177D01*
X602143Y28840D01*
X599070Y31913D01*
X597407Y35927D01*
X597407Y40273D01*
X599070Y44287D01*
X602143Y47360D01*
X606157Y49023D01*
X610503Y49023D01*
X614517Y47360D01*
X617590Y44287D01*
X619253Y40273D01*
X619253Y35927D01*
X617590Y31913D01*
X614517Y28840D01*
X610503Y27177D01*
X606157Y27177D01*
G37*
%LPD*%
%LPC*%
G36*
X631557Y179577D02*
X631557Y179577D01*
X627543Y181240D01*
X624470Y184313D01*
X622807Y188327D01*
X622807Y192673D01*
X624470Y196687D01*
X627543Y199760D01*
X631557Y201423D01*
X635903Y201423D01*
X639917Y199760D01*
X642990Y196687D01*
X644653Y192673D01*
X644653Y188327D01*
X642990Y184313D01*
X639917Y181240D01*
X635903Y179577D01*
X631557Y179577D01*
G37*
%LPD*%
%LPC*%
G36*
X656957Y179577D02*
X656957Y179577D01*
X652943Y181240D01*
X649870Y184313D01*
X648207Y188327D01*
X648207Y192673D01*
X649870Y196687D01*
X652943Y199760D01*
X656957Y201423D01*
X661303Y201423D01*
X665317Y199760D01*
X668390Y196687D01*
X670053Y192673D01*
X670053Y188327D01*
X668390Y184313D01*
X665317Y181240D01*
X661303Y179577D01*
X656957Y179577D01*
G37*
%LPD*%
%LPC*%
G36*
X631557Y27177D02*
X631557Y27177D01*
X627543Y28840D01*
X624470Y31913D01*
X622807Y35927D01*
X622807Y40273D01*
X624470Y44287D01*
X627543Y47360D01*
X631557Y49023D01*
X635903Y49023D01*
X639917Y47360D01*
X642990Y44287D01*
X644653Y40273D01*
X644653Y35927D01*
X642990Y31913D01*
X639917Y28840D01*
X635903Y27177D01*
X631557Y27177D01*
G37*
%LPD*%
%LPC*%
G36*
X682357Y27177D02*
X682357Y27177D01*
X678343Y28840D01*
X675270Y31913D01*
X673607Y35927D01*
X673607Y40273D01*
X675270Y44287D01*
X678343Y47360D01*
X682357Y49023D01*
X686703Y49023D01*
X690717Y47360D01*
X693790Y44287D01*
X695453Y40273D01*
X695453Y35927D01*
X693790Y31913D01*
X690717Y28840D01*
X686703Y27177D01*
X682357Y27177D01*
G37*
%LPD*%
%LPC*%
G36*
X707757Y27177D02*
X707757Y27177D01*
X703743Y28840D01*
X700670Y31913D01*
X699007Y35927D01*
X699007Y40273D01*
X700670Y44287D01*
X703743Y47360D01*
X707757Y49023D01*
X712103Y49023D01*
X716117Y47360D01*
X719190Y44287D01*
X720853Y40273D01*
X720853Y35927D01*
X719190Y31913D01*
X716117Y28840D01*
X712103Y27177D01*
X707757Y27177D01*
G37*
%LPD*%
%LPC*%
G36*
X733157Y179577D02*
X733157Y179577D01*
X729143Y181240D01*
X726070Y184313D01*
X724407Y188327D01*
X724407Y192673D01*
X726070Y196687D01*
X729143Y199760D01*
X733157Y201423D01*
X737503Y201423D01*
X741517Y199760D01*
X744590Y196687D01*
X746253Y192673D01*
X746253Y188327D01*
X744590Y184313D01*
X741517Y181240D01*
X737503Y179577D01*
X733157Y179577D01*
G37*
%LPD*%
%LPC*%
G36*
X555357Y179577D02*
X555357Y179577D01*
X551343Y181240D01*
X548270Y184313D01*
X546607Y188327D01*
X546607Y192673D01*
X548270Y196687D01*
X551343Y199760D01*
X555357Y201423D01*
X559703Y201423D01*
X563717Y199760D01*
X566790Y196687D01*
X568453Y192673D01*
X568453Y188327D01*
X566790Y184313D01*
X563717Y181240D01*
X559703Y179577D01*
X555357Y179577D01*
G37*
%LPD*%
%LPC*%
G36*
X783957Y179577D02*
X783957Y179577D01*
X779943Y181240D01*
X776870Y184313D01*
X775207Y188327D01*
X775207Y192673D01*
X776870Y196687D01*
X779943Y199760D01*
X783957Y201423D01*
X788303Y201423D01*
X792317Y199760D01*
X795390Y196687D01*
X797053Y192673D01*
X797053Y188327D01*
X795390Y184313D01*
X792317Y181240D01*
X788303Y179577D01*
X783957Y179577D01*
G37*
%LPD*%
%LPC*%
G36*
X733157Y27177D02*
X733157Y27177D01*
X729143Y28840D01*
X726070Y31913D01*
X724407Y35927D01*
X724407Y40273D01*
X726070Y44287D01*
X729143Y47360D01*
X733157Y49023D01*
X737503Y49023D01*
X741517Y47360D01*
X744590Y44287D01*
X746253Y40273D01*
X746253Y35927D01*
X744590Y31913D01*
X741517Y28840D01*
X737503Y27177D01*
X733157Y27177D01*
G37*
%LPD*%
%LPC*%
G36*
X758557Y27177D02*
X758557Y27177D01*
X754543Y28840D01*
X751470Y31913D01*
X749807Y35927D01*
X749807Y40273D01*
X751470Y44287D01*
X754543Y47360D01*
X758557Y49023D01*
X762903Y49023D01*
X766917Y47360D01*
X769990Y44287D01*
X771653Y40273D01*
X771653Y35927D01*
X769990Y31913D01*
X766917Y28840D01*
X762903Y27177D01*
X758557Y27177D01*
G37*
%LPD*%
%LPC*%
G36*
X809357Y179577D02*
X809357Y179577D01*
X805343Y181240D01*
X802270Y184313D01*
X800607Y188327D01*
X800607Y192673D01*
X802270Y196687D01*
X805343Y199760D01*
X809357Y201423D01*
X813703Y201423D01*
X817717Y199760D01*
X820790Y196687D01*
X822453Y192673D01*
X822453Y188327D01*
X820790Y184313D01*
X817717Y181240D01*
X813703Y179577D01*
X809357Y179577D01*
G37*
%LPD*%
%LPC*%
G36*
X783957Y27177D02*
X783957Y27177D01*
X779943Y28840D01*
X776870Y31913D01*
X775207Y35927D01*
X775207Y40273D01*
X776870Y44287D01*
X779943Y47360D01*
X783957Y49023D01*
X788303Y49023D01*
X792317Y47360D01*
X795390Y44287D01*
X797053Y40273D01*
X797053Y35927D01*
X795390Y31913D01*
X792317Y28840D01*
X788303Y27177D01*
X783957Y27177D01*
G37*
%LPD*%
%LPC*%
G36*
X834757Y179577D02*
X834757Y179577D01*
X830743Y181240D01*
X827670Y184313D01*
X826007Y188327D01*
X826007Y192673D01*
X827670Y196687D01*
X830743Y199760D01*
X834757Y201423D01*
X839103Y201423D01*
X843117Y199760D01*
X846190Y196687D01*
X847853Y192673D01*
X847853Y188327D01*
X846190Y184313D01*
X843117Y181240D01*
X839103Y179577D01*
X834757Y179577D01*
G37*
%LPD*%
%LPC*%
G36*
X529957Y179577D02*
X529957Y179577D01*
X525943Y181240D01*
X522870Y184313D01*
X521207Y188327D01*
X521207Y192673D01*
X522870Y196687D01*
X525943Y199760D01*
X529957Y201423D01*
X534303Y201423D01*
X538317Y199760D01*
X541390Y196687D01*
X543053Y192673D01*
X543053Y188327D01*
X541390Y184313D01*
X538317Y181240D01*
X534303Y179577D01*
X529957Y179577D01*
G37*
%LPD*%
%LPC*%
G36*
X834757Y27177D02*
X834757Y27177D01*
X830743Y28840D01*
X827670Y31913D01*
X826007Y35927D01*
X826007Y40273D01*
X827670Y44287D01*
X830743Y47360D01*
X834757Y49023D01*
X839103Y49023D01*
X843117Y47360D01*
X846190Y44287D01*
X847853Y40273D01*
X847853Y35927D01*
X846190Y31913D01*
X843117Y28840D01*
X839103Y27177D01*
X834757Y27177D01*
G37*
%LPD*%
%LPC*%
G36*
X809357Y27177D02*
X809357Y27177D01*
X805343Y28840D01*
X802270Y31913D01*
X800607Y35927D01*
X800607Y40273D01*
X802270Y44287D01*
X805343Y47360D01*
X809357Y49023D01*
X813703Y49023D01*
X817717Y47360D01*
X820790Y44287D01*
X822453Y40273D01*
X822453Y35927D01*
X820790Y31913D01*
X817717Y28840D01*
X813703Y27177D01*
X809357Y27177D01*
G37*
%LPD*%
%LPC*%
G36*
X580757Y179577D02*
X580757Y179577D01*
X576743Y181240D01*
X573670Y184313D01*
X572007Y188327D01*
X572007Y192673D01*
X573670Y196687D01*
X576743Y199760D01*
X580757Y201423D01*
X585103Y201423D01*
X589117Y199760D01*
X592190Y196687D01*
X593853Y192673D01*
X593853Y188327D01*
X592190Y184313D01*
X589117Y181240D01*
X585103Y179577D01*
X580757Y179577D01*
G37*
%LPD*%
%LPC*%
G36*
X853439Y236219D02*
X853439Y236219D01*
X853439Y252201D01*
X854995Y251695D01*
X856492Y250933D01*
X857850Y249946D01*
X859038Y248758D01*
X860025Y247400D01*
X860787Y245903D01*
X861306Y244306D01*
X861569Y242648D01*
X861569Y236219D01*
X853439Y236219D01*
G37*
%LPD*%
%LPC*%
G36*
X853439Y231141D02*
X853439Y231141D01*
X861569Y231141D01*
X861569Y224712D01*
X861306Y223054D01*
X860787Y221457D01*
X860025Y219960D01*
X859038Y218602D01*
X857850Y217414D01*
X856492Y216427D01*
X854995Y215665D01*
X853439Y215159D01*
X853439Y231141D01*
G37*
%LPD*%
%LPC*%
G36*
X840231Y236219D02*
X840231Y236219D01*
X840231Y242648D01*
X840494Y244306D01*
X841013Y245903D01*
X841775Y247400D01*
X842762Y248758D01*
X843950Y249946D01*
X845308Y250933D01*
X846805Y251695D01*
X848361Y252201D01*
X848361Y236219D01*
X840231Y236219D01*
G37*
%LPD*%
%LPC*%
G36*
X846805Y215665D02*
X846805Y215665D01*
X845308Y216427D01*
X843950Y217414D01*
X842762Y218602D01*
X841775Y219960D01*
X841013Y221457D01*
X840494Y223054D01*
X840231Y224712D01*
X840231Y231141D01*
X848361Y231141D01*
X848361Y215159D01*
X846805Y215665D01*
G37*
%LPD*%
%LPC*%
G36*
X348139Y418339D02*
X348139Y418339D01*
X348139Y428601D01*
X348654Y428520D01*
X350606Y427885D01*
X352435Y426953D01*
X354095Y425747D01*
X355547Y424295D01*
X356753Y422635D01*
X357685Y420806D01*
X358320Y418854D01*
X358401Y418339D01*
X348139Y418339D01*
G37*
%LPD*%
%LPC*%
G36*
X241139Y323339D02*
X241139Y323339D01*
X241139Y333601D01*
X241654Y333520D01*
X243606Y332885D01*
X245435Y331953D01*
X247095Y330747D01*
X248547Y329295D01*
X249753Y327635D01*
X250685Y325806D01*
X251320Y323854D01*
X251401Y323339D01*
X241139Y323339D01*
G37*
%LPD*%
%LPC*%
G36*
X406239Y247139D02*
X406239Y247139D01*
X406239Y257401D01*
X406754Y257320D01*
X408706Y256685D01*
X410535Y255753D01*
X412195Y254547D01*
X413647Y253095D01*
X414853Y251435D01*
X415785Y249606D01*
X416420Y247654D01*
X416501Y247139D01*
X406239Y247139D01*
G37*
%LPD*%
%LPC*%
G36*
X513239Y342139D02*
X513239Y342139D01*
X513239Y352401D01*
X513754Y352320D01*
X515706Y351685D01*
X517535Y350753D01*
X519195Y349547D01*
X520647Y348095D01*
X521853Y346435D01*
X522785Y344606D01*
X523420Y342654D01*
X523501Y342139D01*
X513239Y342139D01*
G37*
%LPD*%
%LPC*%
G36*
X241139Y318261D02*
X241139Y318261D01*
X251401Y318261D01*
X251320Y317746D01*
X250685Y315794D01*
X249753Y313965D01*
X248547Y312305D01*
X247095Y310853D01*
X245435Y309647D01*
X243606Y308715D01*
X241654Y308080D01*
X241139Y307999D01*
X241139Y318261D01*
G37*
%LPD*%
%LPC*%
G36*
X390899Y247139D02*
X390899Y247139D01*
X390980Y247654D01*
X391615Y249606D01*
X392547Y251435D01*
X393753Y253095D01*
X395205Y254547D01*
X396865Y255753D01*
X398694Y256685D01*
X400646Y257320D01*
X401161Y257401D01*
X401161Y247139D01*
X390899Y247139D01*
G37*
%LPD*%
%LPC*%
G36*
X513239Y337061D02*
X513239Y337061D01*
X523501Y337061D01*
X523420Y336546D01*
X522785Y334594D01*
X521853Y332765D01*
X520647Y331105D01*
X519195Y329653D01*
X517535Y328447D01*
X515706Y327515D01*
X513754Y326880D01*
X513239Y326799D01*
X513239Y337061D01*
G37*
%LPD*%
%LPC*%
G36*
X332799Y418339D02*
X332799Y418339D01*
X332880Y418854D01*
X333515Y420806D01*
X334447Y422635D01*
X335653Y424295D01*
X337105Y425747D01*
X338765Y426953D01*
X340594Y427885D01*
X342546Y428520D01*
X343061Y428601D01*
X343061Y418339D01*
X332799Y418339D01*
G37*
%LPD*%
%LPC*%
G36*
X406239Y242061D02*
X406239Y242061D01*
X416501Y242061D01*
X416420Y241546D01*
X415785Y239594D01*
X414853Y237765D01*
X413647Y236105D01*
X412195Y234653D01*
X410535Y233447D01*
X408706Y232515D01*
X406754Y231880D01*
X406239Y231799D01*
X406239Y242061D01*
G37*
%LPD*%
%LPC*%
G36*
X497899Y342139D02*
X497899Y342139D01*
X497980Y342654D01*
X498615Y344606D01*
X499547Y346435D01*
X500753Y348095D01*
X502205Y349547D01*
X503865Y350753D01*
X505694Y351685D01*
X507646Y352320D01*
X508161Y352401D01*
X508161Y342139D01*
X497899Y342139D01*
G37*
%LPD*%
%LPC*%
G36*
X348139Y413261D02*
X348139Y413261D01*
X358401Y413261D01*
X358320Y412746D01*
X357685Y410794D01*
X356753Y408965D01*
X355547Y407305D01*
X354095Y405853D01*
X352435Y404647D01*
X350606Y403715D01*
X348654Y403080D01*
X348139Y402999D01*
X348139Y413261D01*
G37*
%LPD*%
%LPC*%
G36*
X225799Y323339D02*
X225799Y323339D01*
X225880Y323854D01*
X226515Y325806D01*
X227447Y327635D01*
X228653Y329295D01*
X230105Y330747D01*
X231765Y331953D01*
X233594Y332885D01*
X235546Y333520D01*
X236061Y333601D01*
X236061Y323339D01*
X225799Y323339D01*
G37*
%LPD*%
%LPC*%
G36*
X235546Y308080D02*
X235546Y308080D01*
X233594Y308715D01*
X231765Y309647D01*
X230105Y310853D01*
X228653Y312305D01*
X227447Y313965D01*
X226515Y315794D01*
X225880Y317746D01*
X225799Y318261D01*
X236061Y318261D01*
X236061Y307999D01*
X235546Y308080D01*
G37*
%LPD*%
%LPC*%
G36*
X342546Y403080D02*
X342546Y403080D01*
X340594Y403715D01*
X338765Y404647D01*
X338062Y405158D01*
X338061Y405158D01*
X337105Y405853D01*
X335653Y407305D01*
X334447Y408965D01*
X333515Y410794D01*
X332880Y412746D01*
X332799Y413261D01*
X343061Y413261D01*
X343061Y402999D01*
X342546Y403080D01*
G37*
%LPD*%
%LPC*%
G36*
X507646Y326880D02*
X507646Y326880D01*
X505694Y327515D01*
X503865Y328447D01*
X503100Y329003D01*
X502205Y329653D01*
X500753Y331105D01*
X499547Y332765D01*
X498615Y334594D01*
X497980Y336546D01*
X497899Y337061D01*
X508161Y337061D01*
X508161Y326799D01*
X507646Y326880D01*
G37*
%LPD*%
%LPC*%
G36*
X400646Y231880D02*
X400646Y231880D01*
X398694Y232515D01*
X396865Y233447D01*
X395205Y234653D01*
X393753Y236105D01*
X392547Y237765D01*
X391615Y239594D01*
X390980Y241546D01*
X390899Y242061D01*
X401161Y242061D01*
X401161Y231799D01*
X400646Y231880D01*
G37*
%LPD*%
%LPC*%
G36*
X755649Y316231D02*
X755649Y316231D01*
X765567Y316231D01*
X765498Y315796D01*
X764880Y313895D01*
X763973Y312113D01*
X762798Y310496D01*
X761384Y309082D01*
X759767Y307907D01*
X757985Y307000D01*
X756084Y306382D01*
X755649Y306313D01*
X755649Y316231D01*
G37*
%LPD*%
%LPC*%
G36*
X180339Y377191D02*
X180339Y377191D01*
X190257Y377191D01*
X190188Y376756D01*
X189570Y374855D01*
X188663Y373073D01*
X187488Y371456D01*
X186074Y370042D01*
X184457Y368867D01*
X182675Y367960D01*
X180774Y367342D01*
X180339Y367273D01*
X180339Y377191D01*
G37*
%LPD*%
%LPC*%
G36*
X180339Y300991D02*
X180339Y300991D01*
X190257Y300991D01*
X190188Y300556D01*
X189570Y298655D01*
X188663Y296873D01*
X187488Y295256D01*
X186074Y293842D01*
X184457Y292667D01*
X182675Y291760D01*
X180774Y291142D01*
X180339Y291073D01*
X180339Y300991D01*
G37*
%LPD*%
%LPC*%
G36*
X180339Y453391D02*
X180339Y453391D01*
X190257Y453391D01*
X190188Y452956D01*
X189570Y451055D01*
X188663Y449273D01*
X187488Y447656D01*
X186074Y446242D01*
X184457Y445067D01*
X182675Y444160D01*
X180774Y443542D01*
X180339Y443473D01*
X180339Y453391D01*
G37*
%LPD*%
%LPC*%
G36*
X750136Y306382D02*
X750136Y306382D01*
X748235Y307000D01*
X746453Y307907D01*
X744836Y309082D01*
X743422Y310496D01*
X742247Y312113D01*
X741340Y313895D01*
X740722Y315796D01*
X740653Y316231D01*
X750571Y316231D01*
X750571Y306313D01*
X750136Y306382D01*
G37*
%LPD*%
%LPC*%
G36*
X174826Y291142D02*
X174826Y291142D01*
X172925Y291760D01*
X171143Y292667D01*
X169526Y293842D01*
X168112Y295256D01*
X166937Y296873D01*
X166030Y298655D01*
X165412Y300556D01*
X165343Y300991D01*
X175261Y300991D01*
X175261Y291073D01*
X174826Y291142D01*
G37*
%LPD*%
%LPC*%
G36*
X174826Y443542D02*
X174826Y443542D01*
X172925Y444160D01*
X171143Y445067D01*
X169526Y446242D01*
X168112Y447656D01*
X166937Y449273D01*
X166030Y451055D01*
X165412Y452956D01*
X165343Y453391D01*
X175261Y453391D01*
X175261Y443473D01*
X174826Y443542D01*
G37*
%LPD*%
%LPC*%
G36*
X174826Y367342D02*
X174826Y367342D01*
X172925Y367960D01*
X171143Y368867D01*
X169526Y370042D01*
X168112Y371456D01*
X166937Y373073D01*
X166030Y374855D01*
X165412Y376756D01*
X165343Y377191D01*
X175261Y377191D01*
X175261Y367273D01*
X174826Y367342D01*
G37*
%LPD*%
%LPC*%
G36*
X561049Y446749D02*
X561049Y446749D01*
X561049Y456231D01*
X561596Y456145D01*
X563383Y455564D01*
X565057Y454711D01*
X566578Y453606D01*
X567906Y452278D01*
X569011Y450757D01*
X569864Y449083D01*
X570445Y447296D01*
X570531Y446749D01*
X561049Y446749D01*
G37*
%LPD*%
%LPC*%
G36*
X205449Y256249D02*
X205449Y256249D01*
X205449Y265731D01*
X205996Y265645D01*
X207783Y265064D01*
X209457Y264211D01*
X210978Y263106D01*
X212306Y261778D01*
X213411Y260257D01*
X214264Y258583D01*
X214845Y256796D01*
X214931Y256249D01*
X205449Y256249D01*
G37*
%LPD*%
%LPC*%
G36*
X573749Y256249D02*
X573749Y256249D01*
X573749Y265731D01*
X574296Y265645D01*
X576083Y265064D01*
X577757Y264211D01*
X579278Y263106D01*
X580606Y261778D01*
X581711Y260257D01*
X582564Y258583D01*
X583145Y256796D01*
X583231Y256249D01*
X573749Y256249D01*
G37*
%LPD*%
%LPC*%
G36*
X205449Y251751D02*
X205449Y251751D01*
X214931Y251751D01*
X214845Y251204D01*
X214761Y250945D01*
X214264Y249417D01*
X213411Y247743D01*
X212306Y246222D01*
X210978Y244894D01*
X209457Y243789D01*
X207783Y242936D01*
X205996Y242355D01*
X205449Y242269D01*
X205449Y251751D01*
G37*
%LPD*%
%LPC*%
G36*
X573749Y251751D02*
X573749Y251751D01*
X583231Y251751D01*
X583145Y251204D01*
X583061Y250945D01*
X582564Y249417D01*
X581711Y247743D01*
X580606Y246222D01*
X579278Y244894D01*
X577757Y243789D01*
X576083Y242936D01*
X574296Y242355D01*
X573749Y242269D01*
X573749Y251751D01*
G37*
%LPD*%
%LPC*%
G36*
X191469Y256249D02*
X191469Y256249D01*
X191555Y256796D01*
X192136Y258583D01*
X192989Y260257D01*
X194094Y261778D01*
X195422Y263106D01*
X196943Y264211D01*
X198617Y265064D01*
X200404Y265645D01*
X200951Y265731D01*
X200951Y256249D01*
X191469Y256249D01*
G37*
%LPD*%
%LPC*%
G36*
X559769Y256249D02*
X559769Y256249D01*
X559855Y256796D01*
X560436Y258583D01*
X561289Y260257D01*
X562394Y261778D01*
X563722Y263106D01*
X565243Y264211D01*
X566917Y265064D01*
X568704Y265645D01*
X569251Y265731D01*
X569251Y256249D01*
X559769Y256249D01*
G37*
%LPD*%
%LPC*%
G36*
X561049Y442251D02*
X561049Y442251D01*
X570531Y442251D01*
X570445Y441704D01*
X569864Y439917D01*
X569011Y438243D01*
X567906Y436722D01*
X566578Y435394D01*
X565057Y434289D01*
X563383Y433436D01*
X561596Y432855D01*
X561049Y432769D01*
X561049Y442251D01*
G37*
%LPD*%
%LPC*%
G36*
X547069Y446749D02*
X547069Y446749D01*
X547155Y447296D01*
X547736Y449083D01*
X548589Y450757D01*
X549694Y452278D01*
X551022Y453606D01*
X552543Y454711D01*
X554217Y455564D01*
X556004Y456145D01*
X556551Y456231D01*
X556551Y446749D01*
X547069Y446749D01*
G37*
%LPD*%
%LPC*%
G36*
X556004Y432855D02*
X556004Y432855D01*
X554217Y433436D01*
X552543Y434289D01*
X551022Y435394D01*
X549694Y436722D01*
X548589Y438243D01*
X547736Y439917D01*
X547155Y441704D01*
X547069Y442251D01*
X556551Y442251D01*
X556551Y432769D01*
X556004Y432855D01*
G37*
%LPD*%
%LPC*%
G36*
X568704Y242355D02*
X568704Y242355D01*
X566917Y242936D01*
X565243Y243789D01*
X563722Y244894D01*
X562394Y246222D01*
X561289Y247743D01*
X560436Y249417D01*
X559855Y251204D01*
X559769Y251751D01*
X569251Y251751D01*
X569251Y242269D01*
X568704Y242355D01*
G37*
%LPD*%
%LPC*%
G36*
X200404Y242355D02*
X200404Y242355D01*
X198617Y242936D01*
X196943Y243789D01*
X195422Y244894D01*
X194094Y246222D01*
X192989Y247743D01*
X192136Y249417D01*
X191555Y251204D01*
X191469Y251751D01*
X200951Y251751D01*
X200951Y242269D01*
X200404Y242355D01*
G37*
%LPD*%
%LPC*%
G36*
X27939Y200661D02*
X27939Y200661D01*
X37085Y200661D01*
X37045Y200404D01*
X36464Y198617D01*
X35611Y196943D01*
X34506Y195422D01*
X33178Y194094D01*
X31657Y192989D01*
X29983Y192136D01*
X28196Y191555D01*
X27939Y191515D01*
X27939Y200661D01*
G37*
%LPD*%
%LPC*%
G36*
X22604Y191555D02*
X22604Y191555D01*
X20817Y192136D01*
X19143Y192989D01*
X17622Y194094D01*
X16294Y195422D01*
X15189Y196943D01*
X14336Y198617D01*
X13755Y200404D01*
X13715Y200661D01*
X22861Y200661D01*
X22861Y191515D01*
X22604Y191555D01*
G37*
%LPD*%
%LPC*%
G36*
X332231Y154431D02*
X332231Y154431D01*
X332231Y162880D01*
X332698Y162806D01*
X334295Y162287D01*
X335792Y161525D01*
X336956Y160679D01*
X337150Y160538D01*
X338338Y159350D01*
X339325Y157992D01*
X340087Y156495D01*
X340606Y154898D01*
X340680Y154431D01*
X332231Y154431D01*
G37*
%LPD*%
%LPC*%
G36*
X675131Y319531D02*
X675131Y319531D01*
X675131Y327980D01*
X675598Y327906D01*
X677195Y327387D01*
X678692Y326625D01*
X680050Y325638D01*
X681238Y324450D01*
X682225Y323092D01*
X682987Y321595D01*
X683506Y319998D01*
X683580Y319531D01*
X675131Y319531D01*
G37*
%LPD*%
%LPC*%
G36*
X662620Y319531D02*
X662620Y319531D01*
X662694Y319998D01*
X663213Y321595D01*
X663975Y323092D01*
X664962Y324450D01*
X666150Y325638D01*
X667508Y326625D01*
X669005Y327387D01*
X670602Y327906D01*
X671069Y327980D01*
X671069Y319531D01*
X662620Y319531D01*
G37*
%LPD*%
%LPC*%
G36*
X319720Y154431D02*
X319720Y154431D01*
X319794Y154898D01*
X320313Y156495D01*
X321075Y157992D01*
X322062Y159350D01*
X323250Y160538D01*
X324608Y161525D01*
X326105Y162287D01*
X327702Y162806D01*
X328169Y162880D01*
X328169Y154431D01*
X319720Y154431D01*
G37*
%LPD*%
%LPC*%
G36*
X332231Y150369D02*
X332231Y150369D01*
X340680Y150369D01*
X340606Y149902D01*
X340087Y148305D01*
X339325Y146808D01*
X338338Y145450D01*
X337150Y144262D01*
X335792Y143275D01*
X334295Y142513D01*
X332698Y141994D01*
X332231Y141920D01*
X332231Y150369D01*
G37*
%LPD*%
%LPC*%
G36*
X675131Y315469D02*
X675131Y315469D01*
X683580Y315469D01*
X683506Y315002D01*
X682987Y313405D01*
X682225Y311908D01*
X681238Y310550D01*
X680050Y309362D01*
X678692Y308375D01*
X677195Y307613D01*
X675598Y307094D01*
X675131Y307020D01*
X675131Y315469D01*
G37*
%LPD*%
%LPC*%
G36*
X670602Y307094D02*
X670602Y307094D01*
X669005Y307613D01*
X667508Y308375D01*
X666150Y309362D01*
X664962Y310550D01*
X663975Y311908D01*
X663213Y313405D01*
X662694Y315002D01*
X662620Y315469D01*
X671069Y315469D01*
X671069Y307020D01*
X670602Y307094D01*
G37*
%LPD*%
%LPC*%
G36*
X327702Y141994D02*
X327702Y141994D01*
X326105Y142513D01*
X324608Y143275D01*
X323250Y144262D01*
X322062Y145450D01*
X321075Y146808D01*
X320313Y148305D01*
X319794Y149902D01*
X319720Y150369D01*
X328169Y150369D01*
X328169Y141920D01*
X327702Y141994D01*
G37*
%LPD*%
%LPC*%
G36*
X864742Y192912D02*
X864742Y192912D01*
X864742Y200663D01*
X864769Y200658D01*
X866328Y200152D01*
X867789Y199407D01*
X869115Y198444D01*
X870274Y197285D01*
X871237Y195959D01*
X871982Y194498D01*
X872488Y192939D01*
X872493Y192912D01*
X864742Y192912D01*
G37*
%LPD*%
%LPC*%
G36*
X852167Y192912D02*
X852167Y192912D01*
X852172Y192939D01*
X852678Y194498D01*
X853423Y195959D01*
X854386Y197285D01*
X855545Y198444D01*
X856871Y199407D01*
X858332Y200152D01*
X859891Y200658D01*
X859918Y200662D01*
X859918Y192912D01*
X852167Y192912D01*
G37*
%LPD*%
%LPC*%
G36*
X864742Y188088D02*
X864742Y188088D01*
X872492Y188088D01*
X872488Y188061D01*
X871982Y186502D01*
X871237Y185041D01*
X870274Y183715D01*
X869115Y182556D01*
X867789Y181593D01*
X866328Y180848D01*
X864769Y180342D01*
X864742Y180337D01*
X864742Y188088D01*
G37*
%LPD*%
%LPC*%
G36*
X859891Y180342D02*
X859891Y180342D01*
X858332Y180848D01*
X856871Y181593D01*
X855545Y182556D01*
X854386Y183715D01*
X853423Y185041D01*
X852678Y186502D01*
X852172Y188061D01*
X852168Y188088D01*
X859918Y188088D01*
X859918Y180338D01*
X859891Y180342D01*
G37*
%LPD*%
%LPC*%
G36*
X238599Y320799D02*
X238599Y320799D01*
X238599Y320801D01*
X238601Y320801D01*
X238601Y320799D01*
X238599Y320799D01*
G37*
%LPD*%
%LPC*%
G36*
X510699Y339599D02*
X510699Y339599D01*
X510699Y339601D01*
X510701Y339601D01*
X510701Y339599D01*
X510699Y339599D01*
G37*
%LPD*%
%LPC*%
G36*
X403699Y244599D02*
X403699Y244599D01*
X403699Y244601D01*
X403701Y244601D01*
X403701Y244599D01*
X403699Y244599D01*
G37*
%LPD*%
%LPC*%
G36*
X345599Y415799D02*
X345599Y415799D01*
X345599Y415801D01*
X345601Y415801D01*
X345601Y415799D01*
X345599Y415799D01*
G37*
%LPD*%
%LPC*%
G36*
X850899Y233679D02*
X850899Y233679D01*
X850899Y233681D01*
X850901Y233681D01*
X850901Y233679D01*
X850899Y233679D01*
G37*
%LPD*%
D10*
X177800Y455930D03*
X177800Y483870D03*
X753110Y346710D03*
X753110Y318770D03*
D11*
X25400Y482600D03*
X25400Y457200D03*
X25400Y431800D03*
X25400Y406400D03*
X25400Y381000D03*
X25400Y355600D03*
X25400Y330200D03*
X25400Y304800D03*
X25400Y279400D03*
X25400Y254000D03*
X25400Y228600D03*
X25400Y203200D03*
X495300Y444500D03*
X508000Y463550D03*
X520700Y444500D03*
X419100Y444500D03*
X431800Y463550D03*
X444500Y444500D03*
X698500Y254000D03*
X774700Y254000D03*
X685800Y279400D03*
X762000Y279400D03*
X647700Y254000D03*
X571500Y254000D03*
X635000Y444500D03*
X558800Y444500D03*
X673100Y444500D03*
X749300Y444500D03*
X685800Y469900D03*
X762000Y469900D03*
X571500Y469900D03*
X647700Y469900D03*
X112759Y128541D03*
X166641Y74659D03*
X558800Y279400D03*
X635000Y279400D03*
D12*
X862330Y190500D03*
X836930Y190500D03*
X811530Y190500D03*
X786130Y190500D03*
X760730Y190500D03*
X735330Y190500D03*
X709930Y190500D03*
X684530Y190500D03*
X659130Y190500D03*
X633730Y190500D03*
X608330Y190500D03*
X582930Y190500D03*
X557530Y190500D03*
X532130Y190500D03*
X532130Y38100D03*
X557530Y38100D03*
X582930Y38100D03*
X608330Y38100D03*
X633730Y38100D03*
X659130Y38100D03*
X684530Y38100D03*
X709930Y38100D03*
X735330Y38100D03*
X760730Y38100D03*
X786130Y38100D03*
X811530Y38100D03*
X836930Y38100D03*
X862330Y38100D03*
D13*
X403700Y244600D03*
X510700Y244600D03*
X510700Y339600D03*
X403700Y339600D03*
X238600Y320800D03*
X345600Y320800D03*
X345600Y415800D03*
X238600Y415800D03*
D14*
X825500Y241808D02*
X825500Y225552D01*
X850900Y225552D02*
X850900Y241808D01*
X876300Y241808D02*
X876300Y225552D01*
D15*
X596900Y317500D03*
X622300Y317500D03*
X622300Y393700D03*
X596900Y393700D03*
X647700Y317500D03*
X673100Y317500D03*
X647700Y393700D03*
X673100Y393700D03*
D10*
X177800Y407670D03*
X177800Y379730D03*
X177800Y331470D03*
X177800Y303530D03*
D11*
X381000Y50800D03*
X381000Y127000D03*
X457200Y50800D03*
X457200Y127000D03*
X419100Y127000D03*
X419100Y50800D03*
X229718Y82037D03*
X171602Y131323D03*
D10*
X87630Y241300D03*
X115570Y241300D03*
X59690Y127000D03*
X31750Y127000D03*
D15*
X254000Y152400D03*
X279400Y152400D03*
X279400Y228600D03*
X254000Y228600D03*
X304800Y152400D03*
X330200Y152400D03*
X304800Y228600D03*
X330200Y228600D03*
D11*
X203200Y177800D03*
X203200Y254000D03*
X165100Y254000D03*
X165100Y177800D03*
D16*
X576580Y317500D02*
X596900Y317500D01*
X469900Y424180D02*
X469900Y457200D01*
X457200Y469900D01*
X438150Y469900D02*
X431800Y463550D01*
X469900Y424180D02*
X576580Y317500D01*
X457200Y469900D02*
X438150Y469900D01*
X571500Y286766D02*
X571500Y254000D01*
X571500Y286766D02*
X518922Y339344D01*
X512064Y339344D01*
X510700Y339600D01*
X27432Y211328D02*
X27432Y204470D01*
X27432Y211328D02*
X38862Y222758D01*
X38862Y241046D01*
X27432Y252476D01*
X27432Y204470D02*
X25400Y203200D01*
X27432Y252476D02*
X25400Y254000D01*
X27432Y295910D02*
X27432Y302768D01*
X27432Y295910D02*
X38862Y284480D01*
X38862Y266192D01*
X27432Y254762D01*
X27432Y302768D02*
X25400Y304800D01*
X27432Y254762D02*
X25400Y254000D01*
X27432Y357632D02*
X27432Y364490D01*
X38862Y375920D01*
X38862Y394208D01*
X27432Y405638D01*
X27432Y357632D02*
X25400Y355600D01*
X27432Y405638D02*
X25400Y406400D01*
X27432Y449072D02*
X27432Y455930D01*
X27432Y449072D02*
X38862Y437642D01*
X38862Y419354D01*
X27432Y407924D01*
X27432Y455930D02*
X25400Y457200D01*
X27432Y407924D02*
X25400Y406400D01*
X27432Y314198D02*
X27432Y305054D01*
X27432Y314198D02*
X38862Y325628D01*
X38862Y343916D01*
X27432Y355346D01*
X27432Y305054D02*
X25400Y304800D01*
X27432Y355346D02*
X25400Y355600D01*
X178308Y426212D02*
X178308Y455930D01*
X178308Y426212D02*
X192024Y412496D01*
X178308Y455930D02*
X177800Y455930D01*
X27686Y355600D02*
X27432Y355346D01*
X27686Y355600D02*
X153670Y355600D01*
X177800Y379730D01*
X192024Y393954D01*
X192024Y412496D01*
X253746Y227330D02*
X253746Y182880D01*
X229616Y158750D01*
X229616Y82322D01*
X253746Y227330D02*
X254000Y228600D01*
X229616Y82322D02*
X229718Y82037D01*
X546354Y394208D02*
X596646Y394208D01*
X546354Y394208D02*
X496062Y444500D01*
X596646Y394208D02*
X596900Y393700D01*
X496062Y444500D02*
X495300Y444500D01*
X420624Y91186D02*
X420624Y51308D01*
X456438Y127000D02*
X457200Y127000D01*
X456438Y127000D02*
X420624Y91186D01*
X420624Y51308D02*
X419100Y50800D01*
X331470Y203454D02*
X331470Y227330D01*
X331470Y203454D02*
X381000Y153924D01*
X331470Y227330D02*
X330200Y228600D01*
X381000Y127000D02*
X384810Y127000D01*
X420624Y91186D01*
X887222Y112522D02*
X887222Y127000D01*
X887222Y222758D01*
X861822Y38318D02*
X862330Y38100D01*
X861822Y38318D02*
X861822Y87122D01*
X887222Y112522D01*
X887222Y127000D02*
X457200Y127000D01*
X876300Y233680D02*
X887222Y222758D01*
X786130Y346710D02*
X753110Y346710D01*
X786130Y346710D02*
X876300Y256540D01*
X876300Y233680D01*
X381000Y153924D02*
X381000Y127000D01*
X403700Y301500D02*
X403700Y339600D01*
X403700Y301500D02*
X378044Y275844D01*
X219456Y275844D01*
X203200Y292100D01*
X203200Y317500D01*
X189230Y331470D01*
X177800Y331470D01*
X638556Y58674D02*
X659130Y38100D01*
X500634Y58674D02*
X458470Y16510D01*
X415290Y16510D01*
X381000Y50800D01*
X500634Y58674D02*
X638556Y58674D01*
X115570Y131352D02*
X115570Y241300D01*
X115570Y131352D02*
X112759Y128541D01*
X111489Y128541D01*
X62958Y80010D01*
X52070Y80010D01*
X30480Y101600D01*
X30480Y125730D01*
X31750Y127000D01*
X715010Y303530D02*
X736854Y281686D01*
X715010Y303530D02*
X715010Y410210D01*
X749300Y444500D01*
X736854Y217424D02*
X709930Y190500D01*
X736854Y217424D02*
X736854Y281686D01*
X722630Y273050D02*
X722630Y228600D01*
X698500Y297180D02*
X698500Y431800D01*
X736600Y469900D01*
X762000Y469900D01*
X698500Y297180D02*
X722630Y273050D01*
X722630Y228600D02*
X684530Y190500D01*
M02*
