G04 EAGLE Gerber RS-274X export*
G75*
%MOMM*%
%FSLAX34Y34*%
%LPD*%
%INBottom Silkscreen*%
%IPPOS*%
%AMOC8*
5,1,8,0,0,1.08239X$1,22.5*%
G01*
%ADD10C,0.203200*%


D10*
X711200Y246380D02*
X762000Y246380D01*
X762000Y254000D01*
X762000Y261620D01*
X711200Y261620D01*
X711200Y254000D01*
X711200Y246380D01*
X762000Y254000D02*
X764540Y254000D01*
X711200Y254000D02*
X708660Y254000D01*
X698500Y271780D02*
X749300Y271780D01*
X749300Y279400D01*
X749300Y287020D01*
X698500Y287020D01*
X698500Y279400D01*
X698500Y271780D01*
X749300Y279400D02*
X751840Y279400D01*
X698500Y279400D02*
X695960Y279400D01*
X685800Y436880D02*
X736600Y436880D01*
X736600Y444500D01*
X736600Y452120D01*
X685800Y452120D01*
X685800Y444500D01*
X685800Y436880D01*
X736600Y444500D02*
X739140Y444500D01*
X685800Y444500D02*
X683260Y444500D01*
X698500Y462280D02*
X749300Y462280D01*
X749300Y469900D01*
X749300Y477520D01*
X698500Y477520D01*
X698500Y469900D01*
X698500Y462280D01*
X749300Y469900D02*
X751840Y469900D01*
X698500Y469900D02*
X695960Y469900D01*
M02*
