G04 EAGLE Gerber RS-274X export*
G75*
%MOMM*%
%FSLAX34Y34*%
%LPD*%
%INBottom Soldermask*%
%IPPOS*%
%AMOC8*
5,1,8,0,0,1.08239X$1,22.5*%
G01*
%ADD10C,4.013200*%
%ADD11C,2.082800*%
%ADD12C,1.778000*%
%ADD13C,2.303200*%
%ADD14C,1.828800*%
%ADD15C,3.505200*%
%ADD16C,1.828800*%

G36*
X61501Y116959D02*
X61501Y116959D01*
X61544Y116971D01*
X61610Y116980D01*
X63227Y117434D01*
X63268Y117453D01*
X63296Y117462D01*
X63306Y117464D01*
X63310Y117466D01*
X63331Y117473D01*
X64845Y118201D01*
X64881Y118227D01*
X64940Y118257D01*
X66305Y119238D01*
X66336Y119270D01*
X66389Y119310D01*
X67563Y120512D01*
X67588Y120549D01*
X67633Y120597D01*
X68580Y121985D01*
X68598Y122026D01*
X68634Y122082D01*
X69326Y123613D01*
X69337Y123656D01*
X69363Y123717D01*
X69778Y125346D01*
X69781Y125390D01*
X69796Y125455D01*
X69922Y127130D01*
X69918Y127177D01*
X69920Y127249D01*
X69715Y129085D01*
X69701Y129131D01*
X69689Y129206D01*
X69129Y130967D01*
X69106Y131009D01*
X69080Y131081D01*
X68187Y132698D01*
X68157Y132736D01*
X68117Y132801D01*
X66926Y134213D01*
X66889Y134244D01*
X66837Y134300D01*
X65393Y135453D01*
X65351Y135476D01*
X65289Y135520D01*
X63648Y136369D01*
X63602Y136384D01*
X63533Y136415D01*
X61758Y136928D01*
X61710Y136933D01*
X61635Y136951D01*
X59795Y137107D01*
X59751Y137103D01*
X59686Y137107D01*
X57855Y136947D01*
X57809Y136934D01*
X57733Y136924D01*
X55969Y136410D01*
X55925Y136389D01*
X55853Y136364D01*
X54223Y135515D01*
X54185Y135486D01*
X54119Y135447D01*
X52686Y134297D01*
X52654Y134261D01*
X52597Y134210D01*
X51416Y132802D01*
X51392Y132761D01*
X51346Y132700D01*
X51136Y132318D01*
X50462Y131088D01*
X50447Y131043D01*
X50413Y130974D01*
X49861Y129221D01*
X49855Y129174D01*
X49835Y129100D01*
X49636Y127273D01*
X49639Y127227D01*
X49633Y127158D01*
X49756Y125482D01*
X49767Y125439D01*
X49773Y125373D01*
X50185Y123743D01*
X50203Y123703D01*
X50221Y123639D01*
X50909Y122106D01*
X50934Y122069D01*
X50963Y122009D01*
X51907Y120619D01*
X51938Y120587D01*
X51976Y120533D01*
X53147Y119327D01*
X53184Y119301D01*
X53231Y119255D01*
X54593Y118271D01*
X54634Y118252D01*
X54688Y118215D01*
X56201Y117482D01*
X56244Y117470D01*
X56255Y117465D01*
X56282Y117452D01*
X56287Y117451D01*
X56304Y117443D01*
X57921Y116985D01*
X57966Y116980D01*
X58030Y116964D01*
X59702Y116793D01*
X59750Y116797D01*
X59829Y116793D01*
X61501Y116959D01*
G37*
G36*
X33510Y116959D02*
X33510Y116959D01*
X33553Y116971D01*
X33619Y116980D01*
X35236Y117434D01*
X35277Y117453D01*
X35305Y117462D01*
X35315Y117464D01*
X35319Y117466D01*
X35340Y117473D01*
X36854Y118201D01*
X36890Y118227D01*
X36949Y118257D01*
X38314Y119238D01*
X38345Y119270D01*
X38398Y119310D01*
X39572Y120512D01*
X39597Y120549D01*
X39642Y120597D01*
X40589Y121985D01*
X40607Y122026D01*
X40643Y122082D01*
X41335Y123613D01*
X41346Y123656D01*
X41372Y123717D01*
X41787Y125346D01*
X41790Y125390D01*
X41805Y125455D01*
X41931Y127130D01*
X41927Y127177D01*
X41929Y127249D01*
X41724Y129085D01*
X41710Y129131D01*
X41698Y129206D01*
X41138Y130967D01*
X41115Y131009D01*
X41089Y131081D01*
X40196Y132698D01*
X40166Y132736D01*
X40126Y132801D01*
X38935Y134213D01*
X38898Y134244D01*
X38846Y134300D01*
X37402Y135453D01*
X37360Y135476D01*
X37298Y135520D01*
X35657Y136369D01*
X35611Y136384D01*
X35542Y136415D01*
X33767Y136928D01*
X33719Y136933D01*
X33644Y136951D01*
X31804Y137107D01*
X31760Y137103D01*
X31695Y137107D01*
X29864Y136947D01*
X29818Y136934D01*
X29742Y136924D01*
X27978Y136410D01*
X27934Y136389D01*
X27862Y136364D01*
X26232Y135515D01*
X26194Y135486D01*
X26128Y135447D01*
X24695Y134297D01*
X24663Y134261D01*
X24606Y134210D01*
X23425Y132802D01*
X23401Y132761D01*
X23355Y132700D01*
X23145Y132318D01*
X22471Y131088D01*
X22456Y131043D01*
X22422Y130974D01*
X21870Y129221D01*
X21864Y129174D01*
X21844Y129100D01*
X21645Y127273D01*
X21648Y127227D01*
X21642Y127158D01*
X21765Y125482D01*
X21776Y125439D01*
X21782Y125373D01*
X22194Y123743D01*
X22212Y123703D01*
X22230Y123639D01*
X22918Y122106D01*
X22943Y122069D01*
X22972Y122009D01*
X23916Y120619D01*
X23947Y120587D01*
X23985Y120533D01*
X25156Y119327D01*
X25193Y119301D01*
X25240Y119255D01*
X26602Y118271D01*
X26643Y118252D01*
X26697Y118215D01*
X28210Y117482D01*
X28253Y117470D01*
X28264Y117465D01*
X28291Y117452D01*
X28296Y117451D01*
X28313Y117443D01*
X29930Y116985D01*
X29975Y116980D01*
X30039Y116964D01*
X31711Y116793D01*
X31759Y116797D01*
X31838Y116793D01*
X33510Y116959D01*
G37*
G36*
X177977Y473693D02*
X177977Y473693D01*
X178049Y473691D01*
X179885Y473896D01*
X179931Y473910D01*
X180006Y473922D01*
X181767Y474482D01*
X181809Y474505D01*
X181881Y474531D01*
X183498Y475424D01*
X183536Y475454D01*
X183601Y475494D01*
X185013Y476685D01*
X185044Y476722D01*
X185100Y476774D01*
X186253Y478218D01*
X186276Y478260D01*
X186320Y478322D01*
X187169Y479963D01*
X187184Y480009D01*
X187215Y480078D01*
X187728Y481853D01*
X187733Y481901D01*
X187751Y481976D01*
X187907Y483816D01*
X187903Y483860D01*
X187907Y483925D01*
X187747Y485756D01*
X187734Y485802D01*
X187724Y485878D01*
X187210Y487642D01*
X187189Y487686D01*
X187164Y487758D01*
X186315Y489388D01*
X186286Y489426D01*
X186247Y489492D01*
X185097Y490925D01*
X185061Y490957D01*
X185010Y491014D01*
X183602Y492195D01*
X183561Y492219D01*
X183500Y492265D01*
X181888Y493149D01*
X181843Y493164D01*
X181774Y493198D01*
X180021Y493750D01*
X179974Y493756D01*
X179900Y493776D01*
X178073Y493976D01*
X178027Y493972D01*
X177958Y493978D01*
X176282Y493855D01*
X176239Y493844D01*
X176173Y493838D01*
X174543Y493427D01*
X174503Y493408D01*
X174439Y493390D01*
X172906Y492702D01*
X172869Y492677D01*
X172809Y492648D01*
X171419Y491704D01*
X171387Y491673D01*
X171333Y491635D01*
X170127Y490464D01*
X170101Y490428D01*
X170055Y490380D01*
X169071Y489018D01*
X169052Y488977D01*
X169015Y488923D01*
X168282Y487410D01*
X168270Y487367D01*
X168243Y487307D01*
X167785Y485690D01*
X167780Y485645D01*
X167764Y485581D01*
X167593Y483909D01*
X167597Y483861D01*
X167593Y483782D01*
X167759Y482110D01*
X167771Y482067D01*
X167780Y482002D01*
X168234Y480384D01*
X168253Y480343D01*
X168273Y480280D01*
X169001Y478766D01*
X169027Y478730D01*
X169057Y478671D01*
X170038Y477306D01*
X170070Y477275D01*
X170110Y477222D01*
X171312Y476048D01*
X171349Y476023D01*
X171397Y475978D01*
X172785Y475031D01*
X172826Y475013D01*
X172882Y474977D01*
X174413Y474285D01*
X174456Y474274D01*
X174517Y474248D01*
X176146Y473833D01*
X176190Y473830D01*
X176255Y473815D01*
X177930Y473689D01*
X177977Y473693D01*
G37*
G36*
X177977Y445702D02*
X177977Y445702D01*
X178049Y445700D01*
X179885Y445905D01*
X179931Y445919D01*
X180006Y445931D01*
X181767Y446491D01*
X181809Y446514D01*
X181881Y446540D01*
X183498Y447433D01*
X183536Y447463D01*
X183601Y447503D01*
X185013Y448694D01*
X185044Y448731D01*
X185100Y448783D01*
X186253Y450227D01*
X186276Y450269D01*
X186320Y450331D01*
X187169Y451972D01*
X187184Y452018D01*
X187215Y452087D01*
X187728Y453862D01*
X187733Y453910D01*
X187751Y453985D01*
X187907Y455825D01*
X187903Y455869D01*
X187907Y455934D01*
X187747Y457765D01*
X187734Y457811D01*
X187724Y457887D01*
X187210Y459651D01*
X187189Y459695D01*
X187164Y459767D01*
X186315Y461397D01*
X186286Y461435D01*
X186247Y461501D01*
X185097Y462934D01*
X185061Y462966D01*
X185010Y463023D01*
X183602Y464204D01*
X183561Y464228D01*
X183500Y464274D01*
X181888Y465158D01*
X181843Y465173D01*
X181774Y465207D01*
X180021Y465759D01*
X179974Y465765D01*
X179900Y465785D01*
X178073Y465985D01*
X178027Y465981D01*
X177958Y465987D01*
X176282Y465864D01*
X176239Y465853D01*
X176173Y465847D01*
X174543Y465436D01*
X174503Y465417D01*
X174439Y465399D01*
X172906Y464711D01*
X172869Y464686D01*
X172809Y464657D01*
X171419Y463713D01*
X171387Y463682D01*
X171333Y463644D01*
X170127Y462473D01*
X170101Y462437D01*
X170055Y462389D01*
X169071Y461027D01*
X169052Y460986D01*
X169015Y460932D01*
X168282Y459419D01*
X168270Y459376D01*
X168243Y459316D01*
X167785Y457699D01*
X167780Y457654D01*
X167764Y457590D01*
X167593Y455918D01*
X167597Y455870D01*
X167593Y455791D01*
X167759Y454119D01*
X167771Y454076D01*
X167780Y454011D01*
X168234Y452393D01*
X168253Y452352D01*
X168273Y452289D01*
X169001Y450775D01*
X169027Y450739D01*
X169057Y450680D01*
X170038Y449315D01*
X170070Y449284D01*
X170110Y449231D01*
X171312Y448057D01*
X171349Y448032D01*
X171397Y447987D01*
X172785Y447040D01*
X172826Y447022D01*
X172882Y446986D01*
X174413Y446294D01*
X174456Y446283D01*
X174517Y446257D01*
X176146Y445842D01*
X176190Y445839D01*
X176255Y445824D01*
X177930Y445698D01*
X177977Y445702D01*
G37*
G36*
X754628Y336776D02*
X754628Y336776D01*
X754671Y336787D01*
X754737Y336793D01*
X756367Y337205D01*
X756407Y337223D01*
X756471Y337241D01*
X758004Y337929D01*
X758041Y337954D01*
X758101Y337983D01*
X759491Y338927D01*
X759523Y338958D01*
X759577Y338996D01*
X760783Y340167D01*
X760809Y340204D01*
X760855Y340251D01*
X761839Y341613D01*
X761858Y341654D01*
X761895Y341708D01*
X762628Y343221D01*
X762640Y343264D01*
X762667Y343324D01*
X763125Y344941D01*
X763130Y344986D01*
X763146Y345050D01*
X763317Y346722D01*
X763313Y346770D01*
X763317Y346849D01*
X763151Y348521D01*
X763139Y348564D01*
X763130Y348630D01*
X762676Y350247D01*
X762657Y350288D01*
X762637Y350351D01*
X761909Y351865D01*
X761883Y351901D01*
X761853Y351960D01*
X760872Y353325D01*
X760840Y353356D01*
X760800Y353409D01*
X759598Y354583D01*
X759561Y354608D01*
X759513Y354653D01*
X758125Y355600D01*
X758084Y355618D01*
X758028Y355654D01*
X756497Y356346D01*
X756454Y356357D01*
X756393Y356383D01*
X754764Y356798D01*
X754720Y356801D01*
X754655Y356816D01*
X752980Y356942D01*
X752933Y356938D01*
X752861Y356940D01*
X751026Y356735D01*
X750979Y356721D01*
X750904Y356709D01*
X749143Y356149D01*
X749101Y356126D01*
X749029Y356100D01*
X747412Y355207D01*
X747374Y355177D01*
X747309Y355137D01*
X745897Y353946D01*
X745866Y353909D01*
X745810Y353857D01*
X744657Y352413D01*
X744635Y352371D01*
X744590Y352309D01*
X743741Y350668D01*
X743727Y350622D01*
X743695Y350553D01*
X743182Y348778D01*
X743177Y348730D01*
X743160Y348655D01*
X743003Y346815D01*
X743007Y346771D01*
X743003Y346706D01*
X743163Y344875D01*
X743176Y344829D01*
X743184Y344768D01*
X743184Y344766D01*
X743186Y344753D01*
X743700Y342989D01*
X743721Y342945D01*
X743746Y342873D01*
X744595Y341243D01*
X744624Y341205D01*
X744663Y341139D01*
X745813Y339706D01*
X745849Y339674D01*
X745900Y339617D01*
X747308Y338436D01*
X747349Y338412D01*
X747410Y338366D01*
X749022Y337482D01*
X749067Y337467D01*
X749136Y337433D01*
X750889Y336881D01*
X750936Y336875D01*
X751010Y336855D01*
X752837Y336656D01*
X752883Y336659D01*
X752952Y336653D01*
X754628Y336776D01*
G37*
G36*
X179318Y321536D02*
X179318Y321536D01*
X179361Y321547D01*
X179427Y321553D01*
X181057Y321965D01*
X181097Y321983D01*
X181161Y322001D01*
X182694Y322689D01*
X182731Y322714D01*
X182791Y322743D01*
X184181Y323687D01*
X184213Y323718D01*
X184267Y323756D01*
X185473Y324927D01*
X185499Y324964D01*
X185545Y325011D01*
X186529Y326373D01*
X186548Y326414D01*
X186585Y326468D01*
X187318Y327981D01*
X187330Y328024D01*
X187357Y328084D01*
X187815Y329701D01*
X187820Y329746D01*
X187836Y329810D01*
X188007Y331482D01*
X188003Y331530D01*
X188007Y331609D01*
X187841Y333281D01*
X187829Y333324D01*
X187820Y333390D01*
X187366Y335007D01*
X187347Y335048D01*
X187327Y335111D01*
X186599Y336625D01*
X186573Y336661D01*
X186543Y336720D01*
X185562Y338085D01*
X185530Y338116D01*
X185490Y338169D01*
X184288Y339343D01*
X184251Y339368D01*
X184203Y339413D01*
X182815Y340360D01*
X182774Y340378D01*
X182718Y340414D01*
X181187Y341106D01*
X181144Y341117D01*
X181083Y341143D01*
X179454Y341558D01*
X179410Y341561D01*
X179345Y341576D01*
X177670Y341702D01*
X177623Y341698D01*
X177551Y341700D01*
X175716Y341495D01*
X175669Y341481D01*
X175594Y341469D01*
X173833Y340909D01*
X173791Y340886D01*
X173719Y340860D01*
X172102Y339967D01*
X172064Y339937D01*
X171999Y339897D01*
X170587Y338706D01*
X170556Y338669D01*
X170500Y338617D01*
X169347Y337173D01*
X169325Y337131D01*
X169280Y337069D01*
X168431Y335428D01*
X168417Y335382D01*
X168385Y335313D01*
X167872Y333538D01*
X167867Y333490D01*
X167850Y333415D01*
X167693Y331575D01*
X167697Y331531D01*
X167693Y331466D01*
X167853Y329635D01*
X167866Y329589D01*
X167874Y329528D01*
X167874Y329526D01*
X167876Y329513D01*
X168390Y327749D01*
X168411Y327705D01*
X168436Y327633D01*
X169285Y326003D01*
X169314Y325965D01*
X169353Y325899D01*
X170503Y324466D01*
X170539Y324434D01*
X170590Y324377D01*
X171998Y323196D01*
X172039Y323172D01*
X172100Y323126D01*
X173712Y322242D01*
X173757Y322227D01*
X173826Y322193D01*
X175579Y321641D01*
X175626Y321635D01*
X175700Y321615D01*
X177527Y321416D01*
X177573Y321419D01*
X177642Y321413D01*
X179318Y321536D01*
G37*
G36*
X179318Y397736D02*
X179318Y397736D01*
X179361Y397747D01*
X179427Y397753D01*
X181057Y398165D01*
X181097Y398183D01*
X181161Y398201D01*
X182694Y398889D01*
X182731Y398914D01*
X182791Y398943D01*
X184181Y399887D01*
X184213Y399918D01*
X184267Y399956D01*
X185473Y401127D01*
X185499Y401164D01*
X185545Y401211D01*
X186529Y402573D01*
X186548Y402614D01*
X186585Y402668D01*
X187318Y404181D01*
X187330Y404224D01*
X187357Y404284D01*
X187815Y405901D01*
X187820Y405946D01*
X187836Y406010D01*
X188007Y407682D01*
X188003Y407730D01*
X188007Y407809D01*
X187841Y409481D01*
X187829Y409524D01*
X187820Y409590D01*
X187366Y411207D01*
X187347Y411248D01*
X187327Y411311D01*
X186599Y412825D01*
X186573Y412861D01*
X186543Y412920D01*
X185562Y414285D01*
X185530Y414316D01*
X185490Y414369D01*
X184288Y415543D01*
X184251Y415568D01*
X184203Y415613D01*
X182815Y416560D01*
X182774Y416578D01*
X182718Y416614D01*
X181187Y417306D01*
X181144Y417317D01*
X181083Y417343D01*
X179454Y417758D01*
X179410Y417761D01*
X179345Y417776D01*
X177670Y417902D01*
X177623Y417898D01*
X177551Y417900D01*
X175716Y417695D01*
X175669Y417681D01*
X175594Y417669D01*
X173833Y417109D01*
X173791Y417086D01*
X173719Y417060D01*
X172102Y416167D01*
X172064Y416137D01*
X171999Y416097D01*
X170587Y414906D01*
X170556Y414869D01*
X170500Y414817D01*
X169347Y413373D01*
X169325Y413331D01*
X169280Y413269D01*
X168431Y411628D01*
X168417Y411582D01*
X168385Y411513D01*
X167872Y409738D01*
X167867Y409690D01*
X167850Y409615D01*
X167693Y407775D01*
X167697Y407731D01*
X167693Y407666D01*
X167853Y405835D01*
X167866Y405789D01*
X167874Y405728D01*
X167874Y405726D01*
X167876Y405713D01*
X168390Y403949D01*
X168411Y403905D01*
X168436Y403833D01*
X169285Y402203D01*
X169314Y402165D01*
X169353Y402099D01*
X170503Y400666D01*
X170539Y400634D01*
X170590Y400577D01*
X171998Y399396D01*
X172039Y399372D01*
X172100Y399326D01*
X173712Y398442D01*
X173757Y398427D01*
X173826Y398393D01*
X175579Y397841D01*
X175626Y397835D01*
X175700Y397815D01*
X177527Y397616D01*
X177573Y397619D01*
X177642Y397613D01*
X179318Y397736D01*
G37*
G36*
X179318Y293545D02*
X179318Y293545D01*
X179361Y293556D01*
X179427Y293562D01*
X181057Y293974D01*
X181097Y293992D01*
X181161Y294010D01*
X182694Y294698D01*
X182731Y294723D01*
X182791Y294752D01*
X184181Y295696D01*
X184213Y295727D01*
X184267Y295765D01*
X185473Y296936D01*
X185499Y296973D01*
X185545Y297020D01*
X186529Y298382D01*
X186548Y298423D01*
X186585Y298477D01*
X187318Y299990D01*
X187330Y300033D01*
X187357Y300093D01*
X187815Y301710D01*
X187820Y301755D01*
X187836Y301819D01*
X188007Y303491D01*
X188003Y303539D01*
X188007Y303618D01*
X187841Y305290D01*
X187829Y305333D01*
X187820Y305399D01*
X187366Y307016D01*
X187347Y307057D01*
X187327Y307120D01*
X186599Y308634D01*
X186573Y308670D01*
X186543Y308729D01*
X185562Y310094D01*
X185530Y310125D01*
X185490Y310178D01*
X184288Y311352D01*
X184251Y311377D01*
X184203Y311422D01*
X182815Y312369D01*
X182774Y312387D01*
X182718Y312423D01*
X181187Y313115D01*
X181144Y313126D01*
X181083Y313152D01*
X179454Y313567D01*
X179410Y313570D01*
X179345Y313585D01*
X177670Y313711D01*
X177623Y313707D01*
X177551Y313709D01*
X175716Y313504D01*
X175669Y313490D01*
X175594Y313478D01*
X173833Y312918D01*
X173791Y312895D01*
X173719Y312869D01*
X172102Y311976D01*
X172064Y311946D01*
X171999Y311906D01*
X170587Y310715D01*
X170556Y310678D01*
X170500Y310626D01*
X169347Y309182D01*
X169325Y309140D01*
X169280Y309078D01*
X168431Y307437D01*
X168417Y307391D01*
X168385Y307322D01*
X167872Y305547D01*
X167867Y305499D01*
X167850Y305424D01*
X167693Y303584D01*
X167697Y303540D01*
X167693Y303475D01*
X167853Y301644D01*
X167866Y301598D01*
X167874Y301537D01*
X167874Y301535D01*
X167876Y301522D01*
X168390Y299758D01*
X168411Y299714D01*
X168436Y299642D01*
X169285Y298012D01*
X169314Y297974D01*
X169353Y297908D01*
X170503Y296475D01*
X170539Y296443D01*
X170590Y296386D01*
X171998Y295205D01*
X172039Y295181D01*
X172100Y295135D01*
X173712Y294251D01*
X173757Y294236D01*
X173826Y294202D01*
X175579Y293650D01*
X175626Y293644D01*
X175700Y293624D01*
X177527Y293425D01*
X177573Y293428D01*
X177642Y293422D01*
X179318Y293545D01*
G37*
G36*
X754628Y308785D02*
X754628Y308785D01*
X754671Y308796D01*
X754737Y308802D01*
X756367Y309214D01*
X756407Y309232D01*
X756471Y309250D01*
X758004Y309938D01*
X758041Y309963D01*
X758101Y309992D01*
X759491Y310936D01*
X759523Y310967D01*
X759577Y311005D01*
X760783Y312176D01*
X760809Y312213D01*
X760855Y312260D01*
X761839Y313622D01*
X761858Y313663D01*
X761895Y313717D01*
X762628Y315230D01*
X762640Y315273D01*
X762667Y315333D01*
X763125Y316950D01*
X763130Y316995D01*
X763146Y317059D01*
X763317Y318731D01*
X763313Y318779D01*
X763317Y318858D01*
X763151Y320530D01*
X763139Y320573D01*
X763130Y320639D01*
X762676Y322256D01*
X762657Y322297D01*
X762637Y322360D01*
X761909Y323874D01*
X761883Y323910D01*
X761853Y323969D01*
X760872Y325334D01*
X760840Y325365D01*
X760800Y325418D01*
X759598Y326592D01*
X759561Y326617D01*
X759513Y326662D01*
X758125Y327609D01*
X758084Y327627D01*
X758028Y327663D01*
X756497Y328355D01*
X756454Y328366D01*
X756393Y328392D01*
X754764Y328807D01*
X754720Y328810D01*
X754655Y328825D01*
X752980Y328951D01*
X752933Y328947D01*
X752861Y328949D01*
X751026Y328744D01*
X750979Y328730D01*
X750904Y328718D01*
X749143Y328158D01*
X749101Y328135D01*
X749029Y328109D01*
X747412Y327216D01*
X747374Y327186D01*
X747309Y327146D01*
X745897Y325955D01*
X745866Y325918D01*
X745810Y325866D01*
X744657Y324422D01*
X744635Y324380D01*
X744590Y324318D01*
X743741Y322677D01*
X743727Y322631D01*
X743695Y322562D01*
X743182Y320787D01*
X743177Y320739D01*
X743160Y320664D01*
X743003Y318824D01*
X743007Y318780D01*
X743003Y318715D01*
X743163Y316884D01*
X743176Y316838D01*
X743184Y316777D01*
X743184Y316775D01*
X743186Y316762D01*
X743700Y314998D01*
X743721Y314954D01*
X743746Y314882D01*
X744595Y313252D01*
X744624Y313214D01*
X744663Y313148D01*
X745813Y311715D01*
X745849Y311683D01*
X745900Y311626D01*
X747308Y310445D01*
X747349Y310421D01*
X747410Y310375D01*
X749022Y309491D01*
X749067Y309476D01*
X749136Y309442D01*
X750889Y308890D01*
X750936Y308884D01*
X751010Y308864D01*
X752837Y308665D01*
X752883Y308668D01*
X752952Y308662D01*
X754628Y308785D01*
G37*
G36*
X179318Y369745D02*
X179318Y369745D01*
X179361Y369756D01*
X179427Y369762D01*
X181057Y370174D01*
X181097Y370192D01*
X181161Y370210D01*
X182694Y370898D01*
X182731Y370923D01*
X182791Y370952D01*
X184181Y371896D01*
X184213Y371927D01*
X184267Y371965D01*
X185473Y373136D01*
X185499Y373173D01*
X185545Y373220D01*
X186529Y374582D01*
X186548Y374623D01*
X186585Y374677D01*
X187318Y376190D01*
X187330Y376233D01*
X187357Y376293D01*
X187815Y377910D01*
X187820Y377955D01*
X187836Y378019D01*
X188007Y379691D01*
X188003Y379739D01*
X188007Y379818D01*
X187841Y381490D01*
X187829Y381533D01*
X187820Y381599D01*
X187366Y383216D01*
X187347Y383257D01*
X187327Y383320D01*
X186599Y384834D01*
X186573Y384870D01*
X186543Y384929D01*
X185562Y386294D01*
X185530Y386325D01*
X185490Y386378D01*
X184288Y387552D01*
X184251Y387577D01*
X184203Y387622D01*
X182815Y388569D01*
X182774Y388587D01*
X182718Y388623D01*
X181187Y389315D01*
X181144Y389326D01*
X181083Y389352D01*
X179454Y389767D01*
X179410Y389770D01*
X179345Y389785D01*
X177670Y389911D01*
X177623Y389907D01*
X177551Y389909D01*
X175716Y389704D01*
X175669Y389690D01*
X175594Y389678D01*
X173833Y389118D01*
X173791Y389095D01*
X173719Y389069D01*
X172102Y388176D01*
X172064Y388146D01*
X171999Y388106D01*
X170587Y386915D01*
X170556Y386878D01*
X170500Y386826D01*
X169347Y385382D01*
X169325Y385340D01*
X169280Y385278D01*
X168431Y383637D01*
X168417Y383591D01*
X168385Y383522D01*
X167872Y381747D01*
X167867Y381699D01*
X167850Y381624D01*
X167693Y379784D01*
X167697Y379740D01*
X167693Y379675D01*
X167853Y377844D01*
X167866Y377798D01*
X167874Y377737D01*
X167874Y377735D01*
X167876Y377722D01*
X168390Y375958D01*
X168411Y375914D01*
X168436Y375842D01*
X169285Y374212D01*
X169314Y374174D01*
X169353Y374108D01*
X170503Y372675D01*
X170539Y372643D01*
X170590Y372586D01*
X171998Y371405D01*
X172039Y371381D01*
X172100Y371335D01*
X173712Y370451D01*
X173757Y370436D01*
X173826Y370402D01*
X175579Y369850D01*
X175626Y369844D01*
X175700Y369824D01*
X177527Y369625D01*
X177573Y369628D01*
X177642Y369622D01*
X179318Y369745D01*
G37*
G36*
X87569Y231197D02*
X87569Y231197D01*
X87634Y231193D01*
X89465Y231353D01*
X89511Y231366D01*
X89587Y231376D01*
X91351Y231890D01*
X91395Y231911D01*
X91467Y231936D01*
X93097Y232785D01*
X93135Y232814D01*
X93201Y232853D01*
X94634Y234003D01*
X94666Y234039D01*
X94723Y234090D01*
X95904Y235498D01*
X95928Y235539D01*
X95974Y235600D01*
X96519Y236593D01*
X96858Y237212D01*
X96873Y237257D01*
X96907Y237326D01*
X97459Y239079D01*
X97465Y239126D01*
X97485Y239200D01*
X97685Y241027D01*
X97681Y241073D01*
X97687Y241142D01*
X97564Y242818D01*
X97553Y242861D01*
X97547Y242927D01*
X97136Y244557D01*
X97117Y244597D01*
X97099Y244661D01*
X96411Y246194D01*
X96386Y246231D01*
X96357Y246291D01*
X95413Y247681D01*
X95382Y247713D01*
X95344Y247767D01*
X94173Y248973D01*
X94137Y248999D01*
X94089Y249045D01*
X92727Y250029D01*
X92686Y250048D01*
X92632Y250085D01*
X91119Y250818D01*
X91076Y250830D01*
X91016Y250857D01*
X89399Y251315D01*
X89354Y251320D01*
X89290Y251336D01*
X87618Y251507D01*
X87570Y251503D01*
X87491Y251507D01*
X85819Y251341D01*
X85776Y251329D01*
X85711Y251320D01*
X84093Y250866D01*
X84052Y250847D01*
X83989Y250827D01*
X82475Y250099D01*
X82439Y250073D01*
X82380Y250043D01*
X81015Y249062D01*
X80984Y249030D01*
X80931Y248990D01*
X79757Y247788D01*
X79732Y247751D01*
X79687Y247703D01*
X78740Y246315D01*
X78722Y246274D01*
X78686Y246218D01*
X77994Y244687D01*
X77983Y244644D01*
X77957Y244583D01*
X77542Y242954D01*
X77539Y242910D01*
X77524Y242845D01*
X77398Y241170D01*
X77402Y241123D01*
X77400Y241051D01*
X77605Y239216D01*
X77619Y239169D01*
X77631Y239094D01*
X78191Y237333D01*
X78214Y237291D01*
X78240Y237219D01*
X79133Y235602D01*
X79163Y235564D01*
X79203Y235499D01*
X80394Y234087D01*
X80431Y234056D01*
X80483Y234000D01*
X81927Y232847D01*
X81969Y232825D01*
X82031Y232780D01*
X83672Y231931D01*
X83718Y231917D01*
X83787Y231885D01*
X85562Y231372D01*
X85610Y231367D01*
X85685Y231350D01*
X87525Y231193D01*
X87569Y231197D01*
G37*
G36*
X115560Y231197D02*
X115560Y231197D01*
X115625Y231193D01*
X117456Y231353D01*
X117502Y231366D01*
X117578Y231376D01*
X119342Y231890D01*
X119386Y231911D01*
X119458Y231936D01*
X121088Y232785D01*
X121126Y232814D01*
X121192Y232853D01*
X122625Y234003D01*
X122657Y234039D01*
X122714Y234090D01*
X123895Y235498D01*
X123919Y235539D01*
X123965Y235600D01*
X124510Y236593D01*
X124849Y237212D01*
X124864Y237257D01*
X124898Y237326D01*
X125450Y239079D01*
X125456Y239126D01*
X125476Y239200D01*
X125676Y241027D01*
X125672Y241073D01*
X125678Y241142D01*
X125555Y242818D01*
X125544Y242861D01*
X125538Y242927D01*
X125127Y244557D01*
X125108Y244597D01*
X125090Y244661D01*
X124402Y246194D01*
X124377Y246231D01*
X124348Y246291D01*
X123404Y247681D01*
X123373Y247713D01*
X123335Y247767D01*
X122164Y248973D01*
X122128Y248999D01*
X122080Y249045D01*
X120718Y250029D01*
X120677Y250048D01*
X120623Y250085D01*
X119110Y250818D01*
X119067Y250830D01*
X119007Y250857D01*
X117390Y251315D01*
X117345Y251320D01*
X117281Y251336D01*
X115609Y251507D01*
X115561Y251503D01*
X115482Y251507D01*
X113810Y251341D01*
X113767Y251329D01*
X113702Y251320D01*
X112084Y250866D01*
X112043Y250847D01*
X111980Y250827D01*
X110466Y250099D01*
X110430Y250073D01*
X110371Y250043D01*
X109006Y249062D01*
X108975Y249030D01*
X108922Y248990D01*
X107748Y247788D01*
X107723Y247751D01*
X107678Y247703D01*
X106731Y246315D01*
X106713Y246274D01*
X106677Y246218D01*
X105985Y244687D01*
X105974Y244644D01*
X105948Y244583D01*
X105533Y242954D01*
X105530Y242910D01*
X105515Y242845D01*
X105389Y241170D01*
X105393Y241123D01*
X105391Y241051D01*
X105596Y239216D01*
X105610Y239169D01*
X105622Y239094D01*
X106182Y237333D01*
X106205Y237291D01*
X106231Y237219D01*
X107124Y235602D01*
X107154Y235564D01*
X107194Y235499D01*
X108385Y234087D01*
X108422Y234056D01*
X108474Y234000D01*
X109918Y232847D01*
X109960Y232825D01*
X110022Y232780D01*
X111663Y231931D01*
X111709Y231917D01*
X111778Y231885D01*
X113553Y231372D01*
X113601Y231367D01*
X113676Y231350D01*
X115516Y231193D01*
X115560Y231197D01*
G37*
D10*
X876300Y469900D03*
X38100Y38100D03*
D11*
X25400Y482600D03*
X25400Y457200D03*
X25400Y431800D03*
X25400Y406400D03*
X25400Y381000D03*
X25400Y355600D03*
X25400Y330200D03*
X25400Y304800D03*
X25400Y279400D03*
X25400Y254000D03*
X25400Y228600D03*
X25400Y203200D03*
X495300Y444500D03*
X508000Y463550D03*
X520700Y444500D03*
X419100Y444500D03*
X431800Y463550D03*
X444500Y444500D03*
X698500Y254000D03*
X774700Y254000D03*
X685800Y279400D03*
X762000Y279400D03*
X647700Y254000D03*
X571500Y254000D03*
X635000Y444500D03*
X558800Y444500D03*
X673100Y444500D03*
X749300Y444500D03*
X685800Y469900D03*
X762000Y469900D03*
X571500Y469900D03*
X647700Y469900D03*
X112759Y128541D03*
X166641Y74659D03*
X558800Y279400D03*
X635000Y279400D03*
D12*
X862330Y190500D03*
X836930Y190500D03*
X811530Y190500D03*
X786130Y190500D03*
X760730Y190500D03*
X735330Y190500D03*
X709930Y190500D03*
X684530Y190500D03*
X659130Y190500D03*
X633730Y190500D03*
X608330Y190500D03*
X582930Y190500D03*
X557530Y190500D03*
X532130Y190500D03*
X532130Y38100D03*
X557530Y38100D03*
X582930Y38100D03*
X608330Y38100D03*
X633730Y38100D03*
X659130Y38100D03*
X684530Y38100D03*
X709930Y38100D03*
X735330Y38100D03*
X760730Y38100D03*
X786130Y38100D03*
X811530Y38100D03*
X836930Y38100D03*
X862330Y38100D03*
D13*
X403700Y244600D03*
X510700Y244600D03*
X510700Y339600D03*
X403700Y339600D03*
X238600Y320800D03*
X345600Y320800D03*
X345600Y415800D03*
X238600Y415800D03*
D14*
X825500Y241808D02*
X825500Y225552D01*
X850900Y225552D02*
X850900Y241808D01*
X876300Y241808D02*
X876300Y225552D01*
D15*
X850900Y383540D03*
D16*
X596900Y317500D03*
X622300Y317500D03*
X622300Y393700D03*
X596900Y393700D03*
X647700Y317500D03*
X673100Y317500D03*
X647700Y393700D03*
X673100Y393700D03*
D11*
X381000Y50800D03*
X381000Y127000D03*
X457200Y50800D03*
X457200Y127000D03*
X419100Y127000D03*
X419100Y50800D03*
X229718Y82037D03*
X171602Y131323D03*
D16*
X254000Y152400D03*
X279400Y152400D03*
X279400Y228600D03*
X254000Y228600D03*
X304800Y152400D03*
X330200Y152400D03*
X304800Y228600D03*
X330200Y228600D03*
D11*
X203200Y177800D03*
X203200Y254000D03*
X165100Y254000D03*
X165100Y177800D03*
M02*
