G04 EAGLE Gerber RS-274X export*
G75*
%MOMM*%
%FSLAX34Y34*%
%LPD*%
%INTop Soldermask*%
%IPPOS*%
%AMOC8*
5,1,8,0,0,1.08239X$1,22.5*%
G01*
%ADD10C,4.013200*%
%ADD11C,2.082800*%
%ADD12C,1.778000*%
%ADD13C,2.303200*%
%ADD14C,1.828800*%
%ADD15C,3.505200*%
%ADD16C,1.828800*%
%ADD17R,1.625600X0.431800*%

G36*
X177948Y478773D02*
X177948Y478773D01*
X178039Y478772D01*
X179003Y478903D01*
X179051Y478919D01*
X179140Y478938D01*
X180051Y479280D01*
X180094Y479306D01*
X180178Y479345D01*
X180989Y479882D01*
X181025Y479917D01*
X181098Y479973D01*
X181770Y480677D01*
X181798Y480719D01*
X181856Y480790D01*
X182354Y481626D01*
X182355Y481629D01*
X182357Y481631D01*
X182363Y481650D01*
X182372Y481673D01*
X182412Y481755D01*
X182712Y482681D01*
X182719Y482731D01*
X182741Y482820D01*
X182827Y483789D01*
X182823Y483836D01*
X182826Y483911D01*
X182724Y484887D01*
X182710Y484935D01*
X182694Y485025D01*
X182378Y485954D01*
X182354Y485998D01*
X182317Y486083D01*
X181803Y486918D01*
X181769Y486955D01*
X181715Y487030D01*
X181027Y487730D01*
X180986Y487759D01*
X180917Y487819D01*
X180090Y488348D01*
X180044Y488367D01*
X179963Y488411D01*
X179040Y488743D01*
X178990Y488751D01*
X178901Y488776D01*
X177927Y488894D01*
X177877Y488891D01*
X177791Y488895D01*
X176789Y488800D01*
X176740Y488786D01*
X176650Y488770D01*
X175694Y488454D01*
X175649Y488430D01*
X175565Y488395D01*
X174704Y487873D01*
X174666Y487840D01*
X174591Y487787D01*
X173867Y487087D01*
X173838Y487046D01*
X173777Y486977D01*
X173227Y486134D01*
X173207Y486088D01*
X173163Y486007D01*
X172815Y485063D01*
X172806Y485013D01*
X172781Y484925D01*
X172651Y483927D01*
X172653Y483884D01*
X172652Y483758D01*
X172791Y482747D01*
X172807Y482699D01*
X172826Y482609D01*
X173188Y481654D01*
X173214Y481611D01*
X173253Y481527D01*
X173817Y480677D01*
X173852Y480640D01*
X173909Y480568D01*
X174649Y479864D01*
X174691Y479836D01*
X174762Y479778D01*
X175640Y479257D01*
X175687Y479239D01*
X175769Y479198D01*
X176741Y478885D01*
X176791Y478878D01*
X176880Y478857D01*
X177898Y478768D01*
X177948Y478773D01*
G37*
G36*
X177948Y450782D02*
X177948Y450782D01*
X178039Y450781D01*
X179003Y450912D01*
X179051Y450928D01*
X179140Y450947D01*
X180051Y451289D01*
X180094Y451315D01*
X180178Y451354D01*
X180989Y451891D01*
X181025Y451926D01*
X181098Y451982D01*
X181770Y452686D01*
X181798Y452728D01*
X181856Y452799D01*
X182354Y453635D01*
X182355Y453638D01*
X182357Y453640D01*
X182363Y453660D01*
X182372Y453682D01*
X182412Y453764D01*
X182712Y454690D01*
X182719Y454740D01*
X182741Y454829D01*
X182827Y455798D01*
X182823Y455845D01*
X182826Y455920D01*
X182724Y456896D01*
X182710Y456944D01*
X182694Y457034D01*
X182378Y457963D01*
X182354Y458007D01*
X182317Y458092D01*
X181803Y458927D01*
X181769Y458964D01*
X181715Y459039D01*
X181027Y459739D01*
X180986Y459768D01*
X180917Y459828D01*
X180090Y460357D01*
X180044Y460376D01*
X179963Y460420D01*
X179040Y460752D01*
X178990Y460760D01*
X178901Y460785D01*
X177927Y460903D01*
X177877Y460900D01*
X177791Y460904D01*
X176789Y460809D01*
X176740Y460795D01*
X176650Y460779D01*
X175694Y460463D01*
X175649Y460439D01*
X175565Y460404D01*
X174704Y459882D01*
X174666Y459849D01*
X174591Y459796D01*
X173867Y459096D01*
X173838Y459055D01*
X173777Y458986D01*
X173227Y458143D01*
X173207Y458097D01*
X173163Y458016D01*
X172815Y457072D01*
X172806Y457022D01*
X172781Y456934D01*
X172651Y455936D01*
X172653Y455893D01*
X172652Y455767D01*
X172791Y454756D01*
X172807Y454708D01*
X172826Y454618D01*
X173188Y453663D01*
X173214Y453620D01*
X173253Y453536D01*
X173817Y452686D01*
X173852Y452649D01*
X173909Y452577D01*
X174649Y451873D01*
X174691Y451845D01*
X174762Y451787D01*
X175640Y451266D01*
X175687Y451248D01*
X175769Y451207D01*
X176741Y450894D01*
X176791Y450887D01*
X176880Y450866D01*
X177898Y450777D01*
X177948Y450782D01*
G37*
G36*
X59727Y121853D02*
X59727Y121853D01*
X59853Y121852D01*
X60864Y121991D01*
X60912Y122007D01*
X61002Y122026D01*
X61957Y122388D01*
X62000Y122414D01*
X62084Y122453D01*
X62934Y123017D01*
X62971Y123052D01*
X63043Y123109D01*
X63747Y123849D01*
X63775Y123891D01*
X63833Y123962D01*
X64354Y124840D01*
X64372Y124887D01*
X64413Y124969D01*
X64726Y125941D01*
X64733Y125991D01*
X64754Y126080D01*
X64843Y127098D01*
X64838Y127148D01*
X64839Y127239D01*
X64708Y128203D01*
X64692Y128251D01*
X64673Y128340D01*
X64331Y129251D01*
X64305Y129294D01*
X64266Y129378D01*
X63729Y130189D01*
X63694Y130225D01*
X63638Y130298D01*
X62934Y130970D01*
X62892Y130998D01*
X62821Y131056D01*
X61986Y131554D01*
X61938Y131572D01*
X61856Y131612D01*
X60931Y131912D01*
X60880Y131919D01*
X60791Y131941D01*
X59822Y132027D01*
X59775Y132023D01*
X59700Y132026D01*
X58724Y131924D01*
X58676Y131910D01*
X58586Y131894D01*
X57657Y131578D01*
X57613Y131554D01*
X57528Y131517D01*
X56693Y131003D01*
X56656Y130969D01*
X56581Y130915D01*
X55882Y130227D01*
X55852Y130186D01*
X55792Y130117D01*
X55263Y129290D01*
X55244Y129244D01*
X55200Y129163D01*
X54868Y128240D01*
X54860Y128190D01*
X54835Y128101D01*
X54717Y127127D01*
X54720Y127077D01*
X54716Y126991D01*
X54811Y125989D01*
X54825Y125940D01*
X54841Y125850D01*
X55157Y124894D01*
X55181Y124849D01*
X55217Y124765D01*
X55738Y123904D01*
X55771Y123866D01*
X55824Y123791D01*
X56524Y123067D01*
X56565Y123038D01*
X56634Y122977D01*
X57477Y122427D01*
X57523Y122407D01*
X57604Y122363D01*
X58548Y122015D01*
X58598Y122006D01*
X58686Y121981D01*
X59684Y121851D01*
X59727Y121853D01*
G37*
G36*
X31736Y121853D02*
X31736Y121853D01*
X31862Y121852D01*
X32873Y121991D01*
X32921Y122007D01*
X33011Y122026D01*
X33966Y122388D01*
X34009Y122414D01*
X34093Y122453D01*
X34943Y123017D01*
X34980Y123052D01*
X35052Y123109D01*
X35756Y123849D01*
X35784Y123891D01*
X35842Y123962D01*
X36363Y124840D01*
X36381Y124887D01*
X36422Y124969D01*
X36735Y125941D01*
X36742Y125991D01*
X36763Y126080D01*
X36852Y127098D01*
X36847Y127148D01*
X36848Y127239D01*
X36717Y128203D01*
X36701Y128251D01*
X36682Y128340D01*
X36340Y129251D01*
X36314Y129294D01*
X36275Y129378D01*
X35738Y130189D01*
X35703Y130225D01*
X35647Y130298D01*
X34943Y130970D01*
X34901Y130998D01*
X34830Y131056D01*
X33995Y131554D01*
X33947Y131572D01*
X33865Y131612D01*
X32940Y131912D01*
X32889Y131919D01*
X32800Y131941D01*
X31831Y132027D01*
X31784Y132023D01*
X31709Y132026D01*
X30733Y131924D01*
X30685Y131910D01*
X30595Y131894D01*
X29666Y131578D01*
X29622Y131554D01*
X29537Y131517D01*
X28702Y131003D01*
X28665Y130969D01*
X28590Y130915D01*
X27891Y130227D01*
X27861Y130186D01*
X27801Y130117D01*
X27272Y129290D01*
X27253Y129244D01*
X27209Y129163D01*
X26877Y128240D01*
X26869Y128190D01*
X26844Y128101D01*
X26726Y127127D01*
X26729Y127077D01*
X26725Y126991D01*
X26820Y125989D01*
X26834Y125940D01*
X26850Y125850D01*
X27166Y124894D01*
X27190Y124849D01*
X27226Y124765D01*
X27747Y123904D01*
X27780Y123866D01*
X27833Y123791D01*
X28533Y123067D01*
X28574Y123038D01*
X28643Y122977D01*
X29486Y122427D01*
X29532Y122407D01*
X29613Y122363D01*
X30557Y122015D01*
X30607Y122006D01*
X30695Y121981D01*
X31693Y121851D01*
X31736Y121853D01*
G37*
G36*
X754121Y341831D02*
X754121Y341831D01*
X754170Y341845D01*
X754260Y341861D01*
X755216Y342177D01*
X755261Y342201D01*
X755345Y342237D01*
X756206Y342758D01*
X756244Y342791D01*
X756319Y342844D01*
X757043Y343544D01*
X757072Y343585D01*
X757133Y343654D01*
X757683Y344497D01*
X757703Y344543D01*
X757747Y344624D01*
X758095Y345568D01*
X758104Y345618D01*
X758129Y345706D01*
X758259Y346704D01*
X758257Y346747D01*
X758258Y346873D01*
X758119Y347884D01*
X758103Y347932D01*
X758084Y348022D01*
X757722Y348977D01*
X757696Y349020D01*
X757658Y349104D01*
X757093Y349954D01*
X757058Y349991D01*
X757001Y350063D01*
X756262Y350767D01*
X756219Y350795D01*
X756148Y350853D01*
X755270Y351374D01*
X755223Y351392D01*
X755141Y351433D01*
X754169Y351746D01*
X754119Y351753D01*
X754030Y351774D01*
X753012Y351863D01*
X752962Y351858D01*
X752871Y351859D01*
X751907Y351728D01*
X751859Y351712D01*
X751770Y351693D01*
X750859Y351351D01*
X750816Y351325D01*
X750733Y351286D01*
X749921Y350749D01*
X749885Y350714D01*
X749812Y350658D01*
X749140Y349954D01*
X749113Y349912D01*
X749054Y349841D01*
X748556Y349006D01*
X748538Y348958D01*
X748498Y348876D01*
X748198Y347951D01*
X748191Y347900D01*
X748169Y347811D01*
X748083Y346842D01*
X748087Y346795D01*
X748084Y346720D01*
X748186Y345744D01*
X748200Y345696D01*
X748216Y345606D01*
X748532Y344677D01*
X748557Y344633D01*
X748593Y344548D01*
X749107Y343713D01*
X749141Y343676D01*
X749195Y343601D01*
X749883Y342902D01*
X749924Y342872D01*
X749993Y342812D01*
X750820Y342283D01*
X750866Y342264D01*
X750947Y342220D01*
X751870Y341888D01*
X751920Y341880D01*
X752009Y341855D01*
X752983Y341737D01*
X753033Y341740D01*
X753119Y341736D01*
X754121Y341831D01*
G37*
G36*
X178811Y326591D02*
X178811Y326591D01*
X178860Y326605D01*
X178950Y326621D01*
X179906Y326937D01*
X179951Y326961D01*
X180035Y326997D01*
X180896Y327518D01*
X180934Y327551D01*
X181009Y327604D01*
X181733Y328304D01*
X181762Y328345D01*
X181823Y328414D01*
X182373Y329257D01*
X182393Y329303D01*
X182437Y329384D01*
X182785Y330328D01*
X182794Y330378D01*
X182819Y330466D01*
X182949Y331464D01*
X182947Y331507D01*
X182948Y331633D01*
X182809Y332644D01*
X182793Y332692D01*
X182774Y332782D01*
X182412Y333737D01*
X182386Y333780D01*
X182348Y333864D01*
X181783Y334714D01*
X181748Y334751D01*
X181691Y334823D01*
X180952Y335527D01*
X180909Y335555D01*
X180838Y335613D01*
X179960Y336134D01*
X179913Y336152D01*
X179831Y336193D01*
X178859Y336506D01*
X178809Y336513D01*
X178720Y336534D01*
X177702Y336623D01*
X177652Y336618D01*
X177561Y336619D01*
X176597Y336488D01*
X176549Y336472D01*
X176460Y336453D01*
X175549Y336111D01*
X175506Y336085D01*
X175423Y336046D01*
X174611Y335509D01*
X174575Y335474D01*
X174502Y335418D01*
X173830Y334714D01*
X173803Y334672D01*
X173744Y334601D01*
X173246Y333766D01*
X173228Y333718D01*
X173188Y333636D01*
X172888Y332711D01*
X172881Y332660D01*
X172859Y332571D01*
X172773Y331602D01*
X172777Y331555D01*
X172774Y331480D01*
X172876Y330504D01*
X172890Y330456D01*
X172906Y330366D01*
X173222Y329437D01*
X173247Y329393D01*
X173283Y329308D01*
X173797Y328473D01*
X173831Y328436D01*
X173885Y328361D01*
X174573Y327662D01*
X174614Y327632D01*
X174683Y327572D01*
X175510Y327043D01*
X175556Y327024D01*
X175637Y326980D01*
X176560Y326648D01*
X176610Y326640D01*
X176699Y326615D01*
X177673Y326497D01*
X177723Y326500D01*
X177809Y326496D01*
X178811Y326591D01*
G37*
G36*
X178811Y402791D02*
X178811Y402791D01*
X178860Y402805D01*
X178950Y402821D01*
X179906Y403137D01*
X179951Y403161D01*
X180035Y403197D01*
X180896Y403718D01*
X180934Y403751D01*
X181009Y403804D01*
X181733Y404504D01*
X181762Y404545D01*
X181823Y404614D01*
X182373Y405457D01*
X182393Y405503D01*
X182437Y405584D01*
X182785Y406528D01*
X182794Y406578D01*
X182819Y406666D01*
X182949Y407664D01*
X182947Y407707D01*
X182948Y407833D01*
X182809Y408844D01*
X182793Y408892D01*
X182774Y408982D01*
X182412Y409937D01*
X182386Y409980D01*
X182348Y410064D01*
X181783Y410914D01*
X181748Y410951D01*
X181691Y411023D01*
X180952Y411727D01*
X180909Y411755D01*
X180838Y411813D01*
X179960Y412334D01*
X179913Y412352D01*
X179831Y412393D01*
X178859Y412706D01*
X178809Y412713D01*
X178720Y412734D01*
X177702Y412823D01*
X177652Y412818D01*
X177561Y412819D01*
X176597Y412688D01*
X176549Y412672D01*
X176460Y412653D01*
X175549Y412311D01*
X175506Y412285D01*
X175423Y412246D01*
X174611Y411709D01*
X174575Y411674D01*
X174502Y411618D01*
X173830Y410914D01*
X173803Y410872D01*
X173744Y410801D01*
X173246Y409966D01*
X173228Y409918D01*
X173188Y409836D01*
X172888Y408911D01*
X172881Y408860D01*
X172859Y408771D01*
X172773Y407802D01*
X172777Y407755D01*
X172774Y407680D01*
X172876Y406704D01*
X172890Y406656D01*
X172906Y406566D01*
X173222Y405637D01*
X173247Y405593D01*
X173283Y405508D01*
X173797Y404673D01*
X173831Y404636D01*
X173885Y404561D01*
X174573Y403862D01*
X174614Y403832D01*
X174683Y403772D01*
X175510Y403243D01*
X175556Y403224D01*
X175637Y403180D01*
X176560Y402848D01*
X176610Y402840D01*
X176699Y402815D01*
X177673Y402697D01*
X177723Y402700D01*
X177809Y402696D01*
X178811Y402791D01*
G37*
G36*
X178811Y298600D02*
X178811Y298600D01*
X178860Y298614D01*
X178950Y298630D01*
X179906Y298946D01*
X179951Y298970D01*
X180035Y299006D01*
X180896Y299527D01*
X180934Y299560D01*
X181009Y299613D01*
X181733Y300313D01*
X181762Y300354D01*
X181823Y300423D01*
X182373Y301266D01*
X182393Y301312D01*
X182437Y301393D01*
X182785Y302337D01*
X182794Y302387D01*
X182819Y302475D01*
X182949Y303473D01*
X182947Y303516D01*
X182948Y303642D01*
X182809Y304653D01*
X182793Y304701D01*
X182774Y304791D01*
X182412Y305746D01*
X182386Y305789D01*
X182348Y305873D01*
X181783Y306723D01*
X181748Y306760D01*
X181691Y306832D01*
X180952Y307536D01*
X180909Y307564D01*
X180838Y307622D01*
X179960Y308143D01*
X179913Y308161D01*
X179831Y308202D01*
X178859Y308515D01*
X178809Y308522D01*
X178720Y308543D01*
X177702Y308632D01*
X177652Y308627D01*
X177561Y308628D01*
X176597Y308497D01*
X176549Y308481D01*
X176460Y308462D01*
X175549Y308120D01*
X175506Y308094D01*
X175423Y308055D01*
X174611Y307518D01*
X174575Y307483D01*
X174502Y307427D01*
X173830Y306723D01*
X173803Y306681D01*
X173744Y306610D01*
X173246Y305775D01*
X173228Y305727D01*
X173188Y305645D01*
X172888Y304720D01*
X172881Y304669D01*
X172859Y304580D01*
X172773Y303611D01*
X172777Y303564D01*
X172774Y303489D01*
X172876Y302513D01*
X172890Y302465D01*
X172906Y302375D01*
X173222Y301446D01*
X173247Y301402D01*
X173283Y301317D01*
X173797Y300482D01*
X173831Y300445D01*
X173885Y300370D01*
X174573Y299671D01*
X174614Y299641D01*
X174683Y299581D01*
X175510Y299052D01*
X175556Y299033D01*
X175637Y298989D01*
X176560Y298657D01*
X176610Y298649D01*
X176699Y298624D01*
X177673Y298506D01*
X177723Y298509D01*
X177809Y298505D01*
X178811Y298600D01*
G37*
G36*
X115536Y236277D02*
X115536Y236277D01*
X115611Y236274D01*
X116587Y236376D01*
X116635Y236390D01*
X116725Y236406D01*
X117654Y236722D01*
X117698Y236747D01*
X117783Y236783D01*
X118618Y237297D01*
X118655Y237331D01*
X118730Y237385D01*
X119430Y238073D01*
X119459Y238114D01*
X119519Y238183D01*
X120048Y239010D01*
X120067Y239056D01*
X120111Y239137D01*
X120443Y240060D01*
X120451Y240110D01*
X120476Y240199D01*
X120594Y241173D01*
X120591Y241223D01*
X120595Y241309D01*
X120500Y242311D01*
X120486Y242360D01*
X120470Y242450D01*
X120154Y243406D01*
X120130Y243451D01*
X120095Y243535D01*
X119573Y244396D01*
X119540Y244434D01*
X119487Y244509D01*
X118787Y245233D01*
X118746Y245262D01*
X118677Y245323D01*
X117834Y245873D01*
X117788Y245893D01*
X117707Y245937D01*
X116763Y246285D01*
X116713Y246294D01*
X116625Y246319D01*
X115627Y246449D01*
X115584Y246447D01*
X115458Y246448D01*
X114447Y246309D01*
X114399Y246293D01*
X114309Y246274D01*
X113354Y245912D01*
X113311Y245886D01*
X113227Y245848D01*
X112377Y245283D01*
X112340Y245248D01*
X112268Y245191D01*
X111564Y244452D01*
X111536Y244409D01*
X111478Y244338D01*
X110957Y243460D01*
X110939Y243413D01*
X110898Y243331D01*
X110585Y242359D01*
X110578Y242309D01*
X110557Y242220D01*
X110468Y241202D01*
X110473Y241152D01*
X110472Y241061D01*
X110603Y240097D01*
X110619Y240049D01*
X110638Y239960D01*
X110980Y239049D01*
X111006Y239006D01*
X111045Y238923D01*
X111582Y238111D01*
X111617Y238075D01*
X111673Y238002D01*
X112377Y237330D01*
X112419Y237303D01*
X112490Y237244D01*
X113326Y236746D01*
X113373Y236728D01*
X113455Y236688D01*
X114381Y236388D01*
X114431Y236381D01*
X114520Y236359D01*
X115489Y236273D01*
X115536Y236277D01*
G37*
G36*
X87545Y236277D02*
X87545Y236277D01*
X87620Y236274D01*
X88596Y236376D01*
X88644Y236390D01*
X88734Y236406D01*
X89663Y236722D01*
X89707Y236747D01*
X89792Y236783D01*
X90627Y237297D01*
X90664Y237331D01*
X90739Y237385D01*
X91439Y238073D01*
X91468Y238114D01*
X91528Y238183D01*
X92057Y239010D01*
X92076Y239056D01*
X92120Y239137D01*
X92452Y240060D01*
X92460Y240110D01*
X92485Y240199D01*
X92603Y241173D01*
X92600Y241223D01*
X92604Y241309D01*
X92509Y242311D01*
X92495Y242360D01*
X92479Y242450D01*
X92163Y243406D01*
X92139Y243451D01*
X92104Y243535D01*
X91582Y244396D01*
X91549Y244434D01*
X91496Y244509D01*
X90796Y245233D01*
X90755Y245262D01*
X90686Y245323D01*
X89843Y245873D01*
X89797Y245893D01*
X89716Y245937D01*
X88772Y246285D01*
X88722Y246294D01*
X88634Y246319D01*
X87636Y246449D01*
X87593Y246447D01*
X87467Y246448D01*
X86456Y246309D01*
X86408Y246293D01*
X86318Y246274D01*
X85363Y245912D01*
X85320Y245886D01*
X85236Y245848D01*
X84386Y245283D01*
X84349Y245248D01*
X84277Y245191D01*
X83573Y244452D01*
X83545Y244409D01*
X83487Y244338D01*
X82966Y243460D01*
X82948Y243413D01*
X82907Y243331D01*
X82594Y242359D01*
X82587Y242309D01*
X82566Y242220D01*
X82477Y241202D01*
X82482Y241152D01*
X82481Y241061D01*
X82612Y240097D01*
X82628Y240049D01*
X82647Y239960D01*
X82989Y239049D01*
X83015Y239006D01*
X83054Y238923D01*
X83591Y238111D01*
X83626Y238075D01*
X83682Y238002D01*
X84386Y237330D01*
X84428Y237303D01*
X84499Y237244D01*
X85335Y236746D01*
X85382Y236728D01*
X85464Y236688D01*
X86390Y236388D01*
X86440Y236381D01*
X86529Y236359D01*
X87498Y236273D01*
X87545Y236277D01*
G37*
G36*
X178811Y374800D02*
X178811Y374800D01*
X178860Y374814D01*
X178950Y374830D01*
X179906Y375146D01*
X179951Y375170D01*
X180035Y375206D01*
X180896Y375727D01*
X180934Y375760D01*
X181009Y375813D01*
X181733Y376513D01*
X181762Y376554D01*
X181823Y376623D01*
X182373Y377466D01*
X182393Y377512D01*
X182437Y377593D01*
X182785Y378537D01*
X182794Y378587D01*
X182819Y378675D01*
X182949Y379673D01*
X182947Y379716D01*
X182948Y379842D01*
X182809Y380853D01*
X182793Y380901D01*
X182774Y380991D01*
X182412Y381946D01*
X182386Y381989D01*
X182348Y382073D01*
X181783Y382923D01*
X181748Y382960D01*
X181691Y383032D01*
X180952Y383736D01*
X180909Y383764D01*
X180838Y383822D01*
X179960Y384343D01*
X179913Y384361D01*
X179831Y384402D01*
X178859Y384715D01*
X178809Y384722D01*
X178720Y384743D01*
X177702Y384832D01*
X177652Y384827D01*
X177561Y384828D01*
X176597Y384697D01*
X176549Y384681D01*
X176460Y384662D01*
X175549Y384320D01*
X175506Y384294D01*
X175423Y384255D01*
X174611Y383718D01*
X174575Y383683D01*
X174502Y383627D01*
X173830Y382923D01*
X173803Y382881D01*
X173744Y382810D01*
X173246Y381975D01*
X173228Y381927D01*
X173188Y381845D01*
X172888Y380920D01*
X172881Y380869D01*
X172859Y380780D01*
X172773Y379811D01*
X172777Y379764D01*
X172774Y379689D01*
X172876Y378713D01*
X172890Y378665D01*
X172906Y378575D01*
X173222Y377646D01*
X173247Y377602D01*
X173283Y377517D01*
X173797Y376682D01*
X173831Y376645D01*
X173885Y376570D01*
X174573Y375871D01*
X174614Y375841D01*
X174683Y375781D01*
X175510Y375252D01*
X175556Y375233D01*
X175637Y375189D01*
X176560Y374857D01*
X176610Y374849D01*
X176699Y374824D01*
X177673Y374706D01*
X177723Y374709D01*
X177809Y374705D01*
X178811Y374800D01*
G37*
G36*
X754121Y313840D02*
X754121Y313840D01*
X754170Y313854D01*
X754260Y313870D01*
X755216Y314186D01*
X755261Y314210D01*
X755345Y314246D01*
X756206Y314767D01*
X756244Y314800D01*
X756319Y314853D01*
X757043Y315553D01*
X757072Y315594D01*
X757133Y315663D01*
X757683Y316506D01*
X757703Y316552D01*
X757747Y316633D01*
X758095Y317577D01*
X758104Y317627D01*
X758129Y317715D01*
X758259Y318713D01*
X758257Y318756D01*
X758258Y318882D01*
X758119Y319893D01*
X758103Y319941D01*
X758084Y320031D01*
X757722Y320986D01*
X757696Y321029D01*
X757658Y321113D01*
X757093Y321963D01*
X757058Y322000D01*
X757001Y322072D01*
X756262Y322776D01*
X756219Y322804D01*
X756148Y322862D01*
X755270Y323383D01*
X755223Y323401D01*
X755141Y323442D01*
X754169Y323755D01*
X754119Y323762D01*
X754030Y323783D01*
X753012Y323872D01*
X752962Y323867D01*
X752871Y323868D01*
X751907Y323737D01*
X751859Y323721D01*
X751770Y323702D01*
X750859Y323360D01*
X750816Y323334D01*
X750733Y323295D01*
X749921Y322758D01*
X749885Y322723D01*
X749812Y322667D01*
X749140Y321963D01*
X749113Y321921D01*
X749054Y321850D01*
X748556Y321015D01*
X748538Y320967D01*
X748498Y320885D01*
X748198Y319960D01*
X748191Y319909D01*
X748169Y319820D01*
X748083Y318851D01*
X748087Y318804D01*
X748084Y318729D01*
X748186Y317753D01*
X748200Y317705D01*
X748216Y317615D01*
X748532Y316686D01*
X748557Y316642D01*
X748593Y316557D01*
X749107Y315722D01*
X749141Y315685D01*
X749195Y315610D01*
X749883Y314911D01*
X749924Y314881D01*
X749993Y314821D01*
X750820Y314292D01*
X750866Y314273D01*
X750947Y314229D01*
X751870Y313897D01*
X751920Y313889D01*
X752009Y313864D01*
X752983Y313746D01*
X753033Y313749D01*
X753119Y313745D01*
X754121Y313840D01*
G37*
D10*
X876300Y469900D03*
X38100Y38100D03*
D11*
X25400Y482600D03*
X25400Y457200D03*
X25400Y431800D03*
X25400Y406400D03*
X25400Y381000D03*
X25400Y355600D03*
X25400Y330200D03*
X25400Y304800D03*
X25400Y279400D03*
X25400Y254000D03*
X25400Y228600D03*
X25400Y203200D03*
X495300Y444500D03*
X508000Y463550D03*
X520700Y444500D03*
X419100Y444500D03*
X431800Y463550D03*
X444500Y444500D03*
X698500Y254000D03*
X774700Y254000D03*
X685800Y279400D03*
X762000Y279400D03*
X647700Y254000D03*
X571500Y254000D03*
X635000Y444500D03*
X558800Y444500D03*
X673100Y444500D03*
X749300Y444500D03*
X685800Y469900D03*
X762000Y469900D03*
X571500Y469900D03*
X647700Y469900D03*
X112759Y128541D03*
X166641Y74659D03*
X558800Y279400D03*
X635000Y279400D03*
D12*
X862330Y190500D03*
X836930Y190500D03*
X811530Y190500D03*
X786130Y190500D03*
X760730Y190500D03*
X735330Y190500D03*
X709930Y190500D03*
X684530Y190500D03*
X659130Y190500D03*
X633730Y190500D03*
X608330Y190500D03*
X582930Y190500D03*
X557530Y190500D03*
X532130Y190500D03*
X532130Y38100D03*
X557530Y38100D03*
X582930Y38100D03*
X608330Y38100D03*
X633730Y38100D03*
X659130Y38100D03*
X684530Y38100D03*
X709930Y38100D03*
X735330Y38100D03*
X760730Y38100D03*
X786130Y38100D03*
X811530Y38100D03*
X836930Y38100D03*
X862330Y38100D03*
D13*
X403700Y244600D03*
X510700Y244600D03*
X510700Y339600D03*
X403700Y339600D03*
X238600Y320800D03*
X345600Y320800D03*
X345600Y415800D03*
X238600Y415800D03*
D14*
X825500Y241808D02*
X825500Y225552D01*
X850900Y225552D02*
X850900Y241808D01*
X876300Y241808D02*
X876300Y225552D01*
D15*
X850900Y383540D03*
D16*
X596900Y317500D03*
X622300Y317500D03*
X622300Y393700D03*
X596900Y393700D03*
X647700Y317500D03*
X673100Y317500D03*
X647700Y393700D03*
X673100Y393700D03*
D17*
X194183Y48100D03*
X194183Y43100D03*
X194183Y38100D03*
X194183Y33100D03*
X194183Y28100D03*
X237617Y28100D03*
X237617Y33100D03*
X237617Y38100D03*
X237617Y43100D03*
X237617Y48100D03*
D11*
X381000Y50800D03*
X381000Y127000D03*
X457200Y50800D03*
X457200Y127000D03*
X419100Y127000D03*
X419100Y50800D03*
X229718Y82037D03*
X171602Y131323D03*
D16*
X254000Y152400D03*
X279400Y152400D03*
X279400Y228600D03*
X254000Y228600D03*
X304800Y152400D03*
X330200Y152400D03*
X304800Y228600D03*
X330200Y228600D03*
D11*
X203200Y177800D03*
X203200Y254000D03*
X165100Y254000D03*
X165100Y177800D03*
M02*
