M48
;GenerationSoftware,Autodesk,EAGLE,9.4.2*%
;CreationDate,2019-08-26T22:56:08Z*%
FMAT,2
ICI,OFF
METRIC,TZ,000.000
T7C0.813
T6C0.900
T5C0.965
T4C1.016
T3C1.400
T2C3.302
T1C3.810
%
G90
M71
T1
X87630Y46990
X3810Y3810
T2
X85090Y38354
T3
X40370Y24460
X51070Y24460
X51070Y33960
X40370Y33960
X23860Y32080
X34560Y32080
X34560Y41580
X23860Y41580
T4
X2540Y38100
X2540Y35560
X2540Y33020
X2540Y30480
X2540Y27940
X2540Y25400
X2540Y22860
X2540Y20320
X17780Y45593
X5969Y12700
X11557Y24130
X8763Y24130
X17780Y30353
X17780Y33147
X17780Y37973
X17780Y40767
X87630Y23368
X85090Y23368
X82550Y23368
X2540Y40640
X2540Y43180
X2540Y45720
X2540Y48260
X75311Y31877
X75311Y34671
X17780Y48387
X3175Y12700
T5
X58293Y3810
X86233Y3810
X83693Y3810
X81153Y3810
X78613Y3810
X86233Y19050
X83693Y19050
X81153Y19050
X78613Y19050
X76073Y19050
X73533Y19050
X70993Y19050
X68453Y19050
X65913Y19050
X63373Y19050
X60833Y19050
X58293Y19050
X55753Y19050
X53213Y19050
X53213Y3810
X55753Y3810
X76073Y3810
X60833Y3810
X63373Y3810
X65913Y3810
X68453Y3810
X70993Y3810
X73533Y3810
T6
X64770Y46990
X63500Y27940
X55880Y27940
X16664Y7466
X11276Y12854
X57150Y46990
X76200Y46990
X68580Y46990
X74930Y44450
X67310Y44450
X55880Y44450
X63500Y44450
X57150Y25400
X64770Y25400
X76200Y27940
X68580Y27940
X16510Y25400
X20320Y25400
X20320Y17780
X17160Y13132
X22972Y8204
X41910Y5080
X41910Y12700
X45720Y12700
X77470Y25400
X69850Y25400
X16510Y17780
X45720Y5080
X38100Y5080
X38100Y12700
T7
X43180Y46355
X67310Y39370
X64770Y39370
X67310Y31750
X64770Y31750
X59690Y39370
X41910Y44450
X52070Y44450
X50800Y46355
X49530Y44450
X25400Y15240
X27940Y15240
X27940Y22860
X25400Y22860
X30480Y15240
X33020Y15240
X30480Y22860
X33020Y22860
X62230Y39370
X62230Y31750
X59690Y31750
X44450Y44450
M30