G75*
%MOIN*%
%OFA0B0*%
%FSLAX25Y25*%
%IPPOS*%
%LPD*%
%AMOC8*
5,1,8,0,0,1.08239X$1,22.5*
%
%ADD10C,0.15800*%
%ADD11C,0.00500*%
%ADD12C,0.08200*%
%ADD13C,0.07000*%
%ADD14C,0.09068*%
%ADD15C,0.07200*%
%ADD16C,0.13800*%
%ADD17C,0.07200*%
D10*
X0016500Y0027170D03*
X0346500Y0197170D03*
D11*
X0300380Y0151591D02*
X0299834Y0151964D01*
X0299231Y0152236D01*
X0298590Y0152400D01*
X0297930Y0152449D01*
X0297207Y0152368D01*
X0296514Y0152148D01*
X0295877Y0151797D01*
X0295321Y0151328D01*
X0294867Y0150759D01*
X0294533Y0150113D01*
X0294331Y0149415D01*
X0294270Y0148690D01*
X0294333Y0147969D01*
X0294535Y0147275D01*
X0294869Y0146633D01*
X0295322Y0146069D01*
X0295876Y0145604D01*
X0296510Y0145256D01*
X0297200Y0145038D01*
X0297920Y0144960D01*
X0298580Y0145008D01*
X0299221Y0145170D01*
X0299825Y0145441D01*
X0300372Y0145812D01*
X0300847Y0146273D01*
X0301234Y0146810D01*
X0301522Y0147405D01*
X0301703Y0148042D01*
X0301770Y0148700D01*
X0301705Y0149358D01*
X0301526Y0149995D01*
X0301239Y0150591D01*
X0300853Y0151129D01*
X0300380Y0151591D01*
X0300142Y0151753D02*
X0295826Y0151753D01*
X0295263Y0151255D02*
X0300724Y0151255D01*
X0301121Y0150756D02*
X0294866Y0150756D01*
X0294608Y0150258D02*
X0301400Y0150258D01*
X0301592Y0149759D02*
X0294431Y0149759D01*
X0294318Y0149260D02*
X0301714Y0149260D01*
X0301764Y0148762D02*
X0294276Y0148762D01*
X0294307Y0148263D02*
X0301726Y0148263D01*
X0301624Y0147765D02*
X0294392Y0147765D01*
X0294539Y0147266D02*
X0301455Y0147266D01*
X0301204Y0146768D02*
X0294799Y0146768D01*
X0295161Y0146269D02*
X0300843Y0146269D01*
X0300311Y0145771D02*
X0295677Y0145771D01*
X0296480Y0145272D02*
X0299450Y0145272D01*
X0298590Y0141380D02*
X0299231Y0141216D01*
X0299834Y0140944D01*
X0300380Y0140571D01*
X0300853Y0140109D01*
X0301239Y0139571D01*
X0301526Y0138975D01*
X0301705Y0138338D01*
X0301770Y0137680D01*
X0301703Y0137022D01*
X0301522Y0136385D01*
X0301234Y0135789D01*
X0300847Y0135253D01*
X0300372Y0134792D01*
X0299825Y0134420D01*
X0299221Y0134150D01*
X0298580Y0133988D01*
X0297920Y0133940D01*
X0297200Y0134018D01*
X0296510Y0134236D01*
X0295876Y0134584D01*
X0295322Y0135049D01*
X0294869Y0135613D01*
X0294535Y0136255D01*
X0294333Y0136949D01*
X0294270Y0137670D01*
X0294331Y0138395D01*
X0294533Y0139093D01*
X0294867Y0139739D01*
X0295321Y0140308D01*
X0295877Y0140777D01*
X0296514Y0141128D01*
X0297207Y0141348D01*
X0297930Y0141429D01*
X0298590Y0141380D01*
X0298963Y0141284D02*
X0297006Y0141284D01*
X0295894Y0140786D02*
X0300065Y0140786D01*
X0300670Y0140287D02*
X0295305Y0140287D01*
X0294907Y0139789D02*
X0301083Y0139789D01*
X0301374Y0139290D02*
X0294635Y0139290D01*
X0294446Y0138792D02*
X0301577Y0138792D01*
X0301709Y0138293D02*
X0294323Y0138293D01*
X0294280Y0137795D02*
X0301759Y0137795D01*
X0301731Y0137296D02*
X0294302Y0137296D01*
X0294377Y0136798D02*
X0301639Y0136798D01*
X0301481Y0136299D02*
X0294522Y0136299D01*
X0294771Y0135801D02*
X0301239Y0135801D01*
X0300882Y0135302D02*
X0295118Y0135302D01*
X0295614Y0134804D02*
X0300384Y0134804D01*
X0299568Y0134305D02*
X0296384Y0134305D01*
X0296840Y0152252D02*
X0299170Y0152252D01*
X0075270Y0161680D02*
X0075203Y0161022D01*
X0075022Y0160385D01*
X0074734Y0159789D01*
X0074347Y0159253D01*
X0073872Y0158792D01*
X0073325Y0158420D01*
X0072721Y0158150D01*
X0072080Y0157988D01*
X0071420Y0157940D01*
X0070700Y0158018D01*
X0070010Y0158236D01*
X0069376Y0158584D01*
X0068822Y0159049D01*
X0068369Y0159613D01*
X0068035Y0160255D01*
X0067833Y0160949D01*
X0067770Y0161670D01*
X0067831Y0162395D01*
X0068033Y0163093D01*
X0068367Y0163739D01*
X0068821Y0164308D01*
X0069377Y0164777D01*
X0070014Y0165128D01*
X0070707Y0165348D01*
X0071430Y0165429D01*
X0072090Y0165380D01*
X0072731Y0165216D01*
X0073334Y0164944D01*
X0073880Y0164571D01*
X0074353Y0164109D01*
X0074739Y0163571D01*
X0075026Y0162975D01*
X0075205Y0162338D01*
X0075270Y0161680D01*
X0075266Y0161723D02*
X0067774Y0161723D01*
X0067809Y0161225D02*
X0075224Y0161225D01*
X0075119Y0160726D02*
X0067898Y0160726D01*
X0068049Y0160228D02*
X0074946Y0160228D01*
X0074691Y0159729D02*
X0068308Y0159729D01*
X0068676Y0159231D02*
X0074324Y0159231D01*
X0073784Y0158732D02*
X0069199Y0158732D01*
X0070017Y0158234D02*
X0072909Y0158234D01*
X0075216Y0162222D02*
X0067817Y0162222D01*
X0067925Y0162720D02*
X0075097Y0162720D01*
X0074909Y0163219D02*
X0068098Y0163219D01*
X0068356Y0163717D02*
X0074634Y0163717D01*
X0074243Y0164216D02*
X0068748Y0164216D01*
X0069303Y0164714D02*
X0073669Y0164714D01*
X0072738Y0165213D02*
X0070281Y0165213D01*
X0070700Y0169038D02*
X0070010Y0169256D01*
X0069376Y0169604D01*
X0068822Y0170069D01*
X0068369Y0170633D01*
X0068035Y0171275D01*
X0067833Y0171969D01*
X0067770Y0172690D01*
X0067831Y0173415D01*
X0068033Y0174113D01*
X0068367Y0174759D01*
X0068821Y0175328D01*
X0069377Y0175797D01*
X0070014Y0176148D01*
X0070707Y0176368D01*
X0071430Y0176449D01*
X0072090Y0176400D01*
X0072731Y0176236D01*
X0073334Y0175964D01*
X0073880Y0175591D01*
X0074353Y0175129D01*
X0074739Y0174591D01*
X0075026Y0173995D01*
X0075205Y0173358D01*
X0075270Y0172700D01*
X0075203Y0172042D01*
X0075022Y0171405D01*
X0074734Y0170810D01*
X0074347Y0170273D01*
X0073872Y0169812D01*
X0073325Y0169441D01*
X0072721Y0169170D01*
X0072080Y0169008D01*
X0071420Y0168960D01*
X0070700Y0169038D01*
X0070184Y0169201D02*
X0072791Y0169201D01*
X0073706Y0169699D02*
X0069262Y0169699D01*
X0068718Y0170198D02*
X0074269Y0170198D01*
X0074652Y0170696D02*
X0068336Y0170696D01*
X0068076Y0171195D02*
X0074921Y0171195D01*
X0075104Y0171693D02*
X0067913Y0171693D01*
X0067813Y0172192D02*
X0075218Y0172192D01*
X0075269Y0172691D02*
X0067770Y0172691D01*
X0067812Y0173189D02*
X0075221Y0173189D01*
X0075112Y0173688D02*
X0067910Y0173688D01*
X0068071Y0174186D02*
X0074934Y0174186D01*
X0074672Y0174685D02*
X0068329Y0174685D01*
X0068706Y0175183D02*
X0074297Y0175183D01*
X0073747Y0175682D02*
X0069241Y0175682D01*
X0070115Y0176180D02*
X0072855Y0176180D01*
X0071570Y0187890D02*
X0070910Y0187940D01*
X0070269Y0188104D01*
X0069666Y0188376D01*
X0069120Y0188749D01*
X0068647Y0189211D01*
X0068261Y0189748D01*
X0067974Y0190345D01*
X0067795Y0190982D01*
X0067730Y0191640D01*
X0067797Y0192298D01*
X0067978Y0192935D01*
X0068266Y0193530D01*
X0068653Y0194067D01*
X0069128Y0194528D01*
X0069675Y0194899D01*
X0070279Y0195170D01*
X0070920Y0195332D01*
X0071580Y0195380D01*
X0072300Y0195301D01*
X0072990Y0195084D01*
X0073624Y0194736D01*
X0074178Y0194271D01*
X0074631Y0193707D01*
X0074965Y0193065D01*
X0075167Y0192371D01*
X0075230Y0191650D01*
X0075169Y0190925D01*
X0074967Y0190226D01*
X0074633Y0189580D01*
X0074179Y0189012D01*
X0073623Y0188543D01*
X0072986Y0188192D01*
X0072293Y0187971D01*
X0071570Y0187890D01*
X0072837Y0188144D02*
X0070179Y0188144D01*
X0069276Y0188643D02*
X0073741Y0188643D01*
X0074282Y0189141D02*
X0068718Y0189141D01*
X0068339Y0189640D02*
X0074663Y0189640D01*
X0074921Y0190138D02*
X0068073Y0190138D01*
X0067892Y0190637D02*
X0075085Y0190637D01*
X0075187Y0191135D02*
X0067780Y0191135D01*
X0067731Y0191634D02*
X0075229Y0191634D01*
X0075188Y0192132D02*
X0067780Y0192132D01*
X0067892Y0192631D02*
X0075091Y0192631D01*
X0074931Y0193129D02*
X0068072Y0193129D01*
X0068337Y0193628D02*
X0074672Y0193628D01*
X0074294Y0194127D02*
X0068715Y0194127D01*
X0069271Y0194625D02*
X0073756Y0194625D01*
X0072864Y0195124D02*
X0070175Y0195124D01*
X0070910Y0198960D02*
X0070269Y0199124D01*
X0069666Y0199396D01*
X0069120Y0199769D01*
X0068647Y0200231D01*
X0068261Y0200769D01*
X0067974Y0201365D01*
X0067795Y0202002D01*
X0067730Y0202660D01*
X0067797Y0203318D01*
X0067978Y0203955D01*
X0068266Y0204550D01*
X0068653Y0205087D01*
X0069128Y0205548D01*
X0069675Y0205919D01*
X0070279Y0206190D01*
X0070920Y0206352D01*
X0071580Y0206400D01*
X0072300Y0206322D01*
X0072990Y0206104D01*
X0073624Y0205756D01*
X0074178Y0205291D01*
X0074631Y0204727D01*
X0074965Y0204085D01*
X0075167Y0203391D01*
X0075230Y0202670D01*
X0075169Y0201945D01*
X0074967Y0201246D01*
X0074633Y0200600D01*
X0074179Y0200032D01*
X0073623Y0199563D01*
X0072986Y0199212D01*
X0072293Y0198991D01*
X0071570Y0198910D01*
X0070910Y0198960D01*
X0070317Y0199112D02*
X0072671Y0199112D01*
X0073678Y0199610D02*
X0069353Y0199610D01*
X0068772Y0200109D02*
X0074240Y0200109D01*
X0074636Y0200607D02*
X0068377Y0200607D01*
X0068099Y0201106D02*
X0074894Y0201106D01*
X0075070Y0201604D02*
X0067907Y0201604D01*
X0067785Y0202103D02*
X0075182Y0202103D01*
X0075224Y0202601D02*
X0067736Y0202601D01*
X0067775Y0203100D02*
X0075193Y0203100D01*
X0075107Y0203598D02*
X0067877Y0203598D01*
X0068046Y0204097D02*
X0074959Y0204097D01*
X0074700Y0204595D02*
X0068298Y0204595D01*
X0068661Y0205094D02*
X0074337Y0205094D01*
X0073819Y0205592D02*
X0069194Y0205592D01*
X0070057Y0206091D02*
X0073014Y0206091D01*
X0071430Y0146449D02*
X0072090Y0146400D01*
X0072731Y0146236D01*
X0073334Y0145964D01*
X0073880Y0145591D01*
X0074353Y0145129D01*
X0074739Y0144591D01*
X0075026Y0143995D01*
X0075205Y0143358D01*
X0075270Y0142700D01*
X0075203Y0142042D01*
X0075022Y0141405D01*
X0074734Y0140810D01*
X0074347Y0140273D01*
X0073872Y0139812D01*
X0073325Y0139441D01*
X0072721Y0139170D01*
X0072080Y0139008D01*
X0071420Y0138960D01*
X0070700Y0139038D01*
X0070010Y0139256D01*
X0069376Y0139604D01*
X0068822Y0140069D01*
X0068369Y0140633D01*
X0068035Y0141275D01*
X0067833Y0141969D01*
X0067770Y0142690D01*
X0067831Y0143415D01*
X0068033Y0144113D01*
X0068367Y0144759D01*
X0068821Y0145328D01*
X0069377Y0145797D01*
X0070014Y0146148D01*
X0070707Y0146368D01*
X0071430Y0146449D01*
X0070396Y0146269D02*
X0072600Y0146269D01*
X0073616Y0145771D02*
X0069347Y0145771D01*
X0068777Y0145272D02*
X0074206Y0145272D01*
X0074608Y0144774D02*
X0068379Y0144774D01*
X0068117Y0144275D02*
X0074891Y0144275D01*
X0075087Y0143777D02*
X0067936Y0143777D01*
X0067820Y0143278D02*
X0075213Y0143278D01*
X0075262Y0142780D02*
X0067777Y0142780D01*
X0067805Y0142281D02*
X0075227Y0142281D01*
X0075129Y0141783D02*
X0067887Y0141783D01*
X0068032Y0141284D02*
X0074964Y0141284D01*
X0074717Y0140786D02*
X0068289Y0140786D01*
X0068646Y0140287D02*
X0074357Y0140287D01*
X0073838Y0139789D02*
X0069155Y0139789D01*
X0069947Y0139290D02*
X0072990Y0139290D01*
X0072090Y0135380D02*
X0072731Y0135216D01*
X0073334Y0134944D01*
X0073880Y0134571D01*
X0074353Y0134109D01*
X0074739Y0133571D01*
X0075026Y0132975D01*
X0075205Y0132338D01*
X0075270Y0131680D01*
X0075203Y0131022D01*
X0075022Y0130385D01*
X0074734Y0129789D01*
X0074347Y0129253D01*
X0073872Y0128792D01*
X0073325Y0128420D01*
X0072721Y0128150D01*
X0072080Y0127988D01*
X0071420Y0127940D01*
X0070700Y0128018D01*
X0070010Y0128236D01*
X0069376Y0128584D01*
X0068822Y0129049D01*
X0068369Y0129613D01*
X0068035Y0130255D01*
X0067833Y0130949D01*
X0067770Y0131670D01*
X0067831Y0132395D01*
X0068033Y0133093D01*
X0068367Y0133739D01*
X0068821Y0134308D01*
X0069377Y0134777D01*
X0070014Y0135128D01*
X0070707Y0135348D01*
X0071430Y0135429D01*
X0072090Y0135380D01*
X0072393Y0135302D02*
X0070562Y0135302D01*
X0069426Y0134804D02*
X0073539Y0134804D01*
X0074152Y0134305D02*
X0068819Y0134305D01*
X0068421Y0133807D02*
X0074570Y0133807D01*
X0074866Y0133308D02*
X0068144Y0133308D01*
X0067951Y0132810D02*
X0075072Y0132810D01*
X0075207Y0132311D02*
X0067824Y0132311D01*
X0067782Y0131813D02*
X0075257Y0131813D01*
X0075233Y0131314D02*
X0067801Y0131314D01*
X0067872Y0130816D02*
X0075144Y0130816D01*
X0074989Y0130317D02*
X0068017Y0130317D01*
X0068262Y0129819D02*
X0074748Y0129819D01*
X0074395Y0129320D02*
X0068604Y0129320D01*
X0069092Y0128822D02*
X0073902Y0128822D01*
X0073108Y0128323D02*
X0069851Y0128323D01*
X0049878Y0109542D02*
X0050249Y0108995D01*
X0050520Y0108391D01*
X0050682Y0107749D01*
X0050730Y0107090D01*
X0050652Y0106370D01*
X0050434Y0105680D01*
X0050086Y0105046D01*
X0049621Y0104492D01*
X0049057Y0104039D01*
X0048415Y0103705D01*
X0047721Y0103502D01*
X0047000Y0103440D01*
X0046275Y0103501D01*
X0045577Y0103703D01*
X0044931Y0104037D01*
X0044362Y0104491D01*
X0043893Y0105047D01*
X0043542Y0105684D01*
X0043322Y0106377D01*
X0043241Y0107100D01*
X0043290Y0107759D01*
X0043454Y0108401D01*
X0043726Y0109003D01*
X0044099Y0109550D01*
X0044561Y0110023D01*
X0045099Y0110409D01*
X0045695Y0110696D01*
X0046332Y0110874D01*
X0046990Y0110940D01*
X0047648Y0110873D01*
X0048285Y0110692D01*
X0048880Y0110404D01*
X0049417Y0110017D01*
X0049878Y0109542D01*
X0049988Y0109380D02*
X0043983Y0109380D01*
X0043671Y0108881D02*
X0050300Y0108881D01*
X0050522Y0108383D02*
X0043449Y0108383D01*
X0043322Y0107884D02*
X0050648Y0107884D01*
X0050709Y0107386D02*
X0043262Y0107386D01*
X0043264Y0106887D02*
X0050708Y0106887D01*
X0050654Y0106389D02*
X0043320Y0106389D01*
X0043476Y0105890D02*
X0050500Y0105890D01*
X0050276Y0105391D02*
X0043703Y0105391D01*
X0044023Y0104893D02*
X0049958Y0104893D01*
X0049500Y0104394D02*
X0044483Y0104394D01*
X0045204Y0103896D02*
X0048782Y0103896D01*
X0049551Y0109878D02*
X0044420Y0109878D01*
X0045054Y0110377D02*
X0048918Y0110377D01*
X0047625Y0110875D02*
X0046338Y0110875D01*
X0039500Y0108391D02*
X0039662Y0107749D01*
X0039710Y0107090D01*
X0039632Y0106370D01*
X0039414Y0105680D01*
X0039066Y0105046D01*
X0038601Y0104492D01*
X0038037Y0104039D01*
X0037395Y0103705D01*
X0036701Y0103502D01*
X0035980Y0103440D01*
X0035255Y0103501D01*
X0034556Y0103703D01*
X0033910Y0104037D01*
X0033342Y0104491D01*
X0032873Y0105047D01*
X0032522Y0105684D01*
X0032301Y0106377D01*
X0032220Y0107100D01*
X0032270Y0107759D01*
X0032434Y0108401D01*
X0032706Y0109003D01*
X0033079Y0109550D01*
X0033541Y0110023D01*
X0034079Y0110409D01*
X0034675Y0110696D01*
X0035312Y0110874D01*
X0035970Y0110940D01*
X0036628Y0110873D01*
X0037265Y0110692D01*
X0037860Y0110404D01*
X0038397Y0110017D01*
X0038858Y0109542D01*
X0039229Y0108995D01*
X0039500Y0108391D01*
X0039502Y0108383D02*
X0032429Y0108383D01*
X0032302Y0107884D02*
X0039628Y0107884D01*
X0039689Y0107386D02*
X0032242Y0107386D01*
X0032244Y0106887D02*
X0039688Y0106887D01*
X0039634Y0106389D02*
X0032300Y0106389D01*
X0032456Y0105890D02*
X0039480Y0105890D01*
X0039256Y0105391D02*
X0032683Y0105391D01*
X0033003Y0104893D02*
X0038938Y0104893D01*
X0038480Y0104394D02*
X0033463Y0104394D01*
X0034183Y0103896D02*
X0037762Y0103896D01*
X0039280Y0108881D02*
X0032651Y0108881D01*
X0032963Y0109380D02*
X0038968Y0109380D01*
X0038531Y0109878D02*
X0033400Y0109878D01*
X0034033Y0110377D02*
X0037898Y0110377D01*
X0036605Y0110875D02*
X0035318Y0110875D01*
X0025745Y0065839D02*
X0025020Y0065900D01*
X0024299Y0065837D01*
X0023605Y0065635D01*
X0022963Y0065301D01*
X0022399Y0064848D01*
X0021934Y0064294D01*
X0021586Y0063659D01*
X0021368Y0062969D01*
X0021290Y0062250D01*
X0021338Y0061590D01*
X0021500Y0060949D01*
X0021771Y0060345D01*
X0022142Y0059798D01*
X0022603Y0059323D01*
X0023140Y0058936D01*
X0023735Y0058648D01*
X0024372Y0058467D01*
X0025030Y0058400D01*
X0025688Y0058465D01*
X0026325Y0058644D01*
X0026921Y0058931D01*
X0027459Y0059317D01*
X0027921Y0059790D01*
X0028294Y0060336D01*
X0028566Y0060939D01*
X0028730Y0061580D01*
X0028780Y0062240D01*
X0028699Y0062963D01*
X0028478Y0063656D01*
X0028127Y0064293D01*
X0027658Y0064849D01*
X0027090Y0065303D01*
X0026444Y0065637D01*
X0025745Y0065839D01*
X0026687Y0065511D02*
X0023366Y0065511D01*
X0022603Y0065012D02*
X0027453Y0065012D01*
X0027940Y0064514D02*
X0022118Y0064514D01*
X0021781Y0064015D02*
X0028280Y0064015D01*
X0028522Y0063517D02*
X0021541Y0063517D01*
X0021384Y0063018D02*
X0028681Y0063018D01*
X0028748Y0062520D02*
X0021319Y0062520D01*
X0021306Y0062021D02*
X0028763Y0062021D01*
X0028715Y0061522D02*
X0021355Y0061522D01*
X0021481Y0061024D02*
X0028588Y0061024D01*
X0028379Y0060525D02*
X0021690Y0060525D01*
X0021987Y0060027D02*
X0028083Y0060027D01*
X0027666Y0059528D02*
X0022404Y0059528D01*
X0023009Y0059030D02*
X0027060Y0059030D01*
X0025924Y0058531D02*
X0024145Y0058531D01*
X0017546Y0060939D02*
X0017274Y0060336D01*
X0016901Y0059790D01*
X0016439Y0059317D01*
X0015901Y0058931D01*
X0015305Y0058644D01*
X0014668Y0058465D01*
X0014010Y0058400D01*
X0013352Y0058467D01*
X0012715Y0058648D01*
X0012120Y0058936D01*
X0011583Y0059323D01*
X0011122Y0059798D01*
X0010751Y0060345D01*
X0010480Y0060949D01*
X0010318Y0061590D01*
X0010270Y0062250D01*
X0010348Y0062969D01*
X0010566Y0063659D01*
X0010914Y0064294D01*
X0011379Y0064848D01*
X0011943Y0065301D01*
X0012585Y0065635D01*
X0013279Y0065837D01*
X0014000Y0065900D01*
X0014725Y0065839D01*
X0015423Y0065637D01*
X0016069Y0065303D01*
X0016638Y0064849D01*
X0017107Y0064293D01*
X0017458Y0063656D01*
X0017678Y0062963D01*
X0017759Y0062240D01*
X0017710Y0061580D01*
X0017546Y0060939D01*
X0017568Y0061024D02*
X0010461Y0061024D01*
X0010335Y0061522D02*
X0017695Y0061522D01*
X0017743Y0062021D02*
X0010286Y0062021D01*
X0010299Y0062520D02*
X0017728Y0062520D01*
X0017661Y0063018D02*
X0010364Y0063018D01*
X0010521Y0063517D02*
X0017502Y0063517D01*
X0017260Y0064015D02*
X0010761Y0064015D01*
X0011098Y0064514D02*
X0016920Y0064514D01*
X0016433Y0065012D02*
X0011583Y0065012D01*
X0012346Y0065511D02*
X0015667Y0065511D01*
X0017359Y0060525D02*
X0010670Y0060525D01*
X0010967Y0060027D02*
X0017063Y0060027D01*
X0016646Y0059528D02*
X0011384Y0059528D01*
X0011989Y0059030D02*
X0016039Y0059030D01*
X0014904Y0058531D02*
X0013125Y0058531D01*
D12*
X0045893Y0062776D03*
X0069060Y0063872D03*
X0066500Y0082170D03*
X0081500Y0082170D03*
X0081500Y0112170D03*
X0066500Y0112170D03*
X0011500Y0112170D03*
X0011500Y0122170D03*
X0011500Y0132170D03*
X0011500Y0142170D03*
X0011500Y0152170D03*
X0011500Y0162170D03*
X0011500Y0172170D03*
X0011500Y0182170D03*
X0011500Y0192170D03*
X0011500Y0202170D03*
X0166500Y0187170D03*
X0176500Y0187170D03*
X0171500Y0194670D03*
X0196500Y0187170D03*
X0206500Y0187170D03*
X0201500Y0194670D03*
X0221500Y0187170D03*
X0226500Y0197170D03*
X0251500Y0187170D03*
X0266500Y0187170D03*
X0271500Y0197170D03*
X0256500Y0197170D03*
X0296500Y0187170D03*
X0301500Y0197170D03*
X0301500Y0122170D03*
X0306500Y0112170D03*
X0276500Y0112170D03*
X0271500Y0122170D03*
X0256500Y0112170D03*
X0251500Y0122170D03*
X0226500Y0112170D03*
X0221500Y0122170D03*
X0181500Y0062170D03*
X0166500Y0062170D03*
X0151500Y0062170D03*
X0151500Y0032170D03*
X0166500Y0032170D03*
X0181500Y0032170D03*
X0091940Y0044468D03*
X0067107Y0041563D03*
X0011500Y0092170D03*
X0011500Y0102170D03*
D13*
X0211000Y0087170D03*
X0221000Y0087170D03*
X0231000Y0087170D03*
X0241000Y0087170D03*
X0251000Y0087170D03*
X0261000Y0087170D03*
X0271000Y0087170D03*
X0281000Y0087170D03*
X0291000Y0087170D03*
X0301000Y0087170D03*
X0311000Y0087170D03*
X0321000Y0087170D03*
X0331000Y0087170D03*
X0341000Y0087170D03*
X0341000Y0027170D03*
X0331000Y0027170D03*
X0321000Y0027170D03*
X0311000Y0027170D03*
X0301000Y0027170D03*
X0291000Y0027170D03*
X0281000Y0027170D03*
X0271000Y0027170D03*
X0261000Y0027170D03*
X0251000Y0027170D03*
X0241000Y0027170D03*
X0231000Y0027170D03*
X0221000Y0027170D03*
X0211000Y0027170D03*
D14*
X0202563Y0108469D03*
X0160437Y0108469D03*
X0137563Y0138469D03*
X0160437Y0145871D03*
X0202563Y0145871D03*
X0137563Y0175871D03*
X0095437Y0175871D03*
X0095437Y0138469D03*
D15*
X0326500Y0107370D02*
X0326500Y0100970D01*
X0336500Y0100970D02*
X0336500Y0107370D01*
X0346500Y0107370D02*
X0346500Y0100970D01*
D16*
X0336500Y0163170D03*
D17*
X0266500Y0167170D03*
X0256500Y0167170D03*
X0246500Y0167170D03*
X0236500Y0167170D03*
X0236500Y0137170D03*
X0246500Y0137170D03*
X0256500Y0137170D03*
X0266500Y0137170D03*
X0131500Y0102170D03*
X0121500Y0102170D03*
X0111500Y0102170D03*
X0101500Y0102170D03*
X0101500Y0072170D03*
X0111500Y0072170D03*
X0121500Y0072170D03*
X0131500Y0072170D03*
M02*
