G75*
%MOIN*%
%OFA0B0*%
%FSLAX25Y25*%
%IPPOS*%
%LPD*%
%AMOC8*
5,1,8,0,0,1.08239X$1,22.5*
%
%ADD10C,0.08000*%
%ADD11C,0.07400*%
%ADD12C,0.06200*%
%ADD13C,0.08268*%
%ADD14C,0.06400*%
%ADD15C,0.06400*%
%ADD16C,0.01000*%
%ADD17C,0.04000*%
D10*
X0014000Y0062170D03*
X0025000Y0062170D03*
X0036000Y0107170D03*
X0047000Y0107170D03*
X0071500Y0131670D03*
X0071500Y0142670D03*
X0071500Y0161670D03*
X0071500Y0172670D03*
X0071500Y0191670D03*
X0071500Y0202670D03*
X0298000Y0148670D03*
X0298000Y0137670D03*
D11*
X0301500Y0122170D03*
X0306500Y0112170D03*
X0276500Y0112170D03*
X0271500Y0122170D03*
X0256500Y0112170D03*
X0251500Y0122170D03*
X0226500Y0112170D03*
X0221500Y0122170D03*
X0181500Y0062170D03*
X0166500Y0062170D03*
X0151500Y0062170D03*
X0151500Y0032170D03*
X0166500Y0032170D03*
X0181500Y0032170D03*
X0091940Y0044468D03*
X0067107Y0041563D03*
X0069060Y0063872D03*
X0045893Y0062776D03*
X0066500Y0082170D03*
X0081500Y0082170D03*
X0081500Y0112170D03*
X0066500Y0112170D03*
X0011500Y0112170D03*
X0011500Y0122170D03*
X0011500Y0132170D03*
X0011500Y0142170D03*
X0011500Y0152170D03*
X0011500Y0162170D03*
X0011500Y0172170D03*
X0011500Y0182170D03*
X0011500Y0192170D03*
X0011500Y0202170D03*
X0166500Y0187170D03*
X0176500Y0187170D03*
X0171500Y0194670D03*
X0196500Y0187170D03*
X0206500Y0187170D03*
X0201500Y0194670D03*
X0221500Y0187170D03*
X0226500Y0197170D03*
X0251500Y0187170D03*
X0266500Y0187170D03*
X0271500Y0197170D03*
X0256500Y0197170D03*
X0296500Y0187170D03*
X0301500Y0197170D03*
X0011500Y0102170D03*
X0011500Y0092170D03*
D12*
X0211000Y0087170D03*
X0221000Y0087170D03*
X0231000Y0087170D03*
X0241000Y0087170D03*
X0251000Y0087170D03*
X0261000Y0087170D03*
X0271000Y0087170D03*
X0281000Y0087170D03*
X0291000Y0087170D03*
X0301000Y0087170D03*
X0311000Y0087170D03*
X0321000Y0087170D03*
X0331000Y0087170D03*
X0341000Y0087170D03*
X0341000Y0027170D03*
X0331000Y0027170D03*
X0321000Y0027170D03*
X0311000Y0027170D03*
X0301000Y0027170D03*
X0291000Y0027170D03*
X0281000Y0027170D03*
X0271000Y0027170D03*
X0261000Y0027170D03*
X0251000Y0027170D03*
X0241000Y0027170D03*
X0231000Y0027170D03*
X0221000Y0027170D03*
X0211000Y0027170D03*
D13*
X0202563Y0108469D03*
X0160437Y0108469D03*
X0137563Y0138469D03*
X0160437Y0145871D03*
X0202563Y0145871D03*
X0137563Y0175871D03*
X0095437Y0175871D03*
X0095437Y0138469D03*
D14*
X0326500Y0107370D02*
X0326500Y0100970D01*
X0336500Y0100970D02*
X0336500Y0107370D01*
X0346500Y0107370D02*
X0346500Y0100970D01*
D15*
X0266500Y0137170D03*
X0256500Y0137170D03*
X0246500Y0137170D03*
X0236500Y0137170D03*
X0236500Y0167170D03*
X0246500Y0167170D03*
X0256500Y0167170D03*
X0266500Y0167170D03*
X0131500Y0102170D03*
X0121500Y0102170D03*
X0111500Y0102170D03*
X0101500Y0102170D03*
X0101500Y0072170D03*
X0111500Y0072170D03*
X0121500Y0072170D03*
X0131500Y0072170D03*
D16*
X0003200Y0013870D02*
X0003200Y0210430D01*
X0358501Y0210430D01*
X0358501Y0013870D01*
X0003200Y0013870D01*
X0003200Y0014167D02*
X0358501Y0014167D01*
X0358501Y0015165D02*
X0003200Y0015165D01*
X0003200Y0016164D02*
X0358501Y0016164D01*
X0358501Y0017162D02*
X0183604Y0017162D01*
X0184200Y0017759D02*
X0199511Y0033070D01*
X0251989Y0033070D01*
X0256415Y0028644D01*
X0256200Y0028125D01*
X0256200Y0026215D01*
X0256931Y0024451D01*
X0258281Y0023101D01*
X0260045Y0022370D01*
X0261955Y0022370D01*
X0263719Y0023101D01*
X0265069Y0024451D01*
X0265800Y0026215D01*
X0265800Y0028125D01*
X0265069Y0029889D01*
X0263719Y0031239D01*
X0261955Y0031970D01*
X0260045Y0031970D01*
X0259526Y0031755D01*
X0253811Y0037470D01*
X0197689Y0037470D01*
X0181089Y0020870D01*
X0165911Y0020870D01*
X0156544Y0030237D01*
X0156900Y0031096D01*
X0156900Y0033244D01*
X0156078Y0035229D01*
X0154559Y0036748D01*
X0152574Y0037570D01*
X0150426Y0037570D01*
X0148441Y0036748D01*
X0146922Y0035229D01*
X0146100Y0033244D01*
X0146100Y0031096D01*
X0146922Y0029111D01*
X0148441Y0027592D01*
X0150426Y0026770D01*
X0152574Y0026770D01*
X0153433Y0027126D01*
X0162800Y0017759D01*
X0162800Y0017759D01*
X0164089Y0016470D01*
X0182911Y0016470D01*
X0184200Y0017759D01*
X0184602Y0018161D02*
X0358501Y0018161D01*
X0358501Y0019159D02*
X0185601Y0019159D01*
X0186599Y0020158D02*
X0358501Y0020158D01*
X0358501Y0021156D02*
X0187598Y0021156D01*
X0188596Y0022155D02*
X0358501Y0022155D01*
X0358501Y0023153D02*
X0343772Y0023153D01*
X0343719Y0023101D02*
X0345069Y0024451D01*
X0345800Y0026215D01*
X0345800Y0028125D01*
X0345069Y0029889D01*
X0343719Y0031239D01*
X0343000Y0031537D01*
X0343000Y0045559D01*
X0353000Y0055559D01*
X0353000Y0100781D01*
X0351400Y0102381D01*
X0351400Y0108345D01*
X0350654Y0110145D01*
X0349276Y0111524D01*
X0348700Y0111762D01*
X0348700Y0114081D01*
X0347411Y0115370D01*
X0311911Y0150870D01*
X0303258Y0150870D01*
X0302832Y0151899D01*
X0301229Y0153502D01*
X0299134Y0154370D01*
X0296866Y0154370D01*
X0294771Y0153502D01*
X0293168Y0151899D01*
X0292300Y0149804D01*
X0292300Y0147536D01*
X0293168Y0145441D01*
X0294771Y0143838D01*
X0296711Y0143034D01*
X0295889Y0142767D01*
X0295117Y0142374D01*
X0294417Y0141865D01*
X0293805Y0141253D01*
X0293296Y0140552D01*
X0292903Y0139781D01*
X0292635Y0138958D01*
X0292511Y0138170D01*
X0297500Y0138170D01*
X0297500Y0137170D01*
X0292511Y0137170D01*
X0292635Y0136382D01*
X0292903Y0135559D01*
X0293296Y0134787D01*
X0293805Y0134087D01*
X0294417Y0133475D01*
X0295117Y0132966D01*
X0295889Y0132573D01*
X0296712Y0132305D01*
X0297500Y0132180D01*
X0297500Y0137170D01*
X0298500Y0137170D01*
X0298500Y0138170D01*
X0303489Y0138170D01*
X0303365Y0138958D01*
X0303097Y0139781D01*
X0302704Y0140552D01*
X0302195Y0141253D01*
X0301583Y0141865D01*
X0300883Y0142374D01*
X0300111Y0142767D01*
X0299289Y0143034D01*
X0301229Y0143838D01*
X0302832Y0145441D01*
X0303258Y0146470D01*
X0310089Y0146470D01*
X0344300Y0112259D01*
X0344300Y0111762D01*
X0343724Y0111524D01*
X0342346Y0110145D01*
X0341600Y0108345D01*
X0341600Y0099995D01*
X0342346Y0098194D01*
X0343724Y0096816D01*
X0345525Y0096070D01*
X0347475Y0096070D01*
X0348600Y0096536D01*
X0348600Y0064370D01*
X0186434Y0064370D01*
X0186078Y0065229D01*
X0184559Y0066748D01*
X0182574Y0067570D01*
X0180426Y0067570D01*
X0178441Y0066748D01*
X0176922Y0065229D01*
X0176100Y0063244D01*
X0176100Y0061096D01*
X0176368Y0060449D01*
X0167100Y0051181D01*
X0156900Y0061381D01*
X0156900Y0063244D01*
X0156078Y0065229D01*
X0154559Y0066748D01*
X0153700Y0067104D01*
X0153700Y0073681D01*
X0152411Y0074970D01*
X0134200Y0093181D01*
X0134200Y0097985D01*
X0134276Y0098016D01*
X0135654Y0099394D01*
X0136400Y0101195D01*
X0136400Y0103145D01*
X0135654Y0104945D01*
X0134276Y0106324D01*
X0132475Y0107070D01*
X0130525Y0107070D01*
X0128724Y0106324D01*
X0127346Y0104945D01*
X0126600Y0103145D01*
X0126600Y0101195D01*
X0127346Y0099394D01*
X0128724Y0098016D01*
X0129800Y0097570D01*
X0129800Y0091359D01*
X0149300Y0071859D01*
X0149300Y0067104D01*
X0148441Y0066748D01*
X0146922Y0065229D01*
X0146100Y0063244D01*
X0146100Y0061096D01*
X0146922Y0059111D01*
X0148441Y0057592D01*
X0150426Y0056770D01*
X0152574Y0056770D01*
X0154494Y0057565D01*
X0164900Y0047159D01*
X0164900Y0037352D01*
X0163441Y0036748D01*
X0161922Y0035229D01*
X0161100Y0033244D01*
X0161100Y0031096D01*
X0161922Y0029111D01*
X0163441Y0027592D01*
X0165426Y0026770D01*
X0167574Y0026770D01*
X0169559Y0027592D01*
X0171078Y0029111D01*
X0171900Y0031096D01*
X0171900Y0033244D01*
X0171078Y0035229D01*
X0169559Y0036748D01*
X0169300Y0036855D01*
X0169300Y0047159D01*
X0179355Y0057213D01*
X0180426Y0056770D01*
X0182574Y0056770D01*
X0184559Y0057592D01*
X0186078Y0059111D01*
X0186434Y0059970D01*
X0348600Y0059970D01*
X0348600Y0057381D01*
X0338600Y0047381D01*
X0338600Y0031371D01*
X0338281Y0031239D01*
X0336931Y0029889D01*
X0336200Y0028125D01*
X0336200Y0026215D01*
X0336931Y0024451D01*
X0338281Y0023101D01*
X0340045Y0022370D01*
X0341955Y0022370D01*
X0343719Y0023101D01*
X0344770Y0024152D02*
X0358501Y0024152D01*
X0358501Y0025151D02*
X0345359Y0025151D01*
X0345773Y0026149D02*
X0358501Y0026149D01*
X0358501Y0027148D02*
X0345800Y0027148D01*
X0345791Y0028146D02*
X0358501Y0028146D01*
X0358501Y0029145D02*
X0345378Y0029145D01*
X0344815Y0030143D02*
X0358501Y0030143D01*
X0358501Y0031142D02*
X0343816Y0031142D01*
X0343000Y0032140D02*
X0358501Y0032140D01*
X0358501Y0033139D02*
X0343000Y0033139D01*
X0343000Y0034137D02*
X0358501Y0034137D01*
X0358501Y0035136D02*
X0343000Y0035136D01*
X0343000Y0036134D02*
X0358501Y0036134D01*
X0358501Y0037133D02*
X0343000Y0037133D01*
X0343000Y0038131D02*
X0358501Y0038131D01*
X0358501Y0039130D02*
X0343000Y0039130D01*
X0343000Y0040128D02*
X0358501Y0040128D01*
X0358501Y0041127D02*
X0343000Y0041127D01*
X0343000Y0042125D02*
X0358501Y0042125D01*
X0358501Y0043124D02*
X0343000Y0043124D01*
X0343000Y0044122D02*
X0358501Y0044122D01*
X0358501Y0045121D02*
X0343000Y0045121D01*
X0343561Y0046119D02*
X0358501Y0046119D01*
X0358501Y0047118D02*
X0344559Y0047118D01*
X0345558Y0048116D02*
X0358501Y0048116D01*
X0358501Y0049115D02*
X0346556Y0049115D01*
X0347555Y0050113D02*
X0358501Y0050113D01*
X0358501Y0051112D02*
X0348553Y0051112D01*
X0349552Y0052110D02*
X0358501Y0052110D01*
X0358501Y0053109D02*
X0350550Y0053109D01*
X0351549Y0054107D02*
X0358501Y0054107D01*
X0358501Y0055106D02*
X0352547Y0055106D01*
X0353000Y0056104D02*
X0358501Y0056104D01*
X0358501Y0057103D02*
X0353000Y0057103D01*
X0353000Y0058101D02*
X0358501Y0058101D01*
X0358501Y0059100D02*
X0353000Y0059100D01*
X0353000Y0060098D02*
X0358501Y0060098D01*
X0358501Y0061097D02*
X0353000Y0061097D01*
X0353000Y0062095D02*
X0358501Y0062095D01*
X0358501Y0063094D02*
X0353000Y0063094D01*
X0353000Y0064092D02*
X0358501Y0064092D01*
X0358501Y0065091D02*
X0353000Y0065091D01*
X0353000Y0066089D02*
X0358501Y0066089D01*
X0358501Y0067088D02*
X0353000Y0067088D01*
X0353000Y0068087D02*
X0358501Y0068087D01*
X0358501Y0069085D02*
X0353000Y0069085D01*
X0353000Y0070084D02*
X0358501Y0070084D01*
X0358501Y0071082D02*
X0353000Y0071082D01*
X0353000Y0072081D02*
X0358501Y0072081D01*
X0358501Y0073079D02*
X0353000Y0073079D01*
X0353000Y0074078D02*
X0358501Y0074078D01*
X0358501Y0075076D02*
X0353000Y0075076D01*
X0353000Y0076075D02*
X0358501Y0076075D01*
X0358501Y0077073D02*
X0353000Y0077073D01*
X0353000Y0078072D02*
X0358501Y0078072D01*
X0358501Y0079070D02*
X0353000Y0079070D01*
X0353000Y0080069D02*
X0358501Y0080069D01*
X0358501Y0081067D02*
X0353000Y0081067D01*
X0353000Y0082066D02*
X0358501Y0082066D01*
X0358501Y0083064D02*
X0353000Y0083064D01*
X0353000Y0084063D02*
X0358501Y0084063D01*
X0358501Y0085061D02*
X0353000Y0085061D01*
X0353000Y0086060D02*
X0358501Y0086060D01*
X0358501Y0087058D02*
X0353000Y0087058D01*
X0353000Y0088057D02*
X0358501Y0088057D01*
X0358501Y0089055D02*
X0353000Y0089055D01*
X0353000Y0090054D02*
X0358501Y0090054D01*
X0358501Y0091052D02*
X0353000Y0091052D01*
X0353000Y0092051D02*
X0358501Y0092051D01*
X0358501Y0093049D02*
X0353000Y0093049D01*
X0353000Y0094048D02*
X0358501Y0094048D01*
X0358501Y0095046D02*
X0353000Y0095046D01*
X0353000Y0096045D02*
X0358501Y0096045D01*
X0358501Y0097043D02*
X0353000Y0097043D01*
X0353000Y0098042D02*
X0358501Y0098042D01*
X0358501Y0099040D02*
X0353000Y0099040D01*
X0353000Y0100039D02*
X0358501Y0100039D01*
X0358501Y0101037D02*
X0352744Y0101037D01*
X0351745Y0102036D02*
X0358501Y0102036D01*
X0358501Y0103034D02*
X0351400Y0103034D01*
X0351400Y0104033D02*
X0358501Y0104033D01*
X0358501Y0105031D02*
X0351400Y0105031D01*
X0351400Y0106030D02*
X0358501Y0106030D01*
X0358501Y0107028D02*
X0351400Y0107028D01*
X0351400Y0108027D02*
X0358501Y0108027D01*
X0358501Y0109025D02*
X0351118Y0109025D01*
X0350704Y0110024D02*
X0358501Y0110024D01*
X0358501Y0111022D02*
X0349777Y0111022D01*
X0348700Y0112021D02*
X0358501Y0112021D01*
X0358501Y0113020D02*
X0348700Y0113020D01*
X0348700Y0114018D02*
X0358501Y0114018D01*
X0358501Y0115017D02*
X0347765Y0115017D01*
X0346766Y0116015D02*
X0358501Y0116015D01*
X0358501Y0117014D02*
X0345768Y0117014D01*
X0344769Y0118012D02*
X0358501Y0118012D01*
X0358501Y0119011D02*
X0343771Y0119011D01*
X0342772Y0120009D02*
X0358501Y0120009D01*
X0358501Y0121008D02*
X0341774Y0121008D01*
X0340775Y0122006D02*
X0358501Y0122006D01*
X0358501Y0123005D02*
X0339777Y0123005D01*
X0338778Y0124003D02*
X0358501Y0124003D01*
X0358501Y0125002D02*
X0337779Y0125002D01*
X0336781Y0126000D02*
X0358501Y0126000D01*
X0358501Y0126999D02*
X0335782Y0126999D01*
X0334784Y0127997D02*
X0358501Y0127997D01*
X0358501Y0128996D02*
X0333785Y0128996D01*
X0332787Y0129994D02*
X0358501Y0129994D01*
X0358501Y0130993D02*
X0331788Y0130993D01*
X0330790Y0131991D02*
X0358501Y0131991D01*
X0358501Y0132990D02*
X0329791Y0132990D01*
X0328793Y0133988D02*
X0358501Y0133988D01*
X0358501Y0134987D02*
X0327794Y0134987D01*
X0326796Y0135985D02*
X0358501Y0135985D01*
X0358501Y0136984D02*
X0325797Y0136984D01*
X0324799Y0137982D02*
X0358501Y0137982D01*
X0358501Y0138981D02*
X0323800Y0138981D01*
X0322802Y0139979D02*
X0358501Y0139979D01*
X0358501Y0140978D02*
X0321803Y0140978D01*
X0320805Y0141976D02*
X0358501Y0141976D01*
X0358501Y0142975D02*
X0319806Y0142975D01*
X0318808Y0143973D02*
X0358501Y0143973D01*
X0358501Y0144972D02*
X0317809Y0144972D01*
X0316811Y0145970D02*
X0358501Y0145970D01*
X0358501Y0146969D02*
X0315812Y0146969D01*
X0314814Y0147967D02*
X0358501Y0147967D01*
X0358501Y0148966D02*
X0313815Y0148966D01*
X0312817Y0149964D02*
X0332851Y0149964D01*
X0331212Y0150404D02*
X0334696Y0149470D01*
X0338304Y0149470D01*
X0341788Y0150404D01*
X0344912Y0152207D01*
X0347463Y0154758D01*
X0349266Y0157882D01*
X0350200Y0161366D01*
X0350200Y0164974D01*
X0349266Y0168458D01*
X0347463Y0171582D01*
X0344912Y0174133D01*
X0341788Y0175936D01*
X0338304Y0176870D01*
X0334696Y0176870D01*
X0331212Y0175936D01*
X0328088Y0174133D01*
X0325537Y0171582D01*
X0323734Y0168458D01*
X0322800Y0164974D01*
X0322800Y0161366D01*
X0323734Y0157882D01*
X0325537Y0154758D01*
X0328088Y0152207D01*
X0331212Y0150404D01*
X0330243Y0150963D02*
X0303220Y0150963D01*
X0302769Y0151961D02*
X0328514Y0151961D01*
X0327335Y0152960D02*
X0301771Y0152960D01*
X0300127Y0153958D02*
X0326337Y0153958D01*
X0325422Y0154957D02*
X0285200Y0154957D01*
X0285200Y0155955D02*
X0324846Y0155955D01*
X0324269Y0156954D02*
X0285200Y0156954D01*
X0285200Y0157953D02*
X0323715Y0157953D01*
X0323447Y0158951D02*
X0285200Y0158951D01*
X0285200Y0159950D02*
X0323180Y0159950D01*
X0322912Y0160948D02*
X0285200Y0160948D01*
X0285200Y0161947D02*
X0322800Y0161947D01*
X0322800Y0162945D02*
X0285200Y0162945D01*
X0285200Y0163944D02*
X0322800Y0163944D01*
X0322800Y0164942D02*
X0285200Y0164942D01*
X0285200Y0165941D02*
X0323059Y0165941D01*
X0323327Y0166939D02*
X0285200Y0166939D01*
X0285200Y0167938D02*
X0323594Y0167938D01*
X0324010Y0168936D02*
X0285200Y0168936D01*
X0285200Y0169935D02*
X0324586Y0169935D01*
X0325163Y0170933D02*
X0285200Y0170933D01*
X0285200Y0171932D02*
X0325887Y0171932D01*
X0326886Y0172930D02*
X0285372Y0172930D01*
X0285200Y0172759D02*
X0294567Y0182126D01*
X0295426Y0181770D01*
X0297574Y0181770D01*
X0299559Y0182592D01*
X0301078Y0184111D01*
X0301900Y0186096D01*
X0301900Y0188244D01*
X0301078Y0190229D01*
X0299559Y0191748D01*
X0297574Y0192570D01*
X0295426Y0192570D01*
X0293441Y0191748D01*
X0291922Y0190229D01*
X0291100Y0188244D01*
X0291100Y0186096D01*
X0291456Y0185237D01*
X0280800Y0174581D01*
X0280800Y0130759D01*
X0282089Y0129470D01*
X0289400Y0122159D01*
X0289400Y0098681D01*
X0282474Y0091755D01*
X0281955Y0091970D01*
X0280045Y0091970D01*
X0278281Y0091239D01*
X0276931Y0089889D01*
X0276200Y0088125D01*
X0276200Y0086215D01*
X0276931Y0084451D01*
X0278281Y0083101D01*
X0280045Y0082370D01*
X0281955Y0082370D01*
X0283719Y0083101D01*
X0285069Y0084451D01*
X0285800Y0086215D01*
X0285800Y0088125D01*
X0285585Y0088644D01*
X0292511Y0095570D01*
X0293800Y0096859D01*
X0293800Y0123981D01*
X0292511Y0125270D01*
X0285200Y0132581D01*
X0285200Y0172759D01*
X0286370Y0173929D02*
X0327884Y0173929D01*
X0329464Y0174927D02*
X0287369Y0174927D01*
X0288367Y0175926D02*
X0331194Y0175926D01*
X0341806Y0175926D02*
X0358501Y0175926D01*
X0358501Y0176924D02*
X0289366Y0176924D01*
X0290364Y0177923D02*
X0358501Y0177923D01*
X0358501Y0178921D02*
X0291363Y0178921D01*
X0292361Y0179920D02*
X0358501Y0179920D01*
X0358501Y0180918D02*
X0293360Y0180918D01*
X0294358Y0181917D02*
X0295071Y0181917D01*
X0297929Y0181917D02*
X0358501Y0181917D01*
X0358501Y0182915D02*
X0299882Y0182915D01*
X0300881Y0183914D02*
X0358501Y0183914D01*
X0358501Y0184912D02*
X0301410Y0184912D01*
X0301823Y0185911D02*
X0358501Y0185911D01*
X0358501Y0186909D02*
X0301900Y0186909D01*
X0301900Y0187908D02*
X0358501Y0187908D01*
X0358501Y0188906D02*
X0350591Y0188906D01*
X0351711Y0189370D02*
X0354299Y0191958D01*
X0355700Y0195340D01*
X0355700Y0199000D01*
X0354299Y0202381D01*
X0351711Y0204969D01*
X0348330Y0206370D01*
X0344670Y0206370D01*
X0341289Y0204969D01*
X0338701Y0202381D01*
X0337300Y0199000D01*
X0337300Y0195340D01*
X0338701Y0191958D01*
X0341289Y0189370D01*
X0344670Y0187970D01*
X0348330Y0187970D01*
X0351711Y0189370D01*
X0352246Y0189905D02*
X0358501Y0189905D01*
X0358501Y0190903D02*
X0353244Y0190903D01*
X0354243Y0191902D02*
X0358501Y0191902D01*
X0358501Y0192900D02*
X0354690Y0192900D01*
X0355103Y0193899D02*
X0358501Y0193899D01*
X0358501Y0194897D02*
X0355517Y0194897D01*
X0355700Y0195896D02*
X0358501Y0195896D01*
X0358501Y0196894D02*
X0355700Y0196894D01*
X0355700Y0197893D02*
X0358501Y0197893D01*
X0358501Y0198891D02*
X0355700Y0198891D01*
X0355331Y0199890D02*
X0358501Y0199890D01*
X0358501Y0200889D02*
X0354918Y0200889D01*
X0354504Y0201887D02*
X0358501Y0201887D01*
X0358501Y0202886D02*
X0353795Y0202886D01*
X0352797Y0203884D02*
X0358501Y0203884D01*
X0358501Y0204883D02*
X0351798Y0204883D01*
X0349510Y0205881D02*
X0358501Y0205881D01*
X0358501Y0206880D02*
X0075351Y0206880D01*
X0074729Y0207502D02*
X0072634Y0208370D01*
X0070366Y0208370D01*
X0068271Y0207502D01*
X0066668Y0205899D01*
X0065800Y0203804D01*
X0065800Y0201536D01*
X0066668Y0199441D01*
X0068271Y0197838D01*
X0070211Y0197034D01*
X0069389Y0196767D01*
X0068617Y0196374D01*
X0067917Y0195865D01*
X0067305Y0195253D01*
X0066796Y0194552D01*
X0066403Y0193781D01*
X0066135Y0192958D01*
X0066011Y0192170D01*
X0071000Y0192170D01*
X0071000Y0191170D01*
X0066011Y0191170D01*
X0066135Y0190382D01*
X0066403Y0189559D01*
X0066796Y0188787D01*
X0067305Y0188087D01*
X0067917Y0187475D01*
X0068617Y0186966D01*
X0069389Y0186573D01*
X0070212Y0186305D01*
X0071000Y0186180D01*
X0071000Y0191170D01*
X0072000Y0191170D01*
X0072000Y0192170D01*
X0076989Y0192170D01*
X0076865Y0192958D01*
X0076597Y0193781D01*
X0076204Y0194552D01*
X0075695Y0195253D01*
X0075083Y0195865D01*
X0074383Y0196374D01*
X0073611Y0196767D01*
X0072789Y0197034D01*
X0074729Y0197838D01*
X0076332Y0199441D01*
X0077200Y0201536D01*
X0077200Y0203804D01*
X0076332Y0205899D01*
X0074729Y0207502D01*
X0073821Y0207878D02*
X0358501Y0207878D01*
X0358501Y0208877D02*
X0003200Y0208877D01*
X0003200Y0209875D02*
X0358501Y0209875D01*
X0343490Y0205881D02*
X0086916Y0205881D01*
X0087096Y0205807D02*
X0085736Y0206370D01*
X0084264Y0206370D01*
X0082904Y0205807D01*
X0081863Y0204766D01*
X0081300Y0203406D01*
X0081300Y0201934D01*
X0081863Y0200574D01*
X0082800Y0199637D01*
X0082800Y0150202D01*
X0081863Y0149266D01*
X0081300Y0147906D01*
X0081300Y0146434D01*
X0081863Y0145074D01*
X0082904Y0144033D01*
X0084264Y0143470D01*
X0085736Y0143470D01*
X0087096Y0144033D01*
X0088137Y0145074D01*
X0088700Y0146434D01*
X0088700Y0147906D01*
X0088137Y0149266D01*
X0087200Y0150202D01*
X0087200Y0199637D01*
X0088137Y0200574D01*
X0088700Y0201934D01*
X0088700Y0203406D01*
X0088137Y0204766D01*
X0087096Y0205807D01*
X0088020Y0204883D02*
X0341202Y0204883D01*
X0340203Y0203884D02*
X0088502Y0203884D01*
X0088700Y0202886D02*
X0339205Y0202886D01*
X0338496Y0201887D02*
X0304223Y0201887D01*
X0304559Y0201748D02*
X0302574Y0202570D01*
X0300426Y0202570D01*
X0298441Y0201748D01*
X0296922Y0200229D01*
X0296566Y0199370D01*
X0290589Y0199370D01*
X0289300Y0198081D01*
X0274300Y0183081D01*
X0274300Y0128259D01*
X0283800Y0118759D01*
X0283800Y0103081D01*
X0272474Y0091755D01*
X0271955Y0091970D01*
X0270045Y0091970D01*
X0268281Y0091239D01*
X0266931Y0089889D01*
X0266200Y0088125D01*
X0266200Y0086215D01*
X0266931Y0084451D01*
X0268281Y0083101D01*
X0270045Y0082370D01*
X0271955Y0082370D01*
X0273719Y0083101D01*
X0275069Y0084451D01*
X0275800Y0086215D01*
X0275800Y0088125D01*
X0275585Y0088644D01*
X0288200Y0101259D01*
X0288200Y0120581D01*
X0278700Y0130081D01*
X0278700Y0181259D01*
X0292411Y0194970D01*
X0296566Y0194970D01*
X0296922Y0194111D01*
X0298441Y0192592D01*
X0300426Y0191770D01*
X0302574Y0191770D01*
X0304559Y0192592D01*
X0306078Y0194111D01*
X0306900Y0196096D01*
X0306900Y0198244D01*
X0306078Y0200229D01*
X0304559Y0201748D01*
X0305418Y0200889D02*
X0338082Y0200889D01*
X0337669Y0199890D02*
X0306218Y0199890D01*
X0306632Y0198891D02*
X0337300Y0198891D01*
X0337300Y0197893D02*
X0306900Y0197893D01*
X0306900Y0196894D02*
X0337300Y0196894D01*
X0337300Y0195896D02*
X0306817Y0195896D01*
X0306404Y0194897D02*
X0337483Y0194897D01*
X0337897Y0193899D02*
X0305866Y0193899D01*
X0304867Y0192900D02*
X0338310Y0192900D01*
X0338757Y0191902D02*
X0302893Y0191902D01*
X0301212Y0189905D02*
X0340754Y0189905D01*
X0339756Y0190903D02*
X0300403Y0190903D01*
X0300107Y0191902D02*
X0299187Y0191902D01*
X0298133Y0192900D02*
X0290342Y0192900D01*
X0289343Y0191902D02*
X0293813Y0191902D01*
X0292597Y0190903D02*
X0288345Y0190903D01*
X0287346Y0189905D02*
X0291788Y0189905D01*
X0291374Y0188906D02*
X0286348Y0188906D01*
X0285349Y0187908D02*
X0291100Y0187908D01*
X0291100Y0186909D02*
X0284351Y0186909D01*
X0283352Y0185911D02*
X0291177Y0185911D01*
X0291131Y0184912D02*
X0282354Y0184912D01*
X0281355Y0183914D02*
X0290133Y0183914D01*
X0289134Y0182915D02*
X0280357Y0182915D01*
X0279358Y0181917D02*
X0288136Y0181917D01*
X0287137Y0180918D02*
X0278700Y0180918D01*
X0278700Y0179920D02*
X0286139Y0179920D01*
X0285140Y0178921D02*
X0278700Y0178921D01*
X0278700Y0177923D02*
X0284142Y0177923D01*
X0283143Y0176924D02*
X0278700Y0176924D01*
X0278700Y0175926D02*
X0282145Y0175926D01*
X0281146Y0174927D02*
X0278700Y0174927D01*
X0278700Y0173929D02*
X0280800Y0173929D01*
X0280800Y0172930D02*
X0278700Y0172930D01*
X0278700Y0171932D02*
X0280800Y0171932D01*
X0280800Y0170933D02*
X0278700Y0170933D01*
X0278700Y0169935D02*
X0280800Y0169935D01*
X0280800Y0168936D02*
X0278700Y0168936D01*
X0278700Y0167938D02*
X0280800Y0167938D01*
X0280800Y0166939D02*
X0278700Y0166939D01*
X0278700Y0165941D02*
X0280800Y0165941D01*
X0280800Y0164942D02*
X0278700Y0164942D01*
X0278700Y0163944D02*
X0280800Y0163944D01*
X0280800Y0162945D02*
X0278700Y0162945D01*
X0278700Y0161947D02*
X0280800Y0161947D01*
X0280800Y0160948D02*
X0278700Y0160948D01*
X0278700Y0159950D02*
X0280800Y0159950D01*
X0280800Y0158951D02*
X0278700Y0158951D01*
X0278700Y0157953D02*
X0280800Y0157953D01*
X0280800Y0156954D02*
X0278700Y0156954D01*
X0278700Y0155955D02*
X0280800Y0155955D01*
X0280800Y0154957D02*
X0278700Y0154957D01*
X0278700Y0153958D02*
X0280800Y0153958D01*
X0280800Y0152960D02*
X0278700Y0152960D01*
X0278700Y0151961D02*
X0280800Y0151961D01*
X0280800Y0150963D02*
X0278700Y0150963D01*
X0278700Y0149964D02*
X0280800Y0149964D01*
X0280800Y0148966D02*
X0278700Y0148966D01*
X0278700Y0147967D02*
X0280800Y0147967D01*
X0280800Y0146969D02*
X0278700Y0146969D01*
X0278700Y0145970D02*
X0280800Y0145970D01*
X0280800Y0144972D02*
X0278700Y0144972D01*
X0278700Y0143973D02*
X0280800Y0143973D01*
X0280800Y0142975D02*
X0278700Y0142975D01*
X0278700Y0141976D02*
X0280800Y0141976D01*
X0280800Y0140978D02*
X0278700Y0140978D01*
X0278700Y0139979D02*
X0280800Y0139979D01*
X0280800Y0138981D02*
X0278700Y0138981D01*
X0278700Y0137982D02*
X0280800Y0137982D01*
X0280800Y0136984D02*
X0278700Y0136984D01*
X0278700Y0135985D02*
X0280800Y0135985D01*
X0280800Y0134987D02*
X0278700Y0134987D01*
X0278700Y0133988D02*
X0280800Y0133988D01*
X0280800Y0132990D02*
X0278700Y0132990D01*
X0278700Y0131991D02*
X0280800Y0131991D01*
X0280800Y0130993D02*
X0278700Y0130993D01*
X0278787Y0129994D02*
X0281564Y0129994D01*
X0282563Y0128996D02*
X0279785Y0128996D01*
X0280784Y0127997D02*
X0283561Y0127997D01*
X0284560Y0126999D02*
X0281782Y0126999D01*
X0282781Y0126000D02*
X0285558Y0126000D01*
X0286557Y0125002D02*
X0283779Y0125002D01*
X0284778Y0124003D02*
X0287555Y0124003D01*
X0288554Y0123005D02*
X0285777Y0123005D01*
X0286775Y0122006D02*
X0289400Y0122006D01*
X0289400Y0121008D02*
X0287774Y0121008D01*
X0288200Y0120009D02*
X0289400Y0120009D01*
X0289400Y0119011D02*
X0288200Y0119011D01*
X0288200Y0118012D02*
X0289400Y0118012D01*
X0289400Y0117014D02*
X0288200Y0117014D01*
X0288200Y0116015D02*
X0289400Y0116015D01*
X0289400Y0115017D02*
X0288200Y0115017D01*
X0288200Y0114018D02*
X0289400Y0114018D01*
X0289400Y0113020D02*
X0288200Y0113020D01*
X0288200Y0112021D02*
X0289400Y0112021D01*
X0289400Y0111022D02*
X0288200Y0111022D01*
X0288200Y0110024D02*
X0289400Y0110024D01*
X0289400Y0109025D02*
X0288200Y0109025D01*
X0288200Y0108027D02*
X0289400Y0108027D01*
X0289400Y0107028D02*
X0288200Y0107028D01*
X0288200Y0106030D02*
X0289400Y0106030D01*
X0289400Y0105031D02*
X0288200Y0105031D01*
X0288200Y0104033D02*
X0289400Y0104033D01*
X0289400Y0103034D02*
X0288200Y0103034D01*
X0288200Y0102036D02*
X0289400Y0102036D01*
X0289400Y0101037D02*
X0287979Y0101037D01*
X0286980Y0100039D02*
X0289400Y0100039D01*
X0289400Y0099040D02*
X0285982Y0099040D01*
X0284983Y0098042D02*
X0288761Y0098042D01*
X0287762Y0097043D02*
X0283985Y0097043D01*
X0282986Y0096045D02*
X0286764Y0096045D01*
X0285765Y0095046D02*
X0281988Y0095046D01*
X0280989Y0094048D02*
X0284767Y0094048D01*
X0283768Y0093049D02*
X0279991Y0093049D01*
X0278992Y0092051D02*
X0282770Y0092051D01*
X0278094Y0091052D02*
X0277994Y0091052D01*
X0277096Y0090054D02*
X0276995Y0090054D01*
X0276585Y0089055D02*
X0275997Y0089055D01*
X0275800Y0088057D02*
X0276200Y0088057D01*
X0276200Y0087058D02*
X0275800Y0087058D01*
X0275736Y0086060D02*
X0276264Y0086060D01*
X0276678Y0085061D02*
X0275322Y0085061D01*
X0274681Y0084063D02*
X0277319Y0084063D01*
X0278369Y0083064D02*
X0273631Y0083064D01*
X0271000Y0087170D02*
X0286000Y0102170D01*
X0286000Y0119670D01*
X0276500Y0129170D01*
X0276500Y0182170D01*
X0291500Y0197170D01*
X0301500Y0197170D01*
X0297582Y0200889D02*
X0275418Y0200889D01*
X0276078Y0200229D02*
X0274559Y0201748D01*
X0272574Y0202570D01*
X0270426Y0202570D01*
X0268441Y0201748D01*
X0266922Y0200229D01*
X0266100Y0198244D01*
X0266100Y0196096D01*
X0266922Y0194111D01*
X0268441Y0192592D01*
X0270426Y0191770D01*
X0272574Y0191770D01*
X0274559Y0192592D01*
X0276078Y0194111D01*
X0276900Y0196096D01*
X0276900Y0198244D01*
X0276078Y0200229D01*
X0276218Y0199890D02*
X0296782Y0199890D01*
X0298777Y0201887D02*
X0274223Y0201887D01*
X0276632Y0198891D02*
X0290110Y0198891D01*
X0289112Y0197893D02*
X0276900Y0197893D01*
X0276900Y0196894D02*
X0288113Y0196894D01*
X0287115Y0195896D02*
X0276817Y0195896D01*
X0276404Y0194897D02*
X0286116Y0194897D01*
X0285118Y0193899D02*
X0275866Y0193899D01*
X0274867Y0192900D02*
X0284119Y0192900D01*
X0283121Y0191902D02*
X0272893Y0191902D01*
X0271078Y0190229D02*
X0271900Y0188244D01*
X0271900Y0186096D01*
X0271078Y0184111D01*
X0269559Y0182592D01*
X0267574Y0181770D01*
X0265426Y0181770D01*
X0263441Y0182592D01*
X0261922Y0184111D01*
X0261100Y0186096D01*
X0261100Y0188244D01*
X0261922Y0190229D01*
X0263441Y0191748D01*
X0265426Y0192570D01*
X0267574Y0192570D01*
X0269559Y0191748D01*
X0271078Y0190229D01*
X0271212Y0189905D02*
X0281124Y0189905D01*
X0282122Y0190903D02*
X0270403Y0190903D01*
X0270107Y0191902D02*
X0269187Y0191902D01*
X0268133Y0192900D02*
X0259867Y0192900D01*
X0259559Y0192592D02*
X0261078Y0194111D01*
X0261900Y0196096D01*
X0261900Y0198244D01*
X0261078Y0200229D01*
X0259559Y0201748D01*
X0257574Y0202570D01*
X0255426Y0202570D01*
X0253441Y0201748D01*
X0251922Y0200229D01*
X0251100Y0198244D01*
X0251100Y0196096D01*
X0251922Y0194111D01*
X0253441Y0192592D01*
X0255426Y0191770D01*
X0257574Y0191770D01*
X0259559Y0192592D01*
X0257893Y0191902D02*
X0263813Y0191902D01*
X0262597Y0190903D02*
X0255403Y0190903D01*
X0256078Y0190229D02*
X0254559Y0191748D01*
X0252574Y0192570D01*
X0250426Y0192570D01*
X0248441Y0191748D01*
X0246922Y0190229D01*
X0246100Y0188244D01*
X0246100Y0186096D01*
X0246922Y0184111D01*
X0248441Y0182592D01*
X0250426Y0181770D01*
X0252574Y0181770D01*
X0254559Y0182592D01*
X0256078Y0184111D01*
X0256900Y0186096D01*
X0256900Y0188244D01*
X0256078Y0190229D01*
X0256212Y0189905D02*
X0261788Y0189905D01*
X0261374Y0188906D02*
X0256626Y0188906D01*
X0256900Y0187908D02*
X0261100Y0187908D01*
X0261100Y0186909D02*
X0256900Y0186909D01*
X0256823Y0185911D02*
X0261177Y0185911D01*
X0261590Y0184912D02*
X0256410Y0184912D01*
X0255881Y0183914D02*
X0262119Y0183914D01*
X0263118Y0182915D02*
X0254882Y0182915D01*
X0252929Y0181917D02*
X0265071Y0181917D01*
X0267929Y0181917D02*
X0274300Y0181917D01*
X0274300Y0182915D02*
X0269882Y0182915D01*
X0270881Y0183914D02*
X0275133Y0183914D01*
X0276131Y0184912D02*
X0271410Y0184912D01*
X0271823Y0185911D02*
X0277130Y0185911D01*
X0278128Y0186909D02*
X0271900Y0186909D01*
X0271900Y0187908D02*
X0279127Y0187908D01*
X0280125Y0188906D02*
X0271626Y0188906D01*
X0267134Y0193899D02*
X0260866Y0193899D01*
X0261404Y0194897D02*
X0266596Y0194897D01*
X0266183Y0195896D02*
X0261817Y0195896D01*
X0261900Y0196894D02*
X0266100Y0196894D01*
X0266100Y0197893D02*
X0261900Y0197893D01*
X0261632Y0198891D02*
X0266368Y0198891D01*
X0266782Y0199890D02*
X0261218Y0199890D01*
X0260418Y0200889D02*
X0267582Y0200889D01*
X0268777Y0201887D02*
X0259223Y0201887D01*
X0253777Y0201887D02*
X0229223Y0201887D01*
X0229559Y0201748D02*
X0227574Y0202570D01*
X0225426Y0202570D01*
X0223441Y0201748D01*
X0221922Y0200229D01*
X0221100Y0198244D01*
X0221100Y0196096D01*
X0221922Y0194111D01*
X0223441Y0192592D01*
X0225426Y0191770D01*
X0227574Y0191770D01*
X0229559Y0192592D01*
X0231078Y0194111D01*
X0231900Y0196096D01*
X0231900Y0198244D01*
X0231078Y0200229D01*
X0229559Y0201748D01*
X0230418Y0200889D02*
X0252582Y0200889D01*
X0251782Y0199890D02*
X0231218Y0199890D01*
X0231632Y0198891D02*
X0251368Y0198891D01*
X0251100Y0197893D02*
X0231900Y0197893D01*
X0231900Y0196894D02*
X0251100Y0196894D01*
X0251183Y0195896D02*
X0231817Y0195896D01*
X0231404Y0194897D02*
X0251596Y0194897D01*
X0252134Y0193899D02*
X0230866Y0193899D01*
X0229867Y0192900D02*
X0253133Y0192900D01*
X0254187Y0191902D02*
X0255107Y0191902D01*
X0248813Y0191902D02*
X0227893Y0191902D01*
X0225466Y0190557D02*
X0224888Y0191136D01*
X0224225Y0191617D01*
X0223496Y0191989D01*
X0222718Y0192242D01*
X0221909Y0192370D01*
X0221886Y0192370D01*
X0221886Y0187556D01*
X0221114Y0187556D01*
X0221114Y0192370D01*
X0221091Y0192370D01*
X0220282Y0192242D01*
X0219504Y0191989D01*
X0218775Y0191617D01*
X0218112Y0191136D01*
X0217534Y0190557D01*
X0217053Y0189895D01*
X0216681Y0189166D01*
X0216428Y0188388D01*
X0216300Y0187579D01*
X0216300Y0187556D01*
X0221114Y0187556D01*
X0221114Y0186784D01*
X0216300Y0186784D01*
X0216300Y0186761D01*
X0216428Y0185952D01*
X0216681Y0185174D01*
X0217053Y0184444D01*
X0217534Y0183782D01*
X0218112Y0183204D01*
X0218775Y0182722D01*
X0219504Y0182351D01*
X0220282Y0182098D01*
X0221091Y0181970D01*
X0221114Y0181970D01*
X0221114Y0186784D01*
X0221886Y0186784D01*
X0221886Y0187556D01*
X0226700Y0187556D01*
X0226700Y0187579D01*
X0226572Y0188388D01*
X0226319Y0189166D01*
X0225947Y0189895D01*
X0225466Y0190557D01*
X0225120Y0190903D02*
X0247597Y0190903D01*
X0246788Y0189905D02*
X0225940Y0189905D01*
X0226403Y0188906D02*
X0246374Y0188906D01*
X0246100Y0187908D02*
X0226648Y0187908D01*
X0226700Y0186784D02*
X0221886Y0186784D01*
X0221886Y0181970D01*
X0221909Y0181970D01*
X0222718Y0182098D01*
X0223496Y0182351D01*
X0224225Y0182722D01*
X0224888Y0183204D01*
X0225466Y0183782D01*
X0225947Y0184444D01*
X0226319Y0185174D01*
X0226572Y0185952D01*
X0226700Y0186761D01*
X0226700Y0186784D01*
X0226559Y0185911D02*
X0246177Y0185911D01*
X0246100Y0186909D02*
X0221886Y0186909D01*
X0221114Y0186909D02*
X0211900Y0186909D01*
X0211900Y0186096D02*
X0211900Y0188244D01*
X0211078Y0190229D01*
X0209559Y0191748D01*
X0207574Y0192570D01*
X0206475Y0192570D01*
X0206900Y0193596D01*
X0206900Y0195744D01*
X0206078Y0197729D01*
X0204559Y0199248D01*
X0202574Y0200070D01*
X0200426Y0200070D01*
X0198441Y0199248D01*
X0196922Y0197729D01*
X0196100Y0195744D01*
X0196100Y0193596D01*
X0196525Y0192570D01*
X0195426Y0192570D01*
X0193441Y0191748D01*
X0191922Y0190229D01*
X0191100Y0188244D01*
X0191100Y0186096D01*
X0191922Y0184111D01*
X0193441Y0182592D01*
X0195426Y0181770D01*
X0197574Y0181770D01*
X0198645Y0182213D01*
X0215689Y0165170D01*
X0232025Y0165170D01*
X0232346Y0164394D01*
X0233724Y0163016D01*
X0235525Y0162270D01*
X0237475Y0162270D01*
X0239276Y0163016D01*
X0240654Y0164394D01*
X0241400Y0166195D01*
X0241400Y0168145D01*
X0240654Y0169945D01*
X0239276Y0171324D01*
X0237475Y0172070D01*
X0235525Y0172070D01*
X0233724Y0171324D01*
X0232346Y0169945D01*
X0232190Y0169570D01*
X0217511Y0169570D01*
X0205230Y0181851D01*
X0205426Y0181770D01*
X0207574Y0181770D01*
X0209559Y0182592D01*
X0211078Y0184111D01*
X0211900Y0186096D01*
X0211823Y0185911D02*
X0216441Y0185911D01*
X0216814Y0184912D02*
X0211410Y0184912D01*
X0210881Y0183914D02*
X0217438Y0183914D01*
X0218509Y0182915D02*
X0209882Y0182915D01*
X0207929Y0181917D02*
X0250071Y0181917D01*
X0248118Y0182915D02*
X0224491Y0182915D01*
X0225562Y0183914D02*
X0247119Y0183914D01*
X0246590Y0184912D02*
X0226186Y0184912D01*
X0221886Y0184912D02*
X0221114Y0184912D01*
X0221114Y0183914D02*
X0221886Y0183914D01*
X0221886Y0182915D02*
X0221114Y0182915D01*
X0221114Y0185911D02*
X0221886Y0185911D01*
X0221886Y0187908D02*
X0221114Y0187908D01*
X0221114Y0188906D02*
X0221886Y0188906D01*
X0221886Y0189905D02*
X0221114Y0189905D01*
X0221114Y0190903D02*
X0221886Y0190903D01*
X0221886Y0191902D02*
X0221114Y0191902D01*
X0219333Y0191902D02*
X0209187Y0191902D01*
X0210403Y0190903D02*
X0217880Y0190903D01*
X0217060Y0189905D02*
X0211212Y0189905D01*
X0211626Y0188906D02*
X0216597Y0188906D01*
X0216352Y0187908D02*
X0211900Y0187908D01*
X0206612Y0192900D02*
X0223133Y0192900D01*
X0223667Y0191902D02*
X0225107Y0191902D01*
X0222134Y0193899D02*
X0206900Y0193899D01*
X0206900Y0194897D02*
X0221596Y0194897D01*
X0221183Y0195896D02*
X0206837Y0195896D01*
X0206423Y0196894D02*
X0221100Y0196894D01*
X0221100Y0197893D02*
X0205914Y0197893D01*
X0204915Y0198891D02*
X0221368Y0198891D01*
X0221782Y0199890D02*
X0203008Y0199890D01*
X0199992Y0199890D02*
X0173008Y0199890D01*
X0172574Y0200070D02*
X0170426Y0200070D01*
X0168441Y0199248D01*
X0166922Y0197729D01*
X0166100Y0195744D01*
X0166100Y0193596D01*
X0166525Y0192570D01*
X0165426Y0192570D01*
X0163441Y0191748D01*
X0161922Y0190229D01*
X0161100Y0188244D01*
X0161100Y0186096D01*
X0161922Y0184111D01*
X0163441Y0182592D01*
X0165426Y0181770D01*
X0167574Y0181770D01*
X0169559Y0182592D01*
X0171078Y0184111D01*
X0171500Y0185130D01*
X0171922Y0184111D01*
X0173441Y0182592D01*
X0175426Y0181770D01*
X0177574Y0181770D01*
X0179559Y0182592D01*
X0181078Y0184111D01*
X0181900Y0186096D01*
X0181900Y0188244D01*
X0181078Y0190229D01*
X0179559Y0191748D01*
X0177574Y0192570D01*
X0176475Y0192570D01*
X0176900Y0193596D01*
X0176900Y0194970D01*
X0178589Y0194970D01*
X0184300Y0189259D01*
X0184300Y0178259D01*
X0227589Y0134970D01*
X0232108Y0134970D01*
X0232346Y0134394D01*
X0233724Y0133016D01*
X0235525Y0132270D01*
X0237475Y0132270D01*
X0239276Y0133016D01*
X0240654Y0134394D01*
X0241400Y0136195D01*
X0241400Y0138145D01*
X0240654Y0139945D01*
X0239276Y0141324D01*
X0237475Y0142070D01*
X0235525Y0142070D01*
X0233724Y0141324D01*
X0232346Y0139945D01*
X0232108Y0139370D01*
X0229411Y0139370D01*
X0188700Y0180081D01*
X0188700Y0191081D01*
X0181700Y0198081D01*
X0180411Y0199370D01*
X0174264Y0199370D01*
X0172574Y0200070D01*
X0169992Y0199890D02*
X0087453Y0199890D01*
X0087200Y0198891D02*
X0168085Y0198891D01*
X0167086Y0197893D02*
X0087200Y0197893D01*
X0087200Y0196894D02*
X0166577Y0196894D01*
X0166163Y0195896D02*
X0087200Y0195896D01*
X0087200Y0194897D02*
X0166100Y0194897D01*
X0166100Y0193899D02*
X0087200Y0193899D01*
X0087200Y0192900D02*
X0166388Y0192900D01*
X0163813Y0191902D02*
X0087200Y0191902D01*
X0087200Y0190903D02*
X0162597Y0190903D01*
X0161788Y0189905D02*
X0087200Y0189905D01*
X0087200Y0188906D02*
X0161374Y0188906D01*
X0161100Y0187908D02*
X0087200Y0187908D01*
X0087200Y0186909D02*
X0161100Y0186909D01*
X0161177Y0185911D02*
X0087200Y0185911D01*
X0087200Y0184912D02*
X0161590Y0184912D01*
X0162119Y0183914D02*
X0087200Y0183914D01*
X0087200Y0182915D02*
X0163118Y0182915D01*
X0165071Y0181917D02*
X0087200Y0181917D01*
X0087200Y0180918D02*
X0092378Y0180918D01*
X0092132Y0180816D02*
X0090491Y0179175D01*
X0089603Y0177031D01*
X0089603Y0174710D01*
X0090491Y0172566D01*
X0092132Y0170925D01*
X0094277Y0170037D01*
X0096597Y0170037D01*
X0098742Y0170925D01*
X0100383Y0172566D01*
X0101271Y0174710D01*
X0101271Y0177031D01*
X0100383Y0179175D01*
X0098742Y0180816D01*
X0096597Y0181705D01*
X0094277Y0181705D01*
X0092132Y0180816D01*
X0091236Y0179920D02*
X0087200Y0179920D01*
X0087200Y0178921D02*
X0090386Y0178921D01*
X0089973Y0177923D02*
X0087200Y0177923D01*
X0087200Y0176924D02*
X0089603Y0176924D01*
X0089603Y0175926D02*
X0087200Y0175926D01*
X0087200Y0174927D02*
X0089603Y0174927D01*
X0089927Y0173929D02*
X0087200Y0173929D01*
X0087200Y0172930D02*
X0090340Y0172930D01*
X0091126Y0171932D02*
X0087200Y0171932D01*
X0087200Y0170933D02*
X0092124Y0170933D01*
X0087200Y0169935D02*
X0192624Y0169935D01*
X0191625Y0170933D02*
X0140282Y0170933D01*
X0140516Y0171052D02*
X0139726Y0170650D01*
X0138882Y0170376D01*
X0138063Y0170246D01*
X0138063Y0175371D01*
X0138063Y0176371D01*
X0137063Y0176371D01*
X0137063Y0181496D01*
X0136244Y0181366D01*
X0135400Y0181092D01*
X0134610Y0180689D01*
X0133893Y0180168D01*
X0133266Y0179541D01*
X0132744Y0178823D01*
X0132342Y0178033D01*
X0132068Y0177190D01*
X0131938Y0176371D01*
X0137063Y0176371D01*
X0137063Y0175371D01*
X0131938Y0175371D01*
X0132068Y0174551D01*
X0132342Y0173708D01*
X0132744Y0172918D01*
X0133266Y0172200D01*
X0133893Y0171573D01*
X0134610Y0171052D01*
X0135400Y0170650D01*
X0136244Y0170376D01*
X0137063Y0170246D01*
X0137063Y0175371D01*
X0138063Y0175371D01*
X0143188Y0175371D01*
X0143058Y0174551D01*
X0142784Y0173708D01*
X0142381Y0172918D01*
X0141860Y0172200D01*
X0141233Y0171573D01*
X0140516Y0171052D01*
X0141591Y0171932D02*
X0190627Y0171932D01*
X0189628Y0172930D02*
X0142388Y0172930D01*
X0142856Y0173929D02*
X0188630Y0173929D01*
X0187631Y0174927D02*
X0143118Y0174927D01*
X0143188Y0176371D02*
X0138063Y0176371D01*
X0138063Y0181496D01*
X0138882Y0181366D01*
X0139726Y0181092D01*
X0140516Y0180689D01*
X0141233Y0180168D01*
X0141860Y0179541D01*
X0142381Y0178823D01*
X0142784Y0178033D01*
X0143058Y0177190D01*
X0143188Y0176371D01*
X0143100Y0176924D02*
X0185634Y0176924D01*
X0184636Y0177923D02*
X0142820Y0177923D01*
X0142310Y0178921D02*
X0184300Y0178921D01*
X0184300Y0179920D02*
X0141481Y0179920D01*
X0140066Y0180918D02*
X0184300Y0180918D01*
X0184300Y0181917D02*
X0177929Y0181917D01*
X0179882Y0182915D02*
X0184300Y0182915D01*
X0184300Y0183914D02*
X0180881Y0183914D01*
X0181410Y0184912D02*
X0184300Y0184912D01*
X0184300Y0185911D02*
X0181823Y0185911D01*
X0181900Y0186909D02*
X0184300Y0186909D01*
X0184300Y0187908D02*
X0181900Y0187908D01*
X0181626Y0188906D02*
X0184300Y0188906D01*
X0183654Y0189905D02*
X0181212Y0189905D01*
X0180403Y0190903D02*
X0182655Y0190903D01*
X0181657Y0191902D02*
X0179187Y0191902D01*
X0180658Y0192900D02*
X0176612Y0192900D01*
X0176900Y0193899D02*
X0179660Y0193899D01*
X0178661Y0194897D02*
X0176900Y0194897D01*
X0179500Y0197170D02*
X0174000Y0197170D01*
X0171500Y0194670D01*
X0179500Y0197170D02*
X0186500Y0190170D01*
X0186500Y0179170D01*
X0228500Y0137170D01*
X0236500Y0137170D01*
X0241054Y0138981D02*
X0241946Y0138981D01*
X0241600Y0138145D02*
X0242346Y0139945D01*
X0243724Y0141324D01*
X0245525Y0142070D01*
X0247475Y0142070D01*
X0249276Y0141324D01*
X0250654Y0139945D01*
X0251400Y0138145D01*
X0251400Y0136195D01*
X0250654Y0134394D01*
X0249276Y0133016D01*
X0247475Y0132270D01*
X0245525Y0132270D01*
X0243724Y0133016D01*
X0242346Y0134394D01*
X0241600Y0136195D01*
X0241600Y0138145D01*
X0241600Y0137982D02*
X0241400Y0137982D01*
X0241400Y0136984D02*
X0241600Y0136984D01*
X0241687Y0135985D02*
X0241313Y0135985D01*
X0240899Y0134987D02*
X0242101Y0134987D01*
X0242752Y0133988D02*
X0240248Y0133988D01*
X0239213Y0132990D02*
X0243787Y0132990D01*
X0249213Y0132990D02*
X0253787Y0132990D01*
X0253724Y0133016D02*
X0255525Y0132270D01*
X0257475Y0132270D01*
X0259276Y0133016D01*
X0260654Y0134394D01*
X0261400Y0136195D01*
X0261400Y0138145D01*
X0260654Y0139945D01*
X0259276Y0141324D01*
X0257475Y0142070D01*
X0255525Y0142070D01*
X0253724Y0141324D01*
X0252346Y0139945D01*
X0251600Y0138145D01*
X0251600Y0136195D01*
X0252346Y0134394D01*
X0253724Y0133016D01*
X0252752Y0133988D02*
X0250248Y0133988D01*
X0250899Y0134987D02*
X0252101Y0134987D01*
X0251687Y0135985D02*
X0251313Y0135985D01*
X0251400Y0136984D02*
X0251600Y0136984D01*
X0251600Y0137982D02*
X0251400Y0137982D01*
X0251054Y0138981D02*
X0251946Y0138981D01*
X0252380Y0139979D02*
X0250620Y0139979D01*
X0249622Y0140978D02*
X0253378Y0140978D01*
X0255300Y0141976D02*
X0247700Y0141976D01*
X0245300Y0141976D02*
X0237700Y0141976D01*
X0239622Y0140978D02*
X0243378Y0140978D01*
X0242380Y0139979D02*
X0240620Y0139979D01*
X0235300Y0141976D02*
X0226805Y0141976D01*
X0227803Y0140978D02*
X0233378Y0140978D01*
X0232380Y0139979D02*
X0228802Y0139979D01*
X0225806Y0142975D02*
X0274300Y0142975D01*
X0274300Y0143973D02*
X0224808Y0143973D01*
X0223809Y0144972D02*
X0274300Y0144972D01*
X0274300Y0145970D02*
X0222811Y0145970D01*
X0221812Y0146969D02*
X0274300Y0146969D01*
X0274300Y0147967D02*
X0220814Y0147967D01*
X0219815Y0148966D02*
X0274300Y0148966D01*
X0274300Y0149964D02*
X0218817Y0149964D01*
X0217818Y0150963D02*
X0274300Y0150963D01*
X0274300Y0151961D02*
X0216820Y0151961D01*
X0215821Y0152960D02*
X0274300Y0152960D01*
X0274300Y0153958D02*
X0214823Y0153958D01*
X0213824Y0154957D02*
X0274300Y0154957D01*
X0274300Y0155955D02*
X0212826Y0155955D01*
X0211827Y0156954D02*
X0274300Y0156954D01*
X0274300Y0157953D02*
X0210829Y0157953D01*
X0209830Y0158951D02*
X0274300Y0158951D01*
X0274300Y0159950D02*
X0208832Y0159950D01*
X0207833Y0160948D02*
X0274300Y0160948D01*
X0274300Y0161947D02*
X0206835Y0161947D01*
X0205836Y0162945D02*
X0233895Y0162945D01*
X0232797Y0163944D02*
X0204838Y0163944D01*
X0203839Y0164942D02*
X0232119Y0164942D01*
X0236500Y0167170D02*
X0236400Y0167370D01*
X0216600Y0167370D01*
X0196800Y0187170D01*
X0196500Y0187170D01*
X0192597Y0190903D02*
X0188700Y0190903D01*
X0188700Y0189905D02*
X0191788Y0189905D01*
X0191374Y0188906D02*
X0188700Y0188906D01*
X0188700Y0187908D02*
X0191100Y0187908D01*
X0191100Y0186909D02*
X0188700Y0186909D01*
X0188700Y0185911D02*
X0191177Y0185911D01*
X0191590Y0184912D02*
X0188700Y0184912D01*
X0188700Y0183914D02*
X0192119Y0183914D01*
X0193118Y0182915D02*
X0188700Y0182915D01*
X0188700Y0181917D02*
X0195071Y0181917D01*
X0197929Y0181917D02*
X0198942Y0181917D01*
X0199940Y0180918D02*
X0188700Y0180918D01*
X0188861Y0179920D02*
X0200939Y0179920D01*
X0201937Y0178921D02*
X0189860Y0178921D01*
X0190858Y0177923D02*
X0202936Y0177923D01*
X0203934Y0176924D02*
X0191857Y0176924D01*
X0192855Y0175926D02*
X0204933Y0175926D01*
X0205931Y0174927D02*
X0193854Y0174927D01*
X0194852Y0173929D02*
X0206930Y0173929D01*
X0207928Y0172930D02*
X0195851Y0172930D01*
X0196849Y0171932D02*
X0208927Y0171932D01*
X0209925Y0170933D02*
X0197848Y0170933D01*
X0198846Y0169935D02*
X0210924Y0169935D01*
X0211922Y0168936D02*
X0199845Y0168936D01*
X0200843Y0167938D02*
X0212921Y0167938D01*
X0213919Y0166939D02*
X0201842Y0166939D01*
X0202841Y0165941D02*
X0214918Y0165941D01*
X0217146Y0169935D02*
X0232341Y0169935D01*
X0233334Y0170933D02*
X0216148Y0170933D01*
X0215149Y0171932D02*
X0235192Y0171932D01*
X0237808Y0171932D02*
X0245192Y0171932D01*
X0245525Y0172070D02*
X0243724Y0171324D01*
X0242346Y0169945D01*
X0241600Y0168145D01*
X0241600Y0166195D01*
X0242346Y0164394D01*
X0243724Y0163016D01*
X0245525Y0162270D01*
X0247475Y0162270D01*
X0249276Y0163016D01*
X0250654Y0164394D01*
X0251400Y0166195D01*
X0251400Y0168145D01*
X0250654Y0169945D01*
X0249276Y0171324D01*
X0247475Y0172070D01*
X0245525Y0172070D01*
X0247808Y0171932D02*
X0255192Y0171932D01*
X0255525Y0172070D02*
X0253724Y0171324D01*
X0252346Y0169945D01*
X0251600Y0168145D01*
X0251600Y0166195D01*
X0252346Y0164394D01*
X0253724Y0163016D01*
X0255525Y0162270D01*
X0257475Y0162270D01*
X0259276Y0163016D01*
X0260654Y0164394D01*
X0261400Y0166195D01*
X0261400Y0168145D01*
X0260654Y0169945D01*
X0259276Y0171324D01*
X0257475Y0172070D01*
X0255525Y0172070D01*
X0257808Y0171932D02*
X0265192Y0171932D01*
X0265525Y0172070D02*
X0263724Y0171324D01*
X0262346Y0169945D01*
X0261600Y0168145D01*
X0261600Y0166195D01*
X0262346Y0164394D01*
X0263724Y0163016D01*
X0265525Y0162270D01*
X0267475Y0162270D01*
X0269276Y0163016D01*
X0270654Y0164394D01*
X0271400Y0166195D01*
X0271400Y0168145D01*
X0270654Y0169945D01*
X0269276Y0171324D01*
X0267475Y0172070D01*
X0265525Y0172070D01*
X0267808Y0171932D02*
X0274300Y0171932D01*
X0274300Y0172930D02*
X0214151Y0172930D01*
X0213152Y0173929D02*
X0274300Y0173929D01*
X0274300Y0174927D02*
X0212154Y0174927D01*
X0211155Y0175926D02*
X0274300Y0175926D01*
X0274300Y0176924D02*
X0210157Y0176924D01*
X0209158Y0177923D02*
X0274300Y0177923D01*
X0274300Y0178921D02*
X0208160Y0178921D01*
X0207161Y0179920D02*
X0274300Y0179920D01*
X0274300Y0180918D02*
X0206163Y0180918D01*
X0193813Y0191902D02*
X0187879Y0191902D01*
X0186881Y0192900D02*
X0196388Y0192900D01*
X0196100Y0193899D02*
X0185882Y0193899D01*
X0184884Y0194897D02*
X0196100Y0194897D01*
X0196163Y0195896D02*
X0183885Y0195896D01*
X0182887Y0196894D02*
X0196577Y0196894D01*
X0197086Y0197893D02*
X0181888Y0197893D01*
X0180890Y0198891D02*
X0198085Y0198891D01*
X0222582Y0200889D02*
X0088267Y0200889D01*
X0088681Y0201887D02*
X0223777Y0201887D01*
X0186633Y0175926D02*
X0138063Y0175926D01*
X0138063Y0176924D02*
X0137063Y0176924D01*
X0137063Y0175926D02*
X0101271Y0175926D01*
X0101271Y0176924D02*
X0132026Y0176924D01*
X0132306Y0177923D02*
X0100902Y0177923D01*
X0100488Y0178921D02*
X0132816Y0178921D01*
X0133645Y0179920D02*
X0099638Y0179920D01*
X0098496Y0180918D02*
X0135060Y0180918D01*
X0137063Y0180918D02*
X0138063Y0180918D01*
X0138063Y0179920D02*
X0137063Y0179920D01*
X0137063Y0178921D02*
X0138063Y0178921D01*
X0138063Y0177923D02*
X0137063Y0177923D01*
X0137063Y0174927D02*
X0138063Y0174927D01*
X0138063Y0173929D02*
X0137063Y0173929D01*
X0137063Y0172930D02*
X0138063Y0172930D01*
X0138063Y0171932D02*
X0137063Y0171932D01*
X0137063Y0170933D02*
X0138063Y0170933D01*
X0134844Y0170933D02*
X0098750Y0170933D01*
X0099748Y0171932D02*
X0133534Y0171932D01*
X0132738Y0172930D02*
X0100534Y0172930D01*
X0100947Y0173929D02*
X0132270Y0173929D01*
X0132008Y0174927D02*
X0101271Y0174927D01*
X0087200Y0168936D02*
X0193622Y0168936D01*
X0194621Y0167938D02*
X0087200Y0167938D01*
X0087200Y0166939D02*
X0195619Y0166939D01*
X0196618Y0165941D02*
X0087200Y0165941D01*
X0087200Y0164942D02*
X0197616Y0164942D01*
X0198615Y0163944D02*
X0087200Y0163944D01*
X0087200Y0162945D02*
X0199614Y0162945D01*
X0200612Y0161947D02*
X0087200Y0161947D01*
X0087200Y0160948D02*
X0201611Y0160948D01*
X0202609Y0159950D02*
X0087200Y0159950D01*
X0087200Y0158951D02*
X0203608Y0158951D01*
X0204606Y0157953D02*
X0087200Y0157953D01*
X0087200Y0156954D02*
X0205605Y0156954D01*
X0206603Y0155955D02*
X0087200Y0155955D01*
X0087200Y0154957D02*
X0207602Y0154957D01*
X0208600Y0153958D02*
X0087200Y0153958D01*
X0087200Y0152960D02*
X0209599Y0152960D01*
X0210597Y0151961D02*
X0087200Y0151961D01*
X0087200Y0150963D02*
X0157486Y0150963D01*
X0157132Y0150816D02*
X0155491Y0149175D01*
X0154603Y0147031D01*
X0154603Y0144710D01*
X0155491Y0142566D01*
X0157132Y0140925D01*
X0158237Y0140467D01*
X0158237Y0131782D01*
X0141925Y0115470D01*
X0103311Y0115470D01*
X0077200Y0141581D01*
X0077200Y0143804D01*
X0076332Y0145899D01*
X0074729Y0147502D01*
X0072634Y0148370D01*
X0070366Y0148370D01*
X0068271Y0147502D01*
X0066668Y0145899D01*
X0065800Y0143804D01*
X0065800Y0141536D01*
X0066668Y0139441D01*
X0068271Y0137838D01*
X0070211Y0137034D01*
X0069389Y0136767D01*
X0068617Y0136374D01*
X0067917Y0135865D01*
X0067305Y0135253D01*
X0066796Y0134552D01*
X0066403Y0133781D01*
X0066135Y0132958D01*
X0066011Y0132170D01*
X0071000Y0132170D01*
X0071000Y0131170D01*
X0066011Y0131170D01*
X0066135Y0130382D01*
X0066403Y0129559D01*
X0066796Y0128787D01*
X0067305Y0128087D01*
X0067917Y0127475D01*
X0068617Y0126966D01*
X0069389Y0126573D01*
X0070212Y0126305D01*
X0071000Y0126180D01*
X0071000Y0131170D01*
X0072000Y0131170D01*
X0072000Y0132170D01*
X0076989Y0132170D01*
X0076865Y0132958D01*
X0076597Y0133781D01*
X0076204Y0134552D01*
X0075695Y0135253D01*
X0075083Y0135865D01*
X0074383Y0136374D01*
X0073611Y0136767D01*
X0072789Y0137034D01*
X0074723Y0137835D01*
X0101489Y0111070D01*
X0143747Y0111070D01*
X0145036Y0112359D01*
X0162637Y0129959D01*
X0162637Y0140467D01*
X0163742Y0140925D01*
X0165383Y0142566D01*
X0166271Y0144710D01*
X0166271Y0147031D01*
X0165383Y0149175D01*
X0163742Y0150816D01*
X0161597Y0151705D01*
X0159277Y0151705D01*
X0157132Y0150816D01*
X0156280Y0149964D02*
X0087438Y0149964D01*
X0088261Y0148966D02*
X0155405Y0148966D01*
X0154991Y0147967D02*
X0088674Y0147967D01*
X0088700Y0146969D02*
X0154603Y0146969D01*
X0154603Y0145970D02*
X0088508Y0145970D01*
X0088035Y0144972D02*
X0154603Y0144972D01*
X0154908Y0143973D02*
X0139519Y0143973D01*
X0138723Y0144303D02*
X0136403Y0144303D01*
X0134258Y0143415D01*
X0132617Y0141774D01*
X0131729Y0139630D01*
X0131729Y0137309D01*
X0132617Y0135164D01*
X0134258Y0133523D01*
X0136403Y0132635D01*
X0138723Y0132635D01*
X0140868Y0133523D01*
X0142509Y0135164D01*
X0143397Y0137309D01*
X0143397Y0139630D01*
X0142509Y0141774D01*
X0140868Y0143415D01*
X0138723Y0144303D01*
X0141308Y0142975D02*
X0155322Y0142975D01*
X0156081Y0141976D02*
X0142306Y0141976D01*
X0142838Y0140978D02*
X0157080Y0140978D01*
X0158237Y0139979D02*
X0143252Y0139979D01*
X0143397Y0138981D02*
X0158237Y0138981D01*
X0158237Y0137982D02*
X0143397Y0137982D01*
X0143262Y0136984D02*
X0158237Y0136984D01*
X0158237Y0135985D02*
X0142849Y0135985D01*
X0142331Y0134987D02*
X0158237Y0134987D01*
X0158237Y0133988D02*
X0141332Y0133988D01*
X0139579Y0132990D02*
X0158237Y0132990D01*
X0158237Y0131991D02*
X0086790Y0131991D01*
X0087788Y0130993D02*
X0157448Y0130993D01*
X0156449Y0129994D02*
X0088787Y0129994D01*
X0089785Y0128996D02*
X0155451Y0128996D01*
X0154452Y0127997D02*
X0090784Y0127997D01*
X0091782Y0126999D02*
X0153454Y0126999D01*
X0152455Y0126000D02*
X0092781Y0126000D01*
X0093779Y0125002D02*
X0151457Y0125002D01*
X0150458Y0124003D02*
X0094778Y0124003D01*
X0095777Y0123005D02*
X0149460Y0123005D01*
X0148461Y0122006D02*
X0096775Y0122006D01*
X0097774Y0121008D02*
X0147463Y0121008D01*
X0146464Y0120009D02*
X0098772Y0120009D01*
X0099771Y0119011D02*
X0145466Y0119011D01*
X0144467Y0118012D02*
X0100769Y0118012D01*
X0101768Y0117014D02*
X0143469Y0117014D01*
X0142470Y0116015D02*
X0102766Y0116015D01*
X0102400Y0113270D02*
X0073000Y0142670D01*
X0071500Y0142670D01*
X0066284Y0144972D02*
X0016184Y0144972D01*
X0016078Y0145229D02*
X0014559Y0146748D01*
X0013276Y0147279D01*
X0013496Y0147351D01*
X0014225Y0147722D01*
X0014888Y0148204D01*
X0015466Y0148782D01*
X0015947Y0149444D01*
X0016319Y0150174D01*
X0016572Y0150952D01*
X0016686Y0151670D01*
X0012000Y0151670D01*
X0012000Y0152670D01*
X0016686Y0152670D01*
X0016572Y0153388D01*
X0016319Y0154166D01*
X0015947Y0154895D01*
X0015466Y0155557D01*
X0014888Y0156136D01*
X0014225Y0156617D01*
X0013496Y0156989D01*
X0013276Y0157060D01*
X0014559Y0157592D01*
X0016078Y0159111D01*
X0016900Y0161096D01*
X0016900Y0163244D01*
X0016078Y0165229D01*
X0014559Y0166748D01*
X0013276Y0167279D01*
X0013496Y0167351D01*
X0014225Y0167722D01*
X0014888Y0168204D01*
X0015466Y0168782D01*
X0015947Y0169444D01*
X0016319Y0170174D01*
X0016572Y0170952D01*
X0016686Y0171670D01*
X0012000Y0171670D01*
X0012000Y0172670D01*
X0016686Y0172670D01*
X0016572Y0173388D01*
X0016319Y0174166D01*
X0015947Y0174895D01*
X0015466Y0175557D01*
X0014888Y0176136D01*
X0014225Y0176617D01*
X0013496Y0176989D01*
X0013276Y0177060D01*
X0014559Y0177592D01*
X0016078Y0179111D01*
X0016900Y0181096D01*
X0016900Y0183244D01*
X0016078Y0185229D01*
X0014559Y0186748D01*
X0013276Y0187279D01*
X0013496Y0187351D01*
X0014225Y0187722D01*
X0014888Y0188204D01*
X0015466Y0188782D01*
X0015947Y0189444D01*
X0016319Y0190174D01*
X0016572Y0190952D01*
X0016686Y0191670D01*
X0012000Y0191670D01*
X0012000Y0192670D01*
X0016686Y0192670D01*
X0016572Y0193388D01*
X0016319Y0194166D01*
X0015947Y0194895D01*
X0015466Y0195557D01*
X0014888Y0196136D01*
X0014225Y0196617D01*
X0013496Y0196989D01*
X0013276Y0197060D01*
X0014559Y0197592D01*
X0016078Y0199111D01*
X0016900Y0201096D01*
X0016900Y0203244D01*
X0016078Y0205229D01*
X0014559Y0206748D01*
X0012574Y0207570D01*
X0010426Y0207570D01*
X0008441Y0206748D01*
X0006922Y0205229D01*
X0006100Y0203244D01*
X0006100Y0201096D01*
X0006922Y0199111D01*
X0008441Y0197592D01*
X0009724Y0197060D01*
X0009504Y0196989D01*
X0008775Y0196617D01*
X0008112Y0196136D01*
X0007534Y0195557D01*
X0007053Y0194895D01*
X0006681Y0194166D01*
X0006428Y0193388D01*
X0006314Y0192670D01*
X0011000Y0192670D01*
X0011000Y0191670D01*
X0006314Y0191670D01*
X0006428Y0190952D01*
X0006681Y0190174D01*
X0007053Y0189444D01*
X0007534Y0188782D01*
X0008112Y0188204D01*
X0008775Y0187722D01*
X0009504Y0187351D01*
X0009724Y0187279D01*
X0008441Y0186748D01*
X0006922Y0185229D01*
X0006100Y0183244D01*
X0006100Y0181096D01*
X0006922Y0179111D01*
X0008441Y0177592D01*
X0009724Y0177060D01*
X0009504Y0176989D01*
X0008775Y0176617D01*
X0008112Y0176136D01*
X0007534Y0175557D01*
X0007053Y0174895D01*
X0006681Y0174166D01*
X0006428Y0173388D01*
X0006314Y0172670D01*
X0011000Y0172670D01*
X0011000Y0171670D01*
X0006314Y0171670D01*
X0006428Y0170952D01*
X0006681Y0170174D01*
X0007053Y0169444D01*
X0007534Y0168782D01*
X0008112Y0168204D01*
X0008775Y0167722D01*
X0009504Y0167351D01*
X0009724Y0167279D01*
X0008441Y0166748D01*
X0006922Y0165229D01*
X0006100Y0163244D01*
X0006100Y0161096D01*
X0006922Y0159111D01*
X0008441Y0157592D01*
X0009724Y0157060D01*
X0009504Y0156989D01*
X0008775Y0156617D01*
X0008112Y0156136D01*
X0007534Y0155557D01*
X0007053Y0154895D01*
X0006681Y0154166D01*
X0006428Y0153388D01*
X0006314Y0152670D01*
X0011000Y0152670D01*
X0011000Y0151670D01*
X0006314Y0151670D01*
X0006428Y0150952D01*
X0006681Y0150174D01*
X0007053Y0149444D01*
X0007534Y0148782D01*
X0008112Y0148204D01*
X0008775Y0147722D01*
X0009504Y0147351D01*
X0009724Y0147279D01*
X0008441Y0146748D01*
X0006922Y0145229D01*
X0006100Y0143244D01*
X0006100Y0141096D01*
X0006922Y0139111D01*
X0008441Y0137592D01*
X0009724Y0137060D01*
X0009504Y0136989D01*
X0008775Y0136617D01*
X0008112Y0136136D01*
X0007534Y0135557D01*
X0007053Y0134895D01*
X0006681Y0134166D01*
X0006428Y0133388D01*
X0006314Y0132670D01*
X0011000Y0132670D01*
X0011000Y0131670D01*
X0006314Y0131670D01*
X0006428Y0130952D01*
X0006681Y0130174D01*
X0007053Y0129444D01*
X0007534Y0128782D01*
X0008112Y0128204D01*
X0008775Y0127722D01*
X0009504Y0127351D01*
X0009724Y0127279D01*
X0008441Y0126748D01*
X0006922Y0125229D01*
X0006100Y0123244D01*
X0006100Y0121096D01*
X0006922Y0119111D01*
X0008441Y0117592D01*
X0009724Y0117060D01*
X0009504Y0116989D01*
X0008775Y0116617D01*
X0008112Y0116136D01*
X0007534Y0115557D01*
X0007053Y0114895D01*
X0006681Y0114166D01*
X0006428Y0113388D01*
X0006314Y0112670D01*
X0011000Y0112670D01*
X0011000Y0111670D01*
X0006314Y0111670D01*
X0006428Y0110952D01*
X0006681Y0110174D01*
X0007053Y0109444D01*
X0007534Y0108782D01*
X0008112Y0108204D01*
X0008775Y0107722D01*
X0009504Y0107351D01*
X0009724Y0107279D01*
X0008441Y0106748D01*
X0006922Y0105229D01*
X0006100Y0103244D01*
X0006100Y0101096D01*
X0006922Y0099111D01*
X0008441Y0097592D01*
X0009724Y0097060D01*
X0009504Y0096989D01*
X0008775Y0096617D01*
X0008112Y0096136D01*
X0007534Y0095557D01*
X0007053Y0094895D01*
X0006681Y0094166D01*
X0006428Y0093388D01*
X0006314Y0092670D01*
X0011000Y0092670D01*
X0011000Y0091670D01*
X0006314Y0091670D01*
X0006428Y0090952D01*
X0006681Y0090174D01*
X0007053Y0089444D01*
X0007534Y0088782D01*
X0008112Y0088204D01*
X0008775Y0087722D01*
X0009504Y0087351D01*
X0010282Y0087098D01*
X0011000Y0086984D01*
X0011000Y0091670D01*
X0012000Y0091670D01*
X0012000Y0092670D01*
X0016686Y0092670D01*
X0016572Y0093388D01*
X0016319Y0094166D01*
X0015947Y0094895D01*
X0015466Y0095557D01*
X0014888Y0096136D01*
X0014225Y0096617D01*
X0013496Y0096989D01*
X0013276Y0097060D01*
X0014559Y0097592D01*
X0016078Y0099111D01*
X0016900Y0101096D01*
X0016900Y0103244D01*
X0016078Y0105229D01*
X0014559Y0106748D01*
X0013276Y0107279D01*
X0013496Y0107351D01*
X0014225Y0107722D01*
X0014888Y0108204D01*
X0015466Y0108782D01*
X0015947Y0109444D01*
X0016319Y0110174D01*
X0016572Y0110952D01*
X0016686Y0111670D01*
X0012000Y0111670D01*
X0012000Y0112670D01*
X0016686Y0112670D01*
X0016572Y0113388D01*
X0016319Y0114166D01*
X0015947Y0114895D01*
X0015466Y0115557D01*
X0014888Y0116136D01*
X0014225Y0116617D01*
X0013496Y0116989D01*
X0013276Y0117060D01*
X0014559Y0117592D01*
X0016078Y0119111D01*
X0016900Y0121096D01*
X0016900Y0123244D01*
X0016078Y0125229D01*
X0014559Y0126748D01*
X0013276Y0127279D01*
X0013496Y0127351D01*
X0014225Y0127722D01*
X0014888Y0128204D01*
X0015466Y0128782D01*
X0015947Y0129444D01*
X0016319Y0130174D01*
X0016572Y0130952D01*
X0016686Y0131670D01*
X0012000Y0131670D01*
X0012000Y0132670D01*
X0016686Y0132670D01*
X0016572Y0133388D01*
X0016319Y0134166D01*
X0015947Y0134895D01*
X0015466Y0135557D01*
X0014888Y0136136D01*
X0014225Y0136617D01*
X0013496Y0136989D01*
X0013276Y0137060D01*
X0014559Y0137592D01*
X0016078Y0139111D01*
X0016900Y0141096D01*
X0016900Y0143244D01*
X0016078Y0145229D01*
X0015336Y0145970D02*
X0066739Y0145970D01*
X0067738Y0146969D02*
X0014025Y0146969D01*
X0014563Y0147967D02*
X0069395Y0147967D01*
X0073605Y0147967D02*
X0081326Y0147967D01*
X0081300Y0146969D02*
X0075262Y0146969D01*
X0076260Y0145970D02*
X0081492Y0145970D01*
X0081965Y0144972D02*
X0076716Y0144972D01*
X0077130Y0143973D02*
X0083048Y0143973D01*
X0085000Y0147170D02*
X0085000Y0202670D01*
X0081300Y0202886D02*
X0077200Y0202886D01*
X0077167Y0203884D02*
X0081498Y0203884D01*
X0081980Y0204883D02*
X0076753Y0204883D01*
X0076340Y0205881D02*
X0083084Y0205881D01*
X0081319Y0201887D02*
X0077200Y0201887D01*
X0076932Y0200889D02*
X0081733Y0200889D01*
X0082547Y0199890D02*
X0076518Y0199890D01*
X0075783Y0198891D02*
X0082800Y0198891D01*
X0082800Y0197893D02*
X0074784Y0197893D01*
X0073219Y0196894D02*
X0082800Y0196894D01*
X0082800Y0195896D02*
X0075040Y0195896D01*
X0075953Y0194897D02*
X0082800Y0194897D01*
X0082800Y0193899D02*
X0076537Y0193899D01*
X0076874Y0192900D02*
X0082800Y0192900D01*
X0082800Y0191902D02*
X0072000Y0191902D01*
X0072000Y0191170D02*
X0076989Y0191170D01*
X0076865Y0190382D01*
X0076597Y0189559D01*
X0076204Y0188787D01*
X0075695Y0188087D01*
X0075083Y0187475D01*
X0074383Y0186966D01*
X0073611Y0186573D01*
X0072788Y0186305D01*
X0072000Y0186180D01*
X0072000Y0191170D01*
X0072000Y0190903D02*
X0071000Y0190903D01*
X0071000Y0189905D02*
X0072000Y0189905D01*
X0072000Y0188906D02*
X0071000Y0188906D01*
X0071000Y0187908D02*
X0072000Y0187908D01*
X0072000Y0186909D02*
X0071000Y0186909D01*
X0068728Y0186909D02*
X0014169Y0186909D01*
X0014481Y0187908D02*
X0067484Y0187908D01*
X0066735Y0188906D02*
X0015556Y0188906D01*
X0016182Y0189905D02*
X0066290Y0189905D01*
X0066053Y0190903D02*
X0016556Y0190903D01*
X0016649Y0192900D02*
X0066126Y0192900D01*
X0066463Y0193899D02*
X0016406Y0193899D01*
X0015946Y0194897D02*
X0067047Y0194897D01*
X0067960Y0195896D02*
X0015128Y0195896D01*
X0013681Y0196894D02*
X0069781Y0196894D01*
X0068216Y0197893D02*
X0014860Y0197893D01*
X0015858Y0198891D02*
X0067217Y0198891D01*
X0066482Y0199890D02*
X0016401Y0199890D01*
X0016814Y0200889D02*
X0066068Y0200889D01*
X0065800Y0201887D02*
X0016900Y0201887D01*
X0016900Y0202886D02*
X0065800Y0202886D01*
X0065833Y0203884D02*
X0016635Y0203884D01*
X0016221Y0204883D02*
X0066247Y0204883D01*
X0066660Y0205881D02*
X0015426Y0205881D01*
X0014241Y0206880D02*
X0067649Y0206880D01*
X0069179Y0207878D02*
X0003200Y0207878D01*
X0003200Y0206880D02*
X0008759Y0206880D01*
X0007574Y0205881D02*
X0003200Y0205881D01*
X0003200Y0204883D02*
X0006779Y0204883D01*
X0006365Y0203884D02*
X0003200Y0203884D01*
X0003200Y0202886D02*
X0006100Y0202886D01*
X0006100Y0201887D02*
X0003200Y0201887D01*
X0003200Y0200889D02*
X0006186Y0200889D01*
X0006599Y0199890D02*
X0003200Y0199890D01*
X0003200Y0198891D02*
X0007142Y0198891D01*
X0008140Y0197893D02*
X0003200Y0197893D01*
X0003200Y0196894D02*
X0009319Y0196894D01*
X0007872Y0195896D02*
X0003200Y0195896D01*
X0003200Y0194897D02*
X0007054Y0194897D01*
X0006594Y0193899D02*
X0003200Y0193899D01*
X0003200Y0192900D02*
X0006351Y0192900D01*
X0006444Y0190903D02*
X0003200Y0190903D01*
X0003200Y0189905D02*
X0006818Y0189905D01*
X0007444Y0188906D02*
X0003200Y0188906D01*
X0003200Y0187908D02*
X0008519Y0187908D01*
X0008831Y0186909D02*
X0003200Y0186909D01*
X0003200Y0185911D02*
X0007604Y0185911D01*
X0006791Y0184912D02*
X0003200Y0184912D01*
X0003200Y0183914D02*
X0006377Y0183914D01*
X0006100Y0182915D02*
X0003200Y0182915D01*
X0003200Y0181917D02*
X0006100Y0181917D01*
X0006173Y0180918D02*
X0003200Y0180918D01*
X0003200Y0179920D02*
X0006587Y0179920D01*
X0007112Y0178921D02*
X0003200Y0178921D01*
X0003200Y0177923D02*
X0008110Y0177923D01*
X0009377Y0176924D02*
X0003200Y0176924D01*
X0003200Y0175926D02*
X0007902Y0175926D01*
X0007076Y0174927D02*
X0003200Y0174927D01*
X0003200Y0173929D02*
X0006604Y0173929D01*
X0006356Y0172930D02*
X0003200Y0172930D01*
X0003200Y0171932D02*
X0011000Y0171932D01*
X0012000Y0171932D02*
X0065800Y0171932D01*
X0065800Y0171536D02*
X0066668Y0169441D01*
X0068271Y0167838D01*
X0070211Y0167034D01*
X0069389Y0166767D01*
X0068617Y0166374D01*
X0067917Y0165865D01*
X0067305Y0165253D01*
X0066796Y0164552D01*
X0066403Y0163781D01*
X0066135Y0162958D01*
X0066011Y0162170D01*
X0071000Y0162170D01*
X0071000Y0161170D01*
X0066011Y0161170D01*
X0066135Y0160382D01*
X0066403Y0159559D01*
X0066796Y0158787D01*
X0067305Y0158087D01*
X0067917Y0157475D01*
X0068617Y0156966D01*
X0069389Y0156573D01*
X0070212Y0156305D01*
X0071000Y0156180D01*
X0071000Y0161170D01*
X0072000Y0161170D01*
X0072000Y0162170D01*
X0076989Y0162170D01*
X0076865Y0162958D01*
X0076597Y0163781D01*
X0076204Y0164552D01*
X0075695Y0165253D01*
X0075083Y0165865D01*
X0074383Y0166374D01*
X0073611Y0166767D01*
X0072789Y0167034D01*
X0074729Y0167838D01*
X0076332Y0169441D01*
X0077200Y0171536D01*
X0077200Y0173804D01*
X0076332Y0175899D01*
X0074729Y0177502D01*
X0072634Y0178370D01*
X0070366Y0178370D01*
X0068271Y0177502D01*
X0066668Y0175899D01*
X0065800Y0173804D01*
X0065800Y0171536D01*
X0066050Y0170933D02*
X0016566Y0170933D01*
X0016197Y0169935D02*
X0066463Y0169935D01*
X0067173Y0168936D02*
X0015578Y0168936D01*
X0014522Y0167938D02*
X0068171Y0167938D01*
X0068021Y0165941D02*
X0015366Y0165941D01*
X0016197Y0164942D02*
X0067079Y0164942D01*
X0066486Y0163944D02*
X0016610Y0163944D01*
X0016900Y0162945D02*
X0066133Y0162945D01*
X0066046Y0160948D02*
X0016839Y0160948D01*
X0016900Y0161947D02*
X0071000Y0161947D01*
X0071000Y0160948D02*
X0072000Y0160948D01*
X0072000Y0161170D02*
X0072000Y0156180D01*
X0072788Y0156305D01*
X0073611Y0156573D01*
X0074383Y0156966D01*
X0075083Y0157475D01*
X0075695Y0158087D01*
X0076204Y0158787D01*
X0076597Y0159559D01*
X0076865Y0160382D01*
X0076989Y0161170D01*
X0072000Y0161170D01*
X0072000Y0161947D02*
X0082800Y0161947D01*
X0082800Y0162945D02*
X0076867Y0162945D01*
X0076514Y0163944D02*
X0082800Y0163944D01*
X0082800Y0164942D02*
X0075921Y0164942D01*
X0074979Y0165941D02*
X0082800Y0165941D01*
X0082800Y0166939D02*
X0073081Y0166939D01*
X0074829Y0167938D02*
X0082800Y0167938D01*
X0082800Y0168936D02*
X0075827Y0168936D01*
X0076537Y0169935D02*
X0082800Y0169935D01*
X0082800Y0170933D02*
X0076950Y0170933D01*
X0077200Y0171932D02*
X0082800Y0171932D01*
X0082800Y0172930D02*
X0077200Y0172930D01*
X0077148Y0173929D02*
X0082800Y0173929D01*
X0082800Y0174927D02*
X0076735Y0174927D01*
X0076305Y0175926D02*
X0082800Y0175926D01*
X0082800Y0176924D02*
X0075307Y0176924D01*
X0073713Y0177923D02*
X0082800Y0177923D01*
X0082800Y0178921D02*
X0015888Y0178921D01*
X0016413Y0179920D02*
X0082800Y0179920D01*
X0082800Y0180918D02*
X0016826Y0180918D01*
X0016900Y0181917D02*
X0082800Y0181917D01*
X0082800Y0182915D02*
X0016900Y0182915D01*
X0016623Y0183914D02*
X0082800Y0183914D01*
X0082800Y0184912D02*
X0016209Y0184912D01*
X0015396Y0185911D02*
X0082800Y0185911D01*
X0082800Y0186909D02*
X0074272Y0186909D01*
X0075516Y0187908D02*
X0082800Y0187908D01*
X0082800Y0188906D02*
X0076265Y0188906D01*
X0076710Y0189905D02*
X0082800Y0189905D01*
X0082800Y0190903D02*
X0076947Y0190903D01*
X0071000Y0191902D02*
X0012000Y0191902D01*
X0011000Y0191902D02*
X0003200Y0191902D01*
X0014890Y0177923D02*
X0069287Y0177923D01*
X0067693Y0176924D02*
X0013623Y0176924D01*
X0015098Y0175926D02*
X0066695Y0175926D01*
X0066265Y0174927D02*
X0015924Y0174927D01*
X0016396Y0173929D02*
X0065852Y0173929D01*
X0065800Y0172930D02*
X0016644Y0172930D01*
X0014097Y0166939D02*
X0069919Y0166939D01*
X0076954Y0160948D02*
X0082800Y0160948D01*
X0082800Y0159950D02*
X0076724Y0159950D01*
X0076287Y0158951D02*
X0082800Y0158951D01*
X0082800Y0157953D02*
X0075561Y0157953D01*
X0074359Y0156954D02*
X0082800Y0156954D01*
X0082800Y0155955D02*
X0015068Y0155955D01*
X0015903Y0154957D02*
X0082800Y0154957D01*
X0082800Y0153958D02*
X0016386Y0153958D01*
X0016640Y0152960D02*
X0082800Y0152960D01*
X0082800Y0151961D02*
X0012000Y0151961D01*
X0011000Y0151961D02*
X0003200Y0151961D01*
X0003200Y0150963D02*
X0006426Y0150963D01*
X0006788Y0149964D02*
X0003200Y0149964D01*
X0003200Y0148966D02*
X0007400Y0148966D01*
X0008437Y0147967D02*
X0003200Y0147967D01*
X0003200Y0146969D02*
X0008975Y0146969D01*
X0007664Y0145970D02*
X0003200Y0145970D01*
X0003200Y0144972D02*
X0006816Y0144972D01*
X0006402Y0143973D02*
X0003200Y0143973D01*
X0003200Y0142975D02*
X0006100Y0142975D01*
X0006100Y0141976D02*
X0003200Y0141976D01*
X0003200Y0140978D02*
X0006149Y0140978D01*
X0006562Y0139979D02*
X0003200Y0139979D01*
X0003200Y0138981D02*
X0007052Y0138981D01*
X0008051Y0137982D02*
X0003200Y0137982D01*
X0003200Y0136984D02*
X0009494Y0136984D01*
X0007962Y0135985D02*
X0003200Y0135985D01*
X0003200Y0134987D02*
X0007119Y0134987D01*
X0006623Y0133988D02*
X0003200Y0133988D01*
X0003200Y0132990D02*
X0006365Y0132990D01*
X0006422Y0130993D02*
X0003200Y0130993D01*
X0003200Y0131991D02*
X0011000Y0131991D01*
X0012000Y0131991D02*
X0071000Y0131991D01*
X0071000Y0130993D02*
X0072000Y0130993D01*
X0072000Y0131170D02*
X0072000Y0126180D01*
X0072788Y0126305D01*
X0073611Y0126573D01*
X0074383Y0126966D01*
X0075083Y0127475D01*
X0075695Y0128087D01*
X0076204Y0128787D01*
X0076597Y0129559D01*
X0076865Y0130382D01*
X0076989Y0131170D01*
X0072000Y0131170D01*
X0072000Y0131991D02*
X0080567Y0131991D01*
X0079569Y0132990D02*
X0076854Y0132990D01*
X0076492Y0133988D02*
X0078570Y0133988D01*
X0077572Y0134987D02*
X0075888Y0134987D01*
X0076573Y0135985D02*
X0074917Y0135985D01*
X0075575Y0136984D02*
X0072944Y0136984D01*
X0070056Y0136984D02*
X0013506Y0136984D01*
X0014949Y0137982D02*
X0068127Y0137982D01*
X0067128Y0138981D02*
X0015948Y0138981D01*
X0016438Y0139979D02*
X0066445Y0139979D01*
X0066031Y0140978D02*
X0016851Y0140978D01*
X0016900Y0141976D02*
X0065800Y0141976D01*
X0065800Y0142975D02*
X0016900Y0142975D01*
X0016598Y0143973D02*
X0065870Y0143973D01*
X0077200Y0142975D02*
X0092054Y0142975D01*
X0091767Y0142766D02*
X0091140Y0142139D01*
X0090619Y0141422D01*
X0090216Y0140632D01*
X0089942Y0139788D01*
X0089812Y0138969D01*
X0094937Y0138969D01*
X0094937Y0137969D01*
X0095937Y0137969D01*
X0095937Y0132844D01*
X0096756Y0132974D01*
X0097600Y0133248D01*
X0098390Y0133651D01*
X0099107Y0134172D01*
X0099734Y0134799D01*
X0100255Y0135516D01*
X0100658Y0136306D01*
X0100932Y0137150D01*
X0101062Y0137969D01*
X0095937Y0137969D01*
X0095937Y0138969D01*
X0101062Y0138969D01*
X0100932Y0139788D01*
X0100658Y0140632D01*
X0100255Y0141422D01*
X0099734Y0142139D01*
X0099107Y0142766D01*
X0098390Y0143288D01*
X0097600Y0143690D01*
X0096756Y0143964D01*
X0095937Y0144094D01*
X0095937Y0138969D01*
X0094937Y0138969D01*
X0094937Y0144094D01*
X0094118Y0143964D01*
X0093274Y0143690D01*
X0092484Y0143288D01*
X0091767Y0142766D01*
X0091021Y0141976D02*
X0077200Y0141976D01*
X0077803Y0140978D02*
X0090392Y0140978D01*
X0090004Y0139979D02*
X0078802Y0139979D01*
X0079800Y0138981D02*
X0089814Y0138981D01*
X0089812Y0137969D02*
X0089942Y0137150D01*
X0090216Y0136306D01*
X0090619Y0135516D01*
X0091140Y0134799D01*
X0091767Y0134172D01*
X0092484Y0133651D01*
X0093274Y0133248D01*
X0094118Y0132974D01*
X0094937Y0132844D01*
X0094937Y0137969D01*
X0089812Y0137969D01*
X0089996Y0136984D02*
X0081797Y0136984D01*
X0080799Y0137982D02*
X0094937Y0137982D01*
X0094937Y0136984D02*
X0095937Y0136984D01*
X0095937Y0137982D02*
X0131729Y0137982D01*
X0131729Y0138981D02*
X0101060Y0138981D01*
X0100870Y0139979D02*
X0131874Y0139979D01*
X0132288Y0140978D02*
X0100482Y0140978D01*
X0099853Y0141976D02*
X0132820Y0141976D01*
X0133818Y0142975D02*
X0098820Y0142975D01*
X0096698Y0143973D02*
X0135607Y0143973D01*
X0131864Y0136984D02*
X0100878Y0136984D01*
X0100494Y0135985D02*
X0132277Y0135985D01*
X0132795Y0134987D02*
X0099871Y0134987D01*
X0098855Y0133988D02*
X0133793Y0133988D01*
X0135547Y0132990D02*
X0096805Y0132990D01*
X0095937Y0132990D02*
X0094937Y0132990D01*
X0094069Y0132990D02*
X0085791Y0132990D01*
X0084793Y0133988D02*
X0092019Y0133988D01*
X0091003Y0134987D02*
X0083794Y0134987D01*
X0082796Y0135985D02*
X0090380Y0135985D01*
X0094937Y0135985D02*
X0095937Y0135985D01*
X0095937Y0134987D02*
X0094937Y0134987D01*
X0094937Y0133988D02*
X0095937Y0133988D01*
X0095937Y0138981D02*
X0094937Y0138981D01*
X0094937Y0139979D02*
X0095937Y0139979D01*
X0095937Y0140978D02*
X0094937Y0140978D01*
X0094937Y0141976D02*
X0095937Y0141976D01*
X0095937Y0142975D02*
X0094937Y0142975D01*
X0094937Y0143973D02*
X0095937Y0143973D01*
X0094176Y0143973D02*
X0086952Y0143973D01*
X0081739Y0148966D02*
X0015600Y0148966D01*
X0016212Y0149964D02*
X0082562Y0149964D01*
X0082800Y0150963D02*
X0016574Y0150963D01*
X0007932Y0155955D02*
X0003200Y0155955D01*
X0003200Y0154957D02*
X0007097Y0154957D01*
X0006614Y0153958D02*
X0003200Y0153958D01*
X0003200Y0152960D02*
X0006360Y0152960D01*
X0009435Y0156954D02*
X0003200Y0156954D01*
X0003200Y0157953D02*
X0008081Y0157953D01*
X0007082Y0158951D02*
X0003200Y0158951D01*
X0003200Y0159950D02*
X0006575Y0159950D01*
X0006161Y0160948D02*
X0003200Y0160948D01*
X0003200Y0161947D02*
X0006100Y0161947D01*
X0006100Y0162945D02*
X0003200Y0162945D01*
X0003200Y0163944D02*
X0006390Y0163944D01*
X0006803Y0164942D02*
X0003200Y0164942D01*
X0003200Y0165941D02*
X0007634Y0165941D01*
X0008903Y0166939D02*
X0003200Y0166939D01*
X0003200Y0167938D02*
X0008478Y0167938D01*
X0007422Y0168936D02*
X0003200Y0168936D01*
X0003200Y0169935D02*
X0006803Y0169935D01*
X0006434Y0170933D02*
X0003200Y0170933D01*
X0016425Y0159950D02*
X0066276Y0159950D01*
X0066713Y0158951D02*
X0015918Y0158951D01*
X0014919Y0157953D02*
X0067439Y0157953D01*
X0068641Y0156954D02*
X0013565Y0156954D01*
X0015038Y0135985D02*
X0068083Y0135985D01*
X0067112Y0134987D02*
X0015881Y0134987D01*
X0016377Y0133988D02*
X0066508Y0133988D01*
X0066146Y0132990D02*
X0016635Y0132990D01*
X0016578Y0130993D02*
X0066039Y0130993D01*
X0066261Y0129994D02*
X0016228Y0129994D01*
X0015621Y0128996D02*
X0066690Y0128996D01*
X0067395Y0127997D02*
X0014604Y0127997D01*
X0013953Y0126999D02*
X0068572Y0126999D01*
X0071000Y0126999D02*
X0072000Y0126999D01*
X0072000Y0127997D02*
X0071000Y0127997D01*
X0071000Y0128996D02*
X0072000Y0128996D01*
X0072000Y0129994D02*
X0071000Y0129994D01*
X0074428Y0126999D02*
X0085560Y0126999D01*
X0084561Y0127997D02*
X0075605Y0127997D01*
X0076310Y0128996D02*
X0083563Y0128996D01*
X0082564Y0129994D02*
X0076739Y0129994D01*
X0076961Y0130993D02*
X0081566Y0130993D01*
X0086558Y0126000D02*
X0015306Y0126000D01*
X0016172Y0125002D02*
X0087557Y0125002D01*
X0088555Y0124003D02*
X0016586Y0124003D01*
X0016900Y0123005D02*
X0089554Y0123005D01*
X0090552Y0122006D02*
X0016900Y0122006D01*
X0016863Y0121008D02*
X0091551Y0121008D01*
X0092549Y0120009D02*
X0016450Y0120009D01*
X0015977Y0119011D02*
X0093548Y0119011D01*
X0094547Y0118012D02*
X0014979Y0118012D01*
X0013420Y0117014D02*
X0064083Y0117014D01*
X0063441Y0116748D02*
X0061922Y0115229D01*
X0061100Y0113244D01*
X0061100Y0111096D01*
X0061922Y0109111D01*
X0063441Y0107592D01*
X0065426Y0106770D01*
X0067574Y0106770D01*
X0069559Y0107592D01*
X0071078Y0109111D01*
X0071900Y0111096D01*
X0071900Y0113244D01*
X0071078Y0115229D01*
X0069559Y0116748D01*
X0067574Y0117570D01*
X0065426Y0117570D01*
X0063441Y0116748D01*
X0062708Y0116015D02*
X0015009Y0116015D01*
X0015859Y0115017D02*
X0061834Y0115017D01*
X0061421Y0114018D02*
X0016367Y0114018D01*
X0016630Y0113020D02*
X0061100Y0113020D01*
X0061100Y0112021D02*
X0050183Y0112021D01*
X0050229Y0112002D02*
X0048134Y0112870D01*
X0045866Y0112870D01*
X0043771Y0112002D01*
X0042168Y0110399D01*
X0041500Y0108786D01*
X0040832Y0110399D01*
X0039229Y0112002D01*
X0037134Y0112870D01*
X0034866Y0112870D01*
X0032771Y0112002D01*
X0031168Y0110399D01*
X0030300Y0108304D01*
X0030300Y0106036D01*
X0031168Y0103941D01*
X0032771Y0102338D01*
X0034866Y0101470D01*
X0037134Y0101470D01*
X0039229Y0102338D01*
X0040832Y0103941D01*
X0041500Y0105553D01*
X0042168Y0103941D01*
X0043771Y0102338D01*
X0044800Y0101912D01*
X0044800Y0068168D01*
X0042835Y0067354D01*
X0041315Y0065835D01*
X0040493Y0063851D01*
X0040493Y0061702D01*
X0040703Y0061197D01*
X0025376Y0045870D01*
X0022911Y0045870D01*
X0015700Y0053081D01*
X0015700Y0056704D01*
X0017229Y0057338D01*
X0018832Y0058941D01*
X0019500Y0060553D01*
X0020168Y0058941D01*
X0021771Y0057338D01*
X0023866Y0056470D01*
X0026134Y0056470D01*
X0028229Y0057338D01*
X0029832Y0058941D01*
X0030700Y0061036D01*
X0030700Y0063304D01*
X0029832Y0065399D01*
X0028229Y0067002D01*
X0026134Y0067870D01*
X0023866Y0067870D01*
X0021771Y0067002D01*
X0020168Y0065399D01*
X0019500Y0063786D01*
X0018832Y0065399D01*
X0017229Y0067002D01*
X0015134Y0067870D01*
X0012866Y0067870D01*
X0010771Y0067002D01*
X0009168Y0065399D01*
X0008300Y0063304D01*
X0008300Y0061036D01*
X0009168Y0058941D01*
X0010771Y0057338D01*
X0011300Y0057119D01*
X0011300Y0051259D01*
X0012589Y0049970D01*
X0021089Y0041470D01*
X0027198Y0041470D01*
X0028487Y0042759D01*
X0043607Y0057879D01*
X0044819Y0057376D01*
X0046968Y0057376D01*
X0048952Y0058199D01*
X0050471Y0059718D01*
X0051293Y0061702D01*
X0051293Y0063851D01*
X0050471Y0065835D01*
X0049200Y0067107D01*
X0049200Y0101912D01*
X0050229Y0102338D01*
X0051832Y0103941D01*
X0052700Y0106036D01*
X0052700Y0108304D01*
X0051832Y0110399D01*
X0050229Y0112002D01*
X0051208Y0111022D02*
X0061130Y0111022D01*
X0061544Y0110024D02*
X0051987Y0110024D01*
X0052401Y0109025D02*
X0062008Y0109025D01*
X0063006Y0108027D02*
X0052700Y0108027D01*
X0052700Y0107028D02*
X0064802Y0107028D01*
X0068198Y0107028D02*
X0080721Y0107028D01*
X0081091Y0106970D02*
X0080282Y0107098D01*
X0079504Y0107351D01*
X0078775Y0107722D01*
X0078112Y0108204D01*
X0077534Y0108782D01*
X0077053Y0109444D01*
X0076681Y0110174D01*
X0076428Y0110952D01*
X0076300Y0111761D01*
X0076300Y0111784D01*
X0081114Y0111784D01*
X0081114Y0112556D01*
X0081114Y0117370D01*
X0081091Y0117370D01*
X0080282Y0117242D01*
X0079504Y0116989D01*
X0078775Y0116617D01*
X0078112Y0116136D01*
X0077534Y0115557D01*
X0077053Y0114895D01*
X0076681Y0114166D01*
X0076428Y0113388D01*
X0076300Y0112579D01*
X0076300Y0112556D01*
X0081114Y0112556D01*
X0081886Y0112556D01*
X0081886Y0117370D01*
X0081909Y0117370D01*
X0082718Y0117242D01*
X0083496Y0116989D01*
X0084225Y0116617D01*
X0084888Y0116136D01*
X0085466Y0115557D01*
X0085947Y0114895D01*
X0086319Y0114166D01*
X0086572Y0113388D01*
X0086700Y0112579D01*
X0086700Y0112556D01*
X0081886Y0112556D01*
X0081886Y0111784D01*
X0086700Y0111784D01*
X0086700Y0111761D01*
X0086572Y0110952D01*
X0086319Y0110174D01*
X0085947Y0109444D01*
X0085466Y0108782D01*
X0084888Y0108204D01*
X0084225Y0107722D01*
X0083496Y0107351D01*
X0082718Y0107098D01*
X0081909Y0106970D01*
X0081886Y0106970D01*
X0081886Y0111784D01*
X0081114Y0111784D01*
X0081114Y0106970D01*
X0081091Y0106970D01*
X0081114Y0107028D02*
X0081886Y0107028D01*
X0082279Y0107028D02*
X0100425Y0107028D01*
X0100525Y0107070D02*
X0098724Y0106324D01*
X0097346Y0104945D01*
X0096600Y0103145D01*
X0096600Y0101195D01*
X0097346Y0099394D01*
X0098724Y0098016D01*
X0099200Y0097819D01*
X0099200Y0085081D01*
X0090989Y0076870D01*
X0089700Y0075581D01*
X0089700Y0049385D01*
X0088881Y0049046D01*
X0087362Y0047527D01*
X0086540Y0045542D01*
X0086540Y0043394D01*
X0087362Y0041409D01*
X0088881Y0039890D01*
X0090866Y0039068D01*
X0093014Y0039068D01*
X0094999Y0039890D01*
X0096518Y0041409D01*
X0097340Y0043394D01*
X0097340Y0045542D01*
X0096518Y0047527D01*
X0094999Y0049046D01*
X0094100Y0049418D01*
X0094100Y0073759D01*
X0103600Y0083259D01*
X0103600Y0097736D01*
X0104276Y0098016D01*
X0105654Y0099394D01*
X0106400Y0101195D01*
X0106400Y0103145D01*
X0105654Y0104945D01*
X0104276Y0106324D01*
X0102475Y0107070D01*
X0100525Y0107070D01*
X0102575Y0107028D02*
X0110425Y0107028D01*
X0110525Y0107070D02*
X0108724Y0106324D01*
X0107346Y0104945D01*
X0106600Y0103145D01*
X0106600Y0101195D01*
X0107346Y0099394D01*
X0108724Y0098016D01*
X0110525Y0097270D01*
X0112475Y0097270D01*
X0114276Y0098016D01*
X0115654Y0099394D01*
X0116400Y0101195D01*
X0116400Y0103145D01*
X0115654Y0104945D01*
X0114276Y0106324D01*
X0112475Y0107070D01*
X0110525Y0107070D01*
X0112575Y0107028D02*
X0120425Y0107028D01*
X0120525Y0107070D02*
X0118724Y0106324D01*
X0117346Y0104945D01*
X0116600Y0103145D01*
X0116600Y0101195D01*
X0117346Y0099394D01*
X0118724Y0098016D01*
X0120525Y0097270D01*
X0122475Y0097270D01*
X0124276Y0098016D01*
X0125654Y0099394D01*
X0126400Y0101195D01*
X0126400Y0103145D01*
X0125654Y0104945D01*
X0124276Y0106324D01*
X0122475Y0107070D01*
X0120525Y0107070D01*
X0122575Y0107028D02*
X0130425Y0107028D01*
X0132575Y0107028D02*
X0154981Y0107028D01*
X0154942Y0107150D02*
X0155216Y0106306D01*
X0155619Y0105516D01*
X0156140Y0104799D01*
X0156767Y0104172D01*
X0157484Y0103651D01*
X0158274Y0103248D01*
X0159118Y0102974D01*
X0159937Y0102844D01*
X0159937Y0107969D01*
X0160937Y0107969D01*
X0160937Y0102844D01*
X0161756Y0102974D01*
X0162600Y0103248D01*
X0163390Y0103651D01*
X0164107Y0104172D01*
X0164734Y0104799D01*
X0165255Y0105516D01*
X0165658Y0106306D01*
X0165932Y0107150D01*
X0166062Y0107969D01*
X0160937Y0107969D01*
X0160937Y0108969D01*
X0166062Y0108969D01*
X0165932Y0109788D01*
X0165658Y0110632D01*
X0165255Y0111422D01*
X0164734Y0112139D01*
X0164107Y0112766D01*
X0163390Y0113288D01*
X0162600Y0113690D01*
X0161756Y0113964D01*
X0160937Y0114094D01*
X0160937Y0108969D01*
X0159937Y0108969D01*
X0159937Y0107969D01*
X0154812Y0107969D01*
X0154942Y0107150D01*
X0155357Y0106030D02*
X0134570Y0106030D01*
X0135568Y0105031D02*
X0155971Y0105031D01*
X0156958Y0104033D02*
X0136032Y0104033D01*
X0136400Y0103034D02*
X0158932Y0103034D01*
X0159937Y0103034D02*
X0160937Y0103034D01*
X0160937Y0104033D02*
X0159937Y0104033D01*
X0159937Y0105031D02*
X0160937Y0105031D01*
X0160937Y0106030D02*
X0159937Y0106030D01*
X0159937Y0107028D02*
X0160937Y0107028D01*
X0160937Y0108027D02*
X0196729Y0108027D01*
X0196729Y0107309D02*
X0197617Y0105164D01*
X0199258Y0103523D01*
X0201403Y0102635D01*
X0203723Y0102635D01*
X0205868Y0103523D01*
X0207509Y0105164D01*
X0208397Y0107309D01*
X0208397Y0109630D01*
X0207509Y0111774D01*
X0205868Y0113415D01*
X0203723Y0114303D01*
X0201403Y0114303D01*
X0199258Y0113415D01*
X0197617Y0111774D01*
X0196729Y0109630D01*
X0196729Y0107309D01*
X0196845Y0107028D02*
X0165893Y0107028D01*
X0165517Y0106030D02*
X0197259Y0106030D01*
X0197750Y0105031D02*
X0164903Y0105031D01*
X0163916Y0104033D02*
X0198749Y0104033D01*
X0200439Y0103034D02*
X0161942Y0103034D01*
X0159937Y0108027D02*
X0084645Y0108027D01*
X0085643Y0109025D02*
X0154821Y0109025D01*
X0154812Y0108969D02*
X0154942Y0109788D01*
X0155216Y0110632D01*
X0155619Y0111422D01*
X0156140Y0112139D01*
X0156767Y0112766D01*
X0157484Y0113288D01*
X0158274Y0113690D01*
X0159118Y0113964D01*
X0159937Y0114094D01*
X0159937Y0108969D01*
X0154812Y0108969D01*
X0155018Y0110024D02*
X0086243Y0110024D01*
X0086583Y0111022D02*
X0155415Y0111022D01*
X0156054Y0112021D02*
X0144699Y0112021D01*
X0145697Y0113020D02*
X0157115Y0113020D01*
X0159458Y0114018D02*
X0146696Y0114018D01*
X0147694Y0115017D02*
X0222141Y0115017D01*
X0222053Y0114895D02*
X0221681Y0114166D01*
X0221428Y0113388D01*
X0221300Y0112579D01*
X0221300Y0112556D01*
X0226114Y0112556D01*
X0226114Y0117370D01*
X0226091Y0117370D01*
X0225282Y0117242D01*
X0224504Y0116989D01*
X0223775Y0116617D01*
X0223112Y0116136D01*
X0222534Y0115557D01*
X0222053Y0114895D01*
X0221633Y0114018D02*
X0204411Y0114018D01*
X0206263Y0113020D02*
X0221370Y0113020D01*
X0221300Y0111784D02*
X0221300Y0111761D01*
X0221428Y0110952D01*
X0221681Y0110174D01*
X0222053Y0109444D01*
X0222534Y0108782D01*
X0223112Y0108204D01*
X0223775Y0107722D01*
X0224504Y0107351D01*
X0225282Y0107098D01*
X0226091Y0106970D01*
X0226114Y0106970D01*
X0226114Y0111784D01*
X0221300Y0111784D01*
X0221417Y0111022D02*
X0207820Y0111022D01*
X0208233Y0110024D02*
X0221757Y0110024D01*
X0222357Y0109025D02*
X0208397Y0109025D01*
X0208397Y0108027D02*
X0223355Y0108027D01*
X0225721Y0107028D02*
X0208281Y0107028D01*
X0207867Y0106030D02*
X0283800Y0106030D01*
X0283800Y0107028D02*
X0278198Y0107028D01*
X0277574Y0106770D02*
X0275426Y0106770D01*
X0273441Y0107592D01*
X0271922Y0109111D01*
X0271100Y0111096D01*
X0271100Y0113244D01*
X0271922Y0115229D01*
X0273441Y0116748D01*
X0275426Y0117570D01*
X0277574Y0117570D01*
X0279559Y0116748D01*
X0281078Y0115229D01*
X0281900Y0113244D01*
X0281900Y0111096D01*
X0281078Y0109111D01*
X0279559Y0107592D01*
X0277574Y0106770D01*
X0279994Y0108027D02*
X0283800Y0108027D01*
X0283800Y0109025D02*
X0280992Y0109025D01*
X0281456Y0110024D02*
X0283800Y0110024D01*
X0283800Y0111022D02*
X0281870Y0111022D01*
X0281900Y0112021D02*
X0283800Y0112021D01*
X0283800Y0113020D02*
X0281900Y0113020D01*
X0281579Y0114018D02*
X0283800Y0114018D01*
X0283800Y0115017D02*
X0281166Y0115017D01*
X0280292Y0116015D02*
X0283800Y0116015D01*
X0283800Y0117014D02*
X0278917Y0117014D01*
X0276078Y0119111D02*
X0274559Y0117592D01*
X0272574Y0116770D01*
X0270426Y0116770D01*
X0268441Y0117592D01*
X0266922Y0119111D01*
X0266100Y0121096D01*
X0266100Y0123244D01*
X0266922Y0125229D01*
X0268441Y0126748D01*
X0270426Y0127570D01*
X0272574Y0127570D01*
X0274559Y0126748D01*
X0276078Y0125229D01*
X0276900Y0123244D01*
X0276900Y0121096D01*
X0276078Y0119111D01*
X0275977Y0119011D02*
X0283548Y0119011D01*
X0283800Y0118012D02*
X0274979Y0118012D01*
X0274083Y0117014D02*
X0273162Y0117014D01*
X0272708Y0116015D02*
X0260292Y0116015D01*
X0259559Y0116748D02*
X0257574Y0117570D01*
X0255426Y0117570D01*
X0253441Y0116748D01*
X0251922Y0115229D01*
X0251100Y0113244D01*
X0251100Y0111096D01*
X0251922Y0109111D01*
X0253441Y0107592D01*
X0255426Y0106770D01*
X0257574Y0106770D01*
X0259559Y0107592D01*
X0261078Y0109111D01*
X0261900Y0111096D01*
X0261900Y0113244D01*
X0261078Y0115229D01*
X0259559Y0116748D01*
X0258917Y0117014D02*
X0269838Y0117014D01*
X0268021Y0118012D02*
X0254979Y0118012D01*
X0254559Y0117592D02*
X0256078Y0119111D01*
X0256900Y0121096D01*
X0256900Y0123244D01*
X0256078Y0125229D01*
X0254559Y0126748D01*
X0252574Y0127570D01*
X0250426Y0127570D01*
X0248441Y0126748D01*
X0246922Y0125229D01*
X0246100Y0123244D01*
X0246100Y0121096D01*
X0246922Y0119111D01*
X0248441Y0117592D01*
X0250426Y0116770D01*
X0252574Y0116770D01*
X0254559Y0117592D01*
X0254083Y0117014D02*
X0253162Y0117014D01*
X0252708Y0116015D02*
X0230009Y0116015D01*
X0229888Y0116136D02*
X0229225Y0116617D01*
X0228496Y0116989D01*
X0227718Y0117242D01*
X0226909Y0117370D01*
X0226886Y0117370D01*
X0226886Y0112556D01*
X0226114Y0112556D01*
X0226114Y0111784D01*
X0226886Y0111784D01*
X0226886Y0112556D01*
X0231700Y0112556D01*
X0231700Y0112579D01*
X0231572Y0113388D01*
X0231319Y0114166D01*
X0230947Y0114895D01*
X0230466Y0115557D01*
X0229888Y0116136D01*
X0230859Y0115017D02*
X0251834Y0115017D01*
X0251421Y0114018D02*
X0231367Y0114018D01*
X0231630Y0113020D02*
X0251100Y0113020D01*
X0251100Y0112021D02*
X0226886Y0112021D01*
X0226886Y0111784D02*
X0231700Y0111784D01*
X0231700Y0111761D01*
X0231572Y0110952D01*
X0231319Y0110174D01*
X0230947Y0109444D01*
X0230466Y0108782D01*
X0229888Y0108204D01*
X0229225Y0107722D01*
X0228496Y0107351D01*
X0227718Y0107098D01*
X0226909Y0106970D01*
X0226886Y0106970D01*
X0226886Y0111784D01*
X0226886Y0111022D02*
X0226114Y0111022D01*
X0226114Y0110024D02*
X0226886Y0110024D01*
X0226886Y0109025D02*
X0226114Y0109025D01*
X0226114Y0108027D02*
X0226886Y0108027D01*
X0226886Y0107028D02*
X0226114Y0107028D01*
X0227279Y0107028D02*
X0254802Y0107028D01*
X0253006Y0108027D02*
X0229645Y0108027D01*
X0230643Y0109025D02*
X0252008Y0109025D01*
X0251544Y0110024D02*
X0231243Y0110024D01*
X0231583Y0111022D02*
X0251130Y0111022D01*
X0258198Y0107028D02*
X0274802Y0107028D01*
X0273006Y0108027D02*
X0259994Y0108027D01*
X0260992Y0109025D02*
X0272008Y0109025D01*
X0271544Y0110024D02*
X0261456Y0110024D01*
X0261870Y0111022D02*
X0271130Y0111022D01*
X0271100Y0112021D02*
X0261900Y0112021D01*
X0261900Y0113020D02*
X0271100Y0113020D01*
X0271421Y0114018D02*
X0261579Y0114018D01*
X0261166Y0115017D02*
X0271834Y0115017D01*
X0267023Y0119011D02*
X0255977Y0119011D01*
X0256450Y0120009D02*
X0266550Y0120009D01*
X0266137Y0121008D02*
X0256863Y0121008D01*
X0256900Y0122006D02*
X0266100Y0122006D01*
X0266100Y0123005D02*
X0256900Y0123005D01*
X0256586Y0124003D02*
X0266414Y0124003D01*
X0266828Y0125002D02*
X0256172Y0125002D01*
X0255306Y0126000D02*
X0267694Y0126000D01*
X0269047Y0126999D02*
X0253953Y0126999D01*
X0249047Y0126999D02*
X0223953Y0126999D01*
X0224559Y0126748D02*
X0222574Y0127570D01*
X0220426Y0127570D01*
X0218441Y0126748D01*
X0216922Y0125229D01*
X0216100Y0123244D01*
X0216100Y0121096D01*
X0216922Y0119111D01*
X0218441Y0117592D01*
X0220426Y0116770D01*
X0222574Y0116770D01*
X0224559Y0117592D01*
X0226078Y0119111D01*
X0226900Y0121096D01*
X0226900Y0123244D01*
X0226078Y0125229D01*
X0224559Y0126748D01*
X0225306Y0126000D02*
X0247694Y0126000D01*
X0246828Y0125002D02*
X0226172Y0125002D01*
X0226586Y0124003D02*
X0246414Y0124003D01*
X0246100Y0123005D02*
X0226900Y0123005D01*
X0226900Y0122006D02*
X0246100Y0122006D01*
X0246137Y0121008D02*
X0226863Y0121008D01*
X0226450Y0120009D02*
X0246550Y0120009D01*
X0247023Y0119011D02*
X0225977Y0119011D01*
X0224979Y0118012D02*
X0248021Y0118012D01*
X0249838Y0117014D02*
X0228420Y0117014D01*
X0226886Y0117014D02*
X0226114Y0117014D01*
X0226114Y0116015D02*
X0226886Y0116015D01*
X0226886Y0115017D02*
X0226114Y0115017D01*
X0226114Y0114018D02*
X0226886Y0114018D01*
X0226886Y0113020D02*
X0226114Y0113020D01*
X0226114Y0112021D02*
X0207261Y0112021D01*
X0200715Y0114018D02*
X0161416Y0114018D01*
X0160937Y0114018D02*
X0159937Y0114018D01*
X0159937Y0113020D02*
X0160937Y0113020D01*
X0160937Y0112021D02*
X0159937Y0112021D01*
X0159937Y0111022D02*
X0160937Y0111022D01*
X0160937Y0110024D02*
X0159937Y0110024D01*
X0159937Y0109025D02*
X0160937Y0109025D01*
X0163759Y0113020D02*
X0198863Y0113020D01*
X0197865Y0112021D02*
X0164820Y0112021D01*
X0165459Y0111022D02*
X0197306Y0111022D01*
X0196893Y0110024D02*
X0165856Y0110024D01*
X0166053Y0109025D02*
X0196729Y0109025D01*
X0204687Y0103034D02*
X0283753Y0103034D01*
X0283800Y0104033D02*
X0206377Y0104033D01*
X0207376Y0105031D02*
X0283800Y0105031D01*
X0282755Y0102036D02*
X0136400Y0102036D01*
X0136335Y0101037D02*
X0281756Y0101037D01*
X0280758Y0100039D02*
X0135921Y0100039D01*
X0135300Y0099040D02*
X0279759Y0099040D01*
X0278761Y0098042D02*
X0134302Y0098042D01*
X0134200Y0097043D02*
X0277762Y0097043D01*
X0276764Y0096045D02*
X0134200Y0096045D01*
X0134200Y0095046D02*
X0275765Y0095046D01*
X0274767Y0094048D02*
X0134200Y0094048D01*
X0134332Y0093049D02*
X0273768Y0093049D01*
X0272770Y0092051D02*
X0135330Y0092051D01*
X0136329Y0091052D02*
X0208094Y0091052D01*
X0208281Y0091239D02*
X0206931Y0089889D01*
X0206200Y0088125D01*
X0206200Y0086215D01*
X0206931Y0084451D01*
X0208281Y0083101D01*
X0210045Y0082370D01*
X0211955Y0082370D01*
X0213719Y0083101D01*
X0215069Y0084451D01*
X0215800Y0086215D01*
X0215800Y0088125D01*
X0215069Y0089889D01*
X0213719Y0091239D01*
X0211955Y0091970D01*
X0210045Y0091970D01*
X0208281Y0091239D01*
X0207096Y0090054D02*
X0137327Y0090054D01*
X0138326Y0089055D02*
X0206585Y0089055D01*
X0206200Y0088057D02*
X0139324Y0088057D01*
X0140323Y0087058D02*
X0206200Y0087058D01*
X0206264Y0086060D02*
X0141321Y0086060D01*
X0142320Y0085061D02*
X0206678Y0085061D01*
X0207319Y0084063D02*
X0143318Y0084063D01*
X0144317Y0083064D02*
X0208369Y0083064D01*
X0213631Y0083064D02*
X0218369Y0083064D01*
X0218281Y0083101D02*
X0220045Y0082370D01*
X0221955Y0082370D01*
X0223719Y0083101D01*
X0225069Y0084451D01*
X0225800Y0086215D01*
X0225800Y0088125D01*
X0225069Y0089889D01*
X0223719Y0091239D01*
X0221955Y0091970D01*
X0220045Y0091970D01*
X0218281Y0091239D01*
X0216931Y0089889D01*
X0216200Y0088125D01*
X0216200Y0086215D01*
X0216931Y0084451D01*
X0218281Y0083101D01*
X0217319Y0084063D02*
X0214681Y0084063D01*
X0215322Y0085061D02*
X0216678Y0085061D01*
X0216264Y0086060D02*
X0215736Y0086060D01*
X0215800Y0087058D02*
X0216200Y0087058D01*
X0216200Y0088057D02*
X0215800Y0088057D01*
X0215415Y0089055D02*
X0216585Y0089055D01*
X0217096Y0090054D02*
X0214904Y0090054D01*
X0213906Y0091052D02*
X0218094Y0091052D01*
X0223906Y0091052D02*
X0228094Y0091052D01*
X0228281Y0091239D02*
X0226931Y0089889D01*
X0226200Y0088125D01*
X0226200Y0086215D01*
X0226931Y0084451D01*
X0228281Y0083101D01*
X0230045Y0082370D01*
X0231955Y0082370D01*
X0233719Y0083101D01*
X0235069Y0084451D01*
X0235800Y0086215D01*
X0235800Y0088125D01*
X0235069Y0089889D01*
X0233719Y0091239D01*
X0231955Y0091970D01*
X0230045Y0091970D01*
X0228281Y0091239D01*
X0227096Y0090054D02*
X0224904Y0090054D01*
X0225415Y0089055D02*
X0226585Y0089055D01*
X0226200Y0088057D02*
X0225800Y0088057D01*
X0225800Y0087058D02*
X0226200Y0087058D01*
X0226264Y0086060D02*
X0225736Y0086060D01*
X0225322Y0085061D02*
X0226678Y0085061D01*
X0227319Y0084063D02*
X0224681Y0084063D01*
X0223631Y0083064D02*
X0228369Y0083064D01*
X0233631Y0083064D02*
X0238369Y0083064D01*
X0238281Y0083101D02*
X0240045Y0082370D01*
X0241955Y0082370D01*
X0243719Y0083101D01*
X0245069Y0084451D01*
X0245800Y0086215D01*
X0245800Y0088125D01*
X0245069Y0089889D01*
X0243719Y0091239D01*
X0241955Y0091970D01*
X0240045Y0091970D01*
X0238281Y0091239D01*
X0236931Y0089889D01*
X0236200Y0088125D01*
X0236200Y0086215D01*
X0236931Y0084451D01*
X0238281Y0083101D01*
X0237319Y0084063D02*
X0234681Y0084063D01*
X0235322Y0085061D02*
X0236678Y0085061D01*
X0236264Y0086060D02*
X0235736Y0086060D01*
X0235800Y0087058D02*
X0236200Y0087058D01*
X0236200Y0088057D02*
X0235800Y0088057D01*
X0235415Y0089055D02*
X0236585Y0089055D01*
X0237096Y0090054D02*
X0234904Y0090054D01*
X0233906Y0091052D02*
X0238094Y0091052D01*
X0243906Y0091052D02*
X0248094Y0091052D01*
X0248281Y0091239D02*
X0246931Y0089889D01*
X0246200Y0088125D01*
X0246200Y0086215D01*
X0246931Y0084451D01*
X0248281Y0083101D01*
X0250045Y0082370D01*
X0251955Y0082370D01*
X0253719Y0083101D01*
X0255069Y0084451D01*
X0255800Y0086215D01*
X0255800Y0088125D01*
X0255069Y0089889D01*
X0253719Y0091239D01*
X0251955Y0091970D01*
X0250045Y0091970D01*
X0248281Y0091239D01*
X0247096Y0090054D02*
X0244904Y0090054D01*
X0245415Y0089055D02*
X0246585Y0089055D01*
X0246200Y0088057D02*
X0245800Y0088057D01*
X0245800Y0087058D02*
X0246200Y0087058D01*
X0246264Y0086060D02*
X0245736Y0086060D01*
X0245322Y0085061D02*
X0246678Y0085061D01*
X0247319Y0084063D02*
X0244681Y0084063D01*
X0243631Y0083064D02*
X0248369Y0083064D01*
X0253631Y0083064D02*
X0258369Y0083064D01*
X0258281Y0083101D02*
X0260045Y0082370D01*
X0261955Y0082370D01*
X0263719Y0083101D01*
X0265069Y0084451D01*
X0265800Y0086215D01*
X0265800Y0088125D01*
X0265069Y0089889D01*
X0263719Y0091239D01*
X0261955Y0091970D01*
X0260045Y0091970D01*
X0258281Y0091239D01*
X0256931Y0089889D01*
X0256200Y0088125D01*
X0256200Y0086215D01*
X0256931Y0084451D01*
X0258281Y0083101D01*
X0257319Y0084063D02*
X0254681Y0084063D01*
X0255322Y0085061D02*
X0256678Y0085061D01*
X0256264Y0086060D02*
X0255736Y0086060D01*
X0255800Y0087058D02*
X0256200Y0087058D01*
X0256200Y0088057D02*
X0255800Y0088057D01*
X0255415Y0089055D02*
X0256585Y0089055D01*
X0257096Y0090054D02*
X0254904Y0090054D01*
X0253906Y0091052D02*
X0258094Y0091052D01*
X0263906Y0091052D02*
X0268094Y0091052D01*
X0267096Y0090054D02*
X0264904Y0090054D01*
X0265415Y0089055D02*
X0266585Y0089055D01*
X0266200Y0088057D02*
X0265800Y0088057D01*
X0265800Y0087058D02*
X0266200Y0087058D01*
X0266264Y0086060D02*
X0265736Y0086060D01*
X0265322Y0085061D02*
X0266678Y0085061D01*
X0267319Y0084063D02*
X0264681Y0084063D01*
X0263631Y0083064D02*
X0268369Y0083064D01*
X0281000Y0087170D02*
X0291600Y0097770D01*
X0291600Y0123070D01*
X0283000Y0131670D01*
X0283000Y0173670D01*
X0296500Y0187170D01*
X0301626Y0188906D02*
X0342409Y0188906D01*
X0343536Y0174927D02*
X0358501Y0174927D01*
X0358501Y0173929D02*
X0345116Y0173929D01*
X0346114Y0172930D02*
X0358501Y0172930D01*
X0358501Y0171932D02*
X0347113Y0171932D01*
X0347837Y0170933D02*
X0358501Y0170933D01*
X0358501Y0169935D02*
X0348414Y0169935D01*
X0348990Y0168936D02*
X0358501Y0168936D01*
X0358501Y0167938D02*
X0349406Y0167938D01*
X0349673Y0166939D02*
X0358501Y0166939D01*
X0358501Y0165941D02*
X0349941Y0165941D01*
X0350200Y0164942D02*
X0358501Y0164942D01*
X0358501Y0163944D02*
X0350200Y0163944D01*
X0350200Y0162945D02*
X0358501Y0162945D01*
X0358501Y0161947D02*
X0350200Y0161947D01*
X0350088Y0160948D02*
X0358501Y0160948D01*
X0358501Y0159950D02*
X0349820Y0159950D01*
X0349553Y0158951D02*
X0358501Y0158951D01*
X0358501Y0157953D02*
X0349285Y0157953D01*
X0348731Y0156954D02*
X0358501Y0156954D01*
X0358501Y0155955D02*
X0348154Y0155955D01*
X0347578Y0154957D02*
X0358501Y0154957D01*
X0358501Y0153958D02*
X0346663Y0153958D01*
X0345665Y0152960D02*
X0358501Y0152960D01*
X0358501Y0151961D02*
X0344486Y0151961D01*
X0342757Y0150963D02*
X0358501Y0150963D01*
X0358501Y0149964D02*
X0340149Y0149964D01*
X0319575Y0136984D02*
X0303460Y0136984D01*
X0303489Y0137170D02*
X0298500Y0137170D01*
X0298500Y0132180D01*
X0299288Y0132305D01*
X0300111Y0132573D01*
X0300883Y0132966D01*
X0301583Y0133475D01*
X0302195Y0134087D01*
X0302704Y0134787D01*
X0303097Y0135559D01*
X0303365Y0136382D01*
X0303489Y0137170D01*
X0303236Y0135985D02*
X0320573Y0135985D01*
X0321572Y0134987D02*
X0302806Y0134987D01*
X0302097Y0133988D02*
X0322570Y0133988D01*
X0323569Y0132990D02*
X0300916Y0132990D01*
X0298500Y0132990D02*
X0297500Y0132990D01*
X0297500Y0133988D02*
X0298500Y0133988D01*
X0298500Y0134987D02*
X0297500Y0134987D01*
X0297500Y0135985D02*
X0298500Y0135985D01*
X0298500Y0136984D02*
X0297500Y0136984D01*
X0297500Y0137982D02*
X0285200Y0137982D01*
X0285200Y0136984D02*
X0292540Y0136984D01*
X0292764Y0135985D02*
X0285200Y0135985D01*
X0285200Y0134987D02*
X0293194Y0134987D01*
X0293903Y0133988D02*
X0285200Y0133988D01*
X0285200Y0132990D02*
X0295084Y0132990D01*
X0298500Y0137982D02*
X0318576Y0137982D01*
X0317578Y0138981D02*
X0303357Y0138981D01*
X0302996Y0139979D02*
X0316579Y0139979D01*
X0315581Y0140978D02*
X0302395Y0140978D01*
X0301430Y0141976D02*
X0314582Y0141976D01*
X0313584Y0142975D02*
X0299471Y0142975D01*
X0301365Y0143973D02*
X0312585Y0143973D01*
X0311587Y0144972D02*
X0302363Y0144972D01*
X0303051Y0145970D02*
X0310588Y0145970D01*
X0311000Y0148670D02*
X0346500Y0113170D01*
X0346500Y0104170D01*
X0350800Y0099870D01*
X0350800Y0062170D01*
X0181500Y0062170D01*
X0181200Y0062170D01*
X0167100Y0048070D01*
X0153000Y0062170D01*
X0151500Y0062170D01*
X0151500Y0072770D01*
X0132000Y0092270D01*
X0132000Y0101670D01*
X0131500Y0102170D01*
X0127079Y0100039D02*
X0125921Y0100039D01*
X0126335Y0101037D02*
X0126665Y0101037D01*
X0126600Y0102036D02*
X0126400Y0102036D01*
X0126400Y0103034D02*
X0126600Y0103034D01*
X0126968Y0104033D02*
X0126032Y0104033D01*
X0125568Y0105031D02*
X0127432Y0105031D01*
X0128430Y0106030D02*
X0124570Y0106030D01*
X0118430Y0106030D02*
X0114570Y0106030D01*
X0115568Y0105031D02*
X0117432Y0105031D01*
X0116968Y0104033D02*
X0116032Y0104033D01*
X0116400Y0103034D02*
X0116600Y0103034D01*
X0116600Y0102036D02*
X0116400Y0102036D01*
X0116335Y0101037D02*
X0116665Y0101037D01*
X0117079Y0100039D02*
X0115921Y0100039D01*
X0115300Y0099040D02*
X0117700Y0099040D01*
X0118698Y0098042D02*
X0114302Y0098042D01*
X0108698Y0098042D02*
X0104302Y0098042D01*
X0103600Y0097043D02*
X0129800Y0097043D01*
X0129800Y0096045D02*
X0103600Y0096045D01*
X0103600Y0095046D02*
X0129800Y0095046D01*
X0129800Y0094048D02*
X0103600Y0094048D01*
X0103600Y0093049D02*
X0129800Y0093049D01*
X0129800Y0092051D02*
X0103600Y0092051D01*
X0103600Y0091052D02*
X0130106Y0091052D01*
X0131105Y0090054D02*
X0103600Y0090054D01*
X0103600Y0089055D02*
X0132103Y0089055D01*
X0133102Y0088057D02*
X0103600Y0088057D01*
X0103600Y0087058D02*
X0134100Y0087058D01*
X0135099Y0086060D02*
X0103600Y0086060D01*
X0103600Y0085061D02*
X0136097Y0085061D01*
X0137096Y0084063D02*
X0103600Y0084063D01*
X0103406Y0083064D02*
X0138094Y0083064D01*
X0139093Y0082066D02*
X0102407Y0082066D01*
X0101409Y0081067D02*
X0140091Y0081067D01*
X0141090Y0080069D02*
X0100410Y0080069D01*
X0099412Y0079070D02*
X0142088Y0079070D01*
X0143087Y0078072D02*
X0098413Y0078072D01*
X0097415Y0077073D02*
X0144085Y0077073D01*
X0145084Y0076075D02*
X0134122Y0076075D01*
X0133963Y0076190D02*
X0133304Y0076526D01*
X0132601Y0076754D01*
X0131870Y0076870D01*
X0131800Y0076870D01*
X0131800Y0072470D01*
X0131200Y0072470D01*
X0131200Y0076870D01*
X0131130Y0076870D01*
X0130399Y0076754D01*
X0129696Y0076526D01*
X0129037Y0076190D01*
X0128438Y0075755D01*
X0127915Y0075232D01*
X0127480Y0074633D01*
X0127144Y0073974D01*
X0126916Y0073270D01*
X0126800Y0072540D01*
X0126800Y0072470D01*
X0131200Y0072470D01*
X0131200Y0071870D01*
X0126800Y0071870D01*
X0126800Y0071800D01*
X0126916Y0071069D01*
X0127144Y0070366D01*
X0127480Y0069707D01*
X0127915Y0069108D01*
X0128438Y0068585D01*
X0129037Y0068150D01*
X0129696Y0067814D01*
X0130399Y0067586D01*
X0131130Y0067470D01*
X0131200Y0067470D01*
X0131200Y0071870D01*
X0131800Y0071870D01*
X0131800Y0072470D01*
X0136200Y0072470D01*
X0136200Y0072540D01*
X0136084Y0073270D01*
X0135856Y0073974D01*
X0135520Y0074633D01*
X0135085Y0075232D01*
X0134562Y0075755D01*
X0133963Y0076190D01*
X0135198Y0075076D02*
X0146083Y0075076D01*
X0147081Y0074078D02*
X0135803Y0074078D01*
X0136115Y0073079D02*
X0148080Y0073079D01*
X0149078Y0072081D02*
X0131800Y0072081D01*
X0131800Y0071870D02*
X0136200Y0071870D01*
X0136200Y0071800D01*
X0136084Y0071069D01*
X0135856Y0070366D01*
X0135520Y0069707D01*
X0135085Y0069108D01*
X0134562Y0068585D01*
X0133963Y0068150D01*
X0133304Y0067814D01*
X0132601Y0067586D01*
X0131870Y0067470D01*
X0131800Y0067470D01*
X0131800Y0071870D01*
X0131200Y0072081D02*
X0126400Y0072081D01*
X0126400Y0071195D02*
X0125654Y0069394D01*
X0124276Y0068016D01*
X0122475Y0067270D01*
X0120525Y0067270D01*
X0118724Y0068016D01*
X0117346Y0069394D01*
X0116600Y0071195D01*
X0116600Y0073145D01*
X0117346Y0074945D01*
X0118724Y0076324D01*
X0120525Y0077070D01*
X0122475Y0077070D01*
X0124276Y0076324D01*
X0125654Y0074945D01*
X0126400Y0073145D01*
X0126400Y0071195D01*
X0126353Y0071082D02*
X0126914Y0071082D01*
X0127288Y0070084D02*
X0125940Y0070084D01*
X0125345Y0069085D02*
X0127938Y0069085D01*
X0129161Y0068087D02*
X0124346Y0068087D01*
X0118654Y0068087D02*
X0114346Y0068087D01*
X0114276Y0068016D02*
X0115654Y0069394D01*
X0116400Y0071195D01*
X0116400Y0073145D01*
X0115654Y0074945D01*
X0114276Y0076324D01*
X0112475Y0077070D01*
X0110525Y0077070D01*
X0108724Y0076324D01*
X0107346Y0074945D01*
X0106600Y0073145D01*
X0106600Y0071195D01*
X0107346Y0069394D01*
X0108724Y0068016D01*
X0110525Y0067270D01*
X0112475Y0067270D01*
X0114276Y0068016D01*
X0115345Y0069085D02*
X0117655Y0069085D01*
X0117060Y0070084D02*
X0115940Y0070084D01*
X0116353Y0071082D02*
X0116647Y0071082D01*
X0116600Y0072081D02*
X0116400Y0072081D01*
X0116400Y0073079D02*
X0116600Y0073079D01*
X0116986Y0074078D02*
X0116014Y0074078D01*
X0115523Y0075076D02*
X0117477Y0075076D01*
X0118475Y0076075D02*
X0114525Y0076075D01*
X0108475Y0076075D02*
X0104525Y0076075D01*
X0104276Y0076324D02*
X0102475Y0077070D01*
X0100525Y0077070D01*
X0098724Y0076324D01*
X0097346Y0074945D01*
X0096600Y0073145D01*
X0096600Y0071195D01*
X0097346Y0069394D01*
X0098724Y0068016D01*
X0100525Y0067270D01*
X0102475Y0067270D01*
X0104276Y0068016D01*
X0105654Y0069394D01*
X0106400Y0071195D01*
X0106400Y0073145D01*
X0105654Y0074945D01*
X0104276Y0076324D01*
X0105523Y0075076D02*
X0107477Y0075076D01*
X0106986Y0074078D02*
X0106014Y0074078D01*
X0106400Y0073079D02*
X0106600Y0073079D01*
X0106600Y0072081D02*
X0106400Y0072081D01*
X0106353Y0071082D02*
X0106647Y0071082D01*
X0107060Y0070084D02*
X0105940Y0070084D01*
X0105345Y0069085D02*
X0107655Y0069085D01*
X0108654Y0068087D02*
X0104346Y0068087D01*
X0098654Y0068087D02*
X0094100Y0068087D01*
X0094100Y0069085D02*
X0097655Y0069085D01*
X0097060Y0070084D02*
X0094100Y0070084D01*
X0094100Y0071082D02*
X0096647Y0071082D01*
X0096600Y0072081D02*
X0094100Y0072081D01*
X0094100Y0073079D02*
X0096600Y0073079D01*
X0096986Y0074078D02*
X0094419Y0074078D01*
X0095417Y0075076D02*
X0097477Y0075076D01*
X0098475Y0076075D02*
X0096416Y0076075D01*
X0092190Y0078072D02*
X0085038Y0078072D01*
X0084559Y0077592D02*
X0086078Y0079111D01*
X0086900Y0081096D01*
X0086900Y0083244D01*
X0086078Y0085229D01*
X0084559Y0086748D01*
X0082574Y0087570D01*
X0080426Y0087570D01*
X0078441Y0086748D01*
X0076922Y0085229D01*
X0076100Y0083244D01*
X0076100Y0081096D01*
X0076922Y0079111D01*
X0078441Y0077592D01*
X0080426Y0076770D01*
X0082574Y0076770D01*
X0084559Y0077592D01*
X0083306Y0077073D02*
X0091192Y0077073D01*
X0090193Y0076075D02*
X0049200Y0076075D01*
X0049200Y0077073D02*
X0064694Y0077073D01*
X0065426Y0076770D02*
X0063441Y0077592D01*
X0061922Y0079111D01*
X0061100Y0081096D01*
X0061100Y0083244D01*
X0061922Y0085229D01*
X0063441Y0086748D01*
X0065426Y0087570D01*
X0067574Y0087570D01*
X0069559Y0086748D01*
X0071078Y0085229D01*
X0071900Y0083244D01*
X0071900Y0081096D01*
X0071078Y0079111D01*
X0069559Y0077592D01*
X0067574Y0076770D01*
X0065426Y0076770D01*
X0062961Y0078072D02*
X0049200Y0078072D01*
X0049200Y0079070D02*
X0061963Y0079070D01*
X0061525Y0080069D02*
X0049200Y0080069D01*
X0049200Y0081067D02*
X0061112Y0081067D01*
X0061100Y0082066D02*
X0049200Y0082066D01*
X0049200Y0083064D02*
X0061100Y0083064D01*
X0061439Y0084063D02*
X0049200Y0084063D01*
X0049200Y0085061D02*
X0061853Y0085061D01*
X0062753Y0086060D02*
X0049200Y0086060D01*
X0049200Y0087058D02*
X0064191Y0087058D01*
X0068809Y0087058D02*
X0079191Y0087058D01*
X0077753Y0086060D02*
X0070247Y0086060D01*
X0071147Y0085061D02*
X0076853Y0085061D01*
X0076439Y0084063D02*
X0071561Y0084063D01*
X0071900Y0083064D02*
X0076100Y0083064D01*
X0076100Y0082066D02*
X0071900Y0082066D01*
X0071888Y0081067D02*
X0076112Y0081067D01*
X0076525Y0080069D02*
X0071475Y0080069D01*
X0071037Y0079070D02*
X0076963Y0079070D01*
X0077961Y0078072D02*
X0070038Y0078072D01*
X0068306Y0077073D02*
X0079694Y0077073D01*
X0086037Y0079070D02*
X0093189Y0079070D01*
X0094187Y0080069D02*
X0086475Y0080069D01*
X0086888Y0081067D02*
X0095186Y0081067D01*
X0096185Y0082066D02*
X0086900Y0082066D01*
X0086900Y0083064D02*
X0097183Y0083064D01*
X0098182Y0084063D02*
X0086561Y0084063D01*
X0086147Y0085061D02*
X0099180Y0085061D01*
X0099200Y0086060D02*
X0085247Y0086060D01*
X0083809Y0087058D02*
X0099200Y0087058D01*
X0099200Y0088057D02*
X0049200Y0088057D01*
X0049200Y0089055D02*
X0099200Y0089055D01*
X0099200Y0090054D02*
X0049200Y0090054D01*
X0049200Y0091052D02*
X0099200Y0091052D01*
X0099200Y0092051D02*
X0049200Y0092051D01*
X0049200Y0093049D02*
X0099200Y0093049D01*
X0099200Y0094048D02*
X0049200Y0094048D01*
X0049200Y0095046D02*
X0099200Y0095046D01*
X0099200Y0096045D02*
X0049200Y0096045D01*
X0049200Y0097043D02*
X0099200Y0097043D01*
X0098698Y0098042D02*
X0049200Y0098042D01*
X0049200Y0099040D02*
X0097700Y0099040D01*
X0097079Y0100039D02*
X0049200Y0100039D01*
X0049200Y0101037D02*
X0096665Y0101037D01*
X0096600Y0102036D02*
X0049500Y0102036D01*
X0050926Y0103034D02*
X0096600Y0103034D01*
X0096968Y0104033D02*
X0051870Y0104033D01*
X0052284Y0105031D02*
X0097432Y0105031D01*
X0098430Y0106030D02*
X0052697Y0106030D01*
X0047000Y0107170D02*
X0047000Y0063883D01*
X0045893Y0062776D01*
X0045393Y0062776D01*
X0026287Y0043670D01*
X0022000Y0043670D01*
X0013500Y0052170D01*
X0013500Y0061670D01*
X0014000Y0062170D01*
X0008300Y0062095D02*
X0003200Y0062095D01*
X0003200Y0061097D02*
X0008300Y0061097D01*
X0008688Y0060098D02*
X0003200Y0060098D01*
X0003200Y0059100D02*
X0009102Y0059100D01*
X0010007Y0058101D02*
X0003200Y0058101D01*
X0003200Y0057103D02*
X0011300Y0057103D01*
X0011300Y0056104D02*
X0003200Y0056104D01*
X0003200Y0055106D02*
X0011300Y0055106D01*
X0011300Y0054107D02*
X0003200Y0054107D01*
X0003200Y0053109D02*
X0011300Y0053109D01*
X0011300Y0052110D02*
X0003200Y0052110D01*
X0003200Y0051112D02*
X0011447Y0051112D01*
X0012445Y0050113D02*
X0003200Y0050113D01*
X0003200Y0049115D02*
X0013444Y0049115D01*
X0014442Y0048116D02*
X0003200Y0048116D01*
X0003200Y0047118D02*
X0015441Y0047118D01*
X0016439Y0046119D02*
X0003200Y0046119D01*
X0003200Y0045121D02*
X0017438Y0045121D01*
X0018436Y0044122D02*
X0003200Y0044122D01*
X0003200Y0043124D02*
X0019435Y0043124D01*
X0020433Y0042125D02*
X0003200Y0042125D01*
X0003200Y0041127D02*
X0061707Y0041127D01*
X0061707Y0040489D02*
X0061707Y0042637D01*
X0062529Y0044622D01*
X0064048Y0046141D01*
X0066032Y0046963D01*
X0068181Y0046963D01*
X0070165Y0046141D01*
X0071684Y0044622D01*
X0072507Y0042637D01*
X0072507Y0040489D01*
X0071684Y0038504D01*
X0070165Y0036985D01*
X0068181Y0036163D01*
X0066032Y0036163D01*
X0064048Y0036985D01*
X0062529Y0038504D01*
X0061707Y0040489D01*
X0061856Y0040128D02*
X0003200Y0040128D01*
X0003200Y0039130D02*
X0062270Y0039130D01*
X0062902Y0038131D02*
X0003200Y0038131D01*
X0003200Y0037133D02*
X0063900Y0037133D01*
X0061707Y0042125D02*
X0027853Y0042125D01*
X0028852Y0043124D02*
X0061908Y0043124D01*
X0062322Y0044122D02*
X0029850Y0044122D01*
X0030849Y0045121D02*
X0063027Y0045121D01*
X0064026Y0046119D02*
X0031847Y0046119D01*
X0032846Y0047118D02*
X0087193Y0047118D01*
X0086779Y0046119D02*
X0070187Y0046119D01*
X0071186Y0045121D02*
X0086540Y0045121D01*
X0086540Y0044122D02*
X0071892Y0044122D01*
X0072305Y0043124D02*
X0086652Y0043124D01*
X0087066Y0042125D02*
X0072507Y0042125D01*
X0072507Y0041127D02*
X0087645Y0041127D01*
X0088643Y0040128D02*
X0072357Y0040128D01*
X0071943Y0039130D02*
X0090717Y0039130D01*
X0093163Y0039130D02*
X0164900Y0039130D01*
X0164900Y0040128D02*
X0095237Y0040128D01*
X0096235Y0041127D02*
X0164900Y0041127D01*
X0164900Y0042125D02*
X0096815Y0042125D01*
X0097228Y0043124D02*
X0164900Y0043124D01*
X0164900Y0044122D02*
X0097340Y0044122D01*
X0097340Y0045121D02*
X0164900Y0045121D01*
X0164900Y0046119D02*
X0097101Y0046119D01*
X0096687Y0047118D02*
X0164900Y0047118D01*
X0163942Y0048116D02*
X0095928Y0048116D01*
X0094833Y0049115D02*
X0162944Y0049115D01*
X0161945Y0050113D02*
X0094100Y0050113D01*
X0094100Y0051112D02*
X0160947Y0051112D01*
X0159948Y0052110D02*
X0094100Y0052110D01*
X0094100Y0053109D02*
X0158950Y0053109D01*
X0157951Y0054107D02*
X0094100Y0054107D01*
X0094100Y0055106D02*
X0156953Y0055106D01*
X0155954Y0056104D02*
X0094100Y0056104D01*
X0094100Y0057103D02*
X0149622Y0057103D01*
X0147932Y0058101D02*
X0094100Y0058101D01*
X0094100Y0059100D02*
X0146933Y0059100D01*
X0146513Y0060098D02*
X0094100Y0060098D01*
X0094100Y0061097D02*
X0146100Y0061097D01*
X0146100Y0062095D02*
X0094100Y0062095D01*
X0094100Y0063094D02*
X0146100Y0063094D01*
X0146451Y0064092D02*
X0094100Y0064092D01*
X0094100Y0065091D02*
X0146865Y0065091D01*
X0147783Y0066089D02*
X0094100Y0066089D01*
X0094100Y0067088D02*
X0149263Y0067088D01*
X0149300Y0068087D02*
X0133839Y0068087D01*
X0135062Y0069085D02*
X0149300Y0069085D01*
X0149300Y0070084D02*
X0135712Y0070084D01*
X0136086Y0071082D02*
X0149300Y0071082D01*
X0153700Y0071082D02*
X0348600Y0071082D01*
X0348600Y0070084D02*
X0153700Y0070084D01*
X0153700Y0069085D02*
X0348600Y0069085D01*
X0348600Y0068087D02*
X0153700Y0068087D01*
X0153737Y0067088D02*
X0164263Y0067088D01*
X0163441Y0066748D02*
X0161922Y0065229D01*
X0161100Y0063244D01*
X0161100Y0061096D01*
X0161922Y0059111D01*
X0163441Y0057592D01*
X0165426Y0056770D01*
X0167574Y0056770D01*
X0169559Y0057592D01*
X0171078Y0059111D01*
X0171900Y0061096D01*
X0171900Y0063244D01*
X0171078Y0065229D01*
X0169559Y0066748D01*
X0167574Y0067570D01*
X0165426Y0067570D01*
X0163441Y0066748D01*
X0162783Y0066089D02*
X0155217Y0066089D01*
X0156135Y0065091D02*
X0161865Y0065091D01*
X0161451Y0064092D02*
X0156549Y0064092D01*
X0156900Y0063094D02*
X0161100Y0063094D01*
X0161100Y0062095D02*
X0156900Y0062095D01*
X0157184Y0061097D02*
X0161100Y0061097D01*
X0161513Y0060098D02*
X0158183Y0060098D01*
X0159181Y0059100D02*
X0161933Y0059100D01*
X0162932Y0058101D02*
X0160180Y0058101D01*
X0161178Y0057103D02*
X0164622Y0057103D01*
X0163175Y0055106D02*
X0171025Y0055106D01*
X0172023Y0056104D02*
X0162177Y0056104D01*
X0164174Y0054107D02*
X0170026Y0054107D01*
X0169028Y0053109D02*
X0165172Y0053109D01*
X0166171Y0052110D02*
X0168029Y0052110D01*
X0172255Y0050113D02*
X0341332Y0050113D01*
X0340334Y0049115D02*
X0171256Y0049115D01*
X0170258Y0048116D02*
X0339335Y0048116D01*
X0338600Y0047118D02*
X0169300Y0047118D01*
X0169300Y0046119D02*
X0338600Y0046119D01*
X0338600Y0045121D02*
X0169300Y0045121D01*
X0169300Y0044122D02*
X0338600Y0044122D01*
X0338600Y0043124D02*
X0169300Y0043124D01*
X0169300Y0042125D02*
X0338600Y0042125D01*
X0338600Y0041127D02*
X0169300Y0041127D01*
X0169300Y0040128D02*
X0338600Y0040128D01*
X0338600Y0039130D02*
X0169300Y0039130D01*
X0169300Y0038131D02*
X0338600Y0038131D01*
X0338600Y0037133D02*
X0254148Y0037133D01*
X0255147Y0036134D02*
X0338600Y0036134D01*
X0338600Y0035136D02*
X0256145Y0035136D01*
X0257144Y0034137D02*
X0338600Y0034137D01*
X0338600Y0033139D02*
X0258143Y0033139D01*
X0259141Y0032140D02*
X0338600Y0032140D01*
X0338184Y0031142D02*
X0333816Y0031142D01*
X0333719Y0031239D02*
X0331955Y0031970D01*
X0330045Y0031970D01*
X0328281Y0031239D01*
X0326931Y0029889D01*
X0326200Y0028125D01*
X0326200Y0026215D01*
X0326931Y0024451D01*
X0328281Y0023101D01*
X0330045Y0022370D01*
X0331955Y0022370D01*
X0333719Y0023101D01*
X0335069Y0024451D01*
X0335800Y0026215D01*
X0335800Y0028125D01*
X0335069Y0029889D01*
X0333719Y0031239D01*
X0334815Y0030143D02*
X0337185Y0030143D01*
X0336622Y0029145D02*
X0335378Y0029145D01*
X0335791Y0028146D02*
X0336209Y0028146D01*
X0336200Y0027148D02*
X0335800Y0027148D01*
X0335773Y0026149D02*
X0336227Y0026149D01*
X0336641Y0025151D02*
X0335359Y0025151D01*
X0334770Y0024152D02*
X0337230Y0024152D01*
X0338228Y0023153D02*
X0333772Y0023153D01*
X0328228Y0023153D02*
X0323772Y0023153D01*
X0323719Y0023101D02*
X0325069Y0024451D01*
X0325800Y0026215D01*
X0325800Y0028125D01*
X0325069Y0029889D01*
X0323719Y0031239D01*
X0321955Y0031970D01*
X0320045Y0031970D01*
X0318281Y0031239D01*
X0316931Y0029889D01*
X0316200Y0028125D01*
X0316200Y0026215D01*
X0316931Y0024451D01*
X0318281Y0023101D01*
X0320045Y0022370D01*
X0321955Y0022370D01*
X0323719Y0023101D01*
X0324770Y0024152D02*
X0327230Y0024152D01*
X0326641Y0025151D02*
X0325359Y0025151D01*
X0325773Y0026149D02*
X0326227Y0026149D01*
X0326200Y0027148D02*
X0325800Y0027148D01*
X0325791Y0028146D02*
X0326209Y0028146D01*
X0326622Y0029145D02*
X0325378Y0029145D01*
X0324815Y0030143D02*
X0327185Y0030143D01*
X0328184Y0031142D02*
X0323816Y0031142D01*
X0318184Y0031142D02*
X0313816Y0031142D01*
X0313719Y0031239D02*
X0311955Y0031970D01*
X0310045Y0031970D01*
X0308281Y0031239D01*
X0306931Y0029889D01*
X0306200Y0028125D01*
X0306200Y0026215D01*
X0306931Y0024451D01*
X0308281Y0023101D01*
X0310045Y0022370D01*
X0311955Y0022370D01*
X0313719Y0023101D01*
X0315069Y0024451D01*
X0315800Y0026215D01*
X0315800Y0028125D01*
X0315069Y0029889D01*
X0313719Y0031239D01*
X0314815Y0030143D02*
X0317185Y0030143D01*
X0316622Y0029145D02*
X0315378Y0029145D01*
X0315791Y0028146D02*
X0316209Y0028146D01*
X0316200Y0027148D02*
X0315800Y0027148D01*
X0315773Y0026149D02*
X0316227Y0026149D01*
X0316641Y0025151D02*
X0315359Y0025151D01*
X0314770Y0024152D02*
X0317230Y0024152D01*
X0318228Y0023153D02*
X0313772Y0023153D01*
X0308228Y0023153D02*
X0303772Y0023153D01*
X0303719Y0023101D02*
X0305069Y0024451D01*
X0305800Y0026215D01*
X0305800Y0028125D01*
X0305069Y0029889D01*
X0303719Y0031239D01*
X0301955Y0031970D01*
X0300045Y0031970D01*
X0298281Y0031239D01*
X0296931Y0029889D01*
X0296200Y0028125D01*
X0296200Y0026215D01*
X0296931Y0024451D01*
X0298281Y0023101D01*
X0300045Y0022370D01*
X0301955Y0022370D01*
X0303719Y0023101D01*
X0304770Y0024152D02*
X0307230Y0024152D01*
X0306641Y0025151D02*
X0305359Y0025151D01*
X0305773Y0026149D02*
X0306227Y0026149D01*
X0306200Y0027148D02*
X0305800Y0027148D01*
X0305791Y0028146D02*
X0306209Y0028146D01*
X0306622Y0029145D02*
X0305378Y0029145D01*
X0304815Y0030143D02*
X0307185Y0030143D01*
X0308184Y0031142D02*
X0303816Y0031142D01*
X0298184Y0031142D02*
X0293816Y0031142D01*
X0293719Y0031239D02*
X0291955Y0031970D01*
X0290045Y0031970D01*
X0288281Y0031239D01*
X0286931Y0029889D01*
X0286200Y0028125D01*
X0286200Y0026215D01*
X0286931Y0024451D01*
X0288281Y0023101D01*
X0290045Y0022370D01*
X0291955Y0022370D01*
X0293719Y0023101D01*
X0295069Y0024451D01*
X0295800Y0026215D01*
X0295800Y0028125D01*
X0295069Y0029889D01*
X0293719Y0031239D01*
X0294815Y0030143D02*
X0297185Y0030143D01*
X0296622Y0029145D02*
X0295378Y0029145D01*
X0295791Y0028146D02*
X0296209Y0028146D01*
X0296200Y0027148D02*
X0295800Y0027148D01*
X0295773Y0026149D02*
X0296227Y0026149D01*
X0296641Y0025151D02*
X0295359Y0025151D01*
X0294770Y0024152D02*
X0297230Y0024152D01*
X0298228Y0023153D02*
X0293772Y0023153D01*
X0288228Y0023153D02*
X0283772Y0023153D01*
X0283719Y0023101D02*
X0285069Y0024451D01*
X0285800Y0026215D01*
X0285800Y0028125D01*
X0285069Y0029889D01*
X0283719Y0031239D01*
X0281955Y0031970D01*
X0280045Y0031970D01*
X0278281Y0031239D01*
X0276931Y0029889D01*
X0276200Y0028125D01*
X0276200Y0026215D01*
X0276931Y0024451D01*
X0278281Y0023101D01*
X0280045Y0022370D01*
X0281955Y0022370D01*
X0283719Y0023101D01*
X0284770Y0024152D02*
X0287230Y0024152D01*
X0286641Y0025151D02*
X0285359Y0025151D01*
X0285773Y0026149D02*
X0286227Y0026149D01*
X0286200Y0027148D02*
X0285800Y0027148D01*
X0285791Y0028146D02*
X0286209Y0028146D01*
X0286622Y0029145D02*
X0285378Y0029145D01*
X0284815Y0030143D02*
X0287185Y0030143D01*
X0288184Y0031142D02*
X0283816Y0031142D01*
X0278184Y0031142D02*
X0273816Y0031142D01*
X0273719Y0031239D02*
X0271955Y0031970D01*
X0270045Y0031970D01*
X0268281Y0031239D01*
X0266931Y0029889D01*
X0266200Y0028125D01*
X0266200Y0026215D01*
X0266931Y0024451D01*
X0268281Y0023101D01*
X0270045Y0022370D01*
X0271955Y0022370D01*
X0273719Y0023101D01*
X0275069Y0024451D01*
X0275800Y0026215D01*
X0275800Y0028125D01*
X0275069Y0029889D01*
X0273719Y0031239D01*
X0274815Y0030143D02*
X0277185Y0030143D01*
X0276622Y0029145D02*
X0275378Y0029145D01*
X0275791Y0028146D02*
X0276209Y0028146D01*
X0276200Y0027148D02*
X0275800Y0027148D01*
X0275773Y0026149D02*
X0276227Y0026149D01*
X0276641Y0025151D02*
X0275359Y0025151D01*
X0274770Y0024152D02*
X0277230Y0024152D01*
X0278228Y0023153D02*
X0273772Y0023153D01*
X0268228Y0023153D02*
X0263772Y0023153D01*
X0264770Y0024152D02*
X0267230Y0024152D01*
X0266641Y0025151D02*
X0265359Y0025151D01*
X0265773Y0026149D02*
X0266227Y0026149D01*
X0266200Y0027148D02*
X0265800Y0027148D01*
X0265791Y0028146D02*
X0266209Y0028146D01*
X0266622Y0029145D02*
X0265378Y0029145D01*
X0264815Y0030143D02*
X0267185Y0030143D01*
X0268184Y0031142D02*
X0263816Y0031142D01*
X0261000Y0027170D02*
X0252900Y0035270D01*
X0198600Y0035270D01*
X0182000Y0018670D01*
X0165000Y0018670D01*
X0151500Y0032170D01*
X0146100Y0032140D02*
X0024399Y0032140D01*
X0024299Y0032381D02*
X0021711Y0034969D01*
X0018330Y0036370D01*
X0014670Y0036370D01*
X0011289Y0034969D01*
X0008701Y0032381D01*
X0007300Y0029000D01*
X0007300Y0025340D01*
X0008701Y0021958D01*
X0011289Y0019370D01*
X0014670Y0017970D01*
X0018330Y0017970D01*
X0021711Y0019370D01*
X0024299Y0021958D01*
X0025700Y0025340D01*
X0025700Y0029000D01*
X0024299Y0032381D01*
X0023542Y0033139D02*
X0146100Y0033139D01*
X0146470Y0034137D02*
X0022544Y0034137D01*
X0021310Y0035136D02*
X0146884Y0035136D01*
X0147828Y0036134D02*
X0018899Y0036134D01*
X0014101Y0036134D02*
X0003200Y0036134D01*
X0003200Y0035136D02*
X0011690Y0035136D01*
X0010456Y0034137D02*
X0003200Y0034137D01*
X0003200Y0033139D02*
X0009458Y0033139D01*
X0008601Y0032140D02*
X0003200Y0032140D01*
X0003200Y0031142D02*
X0008187Y0031142D01*
X0007774Y0030143D02*
X0003200Y0030143D01*
X0003200Y0029145D02*
X0007360Y0029145D01*
X0007300Y0028146D02*
X0003200Y0028146D01*
X0003200Y0027148D02*
X0007300Y0027148D01*
X0007300Y0026149D02*
X0003200Y0026149D01*
X0003200Y0025151D02*
X0007378Y0025151D01*
X0007792Y0024152D02*
X0003200Y0024152D01*
X0003200Y0023153D02*
X0008206Y0023153D01*
X0008619Y0022155D02*
X0003200Y0022155D01*
X0003200Y0021156D02*
X0009503Y0021156D01*
X0010501Y0020158D02*
X0003200Y0020158D01*
X0003200Y0019159D02*
X0011798Y0019159D01*
X0014209Y0018161D02*
X0003200Y0018161D01*
X0003200Y0017162D02*
X0163396Y0017162D01*
X0162398Y0018161D02*
X0018791Y0018161D01*
X0021202Y0019159D02*
X0161399Y0019159D01*
X0160401Y0020158D02*
X0022499Y0020158D01*
X0023497Y0021156D02*
X0159402Y0021156D01*
X0158404Y0022155D02*
X0024381Y0022155D01*
X0024794Y0023153D02*
X0157405Y0023153D01*
X0156407Y0024152D02*
X0025208Y0024152D01*
X0025622Y0025151D02*
X0155408Y0025151D01*
X0154410Y0026149D02*
X0025700Y0026149D01*
X0025700Y0027148D02*
X0149514Y0027148D01*
X0147887Y0028146D02*
X0025700Y0028146D01*
X0025640Y0029145D02*
X0146908Y0029145D01*
X0146495Y0030143D02*
X0025226Y0030143D01*
X0024813Y0031142D02*
X0146100Y0031142D01*
X0155172Y0036134D02*
X0162828Y0036134D01*
X0161884Y0035136D02*
X0156116Y0035136D01*
X0156530Y0034137D02*
X0161470Y0034137D01*
X0161100Y0033139D02*
X0156900Y0033139D01*
X0156900Y0032140D02*
X0161100Y0032140D01*
X0161100Y0031142D02*
X0156900Y0031142D01*
X0156638Y0030143D02*
X0161495Y0030143D01*
X0161908Y0029145D02*
X0157637Y0029145D01*
X0158635Y0028146D02*
X0162887Y0028146D01*
X0164514Y0027148D02*
X0159634Y0027148D01*
X0160632Y0026149D02*
X0186368Y0026149D01*
X0187366Y0027148D02*
X0183486Y0027148D01*
X0182574Y0026770D02*
X0184559Y0027592D01*
X0186078Y0029111D01*
X0186900Y0031096D01*
X0186900Y0033244D01*
X0186078Y0035229D01*
X0184559Y0036748D01*
X0182574Y0037570D01*
X0180426Y0037570D01*
X0178441Y0036748D01*
X0176922Y0035229D01*
X0176100Y0033244D01*
X0176100Y0031096D01*
X0176922Y0029111D01*
X0178441Y0027592D01*
X0180426Y0026770D01*
X0182574Y0026770D01*
X0185113Y0028146D02*
X0188365Y0028146D01*
X0189363Y0029145D02*
X0186092Y0029145D01*
X0186505Y0030143D02*
X0190362Y0030143D01*
X0191360Y0031142D02*
X0186900Y0031142D01*
X0186900Y0032140D02*
X0192359Y0032140D01*
X0193357Y0033139D02*
X0186900Y0033139D01*
X0186530Y0034137D02*
X0194356Y0034137D01*
X0195354Y0035136D02*
X0186116Y0035136D01*
X0185172Y0036134D02*
X0196353Y0036134D01*
X0197352Y0037133D02*
X0183630Y0037133D01*
X0179370Y0037133D02*
X0169300Y0037133D01*
X0170172Y0036134D02*
X0177828Y0036134D01*
X0176884Y0035136D02*
X0171116Y0035136D01*
X0171530Y0034137D02*
X0176470Y0034137D01*
X0176100Y0033139D02*
X0171900Y0033139D01*
X0171900Y0032140D02*
X0176100Y0032140D01*
X0176100Y0031142D02*
X0171900Y0031142D01*
X0171505Y0030143D02*
X0176495Y0030143D01*
X0176908Y0029145D02*
X0171092Y0029145D01*
X0170113Y0028146D02*
X0177887Y0028146D01*
X0179514Y0027148D02*
X0168486Y0027148D01*
X0163628Y0023153D02*
X0183372Y0023153D01*
X0182374Y0022155D02*
X0164626Y0022155D01*
X0165625Y0021156D02*
X0181375Y0021156D01*
X0184371Y0024152D02*
X0162629Y0024152D01*
X0161631Y0025151D02*
X0185369Y0025151D01*
X0189595Y0023153D02*
X0208228Y0023153D01*
X0208281Y0023101D02*
X0210045Y0022370D01*
X0211955Y0022370D01*
X0213719Y0023101D01*
X0215069Y0024451D01*
X0215800Y0026215D01*
X0215800Y0028125D01*
X0215069Y0029889D01*
X0213719Y0031239D01*
X0211955Y0031970D01*
X0210045Y0031970D01*
X0208281Y0031239D01*
X0206931Y0029889D01*
X0206200Y0028125D01*
X0206200Y0026215D01*
X0206931Y0024451D01*
X0208281Y0023101D01*
X0207230Y0024152D02*
X0190593Y0024152D01*
X0191592Y0025151D02*
X0206641Y0025151D01*
X0206227Y0026149D02*
X0192590Y0026149D01*
X0193589Y0027148D02*
X0206200Y0027148D01*
X0206209Y0028146D02*
X0194587Y0028146D01*
X0195586Y0029145D02*
X0206622Y0029145D01*
X0207185Y0030143D02*
X0196584Y0030143D01*
X0197583Y0031142D02*
X0208184Y0031142D01*
X0213816Y0031142D02*
X0218184Y0031142D01*
X0218281Y0031239D02*
X0216931Y0029889D01*
X0216200Y0028125D01*
X0216200Y0026215D01*
X0216931Y0024451D01*
X0218281Y0023101D01*
X0220045Y0022370D01*
X0221955Y0022370D01*
X0223719Y0023101D01*
X0225069Y0024451D01*
X0225800Y0026215D01*
X0225800Y0028125D01*
X0225069Y0029889D01*
X0223719Y0031239D01*
X0221955Y0031970D01*
X0220045Y0031970D01*
X0218281Y0031239D01*
X0217185Y0030143D02*
X0214815Y0030143D01*
X0215378Y0029145D02*
X0216622Y0029145D01*
X0216209Y0028146D02*
X0215791Y0028146D01*
X0215800Y0027148D02*
X0216200Y0027148D01*
X0216227Y0026149D02*
X0215773Y0026149D01*
X0215359Y0025151D02*
X0216641Y0025151D01*
X0217230Y0024152D02*
X0214770Y0024152D01*
X0213772Y0023153D02*
X0218228Y0023153D01*
X0223772Y0023153D02*
X0228228Y0023153D01*
X0228281Y0023101D02*
X0230045Y0022370D01*
X0231955Y0022370D01*
X0233719Y0023101D01*
X0235069Y0024451D01*
X0235800Y0026215D01*
X0235800Y0028125D01*
X0235069Y0029889D01*
X0233719Y0031239D01*
X0231955Y0031970D01*
X0230045Y0031970D01*
X0228281Y0031239D01*
X0226931Y0029889D01*
X0226200Y0028125D01*
X0226200Y0026215D01*
X0226931Y0024451D01*
X0228281Y0023101D01*
X0227230Y0024152D02*
X0224770Y0024152D01*
X0225359Y0025151D02*
X0226641Y0025151D01*
X0226227Y0026149D02*
X0225773Y0026149D01*
X0225800Y0027148D02*
X0226200Y0027148D01*
X0226209Y0028146D02*
X0225791Y0028146D01*
X0225378Y0029145D02*
X0226622Y0029145D01*
X0227185Y0030143D02*
X0224815Y0030143D01*
X0223816Y0031142D02*
X0228184Y0031142D01*
X0233816Y0031142D02*
X0238184Y0031142D01*
X0238281Y0031239D02*
X0236931Y0029889D01*
X0236200Y0028125D01*
X0236200Y0026215D01*
X0236931Y0024451D01*
X0238281Y0023101D01*
X0240045Y0022370D01*
X0241955Y0022370D01*
X0243719Y0023101D01*
X0245069Y0024451D01*
X0245800Y0026215D01*
X0245800Y0028125D01*
X0245069Y0029889D01*
X0243719Y0031239D01*
X0241955Y0031970D01*
X0240045Y0031970D01*
X0238281Y0031239D01*
X0237185Y0030143D02*
X0234815Y0030143D01*
X0235378Y0029145D02*
X0236622Y0029145D01*
X0236209Y0028146D02*
X0235791Y0028146D01*
X0235800Y0027148D02*
X0236200Y0027148D01*
X0236227Y0026149D02*
X0235773Y0026149D01*
X0235359Y0025151D02*
X0236641Y0025151D01*
X0237230Y0024152D02*
X0234770Y0024152D01*
X0233772Y0023153D02*
X0238228Y0023153D01*
X0243772Y0023153D02*
X0248228Y0023153D01*
X0248281Y0023101D02*
X0250045Y0022370D01*
X0251955Y0022370D01*
X0253719Y0023101D01*
X0255069Y0024451D01*
X0255800Y0026215D01*
X0255800Y0028125D01*
X0255069Y0029889D01*
X0253719Y0031239D01*
X0251955Y0031970D01*
X0250045Y0031970D01*
X0248281Y0031239D01*
X0246931Y0029889D01*
X0246200Y0028125D01*
X0246200Y0026215D01*
X0246931Y0024451D01*
X0248281Y0023101D01*
X0247230Y0024152D02*
X0244770Y0024152D01*
X0245359Y0025151D02*
X0246641Y0025151D01*
X0246227Y0026149D02*
X0245773Y0026149D01*
X0245800Y0027148D02*
X0246200Y0027148D01*
X0246209Y0028146D02*
X0245791Y0028146D01*
X0245378Y0029145D02*
X0246622Y0029145D01*
X0247185Y0030143D02*
X0244815Y0030143D01*
X0243816Y0031142D02*
X0248184Y0031142D01*
X0252918Y0032140D02*
X0198581Y0032140D01*
X0167100Y0032370D02*
X0166500Y0032170D01*
X0167100Y0032370D02*
X0167100Y0048070D01*
X0173253Y0051112D02*
X0342331Y0051112D01*
X0343329Y0052110D02*
X0174252Y0052110D01*
X0175250Y0053109D02*
X0344328Y0053109D01*
X0345326Y0054107D02*
X0176249Y0054107D01*
X0177247Y0055106D02*
X0346325Y0055106D01*
X0347323Y0056104D02*
X0178246Y0056104D01*
X0179244Y0057103D02*
X0179622Y0057103D01*
X0183378Y0057103D02*
X0348322Y0057103D01*
X0348600Y0058101D02*
X0185068Y0058101D01*
X0186067Y0059100D02*
X0348600Y0059100D01*
X0350800Y0056470D02*
X0340800Y0046470D01*
X0340800Y0027256D01*
X0341000Y0027170D01*
X0350800Y0056470D02*
X0350800Y0062170D01*
X0348600Y0065091D02*
X0186135Y0065091D01*
X0185217Y0066089D02*
X0348600Y0066089D01*
X0348600Y0067088D02*
X0183737Y0067088D01*
X0179263Y0067088D02*
X0168737Y0067088D01*
X0170217Y0066089D02*
X0177783Y0066089D01*
X0176865Y0065091D02*
X0171135Y0065091D01*
X0171549Y0064092D02*
X0176451Y0064092D01*
X0176100Y0063094D02*
X0171900Y0063094D01*
X0171900Y0062095D02*
X0176100Y0062095D01*
X0176100Y0061097D02*
X0171900Y0061097D01*
X0171487Y0060098D02*
X0176017Y0060098D01*
X0175019Y0059100D02*
X0171067Y0059100D01*
X0170068Y0058101D02*
X0174020Y0058101D01*
X0173022Y0057103D02*
X0168378Y0057103D01*
X0154956Y0057103D02*
X0153378Y0057103D01*
X0131800Y0068087D02*
X0131200Y0068087D01*
X0131200Y0069085D02*
X0131800Y0069085D01*
X0131800Y0070084D02*
X0131200Y0070084D01*
X0131200Y0071082D02*
X0131800Y0071082D01*
X0131800Y0073079D02*
X0131200Y0073079D01*
X0131200Y0074078D02*
X0131800Y0074078D01*
X0131800Y0075076D02*
X0131200Y0075076D01*
X0131200Y0076075D02*
X0131800Y0076075D01*
X0128878Y0076075D02*
X0124525Y0076075D01*
X0125523Y0075076D02*
X0127802Y0075076D01*
X0127197Y0074078D02*
X0126014Y0074078D01*
X0126400Y0073079D02*
X0126885Y0073079D01*
X0145315Y0082066D02*
X0348600Y0082066D01*
X0348600Y0083064D02*
X0343074Y0083064D01*
X0342766Y0082907D02*
X0343411Y0083236D01*
X0343997Y0083661D01*
X0344509Y0084173D01*
X0344934Y0084759D01*
X0345263Y0085404D01*
X0345487Y0086093D01*
X0345586Y0086720D01*
X0341450Y0086720D01*
X0341450Y0087620D01*
X0340550Y0087620D01*
X0340550Y0091756D01*
X0339923Y0091657D01*
X0339234Y0091433D01*
X0338589Y0091104D01*
X0338003Y0090679D01*
X0337491Y0090167D01*
X0337066Y0089581D01*
X0336737Y0088936D01*
X0336513Y0088247D01*
X0336414Y0087620D01*
X0340550Y0087620D01*
X0340550Y0086720D01*
X0336414Y0086720D01*
X0336513Y0086093D01*
X0336737Y0085404D01*
X0337066Y0084759D01*
X0337491Y0084173D01*
X0338003Y0083661D01*
X0338589Y0083236D01*
X0339234Y0082907D01*
X0339923Y0082683D01*
X0340550Y0082584D01*
X0340550Y0086720D01*
X0341450Y0086720D01*
X0341450Y0082584D01*
X0342077Y0082683D01*
X0342766Y0082907D01*
X0341450Y0083064D02*
X0340550Y0083064D01*
X0340550Y0084063D02*
X0341450Y0084063D01*
X0341450Y0085061D02*
X0340550Y0085061D01*
X0340550Y0086060D02*
X0341450Y0086060D01*
X0341450Y0087058D02*
X0348600Y0087058D01*
X0348600Y0086060D02*
X0345476Y0086060D01*
X0345088Y0085061D02*
X0348600Y0085061D01*
X0348600Y0084063D02*
X0344398Y0084063D01*
X0340550Y0087058D02*
X0335800Y0087058D01*
X0335800Y0086215D02*
X0335069Y0084451D01*
X0333719Y0083101D01*
X0331955Y0082370D01*
X0330045Y0082370D01*
X0328281Y0083101D01*
X0326931Y0084451D01*
X0326200Y0086215D01*
X0326200Y0088125D01*
X0326931Y0089889D01*
X0328281Y0091239D01*
X0330045Y0091970D01*
X0331955Y0091970D01*
X0333719Y0091239D01*
X0335069Y0089889D01*
X0335800Y0088125D01*
X0335800Y0086215D01*
X0335736Y0086060D02*
X0336524Y0086060D01*
X0336912Y0085061D02*
X0335322Y0085061D01*
X0334681Y0084063D02*
X0337602Y0084063D01*
X0338925Y0083064D02*
X0333631Y0083064D01*
X0328369Y0083064D02*
X0323631Y0083064D01*
X0323719Y0083101D02*
X0325069Y0084451D01*
X0325800Y0086215D01*
X0325800Y0088125D01*
X0325069Y0089889D01*
X0323719Y0091239D01*
X0321955Y0091970D01*
X0320045Y0091970D01*
X0318281Y0091239D01*
X0316931Y0089889D01*
X0316200Y0088125D01*
X0316200Y0086215D01*
X0316931Y0084451D01*
X0318281Y0083101D01*
X0320045Y0082370D01*
X0321955Y0082370D01*
X0323719Y0083101D01*
X0324681Y0084063D02*
X0327319Y0084063D01*
X0326678Y0085061D02*
X0325322Y0085061D01*
X0325736Y0086060D02*
X0326264Y0086060D01*
X0326200Y0087058D02*
X0325800Y0087058D01*
X0325800Y0088057D02*
X0326200Y0088057D01*
X0326585Y0089055D02*
X0325415Y0089055D01*
X0324904Y0090054D02*
X0327096Y0090054D01*
X0328094Y0091052D02*
X0323906Y0091052D01*
X0325525Y0096070D02*
X0327475Y0096070D01*
X0329276Y0096816D01*
X0330654Y0098194D01*
X0331400Y0099995D01*
X0331400Y0108345D01*
X0330654Y0110145D01*
X0329276Y0111524D01*
X0327475Y0112270D01*
X0325525Y0112270D01*
X0323724Y0111524D01*
X0322346Y0110145D01*
X0321600Y0108345D01*
X0321600Y0099995D01*
X0322346Y0098194D01*
X0323724Y0096816D01*
X0325525Y0096070D01*
X0323497Y0097043D02*
X0293800Y0097043D01*
X0293800Y0098042D02*
X0322498Y0098042D01*
X0321995Y0099040D02*
X0293800Y0099040D01*
X0293800Y0100039D02*
X0321600Y0100039D01*
X0321600Y0101037D02*
X0293800Y0101037D01*
X0293800Y0102036D02*
X0321600Y0102036D01*
X0321600Y0103034D02*
X0293800Y0103034D01*
X0293800Y0104033D02*
X0321600Y0104033D01*
X0321600Y0105031D02*
X0293800Y0105031D01*
X0293800Y0106030D02*
X0321600Y0106030D01*
X0321600Y0107028D02*
X0308198Y0107028D01*
X0307574Y0106770D02*
X0309559Y0107592D01*
X0311078Y0109111D01*
X0311900Y0111096D01*
X0311900Y0113244D01*
X0311078Y0115229D01*
X0309559Y0116748D01*
X0307574Y0117570D01*
X0305426Y0117570D01*
X0303441Y0116748D01*
X0301922Y0115229D01*
X0301100Y0113244D01*
X0301100Y0111096D01*
X0301922Y0109111D01*
X0303441Y0107592D01*
X0305426Y0106770D01*
X0307574Y0106770D01*
X0309994Y0108027D02*
X0321600Y0108027D01*
X0321882Y0109025D02*
X0310992Y0109025D01*
X0311456Y0110024D02*
X0322296Y0110024D01*
X0323223Y0111022D02*
X0311870Y0111022D01*
X0311900Y0112021D02*
X0324925Y0112021D01*
X0328075Y0112021D02*
X0335822Y0112021D01*
X0336000Y0112021D02*
X0337000Y0112021D01*
X0337000Y0112049D02*
X0337000Y0104670D01*
X0336000Y0104670D01*
X0336000Y0112049D01*
X0335399Y0111954D01*
X0334696Y0111726D01*
X0334037Y0111390D01*
X0333438Y0110955D01*
X0332915Y0110432D01*
X0332480Y0109833D01*
X0332144Y0109174D01*
X0331916Y0108470D01*
X0331800Y0107740D01*
X0331800Y0104670D01*
X0336000Y0104670D01*
X0336000Y0103670D01*
X0331800Y0103670D01*
X0331800Y0100600D01*
X0331916Y0099869D01*
X0332144Y0099166D01*
X0332480Y0098507D01*
X0332915Y0097908D01*
X0333438Y0097385D01*
X0334037Y0096950D01*
X0334696Y0096614D01*
X0335399Y0096386D01*
X0336000Y0096290D01*
X0336000Y0103670D01*
X0337000Y0103670D01*
X0337000Y0104670D01*
X0341200Y0104670D01*
X0341200Y0107740D01*
X0341084Y0108470D01*
X0340856Y0109174D01*
X0340520Y0109833D01*
X0340085Y0110432D01*
X0339562Y0110955D01*
X0338963Y0111390D01*
X0338304Y0111726D01*
X0337601Y0111954D01*
X0337000Y0112049D01*
X0337178Y0112021D02*
X0344300Y0112021D01*
X0343539Y0113020D02*
X0311900Y0113020D01*
X0311579Y0114018D02*
X0342541Y0114018D01*
X0341542Y0115017D02*
X0311166Y0115017D01*
X0310292Y0116015D02*
X0340544Y0116015D01*
X0339545Y0117014D02*
X0308917Y0117014D01*
X0306078Y0119111D02*
X0306900Y0121096D01*
X0306900Y0123244D01*
X0306078Y0125229D01*
X0304559Y0126748D01*
X0302574Y0127570D01*
X0300426Y0127570D01*
X0298441Y0126748D01*
X0296922Y0125229D01*
X0296100Y0123244D01*
X0296100Y0121096D01*
X0296922Y0119111D01*
X0298441Y0117592D01*
X0300426Y0116770D01*
X0302574Y0116770D01*
X0304559Y0117592D01*
X0306078Y0119111D01*
X0305977Y0119011D02*
X0337548Y0119011D01*
X0336549Y0120009D02*
X0306450Y0120009D01*
X0306863Y0121008D02*
X0335551Y0121008D01*
X0334552Y0122006D02*
X0306900Y0122006D01*
X0306900Y0123005D02*
X0333554Y0123005D01*
X0332555Y0124003D02*
X0306586Y0124003D01*
X0306172Y0125002D02*
X0331557Y0125002D01*
X0330558Y0126000D02*
X0305306Y0126000D01*
X0303953Y0126999D02*
X0329560Y0126999D01*
X0328561Y0127997D02*
X0289784Y0127997D01*
X0290782Y0126999D02*
X0299047Y0126999D01*
X0297694Y0126000D02*
X0291781Y0126000D01*
X0292779Y0125002D02*
X0296828Y0125002D01*
X0296414Y0124003D02*
X0293778Y0124003D01*
X0293800Y0123005D02*
X0296100Y0123005D01*
X0296100Y0122006D02*
X0293800Y0122006D01*
X0293800Y0121008D02*
X0296137Y0121008D01*
X0296550Y0120009D02*
X0293800Y0120009D01*
X0293800Y0119011D02*
X0297023Y0119011D01*
X0298021Y0118012D02*
X0293800Y0118012D01*
X0293800Y0117014D02*
X0299838Y0117014D01*
X0301834Y0115017D02*
X0293800Y0115017D01*
X0293800Y0116015D02*
X0302708Y0116015D01*
X0303162Y0117014D02*
X0304083Y0117014D01*
X0304979Y0118012D02*
X0338547Y0118012D01*
X0339469Y0111022D02*
X0343223Y0111022D01*
X0342296Y0110024D02*
X0340381Y0110024D01*
X0340904Y0109025D02*
X0341882Y0109025D01*
X0341600Y0108027D02*
X0341155Y0108027D01*
X0341200Y0107028D02*
X0341600Y0107028D01*
X0341600Y0106030D02*
X0341200Y0106030D01*
X0341200Y0105031D02*
X0341600Y0105031D01*
X0341600Y0104033D02*
X0337000Y0104033D01*
X0337000Y0103670D02*
X0341200Y0103670D01*
X0341200Y0100600D01*
X0341084Y0099869D01*
X0340856Y0099166D01*
X0340520Y0098507D01*
X0340085Y0097908D01*
X0339562Y0097385D01*
X0338963Y0096950D01*
X0338304Y0096614D01*
X0337601Y0096386D01*
X0337000Y0096290D01*
X0337000Y0103670D01*
X0337000Y0103034D02*
X0336000Y0103034D01*
X0336000Y0102036D02*
X0337000Y0102036D01*
X0337000Y0101037D02*
X0336000Y0101037D01*
X0336000Y0100039D02*
X0337000Y0100039D01*
X0337000Y0099040D02*
X0336000Y0099040D01*
X0336000Y0098042D02*
X0337000Y0098042D01*
X0337000Y0097043D02*
X0336000Y0097043D01*
X0333908Y0097043D02*
X0329503Y0097043D01*
X0330502Y0098042D02*
X0332818Y0098042D01*
X0332208Y0099040D02*
X0331004Y0099040D01*
X0331400Y0100039D02*
X0331889Y0100039D01*
X0331800Y0101037D02*
X0331400Y0101037D01*
X0331400Y0102036D02*
X0331800Y0102036D01*
X0331800Y0103034D02*
X0331400Y0103034D01*
X0331400Y0104033D02*
X0336000Y0104033D01*
X0336000Y0105031D02*
X0337000Y0105031D01*
X0337000Y0106030D02*
X0336000Y0106030D01*
X0336000Y0107028D02*
X0337000Y0107028D01*
X0337000Y0108027D02*
X0336000Y0108027D01*
X0336000Y0109025D02*
X0337000Y0109025D01*
X0337000Y0110024D02*
X0336000Y0110024D01*
X0336000Y0111022D02*
X0337000Y0111022D01*
X0333531Y0111022D02*
X0329777Y0111022D01*
X0330704Y0110024D02*
X0332619Y0110024D01*
X0332096Y0109025D02*
X0331118Y0109025D01*
X0331400Y0108027D02*
X0331845Y0108027D01*
X0331800Y0107028D02*
X0331400Y0107028D01*
X0331400Y0106030D02*
X0331800Y0106030D01*
X0331800Y0105031D02*
X0331400Y0105031D01*
X0341200Y0103034D02*
X0341600Y0103034D01*
X0341600Y0102036D02*
X0341200Y0102036D01*
X0341200Y0101037D02*
X0341600Y0101037D01*
X0341600Y0100039D02*
X0341111Y0100039D01*
X0340792Y0099040D02*
X0341995Y0099040D01*
X0342498Y0098042D02*
X0340182Y0098042D01*
X0339092Y0097043D02*
X0343497Y0097043D01*
X0348600Y0096045D02*
X0292986Y0096045D01*
X0291988Y0095046D02*
X0348600Y0095046D01*
X0348600Y0094048D02*
X0290989Y0094048D01*
X0289991Y0093049D02*
X0348600Y0093049D01*
X0348600Y0092051D02*
X0288992Y0092051D01*
X0290045Y0091970D02*
X0288281Y0091239D01*
X0286931Y0089889D01*
X0286200Y0088125D01*
X0286200Y0086215D01*
X0286931Y0084451D01*
X0288281Y0083101D01*
X0290045Y0082370D01*
X0291955Y0082370D01*
X0293719Y0083101D01*
X0295069Y0084451D01*
X0295800Y0086215D01*
X0295800Y0088125D01*
X0295069Y0089889D01*
X0293719Y0091239D01*
X0291955Y0091970D01*
X0290045Y0091970D01*
X0288094Y0091052D02*
X0287994Y0091052D01*
X0287096Y0090054D02*
X0286995Y0090054D01*
X0286585Y0089055D02*
X0285997Y0089055D01*
X0285800Y0088057D02*
X0286200Y0088057D01*
X0286200Y0087058D02*
X0285800Y0087058D01*
X0285736Y0086060D02*
X0286264Y0086060D01*
X0286678Y0085061D02*
X0285322Y0085061D01*
X0284681Y0084063D02*
X0287319Y0084063D01*
X0288369Y0083064D02*
X0283631Y0083064D01*
X0293631Y0083064D02*
X0298369Y0083064D01*
X0298281Y0083101D02*
X0300045Y0082370D01*
X0301955Y0082370D01*
X0303719Y0083101D01*
X0305069Y0084451D01*
X0305800Y0086215D01*
X0305800Y0088125D01*
X0305069Y0089889D01*
X0303719Y0091239D01*
X0301955Y0091970D01*
X0300045Y0091970D01*
X0298281Y0091239D01*
X0296931Y0089889D01*
X0296200Y0088125D01*
X0296200Y0086215D01*
X0296931Y0084451D01*
X0298281Y0083101D01*
X0297319Y0084063D02*
X0294681Y0084063D01*
X0295322Y0085061D02*
X0296678Y0085061D01*
X0296264Y0086060D02*
X0295736Y0086060D01*
X0295800Y0087058D02*
X0296200Y0087058D01*
X0296200Y0088057D02*
X0295800Y0088057D01*
X0295415Y0089055D02*
X0296585Y0089055D01*
X0297096Y0090054D02*
X0294904Y0090054D01*
X0293906Y0091052D02*
X0298094Y0091052D01*
X0303906Y0091052D02*
X0308094Y0091052D01*
X0308281Y0091239D02*
X0306931Y0089889D01*
X0306200Y0088125D01*
X0306200Y0086215D01*
X0306931Y0084451D01*
X0308281Y0083101D01*
X0310045Y0082370D01*
X0311955Y0082370D01*
X0313719Y0083101D01*
X0315069Y0084451D01*
X0315800Y0086215D01*
X0315800Y0088125D01*
X0315069Y0089889D01*
X0313719Y0091239D01*
X0311955Y0091970D01*
X0310045Y0091970D01*
X0308281Y0091239D01*
X0307096Y0090054D02*
X0304904Y0090054D01*
X0305415Y0089055D02*
X0306585Y0089055D01*
X0306200Y0088057D02*
X0305800Y0088057D01*
X0305800Y0087058D02*
X0306200Y0087058D01*
X0306264Y0086060D02*
X0305736Y0086060D01*
X0305322Y0085061D02*
X0306678Y0085061D01*
X0307319Y0084063D02*
X0304681Y0084063D01*
X0303631Y0083064D02*
X0308369Y0083064D01*
X0313631Y0083064D02*
X0318369Y0083064D01*
X0317319Y0084063D02*
X0314681Y0084063D01*
X0315322Y0085061D02*
X0316678Y0085061D01*
X0316264Y0086060D02*
X0315736Y0086060D01*
X0315800Y0087058D02*
X0316200Y0087058D01*
X0316200Y0088057D02*
X0315800Y0088057D01*
X0315415Y0089055D02*
X0316585Y0089055D01*
X0317096Y0090054D02*
X0314904Y0090054D01*
X0313906Y0091052D02*
X0318094Y0091052D01*
X0333906Y0091052D02*
X0338518Y0091052D01*
X0337409Y0090054D02*
X0334904Y0090054D01*
X0335415Y0089055D02*
X0336798Y0089055D01*
X0336483Y0088057D02*
X0335800Y0088057D01*
X0340550Y0088057D02*
X0341450Y0088057D01*
X0341450Y0087620D02*
X0341450Y0091756D01*
X0342077Y0091657D01*
X0342766Y0091433D01*
X0343411Y0091104D01*
X0343997Y0090679D01*
X0344509Y0090167D01*
X0344934Y0089581D01*
X0345263Y0088936D01*
X0345487Y0088247D01*
X0345586Y0087620D01*
X0341450Y0087620D01*
X0341450Y0089055D02*
X0340550Y0089055D01*
X0340550Y0090054D02*
X0341450Y0090054D01*
X0341450Y0091052D02*
X0340550Y0091052D01*
X0343482Y0091052D02*
X0348600Y0091052D01*
X0348600Y0090054D02*
X0344591Y0090054D01*
X0345202Y0089055D02*
X0348600Y0089055D01*
X0348600Y0088057D02*
X0345517Y0088057D01*
X0348600Y0081067D02*
X0146314Y0081067D01*
X0147312Y0080069D02*
X0348600Y0080069D01*
X0348600Y0079070D02*
X0148311Y0079070D01*
X0149310Y0078072D02*
X0348600Y0078072D01*
X0348600Y0077073D02*
X0150308Y0077073D01*
X0151307Y0076075D02*
X0348600Y0076075D01*
X0348600Y0075076D02*
X0152305Y0075076D01*
X0152411Y0074970D02*
X0152411Y0074970D01*
X0153304Y0074078D02*
X0348600Y0074078D01*
X0348600Y0073079D02*
X0153700Y0073079D01*
X0153700Y0072081D02*
X0348600Y0072081D01*
X0304802Y0107028D02*
X0293800Y0107028D01*
X0293800Y0108027D02*
X0303006Y0108027D01*
X0302008Y0109025D02*
X0293800Y0109025D01*
X0293800Y0110024D02*
X0301544Y0110024D01*
X0301130Y0111022D02*
X0293800Y0111022D01*
X0293800Y0112021D02*
X0301100Y0112021D01*
X0301100Y0113020D02*
X0293800Y0113020D01*
X0293800Y0114018D02*
X0301421Y0114018D01*
X0282549Y0120009D02*
X0276450Y0120009D01*
X0276863Y0121008D02*
X0281551Y0121008D01*
X0280552Y0122006D02*
X0276900Y0122006D01*
X0276900Y0123005D02*
X0279554Y0123005D01*
X0278555Y0124003D02*
X0276586Y0124003D01*
X0276172Y0125002D02*
X0277557Y0125002D01*
X0276558Y0126000D02*
X0275306Y0126000D01*
X0275560Y0126999D02*
X0273953Y0126999D01*
X0274561Y0127997D02*
X0160675Y0127997D01*
X0161673Y0128996D02*
X0274300Y0128996D01*
X0274300Y0129994D02*
X0162637Y0129994D01*
X0162637Y0130993D02*
X0274300Y0130993D01*
X0274300Y0131991D02*
X0162637Y0131991D01*
X0162637Y0132990D02*
X0233787Y0132990D01*
X0232752Y0133988D02*
X0162637Y0133988D01*
X0162637Y0134987D02*
X0227572Y0134987D01*
X0226573Y0135985D02*
X0162637Y0135985D01*
X0162637Y0136984D02*
X0225575Y0136984D01*
X0224576Y0137982D02*
X0162637Y0137982D01*
X0162637Y0138981D02*
X0223578Y0138981D01*
X0222579Y0139979D02*
X0162637Y0139979D01*
X0163795Y0140978D02*
X0199756Y0140978D01*
X0199610Y0141052D02*
X0200400Y0140650D01*
X0201244Y0140376D01*
X0202063Y0140246D01*
X0202063Y0145371D01*
X0196938Y0145371D01*
X0197068Y0144551D01*
X0197342Y0143708D01*
X0197744Y0142918D01*
X0198266Y0142200D01*
X0198893Y0141573D01*
X0199610Y0141052D01*
X0198490Y0141976D02*
X0164793Y0141976D01*
X0165552Y0142975D02*
X0197715Y0142975D01*
X0197256Y0143973D02*
X0165966Y0143973D01*
X0166271Y0144972D02*
X0197001Y0144972D01*
X0196938Y0146371D02*
X0202063Y0146371D01*
X0202063Y0151496D01*
X0201244Y0151366D01*
X0200400Y0151092D01*
X0199610Y0150689D01*
X0198893Y0150168D01*
X0198266Y0149541D01*
X0197744Y0148823D01*
X0197342Y0148033D01*
X0197068Y0147190D01*
X0196938Y0146371D01*
X0197033Y0146969D02*
X0166271Y0146969D01*
X0166271Y0145970D02*
X0202063Y0145970D01*
X0202063Y0146371D02*
X0202063Y0145371D01*
X0203063Y0145371D01*
X0203063Y0146371D01*
X0202063Y0146371D01*
X0202063Y0146969D02*
X0203063Y0146969D01*
X0203063Y0146371D02*
X0203063Y0151496D01*
X0203882Y0151366D01*
X0204726Y0151092D01*
X0205516Y0150689D01*
X0206233Y0150168D01*
X0206860Y0149541D01*
X0207381Y0148823D01*
X0207784Y0148033D01*
X0208058Y0147190D01*
X0208188Y0146371D01*
X0203063Y0146371D01*
X0203063Y0145970D02*
X0216588Y0145970D01*
X0217587Y0144972D02*
X0208125Y0144972D01*
X0208188Y0145371D02*
X0208058Y0144551D01*
X0207784Y0143708D01*
X0207381Y0142918D01*
X0206860Y0142200D01*
X0206233Y0141573D01*
X0205516Y0141052D01*
X0204726Y0140650D01*
X0203882Y0140376D01*
X0203063Y0140246D01*
X0203063Y0145371D01*
X0208188Y0145371D01*
X0207870Y0143973D02*
X0218585Y0143973D01*
X0219584Y0142975D02*
X0207411Y0142975D01*
X0206636Y0141976D02*
X0220582Y0141976D01*
X0221581Y0140978D02*
X0205370Y0140978D01*
X0203063Y0140978D02*
X0202063Y0140978D01*
X0202063Y0141976D02*
X0203063Y0141976D01*
X0203063Y0142975D02*
X0202063Y0142975D01*
X0202063Y0143973D02*
X0203063Y0143973D01*
X0203063Y0144972D02*
X0202063Y0144972D01*
X0202063Y0147967D02*
X0203063Y0147967D01*
X0203063Y0148966D02*
X0202063Y0148966D01*
X0202063Y0149964D02*
X0203063Y0149964D01*
X0203063Y0150963D02*
X0202063Y0150963D01*
X0200148Y0150963D02*
X0163388Y0150963D01*
X0164594Y0149964D02*
X0198689Y0149964D01*
X0197848Y0148966D02*
X0165469Y0148966D01*
X0165883Y0147967D02*
X0197320Y0147967D01*
X0204978Y0150963D02*
X0211596Y0150963D01*
X0212594Y0149964D02*
X0206437Y0149964D01*
X0207278Y0148966D02*
X0213593Y0148966D01*
X0214591Y0147967D02*
X0207805Y0147967D01*
X0208093Y0146969D02*
X0215590Y0146969D01*
X0239105Y0162945D02*
X0243895Y0162945D01*
X0242797Y0163944D02*
X0240203Y0163944D01*
X0240881Y0164942D02*
X0242119Y0164942D01*
X0241705Y0165941D02*
X0241295Y0165941D01*
X0241400Y0166939D02*
X0241600Y0166939D01*
X0241600Y0167938D02*
X0241400Y0167938D01*
X0241072Y0168936D02*
X0241928Y0168936D01*
X0242341Y0169935D02*
X0240659Y0169935D01*
X0239666Y0170933D02*
X0243334Y0170933D01*
X0249666Y0170933D02*
X0253334Y0170933D01*
X0252341Y0169935D02*
X0250659Y0169935D01*
X0251072Y0168936D02*
X0251928Y0168936D01*
X0251600Y0167938D02*
X0251400Y0167938D01*
X0251400Y0166939D02*
X0251600Y0166939D01*
X0251705Y0165941D02*
X0251295Y0165941D01*
X0250881Y0164942D02*
X0252119Y0164942D01*
X0252797Y0163944D02*
X0250203Y0163944D01*
X0249105Y0162945D02*
X0253895Y0162945D01*
X0259105Y0162945D02*
X0263895Y0162945D01*
X0262797Y0163944D02*
X0260203Y0163944D01*
X0260881Y0164942D02*
X0262119Y0164942D01*
X0261705Y0165941D02*
X0261295Y0165941D01*
X0261400Y0166939D02*
X0261600Y0166939D01*
X0261600Y0167938D02*
X0261400Y0167938D01*
X0261072Y0168936D02*
X0261928Y0168936D01*
X0262341Y0169935D02*
X0260659Y0169935D01*
X0259666Y0170933D02*
X0263334Y0170933D01*
X0269666Y0170933D02*
X0274300Y0170933D01*
X0274300Y0169935D02*
X0270659Y0169935D01*
X0271072Y0168936D02*
X0274300Y0168936D01*
X0274300Y0167938D02*
X0271400Y0167938D01*
X0271400Y0166939D02*
X0274300Y0166939D01*
X0274300Y0165941D02*
X0271295Y0165941D01*
X0270881Y0164942D02*
X0274300Y0164942D01*
X0274300Y0163944D02*
X0270203Y0163944D01*
X0269105Y0162945D02*
X0274300Y0162945D01*
X0285200Y0153958D02*
X0295873Y0153958D01*
X0294229Y0152960D02*
X0285200Y0152960D01*
X0285200Y0151961D02*
X0293231Y0151961D01*
X0292780Y0150963D02*
X0285200Y0150963D01*
X0285200Y0149964D02*
X0292367Y0149964D01*
X0292300Y0148966D02*
X0285200Y0148966D01*
X0285200Y0147967D02*
X0292300Y0147967D01*
X0292535Y0146969D02*
X0285200Y0146969D01*
X0285200Y0145970D02*
X0292949Y0145970D01*
X0293637Y0144972D02*
X0285200Y0144972D01*
X0285200Y0143973D02*
X0294635Y0143973D01*
X0294570Y0141976D02*
X0285200Y0141976D01*
X0285200Y0140978D02*
X0293605Y0140978D01*
X0293004Y0139979D02*
X0285200Y0139979D01*
X0285200Y0138981D02*
X0292643Y0138981D01*
X0296529Y0142975D02*
X0285200Y0142975D01*
X0274300Y0141976D02*
X0257700Y0141976D01*
X0259622Y0140978D02*
X0263745Y0140978D01*
X0264037Y0141190D02*
X0263438Y0140755D01*
X0262915Y0140232D01*
X0262480Y0139633D01*
X0262144Y0138974D01*
X0261916Y0138270D01*
X0261800Y0137540D01*
X0261800Y0137470D01*
X0266200Y0137470D01*
X0266200Y0141870D01*
X0266130Y0141870D01*
X0265399Y0141754D01*
X0264696Y0141526D01*
X0264037Y0141190D01*
X0262732Y0139979D02*
X0260620Y0139979D01*
X0261054Y0138981D02*
X0262148Y0138981D01*
X0261870Y0137982D02*
X0261400Y0137982D01*
X0261400Y0136984D02*
X0266200Y0136984D01*
X0266200Y0136870D02*
X0261800Y0136870D01*
X0261800Y0136800D01*
X0261916Y0136069D01*
X0262144Y0135366D01*
X0262480Y0134707D01*
X0262915Y0134108D01*
X0263438Y0133585D01*
X0264037Y0133150D01*
X0264696Y0132814D01*
X0265399Y0132586D01*
X0266130Y0132470D01*
X0266200Y0132470D01*
X0266200Y0136870D01*
X0266200Y0137470D01*
X0266800Y0137470D01*
X0266800Y0141870D01*
X0266870Y0141870D01*
X0267601Y0141754D01*
X0268304Y0141526D01*
X0268963Y0141190D01*
X0269562Y0140755D01*
X0270085Y0140232D01*
X0270520Y0139633D01*
X0270856Y0138974D01*
X0271084Y0138270D01*
X0271200Y0137540D01*
X0271200Y0137470D01*
X0266800Y0137470D01*
X0266800Y0136870D01*
X0271200Y0136870D01*
X0271200Y0136800D01*
X0271084Y0136069D01*
X0270856Y0135366D01*
X0270520Y0134707D01*
X0270085Y0134108D01*
X0269562Y0133585D01*
X0268963Y0133150D01*
X0268304Y0132814D01*
X0267601Y0132586D01*
X0266870Y0132470D01*
X0266800Y0132470D01*
X0266800Y0136870D01*
X0266200Y0136870D01*
X0266800Y0136984D02*
X0274300Y0136984D01*
X0274300Y0137982D02*
X0271130Y0137982D01*
X0270852Y0138981D02*
X0274300Y0138981D01*
X0274300Y0139979D02*
X0270268Y0139979D01*
X0269255Y0140978D02*
X0274300Y0140978D01*
X0274300Y0135985D02*
X0271057Y0135985D01*
X0270663Y0134987D02*
X0274300Y0134987D01*
X0274300Y0133988D02*
X0269965Y0133988D01*
X0268649Y0132990D02*
X0274300Y0132990D01*
X0266800Y0132990D02*
X0266200Y0132990D01*
X0266200Y0133988D02*
X0266800Y0133988D01*
X0266800Y0134987D02*
X0266200Y0134987D01*
X0266200Y0135985D02*
X0266800Y0135985D01*
X0266800Y0137982D02*
X0266200Y0137982D01*
X0266200Y0138981D02*
X0266800Y0138981D01*
X0266800Y0139979D02*
X0266200Y0139979D01*
X0266200Y0140978D02*
X0266800Y0140978D01*
X0261943Y0135985D02*
X0261313Y0135985D01*
X0260899Y0134987D02*
X0262337Y0134987D01*
X0263035Y0133988D02*
X0260248Y0133988D01*
X0259213Y0132990D02*
X0264351Y0132990D01*
X0285790Y0131991D02*
X0324567Y0131991D01*
X0325566Y0130993D02*
X0286788Y0130993D01*
X0287787Y0129994D02*
X0326564Y0129994D01*
X0327563Y0128996D02*
X0288785Y0128996D01*
X0298000Y0148670D02*
X0311000Y0148670D01*
X0297134Y0193899D02*
X0291340Y0193899D01*
X0292339Y0194897D02*
X0296596Y0194897D01*
X0219047Y0126999D02*
X0159676Y0126999D01*
X0158678Y0126000D02*
X0217694Y0126000D01*
X0216828Y0125002D02*
X0157679Y0125002D01*
X0156681Y0124003D02*
X0216414Y0124003D01*
X0216100Y0123005D02*
X0155682Y0123005D01*
X0154684Y0122006D02*
X0216100Y0122006D01*
X0216137Y0121008D02*
X0153685Y0121008D01*
X0152687Y0120009D02*
X0216550Y0120009D01*
X0217023Y0119011D02*
X0151688Y0119011D01*
X0150690Y0118012D02*
X0218021Y0118012D01*
X0219838Y0117014D02*
X0149691Y0117014D01*
X0148693Y0116015D02*
X0222991Y0116015D01*
X0223162Y0117014D02*
X0224580Y0117014D01*
X0160437Y0130871D02*
X0142836Y0113270D01*
X0102400Y0113270D01*
X0100538Y0112021D02*
X0081886Y0112021D01*
X0081114Y0112021D02*
X0071900Y0112021D01*
X0071900Y0113020D02*
X0076370Y0113020D01*
X0076633Y0114018D02*
X0071579Y0114018D01*
X0071166Y0115017D02*
X0077141Y0115017D01*
X0077991Y0116015D02*
X0070292Y0116015D01*
X0068917Y0117014D02*
X0079580Y0117014D01*
X0081114Y0117014D02*
X0081886Y0117014D01*
X0081886Y0116015D02*
X0081114Y0116015D01*
X0081114Y0115017D02*
X0081886Y0115017D01*
X0081886Y0114018D02*
X0081114Y0114018D01*
X0081114Y0113020D02*
X0081886Y0113020D01*
X0081886Y0111022D02*
X0081114Y0111022D01*
X0081114Y0110024D02*
X0081886Y0110024D01*
X0081886Y0109025D02*
X0081114Y0109025D01*
X0081114Y0108027D02*
X0081886Y0108027D01*
X0078355Y0108027D02*
X0069994Y0108027D01*
X0070992Y0109025D02*
X0077357Y0109025D01*
X0076757Y0110024D02*
X0071456Y0110024D01*
X0071870Y0111022D02*
X0076417Y0111022D01*
X0085859Y0115017D02*
X0097542Y0115017D01*
X0096544Y0116015D02*
X0085009Y0116015D01*
X0083420Y0117014D02*
X0095545Y0117014D01*
X0098541Y0114018D02*
X0086367Y0114018D01*
X0086630Y0113020D02*
X0099539Y0113020D01*
X0104570Y0106030D02*
X0108430Y0106030D01*
X0107432Y0105031D02*
X0105568Y0105031D01*
X0106032Y0104033D02*
X0106968Y0104033D01*
X0106600Y0103034D02*
X0106400Y0103034D01*
X0106400Y0102036D02*
X0106600Y0102036D01*
X0106665Y0101037D02*
X0106335Y0101037D01*
X0105921Y0100039D02*
X0107079Y0100039D01*
X0107700Y0099040D02*
X0105300Y0099040D01*
X0101400Y0101670D02*
X0101500Y0102170D01*
X0101400Y0101670D02*
X0101400Y0084170D01*
X0091900Y0074670D01*
X0091900Y0044580D01*
X0091940Y0044468D01*
X0087952Y0048116D02*
X0033844Y0048116D01*
X0034843Y0049115D02*
X0089047Y0049115D01*
X0089700Y0050113D02*
X0035841Y0050113D01*
X0036840Y0051112D02*
X0089700Y0051112D01*
X0089700Y0052110D02*
X0037839Y0052110D01*
X0038837Y0053109D02*
X0089700Y0053109D01*
X0089700Y0054107D02*
X0039836Y0054107D01*
X0040834Y0055106D02*
X0089700Y0055106D01*
X0089700Y0056104D02*
X0041833Y0056104D01*
X0042831Y0057103D02*
X0089700Y0057103D01*
X0089700Y0058101D02*
X0048718Y0058101D01*
X0049854Y0059100D02*
X0066469Y0059100D01*
X0066001Y0059294D02*
X0067986Y0058472D01*
X0070134Y0058472D01*
X0072119Y0059294D01*
X0073638Y0060813D01*
X0074460Y0062798D01*
X0074460Y0064946D01*
X0073638Y0066931D01*
X0072119Y0068450D01*
X0070134Y0069272D01*
X0067986Y0069272D01*
X0066001Y0068450D01*
X0064482Y0066931D01*
X0063660Y0064946D01*
X0063660Y0062798D01*
X0064482Y0060813D01*
X0066001Y0059294D01*
X0065197Y0060098D02*
X0050629Y0060098D01*
X0051043Y0061097D02*
X0064364Y0061097D01*
X0063951Y0062095D02*
X0051293Y0062095D01*
X0051293Y0063094D02*
X0063660Y0063094D01*
X0063660Y0064092D02*
X0051193Y0064092D01*
X0050780Y0065091D02*
X0063720Y0065091D01*
X0064134Y0066089D02*
X0050217Y0066089D01*
X0049219Y0067088D02*
X0064639Y0067088D01*
X0065638Y0068087D02*
X0049200Y0068087D01*
X0049200Y0069085D02*
X0067535Y0069085D01*
X0070585Y0069085D02*
X0089700Y0069085D01*
X0089700Y0068087D02*
X0072482Y0068087D01*
X0073480Y0067088D02*
X0089700Y0067088D01*
X0089700Y0066089D02*
X0073986Y0066089D01*
X0074400Y0065091D02*
X0089700Y0065091D01*
X0089700Y0064092D02*
X0074460Y0064092D01*
X0074460Y0063094D02*
X0089700Y0063094D01*
X0089700Y0062095D02*
X0074169Y0062095D01*
X0073756Y0061097D02*
X0089700Y0061097D01*
X0089700Y0060098D02*
X0072923Y0060098D01*
X0071651Y0059100D02*
X0089700Y0059100D01*
X0089700Y0070084D02*
X0049200Y0070084D01*
X0049200Y0071082D02*
X0089700Y0071082D01*
X0089700Y0072081D02*
X0049200Y0072081D01*
X0049200Y0073079D02*
X0089700Y0073079D01*
X0089700Y0074078D02*
X0049200Y0074078D01*
X0049200Y0075076D02*
X0089700Y0075076D01*
X0124302Y0098042D02*
X0128698Y0098042D01*
X0127700Y0099040D02*
X0125300Y0099040D01*
X0160437Y0130871D02*
X0160437Y0145871D01*
X0167929Y0181917D02*
X0175071Y0181917D01*
X0173118Y0182915D02*
X0169882Y0182915D01*
X0170881Y0183914D02*
X0172119Y0183914D01*
X0171590Y0184912D02*
X0171410Y0184912D01*
X0072000Y0159950D02*
X0071000Y0159950D01*
X0071000Y0158951D02*
X0072000Y0158951D01*
X0072000Y0157953D02*
X0071000Y0157953D01*
X0071000Y0156954D02*
X0072000Y0156954D01*
X0009047Y0126999D02*
X0003200Y0126999D01*
X0003200Y0127997D02*
X0008396Y0127997D01*
X0007379Y0128996D02*
X0003200Y0128996D01*
X0003200Y0129994D02*
X0006772Y0129994D01*
X0007694Y0126000D02*
X0003200Y0126000D01*
X0003200Y0125002D02*
X0006828Y0125002D01*
X0006414Y0124003D02*
X0003200Y0124003D01*
X0003200Y0123005D02*
X0006100Y0123005D01*
X0006100Y0122006D02*
X0003200Y0122006D01*
X0003200Y0121008D02*
X0006137Y0121008D01*
X0006550Y0120009D02*
X0003200Y0120009D01*
X0003200Y0119011D02*
X0007023Y0119011D01*
X0008021Y0118012D02*
X0003200Y0118012D01*
X0003200Y0117014D02*
X0009580Y0117014D01*
X0007991Y0116015D02*
X0003200Y0116015D01*
X0003200Y0115017D02*
X0007141Y0115017D01*
X0006633Y0114018D02*
X0003200Y0114018D01*
X0003200Y0113020D02*
X0006370Y0113020D01*
X0006417Y0111022D02*
X0003200Y0111022D01*
X0003200Y0110024D02*
X0006757Y0110024D01*
X0007357Y0109025D02*
X0003200Y0109025D01*
X0003200Y0108027D02*
X0008355Y0108027D01*
X0009119Y0107028D02*
X0003200Y0107028D01*
X0003200Y0106030D02*
X0007723Y0106030D01*
X0006840Y0105031D02*
X0003200Y0105031D01*
X0003200Y0104033D02*
X0006427Y0104033D01*
X0006100Y0103034D02*
X0003200Y0103034D01*
X0003200Y0102036D02*
X0006100Y0102036D01*
X0006124Y0101037D02*
X0003200Y0101037D01*
X0003200Y0100039D02*
X0006538Y0100039D01*
X0006993Y0099040D02*
X0003200Y0099040D01*
X0003200Y0098042D02*
X0007991Y0098042D01*
X0009671Y0097043D02*
X0003200Y0097043D01*
X0003200Y0096045D02*
X0008021Y0096045D01*
X0007162Y0095046D02*
X0003200Y0095046D01*
X0003200Y0094048D02*
X0006643Y0094048D01*
X0006374Y0093049D02*
X0003200Y0093049D01*
X0003200Y0092051D02*
X0011000Y0092051D01*
X0011000Y0091052D02*
X0012000Y0091052D01*
X0012000Y0091670D02*
X0012000Y0086984D01*
X0012718Y0087098D01*
X0013496Y0087351D01*
X0014225Y0087722D01*
X0014888Y0088204D01*
X0015466Y0088782D01*
X0015947Y0089444D01*
X0016319Y0090174D01*
X0016572Y0090952D01*
X0016686Y0091670D01*
X0012000Y0091670D01*
X0012000Y0092051D02*
X0044800Y0092051D01*
X0044800Y0093049D02*
X0016626Y0093049D01*
X0016357Y0094048D02*
X0044800Y0094048D01*
X0044800Y0095046D02*
X0015838Y0095046D01*
X0014979Y0096045D02*
X0044800Y0096045D01*
X0044800Y0097043D02*
X0013329Y0097043D01*
X0015009Y0098042D02*
X0044800Y0098042D01*
X0044800Y0099040D02*
X0016007Y0099040D01*
X0016462Y0100039D02*
X0044800Y0100039D01*
X0044800Y0101037D02*
X0016876Y0101037D01*
X0016900Y0102036D02*
X0033500Y0102036D01*
X0032074Y0103034D02*
X0016900Y0103034D01*
X0016573Y0104033D02*
X0031130Y0104033D01*
X0030716Y0105031D02*
X0016160Y0105031D01*
X0015277Y0106030D02*
X0030303Y0106030D01*
X0030300Y0107028D02*
X0013881Y0107028D01*
X0014645Y0108027D02*
X0030300Y0108027D01*
X0030599Y0109025D02*
X0015643Y0109025D01*
X0016243Y0110024D02*
X0031013Y0110024D01*
X0031792Y0111022D02*
X0016583Y0111022D01*
X0012000Y0112021D02*
X0032817Y0112021D01*
X0039183Y0112021D02*
X0043817Y0112021D01*
X0042792Y0111022D02*
X0040208Y0111022D01*
X0040987Y0110024D02*
X0042013Y0110024D01*
X0041599Y0109025D02*
X0041401Y0109025D01*
X0041284Y0105031D02*
X0041716Y0105031D01*
X0042130Y0104033D02*
X0040870Y0104033D01*
X0039926Y0103034D02*
X0043074Y0103034D01*
X0044500Y0102036D02*
X0038500Y0102036D01*
X0044800Y0091052D02*
X0016588Y0091052D01*
X0016258Y0090054D02*
X0044800Y0090054D01*
X0044800Y0089055D02*
X0015665Y0089055D01*
X0014686Y0088057D02*
X0044800Y0088057D01*
X0044800Y0087058D02*
X0012467Y0087058D01*
X0012000Y0087058D02*
X0011000Y0087058D01*
X0010533Y0087058D02*
X0003200Y0087058D01*
X0003200Y0086060D02*
X0044800Y0086060D01*
X0044800Y0085061D02*
X0003200Y0085061D01*
X0003200Y0084063D02*
X0044800Y0084063D01*
X0044800Y0083064D02*
X0003200Y0083064D01*
X0003200Y0082066D02*
X0044800Y0082066D01*
X0044800Y0081067D02*
X0003200Y0081067D01*
X0003200Y0080069D02*
X0044800Y0080069D01*
X0044800Y0079070D02*
X0003200Y0079070D01*
X0003200Y0078072D02*
X0044800Y0078072D01*
X0044800Y0077073D02*
X0003200Y0077073D01*
X0003200Y0076075D02*
X0044800Y0076075D01*
X0044800Y0075076D02*
X0003200Y0075076D01*
X0003200Y0074078D02*
X0044800Y0074078D01*
X0044800Y0073079D02*
X0003200Y0073079D01*
X0003200Y0072081D02*
X0044800Y0072081D01*
X0044800Y0071082D02*
X0003200Y0071082D01*
X0003200Y0070084D02*
X0044800Y0070084D01*
X0044800Y0069085D02*
X0003200Y0069085D01*
X0003200Y0068087D02*
X0044602Y0068087D01*
X0042568Y0067088D02*
X0028021Y0067088D01*
X0029141Y0066089D02*
X0041570Y0066089D01*
X0041007Y0065091D02*
X0029960Y0065091D01*
X0030373Y0064092D02*
X0040594Y0064092D01*
X0040493Y0063094D02*
X0030700Y0063094D01*
X0030700Y0062095D02*
X0040493Y0062095D01*
X0040603Y0061097D02*
X0030700Y0061097D01*
X0030312Y0060098D02*
X0039604Y0060098D01*
X0038606Y0059100D02*
X0029898Y0059100D01*
X0028993Y0058101D02*
X0037607Y0058101D01*
X0036609Y0057103D02*
X0027662Y0057103D01*
X0022338Y0057103D02*
X0016662Y0057103D01*
X0015700Y0056104D02*
X0035610Y0056104D01*
X0034612Y0055106D02*
X0015700Y0055106D01*
X0015700Y0054107D02*
X0033613Y0054107D01*
X0032614Y0053109D02*
X0015700Y0053109D01*
X0016671Y0052110D02*
X0031616Y0052110D01*
X0030617Y0051112D02*
X0017669Y0051112D01*
X0018668Y0050113D02*
X0029619Y0050113D01*
X0028620Y0049115D02*
X0019666Y0049115D01*
X0020665Y0048116D02*
X0027622Y0048116D01*
X0026623Y0047118D02*
X0021663Y0047118D01*
X0022662Y0046119D02*
X0025625Y0046119D01*
X0021007Y0058101D02*
X0017993Y0058101D01*
X0018898Y0059100D02*
X0020102Y0059100D01*
X0019688Y0060098D02*
X0019312Y0060098D01*
X0019373Y0064092D02*
X0019627Y0064092D01*
X0020040Y0065091D02*
X0018960Y0065091D01*
X0018141Y0066089D02*
X0020859Y0066089D01*
X0021979Y0067088D02*
X0017021Y0067088D01*
X0010979Y0067088D02*
X0003200Y0067088D01*
X0003200Y0066089D02*
X0009859Y0066089D01*
X0009040Y0065091D02*
X0003200Y0065091D01*
X0003200Y0064092D02*
X0008627Y0064092D01*
X0008300Y0063094D02*
X0003200Y0063094D01*
X0003200Y0088057D02*
X0008314Y0088057D01*
X0007335Y0089055D02*
X0003200Y0089055D01*
X0003200Y0090054D02*
X0006742Y0090054D01*
X0006412Y0091052D02*
X0003200Y0091052D01*
X0011000Y0090054D02*
X0012000Y0090054D01*
X0012000Y0089055D02*
X0011000Y0089055D01*
X0011000Y0088057D02*
X0012000Y0088057D01*
X0011000Y0112021D02*
X0003200Y0112021D01*
X0071311Y0038131D02*
X0164900Y0038131D01*
X0164370Y0037133D02*
X0153630Y0037133D01*
X0149370Y0037133D02*
X0070313Y0037133D01*
X0253816Y0031142D02*
X0253917Y0031142D01*
X0254815Y0030143D02*
X0254916Y0030143D01*
X0255378Y0029145D02*
X0255914Y0029145D01*
X0255791Y0028146D02*
X0256209Y0028146D01*
X0256200Y0027148D02*
X0255800Y0027148D01*
X0255773Y0026149D02*
X0256227Y0026149D01*
X0256641Y0025151D02*
X0255359Y0025151D01*
X0254770Y0024152D02*
X0257230Y0024152D01*
X0258228Y0023153D02*
X0253772Y0023153D01*
D17*
X0085000Y0147170D03*
X0085000Y0202670D03*
M02*
