%
M48
M72
T01C0.02000
T02C0.03200
T03C0.03543
T04C0.03800
T05C0.04000
T06C0.05512
T07C0.13000
T08C0.15000
%
T01
X85000Y147170
X85000Y202670
T02
X166500Y187170
X176500Y187170
X171500Y194670
X196500Y187170
X206500Y187170
X201500Y194670
X236500Y167170
X246500Y167170
X256500Y167170
X266500Y167170
X266500Y137170
X256500Y137170
X246500Y137170
X236500Y137170
X131500Y102170
X121500Y102170
X111500Y102170
X101500Y102170
X101500Y72170
X111500Y72170
X121500Y72170
X131500Y72170
T03
X151500Y62170
X166500Y62170
X181500Y62170
X181500Y32170
X166500Y32170
X151500Y32170
X91940Y44468
X67107Y41563
X69060Y63872
X45893Y62776
X66500Y82170
X81500Y82170
X81500Y112170
X66500Y112170
X221500Y122170
X226500Y112170
X251500Y122170
X256500Y112170
X271500Y122170
X276500Y112170
X301500Y122170
X306500Y112170
X296500Y187170
X301500Y197170
X271500Y197170
X256500Y197170
X251500Y187170
X266500Y187170
X226500Y197170
X221500Y187170
T04
X221000Y87170
X211000Y87170
X231000Y87170
X241000Y87170
X251000Y87170
X261000Y87170
X271000Y87170
X281000Y87170
X291000Y87170
X301000Y87170
X311000Y87170
X321000Y87170
X331000Y87170
X341000Y87170
X341000Y27170
X331000Y27170
X321000Y27170
X311000Y27170
X301000Y27170
X291000Y27170
X281000Y27170
X271000Y27170
X261000Y27170
X251000Y27170
X241000Y27170
X231000Y27170
X221000Y27170
X211000Y27170
T05
X326500Y104170
X336500Y104170
X346500Y104170
X298000Y137670
X298000Y148670
X71500Y142670
X71500Y131670
X47000Y107170
X36000Y107170
X11500Y112170
X11500Y122170
X11500Y132170
X11500Y142170
X11500Y152170
X11500Y162170
X11500Y172170
X11500Y182170
X11500Y192170
X11500Y202170
X71500Y202670
X71500Y191670
X71500Y172670
X71500Y161670
X11500Y102170
X11500Y92170
X14000Y62170
X25000Y62170
T06
X95437Y138469
X137563Y138469
X160437Y145871
X202563Y145871
X202563Y108469
X160437Y108469
X137563Y175871
X95437Y175871
T07
X336500Y163170
T08
X16500Y27170
X346500Y197170
M30
