G75*
%MOIN*%
%OFA0B0*%
%FSLAX25Y25*%
%IPPOS*%
%LPD*%
%AMOC8*
5,1,8,0,0,1.08239X$1,22.5*
%
%ADD10C,0.00800*%
D10*
X0275500Y0122170D02*
X0276500Y0122170D01*
X0276500Y0119170D01*
X0296500Y0119170D01*
X0296500Y0122170D01*
X0297500Y0122170D01*
X0296500Y0122170D02*
X0296500Y0125170D01*
X0276500Y0125170D01*
X0276500Y0122170D01*
X0281500Y0115170D02*
X0281500Y0112170D01*
X0280500Y0112170D01*
X0281500Y0112170D02*
X0281500Y0109170D01*
X0301500Y0109170D01*
X0301500Y0112170D01*
X0302500Y0112170D01*
X0301500Y0112170D02*
X0301500Y0115170D01*
X0281500Y0115170D01*
X0271500Y0184170D02*
X0271500Y0187170D01*
X0270500Y0187170D01*
X0271500Y0187170D02*
X0271500Y0190170D01*
X0291500Y0190170D01*
X0291500Y0187170D01*
X0292500Y0187170D01*
X0291500Y0187170D02*
X0291500Y0184170D01*
X0271500Y0184170D01*
X0276500Y0194170D02*
X0276500Y0197170D01*
X0275500Y0197170D01*
X0276500Y0197170D02*
X0276500Y0200170D01*
X0296500Y0200170D01*
X0296500Y0197170D01*
X0297500Y0197170D01*
X0296500Y0197170D02*
X0296500Y0194170D01*
X0276500Y0194170D01*
M02*
