G75*
%MOIN*%
%OFA0B0*%
%FSLAX25Y25*%
%IPPOS*%
%LPD*%
%AMOC8*
5,1,8,0,0,1.08239X$1,22.5*
%
%ADD10C,0.15800*%
%ADD11C,0.00500*%
%ADD12C,0.08200*%
%ADD13C,0.07000*%
%ADD14C,0.09068*%
%ADD15C,0.07200*%
%ADD16C,0.13800*%
%ADD17C,0.07200*%
%ADD18R,0.06400X0.01700*%
D10*
X0016500Y0027170D03*
X0346500Y0197170D03*
D11*
X0299360Y0149809D02*
X0299582Y0149474D01*
X0299725Y0149098D01*
X0299780Y0148700D01*
X0299728Y0148307D01*
X0299591Y0147935D01*
X0299375Y0147603D01*
X0299090Y0147327D01*
X0298751Y0147122D01*
X0298374Y0146998D01*
X0297980Y0146960D01*
X0297596Y0147007D01*
X0297233Y0147137D01*
X0296908Y0147346D01*
X0296637Y0147621D01*
X0296434Y0147950D01*
X0296310Y0148316D01*
X0296270Y0148700D01*
X0296304Y0149081D01*
X0296422Y0149446D01*
X0296618Y0149775D01*
X0296882Y0150052D01*
X0297202Y0150263D01*
X0297560Y0150398D01*
X0297940Y0150450D01*
X0298340Y0150415D01*
X0298723Y0150292D01*
X0299069Y0150086D01*
X0299360Y0149809D01*
X0299393Y0149759D02*
X0296608Y0149759D01*
X0296362Y0149260D02*
X0299663Y0149260D01*
X0299771Y0148762D02*
X0296275Y0148762D01*
X0296327Y0148263D02*
X0299713Y0148263D01*
X0299480Y0147765D02*
X0296548Y0147765D01*
X0297031Y0147266D02*
X0298989Y0147266D01*
X0298780Y0150258D02*
X0297193Y0150258D01*
X0297940Y0139430D02*
X0297560Y0139378D01*
X0297202Y0139243D01*
X0296882Y0139032D01*
X0296618Y0138755D01*
X0296422Y0138426D01*
X0296304Y0138061D01*
X0296270Y0137680D01*
X0296310Y0137295D01*
X0296434Y0136930D01*
X0296637Y0136601D01*
X0296908Y0136325D01*
X0297233Y0136117D01*
X0297596Y0135986D01*
X0297980Y0135940D01*
X0298374Y0135978D01*
X0298751Y0136102D01*
X0299090Y0136307D01*
X0299375Y0136583D01*
X0299591Y0136915D01*
X0299728Y0137287D01*
X0299780Y0137680D01*
X0299725Y0138078D01*
X0299582Y0138454D01*
X0299360Y0138789D01*
X0299069Y0139066D01*
X0298723Y0139271D01*
X0298340Y0139395D01*
X0297940Y0139430D01*
X0297327Y0139290D02*
X0298665Y0139290D01*
X0299357Y0138792D02*
X0296653Y0138792D01*
X0296379Y0138293D02*
X0299643Y0138293D01*
X0299764Y0137795D02*
X0296280Y0137795D01*
X0296310Y0137296D02*
X0299730Y0137296D01*
X0299515Y0136798D02*
X0296515Y0136798D01*
X0296949Y0136299D02*
X0299076Y0136299D01*
X0073280Y0131680D02*
X0073228Y0131287D01*
X0073091Y0130915D01*
X0072875Y0130583D01*
X0072590Y0130307D01*
X0072251Y0130102D01*
X0071874Y0129978D01*
X0071480Y0129940D01*
X0071096Y0129986D01*
X0070733Y0130117D01*
X0070408Y0130325D01*
X0070137Y0130601D01*
X0069934Y0130930D01*
X0069810Y0131295D01*
X0069770Y0131680D01*
X0069804Y0132061D01*
X0069922Y0132426D01*
X0070118Y0132755D01*
X0070382Y0133032D01*
X0070702Y0133243D01*
X0071060Y0133378D01*
X0071440Y0133430D01*
X0071840Y0133395D01*
X0072223Y0133271D01*
X0072569Y0133066D01*
X0072860Y0132789D01*
X0073082Y0132454D01*
X0073225Y0132078D01*
X0073280Y0131680D01*
X0073261Y0131813D02*
X0069781Y0131813D01*
X0069808Y0131314D02*
X0073232Y0131314D01*
X0073027Y0130816D02*
X0070004Y0130816D01*
X0070421Y0130317D02*
X0072600Y0130317D01*
X0073136Y0132311D02*
X0069885Y0132311D01*
X0070170Y0132810D02*
X0072838Y0132810D01*
X0072109Y0133308D02*
X0070875Y0133308D01*
X0071480Y0140960D02*
X0071096Y0141007D01*
X0070733Y0141137D01*
X0070408Y0141346D01*
X0070137Y0141621D01*
X0069934Y0141950D01*
X0069810Y0142316D01*
X0069770Y0142700D01*
X0069804Y0143081D01*
X0069922Y0143446D01*
X0070118Y0143775D01*
X0070382Y0144052D01*
X0070702Y0144263D01*
X0071060Y0144398D01*
X0071440Y0144450D01*
X0071840Y0144415D01*
X0072223Y0144292D01*
X0072569Y0144086D01*
X0072860Y0143809D01*
X0073082Y0143474D01*
X0073225Y0143098D01*
X0073280Y0142700D01*
X0073228Y0142307D01*
X0073091Y0141935D01*
X0072875Y0141603D01*
X0072590Y0141327D01*
X0072251Y0141122D01*
X0071874Y0140998D01*
X0071480Y0140960D01*
X0070503Y0141284D02*
X0072518Y0141284D01*
X0072992Y0141783D02*
X0070037Y0141783D01*
X0069821Y0142281D02*
X0073219Y0142281D01*
X0073268Y0142780D02*
X0069777Y0142780D01*
X0069867Y0143278D02*
X0073156Y0143278D01*
X0072881Y0143777D02*
X0070120Y0143777D01*
X0070734Y0144275D02*
X0072250Y0144275D01*
X0071480Y0159940D02*
X0071096Y0159986D01*
X0070733Y0160117D01*
X0070408Y0160325D01*
X0070137Y0160601D01*
X0069934Y0160930D01*
X0069810Y0161295D01*
X0069770Y0161680D01*
X0069804Y0162061D01*
X0069922Y0162426D01*
X0070118Y0162755D01*
X0070382Y0163032D01*
X0070702Y0163243D01*
X0071060Y0163378D01*
X0071440Y0163430D01*
X0071840Y0163395D01*
X0072223Y0163271D01*
X0072569Y0163066D01*
X0072860Y0162789D01*
X0073082Y0162454D01*
X0073225Y0162078D01*
X0073280Y0161680D01*
X0073228Y0161287D01*
X0073091Y0160915D01*
X0072875Y0160583D01*
X0072590Y0160307D01*
X0072251Y0160102D01*
X0071874Y0159978D01*
X0071480Y0159940D01*
X0070560Y0160228D02*
X0072458Y0160228D01*
X0072968Y0160726D02*
X0070060Y0160726D01*
X0069834Y0161225D02*
X0073206Y0161225D01*
X0073274Y0161723D02*
X0069774Y0161723D01*
X0069856Y0162222D02*
X0073170Y0162222D01*
X0072906Y0162720D02*
X0070097Y0162720D01*
X0070665Y0163219D02*
X0072312Y0163219D01*
X0071480Y0170960D02*
X0071096Y0171007D01*
X0070733Y0171137D01*
X0070408Y0171346D01*
X0070137Y0171621D01*
X0069934Y0171950D01*
X0069810Y0172316D01*
X0069770Y0172700D01*
X0069804Y0173081D01*
X0069922Y0173446D01*
X0070118Y0173775D01*
X0070382Y0174052D01*
X0070702Y0174263D01*
X0071060Y0174398D01*
X0071440Y0174450D01*
X0071840Y0174415D01*
X0072223Y0174292D01*
X0072569Y0174086D01*
X0072860Y0173809D01*
X0073082Y0173474D01*
X0073225Y0173098D01*
X0073280Y0172700D01*
X0073228Y0172307D01*
X0073091Y0171935D01*
X0072875Y0171603D01*
X0072590Y0171327D01*
X0072251Y0171122D01*
X0071874Y0170998D01*
X0071480Y0170960D01*
X0070643Y0171195D02*
X0072371Y0171195D01*
X0072934Y0171693D02*
X0070092Y0171693D01*
X0069852Y0172192D02*
X0073186Y0172192D01*
X0073278Y0172691D02*
X0069771Y0172691D01*
X0069838Y0173189D02*
X0073190Y0173189D01*
X0072941Y0173688D02*
X0070066Y0173688D01*
X0070585Y0174186D02*
X0072401Y0174186D01*
X0071560Y0189890D02*
X0071160Y0189925D01*
X0070777Y0190048D01*
X0070431Y0190254D01*
X0070140Y0190531D01*
X0069918Y0190866D01*
X0069775Y0191242D01*
X0069720Y0191640D01*
X0069772Y0192033D01*
X0069909Y0192405D01*
X0070125Y0192737D01*
X0070410Y0193012D01*
X0070749Y0193217D01*
X0071126Y0193342D01*
X0071520Y0193380D01*
X0071904Y0193333D01*
X0072267Y0193203D01*
X0072592Y0192994D01*
X0072863Y0192719D01*
X0073066Y0192390D01*
X0073190Y0192024D01*
X0073230Y0191640D01*
X0073196Y0191258D01*
X0073078Y0190894D01*
X0072882Y0190565D01*
X0072618Y0190288D01*
X0072298Y0190077D01*
X0071940Y0189942D01*
X0071560Y0189890D01*
X0072392Y0190138D02*
X0070625Y0190138D01*
X0070070Y0190637D02*
X0072925Y0190637D01*
X0073157Y0191135D02*
X0069816Y0191135D01*
X0069721Y0191634D02*
X0073230Y0191634D01*
X0073154Y0192132D02*
X0069808Y0192132D01*
X0070056Y0192631D02*
X0072917Y0192631D01*
X0072381Y0193129D02*
X0070604Y0193129D01*
X0071160Y0200945D02*
X0070777Y0201068D01*
X0070431Y0201274D01*
X0070140Y0201551D01*
X0069918Y0201886D01*
X0069775Y0202262D01*
X0069720Y0202660D01*
X0069772Y0203053D01*
X0069909Y0203425D01*
X0070125Y0203757D01*
X0070410Y0204032D01*
X0070749Y0204238D01*
X0071126Y0204362D01*
X0071520Y0204400D01*
X0071904Y0204353D01*
X0072267Y0204223D01*
X0072592Y0204014D01*
X0072863Y0203739D01*
X0073066Y0203410D01*
X0073190Y0203044D01*
X0073230Y0202660D01*
X0073196Y0202278D01*
X0073078Y0201914D01*
X0072882Y0201585D01*
X0072618Y0201308D01*
X0072298Y0201097D01*
X0071940Y0200962D01*
X0071560Y0200910D01*
X0071160Y0200945D01*
X0070714Y0201106D02*
X0072312Y0201106D01*
X0072894Y0201604D02*
X0070105Y0201604D01*
X0069836Y0202103D02*
X0073139Y0202103D01*
X0073225Y0202601D02*
X0069729Y0202601D01*
X0069789Y0203100D02*
X0073172Y0203100D01*
X0072950Y0203598D02*
X0070022Y0203598D01*
X0070517Y0204097D02*
X0072464Y0204097D01*
X0047383Y0108898D02*
X0046990Y0108949D01*
X0046592Y0108894D01*
X0046216Y0108752D01*
X0045881Y0108530D01*
X0045604Y0108239D01*
X0045398Y0107893D01*
X0045275Y0107510D01*
X0045240Y0107110D01*
X0045292Y0106730D01*
X0045427Y0106372D01*
X0045638Y0106052D01*
X0045915Y0105788D01*
X0046244Y0105592D01*
X0046609Y0105473D01*
X0046990Y0105440D01*
X0047374Y0105479D01*
X0047740Y0105604D01*
X0048069Y0105807D01*
X0048344Y0106077D01*
X0048553Y0106403D01*
X0048683Y0106766D01*
X0048730Y0107150D01*
X0048692Y0107544D01*
X0048568Y0107921D01*
X0048362Y0108260D01*
X0048087Y0108545D01*
X0047755Y0108761D01*
X0047383Y0108898D01*
X0047430Y0108881D02*
X0046557Y0108881D01*
X0045741Y0108383D02*
X0048244Y0108383D01*
X0048580Y0107884D02*
X0045396Y0107884D01*
X0045264Y0107386D02*
X0048707Y0107386D01*
X0048698Y0106887D02*
X0045271Y0106887D01*
X0045420Y0106389D02*
X0048544Y0106389D01*
X0048154Y0105890D02*
X0045808Y0105890D01*
X0037678Y0106887D02*
X0034250Y0106887D01*
X0034272Y0106730D02*
X0034220Y0107110D01*
X0034255Y0107510D01*
X0034378Y0107893D01*
X0034584Y0108239D01*
X0034861Y0108530D01*
X0035196Y0108752D01*
X0035572Y0108894D01*
X0035970Y0108949D01*
X0036363Y0108898D01*
X0036735Y0108761D01*
X0037067Y0108545D01*
X0037342Y0108260D01*
X0037548Y0107921D01*
X0037672Y0107544D01*
X0037710Y0107150D01*
X0037663Y0106766D01*
X0037533Y0106403D01*
X0037324Y0106077D01*
X0037049Y0105807D01*
X0036720Y0105604D01*
X0036354Y0105479D01*
X0035970Y0105440D01*
X0035589Y0105473D01*
X0035224Y0105592D01*
X0034895Y0105788D01*
X0034618Y0106052D01*
X0034407Y0106372D01*
X0034272Y0106730D01*
X0034400Y0106389D02*
X0037524Y0106389D01*
X0037134Y0105890D02*
X0034788Y0105890D01*
X0034244Y0107386D02*
X0037687Y0107386D01*
X0037560Y0107884D02*
X0034376Y0107884D01*
X0034721Y0108383D02*
X0037224Y0108383D01*
X0036410Y0108881D02*
X0035537Y0108881D01*
X0025411Y0063866D02*
X0025030Y0063900D01*
X0024646Y0063860D01*
X0024280Y0063736D01*
X0023951Y0063533D01*
X0023676Y0063262D01*
X0023467Y0062937D01*
X0023337Y0062573D01*
X0023290Y0062190D01*
X0023328Y0061795D01*
X0023452Y0061419D01*
X0023658Y0061080D01*
X0023933Y0060795D01*
X0024265Y0060579D01*
X0024637Y0060441D01*
X0025030Y0060390D01*
X0025428Y0060445D01*
X0025804Y0060588D01*
X0026139Y0060810D01*
X0026416Y0061101D01*
X0026622Y0061447D01*
X0026745Y0061830D01*
X0026780Y0062230D01*
X0026728Y0062610D01*
X0026593Y0062968D01*
X0026382Y0063288D01*
X0026105Y0063552D01*
X0025776Y0063748D01*
X0025411Y0063866D01*
X0026142Y0063517D02*
X0023934Y0063517D01*
X0023519Y0063018D02*
X0026560Y0063018D01*
X0026740Y0062520D02*
X0023330Y0062520D01*
X0023306Y0062021D02*
X0026762Y0062021D01*
X0026646Y0061522D02*
X0023418Y0061522D01*
X0023712Y0061024D02*
X0026343Y0061024D01*
X0025640Y0060525D02*
X0024409Y0060525D01*
X0015725Y0061830D02*
X0015602Y0061447D01*
X0015396Y0061101D01*
X0015119Y0060810D01*
X0014784Y0060588D01*
X0014408Y0060445D01*
X0014010Y0060390D01*
X0013617Y0060441D01*
X0013245Y0060579D01*
X0012913Y0060795D01*
X0012638Y0061080D01*
X0012432Y0061419D01*
X0012308Y0061795D01*
X0012270Y0062190D01*
X0012317Y0062573D01*
X0012447Y0062937D01*
X0012656Y0063262D01*
X0012931Y0063533D01*
X0013260Y0063736D01*
X0013626Y0063860D01*
X0014010Y0063900D01*
X0014391Y0063866D01*
X0014756Y0063748D01*
X0015085Y0063552D01*
X0015362Y0063288D01*
X0015573Y0062968D01*
X0015708Y0062610D01*
X0015760Y0062230D01*
X0015725Y0061830D01*
X0015742Y0062021D02*
X0012286Y0062021D01*
X0012310Y0062520D02*
X0015720Y0062520D01*
X0015540Y0063018D02*
X0012499Y0063018D01*
X0012914Y0063517D02*
X0015122Y0063517D01*
X0015626Y0061522D02*
X0012398Y0061522D01*
X0012692Y0061024D02*
X0015323Y0061024D01*
X0014620Y0060525D02*
X0013389Y0060525D01*
D12*
X0045893Y0062776D03*
X0069060Y0063872D03*
X0066500Y0082170D03*
X0081500Y0082170D03*
X0081500Y0112170D03*
X0066500Y0112170D03*
X0011500Y0112170D03*
X0011500Y0122170D03*
X0011500Y0132170D03*
X0011500Y0142170D03*
X0011500Y0152170D03*
X0011500Y0162170D03*
X0011500Y0172170D03*
X0011500Y0182170D03*
X0011500Y0192170D03*
X0011500Y0202170D03*
X0166500Y0187170D03*
X0176500Y0187170D03*
X0171500Y0194670D03*
X0196500Y0187170D03*
X0206500Y0187170D03*
X0201500Y0194670D03*
X0221500Y0187170D03*
X0226500Y0197170D03*
X0251500Y0187170D03*
X0266500Y0187170D03*
X0271500Y0197170D03*
X0256500Y0197170D03*
X0296500Y0187170D03*
X0301500Y0197170D03*
X0301500Y0122170D03*
X0306500Y0112170D03*
X0276500Y0112170D03*
X0271500Y0122170D03*
X0256500Y0112170D03*
X0251500Y0122170D03*
X0226500Y0112170D03*
X0221500Y0122170D03*
X0181500Y0062170D03*
X0166500Y0062170D03*
X0151500Y0062170D03*
X0151500Y0032170D03*
X0166500Y0032170D03*
X0181500Y0032170D03*
X0091940Y0044468D03*
X0067107Y0041563D03*
X0011500Y0092170D03*
X0011500Y0102170D03*
D13*
X0211000Y0087170D03*
X0221000Y0087170D03*
X0231000Y0087170D03*
X0241000Y0087170D03*
X0251000Y0087170D03*
X0261000Y0087170D03*
X0271000Y0087170D03*
X0281000Y0087170D03*
X0291000Y0087170D03*
X0301000Y0087170D03*
X0311000Y0087170D03*
X0321000Y0087170D03*
X0331000Y0087170D03*
X0341000Y0087170D03*
X0341000Y0027170D03*
X0331000Y0027170D03*
X0321000Y0027170D03*
X0311000Y0027170D03*
X0301000Y0027170D03*
X0291000Y0027170D03*
X0281000Y0027170D03*
X0271000Y0027170D03*
X0261000Y0027170D03*
X0251000Y0027170D03*
X0241000Y0027170D03*
X0231000Y0027170D03*
X0221000Y0027170D03*
X0211000Y0027170D03*
D14*
X0202563Y0108469D03*
X0160437Y0108469D03*
X0137563Y0138469D03*
X0160437Y0145871D03*
X0202563Y0145871D03*
X0137563Y0175871D03*
X0095437Y0175871D03*
X0095437Y0138469D03*
D15*
X0326500Y0107370D02*
X0326500Y0100970D01*
X0336500Y0100970D02*
X0336500Y0107370D01*
X0346500Y0107370D02*
X0346500Y0100970D01*
D16*
X0336500Y0163170D03*
D17*
X0266500Y0167170D03*
X0256500Y0167170D03*
X0246500Y0167170D03*
X0236500Y0167170D03*
X0236500Y0137170D03*
X0246500Y0137170D03*
X0256500Y0137170D03*
X0266500Y0137170D03*
X0131500Y0102170D03*
X0121500Y0102170D03*
X0111500Y0102170D03*
X0101500Y0102170D03*
X0101500Y0072170D03*
X0111500Y0072170D03*
X0121500Y0072170D03*
X0131500Y0072170D03*
D18*
X0095050Y0031107D03*
X0095050Y0029138D03*
X0095050Y0027170D03*
X0095050Y0025201D03*
X0095050Y0023233D03*
X0077950Y0023233D03*
X0077950Y0025201D03*
X0077950Y0027170D03*
X0077950Y0029138D03*
X0077950Y0031107D03*
M02*
