G75*
%MOIN*%
%OFA0B0*%
%FSLAX25Y25*%
%IPPOS*%
%LPD*%
%AMOC8*
5,1,8,0,0,1.08239X$1,22.5*
%
%ADD10C,0.00000*%
%ADD11C,0.08000*%
%ADD12C,0.07400*%
%ADD13C,0.06200*%
%ADD14C,0.08268*%
%ADD15C,0.06400*%
%ADD16C,0.06400*%
%ADD17R,0.05600X0.00900*%
%ADD18C,0.01000*%
%ADD19C,0.04000*%
D10*
X0001500Y0012170D02*
X0001500Y0212130D01*
X0360201Y0212130D01*
X0360201Y0012170D01*
X0001500Y0012170D01*
X0009000Y0027170D02*
X0009002Y0027354D01*
X0009009Y0027538D01*
X0009020Y0027722D01*
X0009036Y0027905D01*
X0009056Y0028088D01*
X0009081Y0028270D01*
X0009110Y0028452D01*
X0009144Y0028633D01*
X0009182Y0028813D01*
X0009225Y0028992D01*
X0009272Y0029170D01*
X0009323Y0029347D01*
X0009379Y0029523D01*
X0009438Y0029697D01*
X0009503Y0029869D01*
X0009571Y0030040D01*
X0009643Y0030209D01*
X0009720Y0030377D01*
X0009801Y0030542D01*
X0009886Y0030705D01*
X0009974Y0030867D01*
X0010067Y0031026D01*
X0010164Y0031182D01*
X0010264Y0031337D01*
X0010368Y0031489D01*
X0010476Y0031638D01*
X0010587Y0031784D01*
X0010702Y0031928D01*
X0010821Y0032069D01*
X0010943Y0032207D01*
X0011068Y0032342D01*
X0011197Y0032473D01*
X0011328Y0032602D01*
X0011463Y0032727D01*
X0011601Y0032849D01*
X0011742Y0032968D01*
X0011886Y0033083D01*
X0012032Y0033194D01*
X0012181Y0033302D01*
X0012333Y0033406D01*
X0012488Y0033506D01*
X0012644Y0033603D01*
X0012803Y0033696D01*
X0012965Y0033784D01*
X0013128Y0033869D01*
X0013293Y0033950D01*
X0013461Y0034027D01*
X0013630Y0034099D01*
X0013801Y0034167D01*
X0013973Y0034232D01*
X0014147Y0034291D01*
X0014323Y0034347D01*
X0014500Y0034398D01*
X0014678Y0034445D01*
X0014857Y0034488D01*
X0015037Y0034526D01*
X0015218Y0034560D01*
X0015400Y0034589D01*
X0015582Y0034614D01*
X0015765Y0034634D01*
X0015948Y0034650D01*
X0016132Y0034661D01*
X0016316Y0034668D01*
X0016500Y0034670D01*
X0016684Y0034668D01*
X0016868Y0034661D01*
X0017052Y0034650D01*
X0017235Y0034634D01*
X0017418Y0034614D01*
X0017600Y0034589D01*
X0017782Y0034560D01*
X0017963Y0034526D01*
X0018143Y0034488D01*
X0018322Y0034445D01*
X0018500Y0034398D01*
X0018677Y0034347D01*
X0018853Y0034291D01*
X0019027Y0034232D01*
X0019199Y0034167D01*
X0019370Y0034099D01*
X0019539Y0034027D01*
X0019707Y0033950D01*
X0019872Y0033869D01*
X0020035Y0033784D01*
X0020197Y0033696D01*
X0020356Y0033603D01*
X0020512Y0033506D01*
X0020667Y0033406D01*
X0020819Y0033302D01*
X0020968Y0033194D01*
X0021114Y0033083D01*
X0021258Y0032968D01*
X0021399Y0032849D01*
X0021537Y0032727D01*
X0021672Y0032602D01*
X0021803Y0032473D01*
X0021932Y0032342D01*
X0022057Y0032207D01*
X0022179Y0032069D01*
X0022298Y0031928D01*
X0022413Y0031784D01*
X0022524Y0031638D01*
X0022632Y0031489D01*
X0022736Y0031337D01*
X0022836Y0031182D01*
X0022933Y0031026D01*
X0023026Y0030867D01*
X0023114Y0030705D01*
X0023199Y0030542D01*
X0023280Y0030377D01*
X0023357Y0030209D01*
X0023429Y0030040D01*
X0023497Y0029869D01*
X0023562Y0029697D01*
X0023621Y0029523D01*
X0023677Y0029347D01*
X0023728Y0029170D01*
X0023775Y0028992D01*
X0023818Y0028813D01*
X0023856Y0028633D01*
X0023890Y0028452D01*
X0023919Y0028270D01*
X0023944Y0028088D01*
X0023964Y0027905D01*
X0023980Y0027722D01*
X0023991Y0027538D01*
X0023998Y0027354D01*
X0024000Y0027170D01*
X0023998Y0026986D01*
X0023991Y0026802D01*
X0023980Y0026618D01*
X0023964Y0026435D01*
X0023944Y0026252D01*
X0023919Y0026070D01*
X0023890Y0025888D01*
X0023856Y0025707D01*
X0023818Y0025527D01*
X0023775Y0025348D01*
X0023728Y0025170D01*
X0023677Y0024993D01*
X0023621Y0024817D01*
X0023562Y0024643D01*
X0023497Y0024471D01*
X0023429Y0024300D01*
X0023357Y0024131D01*
X0023280Y0023963D01*
X0023199Y0023798D01*
X0023114Y0023635D01*
X0023026Y0023473D01*
X0022933Y0023314D01*
X0022836Y0023158D01*
X0022736Y0023003D01*
X0022632Y0022851D01*
X0022524Y0022702D01*
X0022413Y0022556D01*
X0022298Y0022412D01*
X0022179Y0022271D01*
X0022057Y0022133D01*
X0021932Y0021998D01*
X0021803Y0021867D01*
X0021672Y0021738D01*
X0021537Y0021613D01*
X0021399Y0021491D01*
X0021258Y0021372D01*
X0021114Y0021257D01*
X0020968Y0021146D01*
X0020819Y0021038D01*
X0020667Y0020934D01*
X0020512Y0020834D01*
X0020356Y0020737D01*
X0020197Y0020644D01*
X0020035Y0020556D01*
X0019872Y0020471D01*
X0019707Y0020390D01*
X0019539Y0020313D01*
X0019370Y0020241D01*
X0019199Y0020173D01*
X0019027Y0020108D01*
X0018853Y0020049D01*
X0018677Y0019993D01*
X0018500Y0019942D01*
X0018322Y0019895D01*
X0018143Y0019852D01*
X0017963Y0019814D01*
X0017782Y0019780D01*
X0017600Y0019751D01*
X0017418Y0019726D01*
X0017235Y0019706D01*
X0017052Y0019690D01*
X0016868Y0019679D01*
X0016684Y0019672D01*
X0016500Y0019670D01*
X0016316Y0019672D01*
X0016132Y0019679D01*
X0015948Y0019690D01*
X0015765Y0019706D01*
X0015582Y0019726D01*
X0015400Y0019751D01*
X0015218Y0019780D01*
X0015037Y0019814D01*
X0014857Y0019852D01*
X0014678Y0019895D01*
X0014500Y0019942D01*
X0014323Y0019993D01*
X0014147Y0020049D01*
X0013973Y0020108D01*
X0013801Y0020173D01*
X0013630Y0020241D01*
X0013461Y0020313D01*
X0013293Y0020390D01*
X0013128Y0020471D01*
X0012965Y0020556D01*
X0012803Y0020644D01*
X0012644Y0020737D01*
X0012488Y0020834D01*
X0012333Y0020934D01*
X0012181Y0021038D01*
X0012032Y0021146D01*
X0011886Y0021257D01*
X0011742Y0021372D01*
X0011601Y0021491D01*
X0011463Y0021613D01*
X0011328Y0021738D01*
X0011197Y0021867D01*
X0011068Y0021998D01*
X0010943Y0022133D01*
X0010821Y0022271D01*
X0010702Y0022412D01*
X0010587Y0022556D01*
X0010476Y0022702D01*
X0010368Y0022851D01*
X0010264Y0023003D01*
X0010164Y0023158D01*
X0010067Y0023314D01*
X0009974Y0023473D01*
X0009886Y0023635D01*
X0009801Y0023798D01*
X0009720Y0023963D01*
X0009643Y0024131D01*
X0009571Y0024300D01*
X0009503Y0024471D01*
X0009438Y0024643D01*
X0009379Y0024817D01*
X0009323Y0024993D01*
X0009272Y0025170D01*
X0009225Y0025348D01*
X0009182Y0025527D01*
X0009144Y0025707D01*
X0009110Y0025888D01*
X0009081Y0026070D01*
X0009056Y0026252D01*
X0009036Y0026435D01*
X0009020Y0026618D01*
X0009009Y0026802D01*
X0009002Y0026986D01*
X0009000Y0027170D01*
X0330000Y0163170D02*
X0330002Y0163331D01*
X0330008Y0163491D01*
X0330018Y0163652D01*
X0330032Y0163812D01*
X0330050Y0163972D01*
X0330071Y0164131D01*
X0330097Y0164290D01*
X0330127Y0164448D01*
X0330160Y0164605D01*
X0330198Y0164762D01*
X0330239Y0164917D01*
X0330284Y0165071D01*
X0330333Y0165224D01*
X0330386Y0165376D01*
X0330442Y0165527D01*
X0330503Y0165676D01*
X0330566Y0165824D01*
X0330634Y0165970D01*
X0330705Y0166114D01*
X0330779Y0166256D01*
X0330857Y0166397D01*
X0330939Y0166535D01*
X0331024Y0166672D01*
X0331112Y0166806D01*
X0331204Y0166938D01*
X0331299Y0167068D01*
X0331397Y0167196D01*
X0331498Y0167321D01*
X0331602Y0167443D01*
X0331709Y0167563D01*
X0331819Y0167680D01*
X0331932Y0167795D01*
X0332048Y0167906D01*
X0332167Y0168015D01*
X0332288Y0168120D01*
X0332412Y0168223D01*
X0332538Y0168323D01*
X0332666Y0168419D01*
X0332797Y0168512D01*
X0332931Y0168602D01*
X0333066Y0168689D01*
X0333204Y0168772D01*
X0333343Y0168852D01*
X0333485Y0168928D01*
X0333628Y0169001D01*
X0333773Y0169070D01*
X0333920Y0169136D01*
X0334068Y0169198D01*
X0334218Y0169256D01*
X0334369Y0169311D01*
X0334522Y0169362D01*
X0334676Y0169409D01*
X0334831Y0169452D01*
X0334987Y0169491D01*
X0335143Y0169527D01*
X0335301Y0169558D01*
X0335459Y0169586D01*
X0335618Y0169610D01*
X0335778Y0169630D01*
X0335938Y0169646D01*
X0336098Y0169658D01*
X0336259Y0169666D01*
X0336420Y0169670D01*
X0336580Y0169670D01*
X0336741Y0169666D01*
X0336902Y0169658D01*
X0337062Y0169646D01*
X0337222Y0169630D01*
X0337382Y0169610D01*
X0337541Y0169586D01*
X0337699Y0169558D01*
X0337857Y0169527D01*
X0338013Y0169491D01*
X0338169Y0169452D01*
X0338324Y0169409D01*
X0338478Y0169362D01*
X0338631Y0169311D01*
X0338782Y0169256D01*
X0338932Y0169198D01*
X0339080Y0169136D01*
X0339227Y0169070D01*
X0339372Y0169001D01*
X0339515Y0168928D01*
X0339657Y0168852D01*
X0339796Y0168772D01*
X0339934Y0168689D01*
X0340069Y0168602D01*
X0340203Y0168512D01*
X0340334Y0168419D01*
X0340462Y0168323D01*
X0340588Y0168223D01*
X0340712Y0168120D01*
X0340833Y0168015D01*
X0340952Y0167906D01*
X0341068Y0167795D01*
X0341181Y0167680D01*
X0341291Y0167563D01*
X0341398Y0167443D01*
X0341502Y0167321D01*
X0341603Y0167196D01*
X0341701Y0167068D01*
X0341796Y0166938D01*
X0341888Y0166806D01*
X0341976Y0166672D01*
X0342061Y0166535D01*
X0342143Y0166397D01*
X0342221Y0166256D01*
X0342295Y0166114D01*
X0342366Y0165970D01*
X0342434Y0165824D01*
X0342497Y0165676D01*
X0342558Y0165527D01*
X0342614Y0165376D01*
X0342667Y0165224D01*
X0342716Y0165071D01*
X0342761Y0164917D01*
X0342802Y0164762D01*
X0342840Y0164605D01*
X0342873Y0164448D01*
X0342903Y0164290D01*
X0342929Y0164131D01*
X0342950Y0163972D01*
X0342968Y0163812D01*
X0342982Y0163652D01*
X0342992Y0163491D01*
X0342998Y0163331D01*
X0343000Y0163170D01*
X0342998Y0163009D01*
X0342992Y0162849D01*
X0342982Y0162688D01*
X0342968Y0162528D01*
X0342950Y0162368D01*
X0342929Y0162209D01*
X0342903Y0162050D01*
X0342873Y0161892D01*
X0342840Y0161735D01*
X0342802Y0161578D01*
X0342761Y0161423D01*
X0342716Y0161269D01*
X0342667Y0161116D01*
X0342614Y0160964D01*
X0342558Y0160813D01*
X0342497Y0160664D01*
X0342434Y0160516D01*
X0342366Y0160370D01*
X0342295Y0160226D01*
X0342221Y0160084D01*
X0342143Y0159943D01*
X0342061Y0159805D01*
X0341976Y0159668D01*
X0341888Y0159534D01*
X0341796Y0159402D01*
X0341701Y0159272D01*
X0341603Y0159144D01*
X0341502Y0159019D01*
X0341398Y0158897D01*
X0341291Y0158777D01*
X0341181Y0158660D01*
X0341068Y0158545D01*
X0340952Y0158434D01*
X0340833Y0158325D01*
X0340712Y0158220D01*
X0340588Y0158117D01*
X0340462Y0158017D01*
X0340334Y0157921D01*
X0340203Y0157828D01*
X0340069Y0157738D01*
X0339934Y0157651D01*
X0339796Y0157568D01*
X0339657Y0157488D01*
X0339515Y0157412D01*
X0339372Y0157339D01*
X0339227Y0157270D01*
X0339080Y0157204D01*
X0338932Y0157142D01*
X0338782Y0157084D01*
X0338631Y0157029D01*
X0338478Y0156978D01*
X0338324Y0156931D01*
X0338169Y0156888D01*
X0338013Y0156849D01*
X0337857Y0156813D01*
X0337699Y0156782D01*
X0337541Y0156754D01*
X0337382Y0156730D01*
X0337222Y0156710D01*
X0337062Y0156694D01*
X0336902Y0156682D01*
X0336741Y0156674D01*
X0336580Y0156670D01*
X0336420Y0156670D01*
X0336259Y0156674D01*
X0336098Y0156682D01*
X0335938Y0156694D01*
X0335778Y0156710D01*
X0335618Y0156730D01*
X0335459Y0156754D01*
X0335301Y0156782D01*
X0335143Y0156813D01*
X0334987Y0156849D01*
X0334831Y0156888D01*
X0334676Y0156931D01*
X0334522Y0156978D01*
X0334369Y0157029D01*
X0334218Y0157084D01*
X0334068Y0157142D01*
X0333920Y0157204D01*
X0333773Y0157270D01*
X0333628Y0157339D01*
X0333485Y0157412D01*
X0333343Y0157488D01*
X0333204Y0157568D01*
X0333066Y0157651D01*
X0332931Y0157738D01*
X0332797Y0157828D01*
X0332666Y0157921D01*
X0332538Y0158017D01*
X0332412Y0158117D01*
X0332288Y0158220D01*
X0332167Y0158325D01*
X0332048Y0158434D01*
X0331932Y0158545D01*
X0331819Y0158660D01*
X0331709Y0158777D01*
X0331602Y0158897D01*
X0331498Y0159019D01*
X0331397Y0159144D01*
X0331299Y0159272D01*
X0331204Y0159402D01*
X0331112Y0159534D01*
X0331024Y0159668D01*
X0330939Y0159805D01*
X0330857Y0159943D01*
X0330779Y0160084D01*
X0330705Y0160226D01*
X0330634Y0160370D01*
X0330566Y0160516D01*
X0330503Y0160664D01*
X0330442Y0160813D01*
X0330386Y0160964D01*
X0330333Y0161116D01*
X0330284Y0161269D01*
X0330239Y0161423D01*
X0330198Y0161578D01*
X0330160Y0161735D01*
X0330127Y0161892D01*
X0330097Y0162050D01*
X0330071Y0162209D01*
X0330050Y0162368D01*
X0330032Y0162528D01*
X0330018Y0162688D01*
X0330008Y0162849D01*
X0330002Y0163009D01*
X0330000Y0163170D01*
X0339000Y0197170D02*
X0339002Y0197354D01*
X0339009Y0197538D01*
X0339020Y0197722D01*
X0339036Y0197905D01*
X0339056Y0198088D01*
X0339081Y0198270D01*
X0339110Y0198452D01*
X0339144Y0198633D01*
X0339182Y0198813D01*
X0339225Y0198992D01*
X0339272Y0199170D01*
X0339323Y0199347D01*
X0339379Y0199523D01*
X0339438Y0199697D01*
X0339503Y0199869D01*
X0339571Y0200040D01*
X0339643Y0200209D01*
X0339720Y0200377D01*
X0339801Y0200542D01*
X0339886Y0200705D01*
X0339974Y0200867D01*
X0340067Y0201026D01*
X0340164Y0201182D01*
X0340264Y0201337D01*
X0340368Y0201489D01*
X0340476Y0201638D01*
X0340587Y0201784D01*
X0340702Y0201928D01*
X0340821Y0202069D01*
X0340943Y0202207D01*
X0341068Y0202342D01*
X0341197Y0202473D01*
X0341328Y0202602D01*
X0341463Y0202727D01*
X0341601Y0202849D01*
X0341742Y0202968D01*
X0341886Y0203083D01*
X0342032Y0203194D01*
X0342181Y0203302D01*
X0342333Y0203406D01*
X0342488Y0203506D01*
X0342644Y0203603D01*
X0342803Y0203696D01*
X0342965Y0203784D01*
X0343128Y0203869D01*
X0343293Y0203950D01*
X0343461Y0204027D01*
X0343630Y0204099D01*
X0343801Y0204167D01*
X0343973Y0204232D01*
X0344147Y0204291D01*
X0344323Y0204347D01*
X0344500Y0204398D01*
X0344678Y0204445D01*
X0344857Y0204488D01*
X0345037Y0204526D01*
X0345218Y0204560D01*
X0345400Y0204589D01*
X0345582Y0204614D01*
X0345765Y0204634D01*
X0345948Y0204650D01*
X0346132Y0204661D01*
X0346316Y0204668D01*
X0346500Y0204670D01*
X0346684Y0204668D01*
X0346868Y0204661D01*
X0347052Y0204650D01*
X0347235Y0204634D01*
X0347418Y0204614D01*
X0347600Y0204589D01*
X0347782Y0204560D01*
X0347963Y0204526D01*
X0348143Y0204488D01*
X0348322Y0204445D01*
X0348500Y0204398D01*
X0348677Y0204347D01*
X0348853Y0204291D01*
X0349027Y0204232D01*
X0349199Y0204167D01*
X0349370Y0204099D01*
X0349539Y0204027D01*
X0349707Y0203950D01*
X0349872Y0203869D01*
X0350035Y0203784D01*
X0350197Y0203696D01*
X0350356Y0203603D01*
X0350512Y0203506D01*
X0350667Y0203406D01*
X0350819Y0203302D01*
X0350968Y0203194D01*
X0351114Y0203083D01*
X0351258Y0202968D01*
X0351399Y0202849D01*
X0351537Y0202727D01*
X0351672Y0202602D01*
X0351803Y0202473D01*
X0351932Y0202342D01*
X0352057Y0202207D01*
X0352179Y0202069D01*
X0352298Y0201928D01*
X0352413Y0201784D01*
X0352524Y0201638D01*
X0352632Y0201489D01*
X0352736Y0201337D01*
X0352836Y0201182D01*
X0352933Y0201026D01*
X0353026Y0200867D01*
X0353114Y0200705D01*
X0353199Y0200542D01*
X0353280Y0200377D01*
X0353357Y0200209D01*
X0353429Y0200040D01*
X0353497Y0199869D01*
X0353562Y0199697D01*
X0353621Y0199523D01*
X0353677Y0199347D01*
X0353728Y0199170D01*
X0353775Y0198992D01*
X0353818Y0198813D01*
X0353856Y0198633D01*
X0353890Y0198452D01*
X0353919Y0198270D01*
X0353944Y0198088D01*
X0353964Y0197905D01*
X0353980Y0197722D01*
X0353991Y0197538D01*
X0353998Y0197354D01*
X0354000Y0197170D01*
X0353998Y0196986D01*
X0353991Y0196802D01*
X0353980Y0196618D01*
X0353964Y0196435D01*
X0353944Y0196252D01*
X0353919Y0196070D01*
X0353890Y0195888D01*
X0353856Y0195707D01*
X0353818Y0195527D01*
X0353775Y0195348D01*
X0353728Y0195170D01*
X0353677Y0194993D01*
X0353621Y0194817D01*
X0353562Y0194643D01*
X0353497Y0194471D01*
X0353429Y0194300D01*
X0353357Y0194131D01*
X0353280Y0193963D01*
X0353199Y0193798D01*
X0353114Y0193635D01*
X0353026Y0193473D01*
X0352933Y0193314D01*
X0352836Y0193158D01*
X0352736Y0193003D01*
X0352632Y0192851D01*
X0352524Y0192702D01*
X0352413Y0192556D01*
X0352298Y0192412D01*
X0352179Y0192271D01*
X0352057Y0192133D01*
X0351932Y0191998D01*
X0351803Y0191867D01*
X0351672Y0191738D01*
X0351537Y0191613D01*
X0351399Y0191491D01*
X0351258Y0191372D01*
X0351114Y0191257D01*
X0350968Y0191146D01*
X0350819Y0191038D01*
X0350667Y0190934D01*
X0350512Y0190834D01*
X0350356Y0190737D01*
X0350197Y0190644D01*
X0350035Y0190556D01*
X0349872Y0190471D01*
X0349707Y0190390D01*
X0349539Y0190313D01*
X0349370Y0190241D01*
X0349199Y0190173D01*
X0349027Y0190108D01*
X0348853Y0190049D01*
X0348677Y0189993D01*
X0348500Y0189942D01*
X0348322Y0189895D01*
X0348143Y0189852D01*
X0347963Y0189814D01*
X0347782Y0189780D01*
X0347600Y0189751D01*
X0347418Y0189726D01*
X0347235Y0189706D01*
X0347052Y0189690D01*
X0346868Y0189679D01*
X0346684Y0189672D01*
X0346500Y0189670D01*
X0346316Y0189672D01*
X0346132Y0189679D01*
X0345948Y0189690D01*
X0345765Y0189706D01*
X0345582Y0189726D01*
X0345400Y0189751D01*
X0345218Y0189780D01*
X0345037Y0189814D01*
X0344857Y0189852D01*
X0344678Y0189895D01*
X0344500Y0189942D01*
X0344323Y0189993D01*
X0344147Y0190049D01*
X0343973Y0190108D01*
X0343801Y0190173D01*
X0343630Y0190241D01*
X0343461Y0190313D01*
X0343293Y0190390D01*
X0343128Y0190471D01*
X0342965Y0190556D01*
X0342803Y0190644D01*
X0342644Y0190737D01*
X0342488Y0190834D01*
X0342333Y0190934D01*
X0342181Y0191038D01*
X0342032Y0191146D01*
X0341886Y0191257D01*
X0341742Y0191372D01*
X0341601Y0191491D01*
X0341463Y0191613D01*
X0341328Y0191738D01*
X0341197Y0191867D01*
X0341068Y0191998D01*
X0340943Y0192133D01*
X0340821Y0192271D01*
X0340702Y0192412D01*
X0340587Y0192556D01*
X0340476Y0192702D01*
X0340368Y0192851D01*
X0340264Y0193003D01*
X0340164Y0193158D01*
X0340067Y0193314D01*
X0339974Y0193473D01*
X0339886Y0193635D01*
X0339801Y0193798D01*
X0339720Y0193963D01*
X0339643Y0194131D01*
X0339571Y0194300D01*
X0339503Y0194471D01*
X0339438Y0194643D01*
X0339379Y0194817D01*
X0339323Y0194993D01*
X0339272Y0195170D01*
X0339225Y0195348D01*
X0339182Y0195527D01*
X0339144Y0195707D01*
X0339110Y0195888D01*
X0339081Y0196070D01*
X0339056Y0196252D01*
X0339036Y0196435D01*
X0339020Y0196618D01*
X0339009Y0196802D01*
X0339002Y0196986D01*
X0339000Y0197170D01*
D11*
X0298000Y0148670D03*
X0298000Y0137670D03*
X0071500Y0142670D03*
X0071500Y0131670D03*
X0047000Y0107170D03*
X0036000Y0107170D03*
X0025000Y0062170D03*
X0014000Y0062170D03*
X0071500Y0161670D03*
X0071500Y0172670D03*
X0071500Y0191670D03*
X0071500Y0202670D03*
D12*
X0011500Y0202170D03*
X0011500Y0192170D03*
X0011500Y0182170D03*
X0011500Y0172170D03*
X0011500Y0162170D03*
X0011500Y0152170D03*
X0011500Y0142170D03*
X0011500Y0132170D03*
X0011500Y0122170D03*
X0011500Y0112170D03*
X0011500Y0102170D03*
X0011500Y0092170D03*
X0045893Y0062776D03*
X0069060Y0063872D03*
X0066500Y0082170D03*
X0081500Y0082170D03*
X0081500Y0112170D03*
X0066500Y0112170D03*
X0151500Y0062170D03*
X0166500Y0062170D03*
X0181500Y0062170D03*
X0181500Y0032170D03*
X0166500Y0032170D03*
X0151500Y0032170D03*
X0091940Y0044468D03*
X0067107Y0041563D03*
X0221500Y0122170D03*
X0226500Y0112170D03*
X0251500Y0122170D03*
X0256500Y0112170D03*
X0271500Y0122170D03*
X0276500Y0112170D03*
X0301500Y0122170D03*
X0306500Y0112170D03*
X0296500Y0187170D03*
X0301500Y0197170D03*
X0271500Y0197170D03*
X0256500Y0197170D03*
X0251500Y0187170D03*
X0266500Y0187170D03*
X0226500Y0197170D03*
X0221500Y0187170D03*
X0206500Y0187170D03*
X0196500Y0187170D03*
X0201500Y0194670D03*
X0176500Y0187170D03*
X0166500Y0187170D03*
X0171500Y0194670D03*
D13*
X0211000Y0087170D03*
X0221000Y0087170D03*
X0231000Y0087170D03*
X0241000Y0087170D03*
X0251000Y0087170D03*
X0261000Y0087170D03*
X0271000Y0087170D03*
X0281000Y0087170D03*
X0291000Y0087170D03*
X0301000Y0087170D03*
X0311000Y0087170D03*
X0321000Y0087170D03*
X0331000Y0087170D03*
X0341000Y0087170D03*
X0341000Y0027170D03*
X0331000Y0027170D03*
X0321000Y0027170D03*
X0311000Y0027170D03*
X0301000Y0027170D03*
X0291000Y0027170D03*
X0281000Y0027170D03*
X0271000Y0027170D03*
X0261000Y0027170D03*
X0251000Y0027170D03*
X0241000Y0027170D03*
X0231000Y0027170D03*
X0221000Y0027170D03*
X0211000Y0027170D03*
D14*
X0202563Y0108469D03*
X0160437Y0108469D03*
X0137563Y0138469D03*
X0160437Y0145871D03*
X0202563Y0145871D03*
X0137563Y0175871D03*
X0095437Y0175871D03*
X0095437Y0138469D03*
D15*
X0326500Y0107370D02*
X0326500Y0100970D01*
X0336500Y0100970D02*
X0336500Y0107370D01*
X0346500Y0107370D02*
X0346500Y0100970D01*
D16*
X0266500Y0137170D03*
X0256500Y0137170D03*
X0246500Y0137170D03*
X0236500Y0137170D03*
X0236500Y0167170D03*
X0246500Y0167170D03*
X0256500Y0167170D03*
X0266500Y0167170D03*
X0131500Y0102170D03*
X0121500Y0102170D03*
X0111500Y0102170D03*
X0101500Y0102170D03*
X0101500Y0072170D03*
X0111500Y0072170D03*
X0121500Y0072170D03*
X0131500Y0072170D03*
D17*
X0095050Y0031107D03*
X0095050Y0029138D03*
X0095050Y0027170D03*
X0095050Y0025201D03*
X0095050Y0023233D03*
X0077950Y0023233D03*
X0077950Y0025201D03*
X0077950Y0027170D03*
X0077950Y0029138D03*
X0077950Y0031107D03*
D18*
X0076500Y0032557D01*
X0076500Y0056432D01*
X0069060Y0063872D01*
X0065389Y0062776D01*
X0045893Y0062776D01*
X0050827Y0064976D02*
X0050471Y0065835D01*
X0048952Y0067354D01*
X0046968Y0068176D01*
X0044819Y0068176D01*
X0042835Y0067354D01*
X0041315Y0065835D01*
X0040493Y0063851D01*
X0040493Y0061702D01*
X0041315Y0059718D01*
X0042835Y0058199D01*
X0044819Y0057376D01*
X0046968Y0057376D01*
X0048952Y0058199D01*
X0050471Y0059718D01*
X0050827Y0060576D01*
X0064718Y0060576D01*
X0066001Y0059294D01*
X0067986Y0058472D01*
X0070134Y0058472D01*
X0070993Y0058827D01*
X0074300Y0055520D01*
X0074300Y0033111D01*
X0073985Y0032796D01*
X0069904Y0036877D01*
X0070165Y0036985D01*
X0071684Y0038504D01*
X0072507Y0040489D01*
X0072507Y0042637D01*
X0071684Y0044622D01*
X0070165Y0046141D01*
X0068181Y0046963D01*
X0066032Y0046963D01*
X0064048Y0046141D01*
X0062529Y0044622D01*
X0061707Y0042637D01*
X0061707Y0040489D01*
X0062529Y0038504D01*
X0064048Y0036985D01*
X0064300Y0036881D01*
X0064300Y0036259D01*
X0070689Y0029870D01*
X0064911Y0029870D01*
X0037200Y0057581D01*
X0037200Y0101497D01*
X0039229Y0102338D01*
X0040832Y0103941D01*
X0041500Y0105553D01*
X0042168Y0103941D01*
X0043771Y0102338D01*
X0045866Y0101470D01*
X0048134Y0101470D01*
X0050229Y0102338D01*
X0051832Y0103941D01*
X0052700Y0106036D01*
X0052700Y0108304D01*
X0051832Y0110399D01*
X0050229Y0112002D01*
X0048134Y0112870D01*
X0045866Y0112870D01*
X0043771Y0112002D01*
X0042168Y0110399D01*
X0041500Y0108786D01*
X0040832Y0110399D01*
X0039229Y0112002D01*
X0037134Y0112870D01*
X0034866Y0112870D01*
X0033837Y0112444D01*
X0023200Y0123081D01*
X0021911Y0124370D01*
X0016434Y0124370D01*
X0016078Y0125229D01*
X0014559Y0126748D01*
X0013276Y0127279D01*
X0013496Y0127351D01*
X0014225Y0127722D01*
X0014888Y0128204D01*
X0015466Y0128782D01*
X0015947Y0129444D01*
X0016319Y0130174D01*
X0016572Y0130952D01*
X0016686Y0131670D01*
X0012000Y0131670D01*
X0012000Y0132670D01*
X0016686Y0132670D01*
X0016572Y0133388D01*
X0016319Y0134166D01*
X0015947Y0134895D01*
X0015466Y0135557D01*
X0014888Y0136136D01*
X0014225Y0136617D01*
X0013496Y0136989D01*
X0013276Y0137060D01*
X0014559Y0137592D01*
X0016078Y0139111D01*
X0016434Y0139970D01*
X0035089Y0139970D01*
X0054300Y0120759D01*
X0054300Y0091259D01*
X0061456Y0084103D01*
X0061100Y0083244D01*
X0061100Y0081096D01*
X0061922Y0079111D01*
X0063441Y0077592D01*
X0065426Y0076770D01*
X0067574Y0076770D01*
X0068433Y0077126D01*
X0075589Y0069970D01*
X0097108Y0069970D01*
X0097346Y0069394D01*
X0098724Y0068016D01*
X0100525Y0067270D01*
X0102475Y0067270D01*
X0104276Y0068016D01*
X0105654Y0069394D01*
X0106400Y0071195D01*
X0106400Y0073145D01*
X0105654Y0074945D01*
X0104276Y0076324D01*
X0102475Y0077070D01*
X0100525Y0077070D01*
X0098724Y0076324D01*
X0097346Y0074945D01*
X0097108Y0074370D01*
X0077411Y0074370D01*
X0071544Y0080237D01*
X0071900Y0081096D01*
X0071900Y0083244D01*
X0071078Y0085229D01*
X0069559Y0086748D01*
X0067574Y0087570D01*
X0065426Y0087570D01*
X0064567Y0087214D01*
X0058700Y0093081D01*
X0058700Y0122581D01*
X0057411Y0123870D01*
X0036911Y0144370D01*
X0016434Y0144370D01*
X0016078Y0145229D01*
X0014559Y0146748D01*
X0013276Y0147279D01*
X0013496Y0147351D01*
X0014225Y0147722D01*
X0014888Y0148204D01*
X0015466Y0148782D01*
X0015947Y0149444D01*
X0016319Y0150174D01*
X0016572Y0150952D01*
X0016686Y0151670D01*
X0012000Y0151670D01*
X0012000Y0152670D01*
X0016686Y0152670D01*
X0016572Y0153388D01*
X0016319Y0154166D01*
X0015947Y0154895D01*
X0015466Y0155557D01*
X0014888Y0156136D01*
X0014225Y0156617D01*
X0013496Y0156989D01*
X0013276Y0157060D01*
X0014559Y0157592D01*
X0016078Y0159111D01*
X0016351Y0159770D01*
X0050989Y0159770D01*
X0066138Y0144620D01*
X0065800Y0143804D01*
X0065800Y0141536D01*
X0066668Y0139441D01*
X0068271Y0137838D01*
X0070211Y0137034D01*
X0069389Y0136767D01*
X0068617Y0136374D01*
X0067917Y0135865D01*
X0067305Y0135253D01*
X0066796Y0134552D01*
X0066403Y0133781D01*
X0066135Y0132958D01*
X0066011Y0132170D01*
X0071000Y0132170D01*
X0071000Y0131170D01*
X0066011Y0131170D01*
X0066135Y0130382D01*
X0066403Y0129559D01*
X0066796Y0128787D01*
X0067305Y0128087D01*
X0067917Y0127475D01*
X0068617Y0126966D01*
X0069389Y0126573D01*
X0070212Y0126305D01*
X0071000Y0126180D01*
X0071000Y0131170D01*
X0072000Y0131170D01*
X0072000Y0132170D01*
X0076989Y0132170D01*
X0076865Y0132958D01*
X0076597Y0133781D01*
X0076204Y0134552D01*
X0075695Y0135253D01*
X0075083Y0135865D01*
X0074383Y0136374D01*
X0073611Y0136767D01*
X0072789Y0137034D01*
X0074729Y0137838D01*
X0076332Y0139441D01*
X0077200Y0141536D01*
X0077200Y0143804D01*
X0076332Y0145899D01*
X0074729Y0147502D01*
X0072634Y0148370D01*
X0070366Y0148370D01*
X0069125Y0147856D01*
X0052811Y0164170D01*
X0016516Y0164170D01*
X0016078Y0165229D01*
X0014559Y0166748D01*
X0013276Y0167279D01*
X0013496Y0167351D01*
X0014225Y0167722D01*
X0014888Y0168204D01*
X0015466Y0168782D01*
X0015947Y0169444D01*
X0016319Y0170174D01*
X0016572Y0170952D01*
X0016686Y0171670D01*
X0012000Y0171670D01*
X0012000Y0172670D01*
X0016686Y0172670D01*
X0016572Y0173388D01*
X0016319Y0174166D01*
X0015947Y0174895D01*
X0015466Y0175557D01*
X0014888Y0176136D01*
X0014225Y0176617D01*
X0013496Y0176989D01*
X0013276Y0177060D01*
X0014559Y0177592D01*
X0016078Y0179111D01*
X0016268Y0179570D01*
X0060889Y0179570D01*
X0066050Y0174408D01*
X0065800Y0173804D01*
X0065800Y0171536D01*
X0066668Y0169441D01*
X0068271Y0167838D01*
X0070211Y0167034D01*
X0069389Y0166767D01*
X0068617Y0166374D01*
X0067917Y0165865D01*
X0067305Y0165253D01*
X0066796Y0164552D01*
X0066403Y0163781D01*
X0066135Y0162958D01*
X0066011Y0162170D01*
X0071000Y0162170D01*
X0071000Y0161170D01*
X0066011Y0161170D01*
X0066135Y0160382D01*
X0066403Y0159559D01*
X0066796Y0158787D01*
X0067305Y0158087D01*
X0067917Y0157475D01*
X0068617Y0156966D01*
X0069389Y0156573D01*
X0070212Y0156305D01*
X0071000Y0156180D01*
X0071000Y0161170D01*
X0072000Y0161170D01*
X0072000Y0162170D01*
X0076989Y0162170D01*
X0076865Y0162958D01*
X0076597Y0163781D01*
X0076204Y0164552D01*
X0075695Y0165253D01*
X0075083Y0165865D01*
X0074383Y0166374D01*
X0073611Y0166767D01*
X0072789Y0167034D01*
X0074729Y0167838D01*
X0076332Y0169441D01*
X0077200Y0171536D01*
X0077200Y0173270D01*
X0090200Y0173270D01*
X0090491Y0172566D01*
X0092132Y0170925D01*
X0094277Y0170037D01*
X0096597Y0170037D01*
X0098742Y0170925D01*
X0100383Y0172566D01*
X0101271Y0174710D01*
X0101271Y0177031D01*
X0100383Y0179175D01*
X0098742Y0180816D01*
X0096597Y0181705D01*
X0094277Y0181705D01*
X0092132Y0180816D01*
X0090491Y0179175D01*
X0089868Y0177670D01*
X0074324Y0177670D01*
X0072634Y0178370D01*
X0070366Y0178370D01*
X0068913Y0177768D01*
X0062711Y0183970D01*
X0016599Y0183970D01*
X0016078Y0185229D01*
X0014559Y0186748D01*
X0013276Y0187279D01*
X0013496Y0187351D01*
X0014225Y0187722D01*
X0014888Y0188204D01*
X0015466Y0188782D01*
X0015947Y0189444D01*
X0016319Y0190174D01*
X0016572Y0190952D01*
X0016686Y0191670D01*
X0012000Y0191670D01*
X0012000Y0192670D01*
X0016686Y0192670D01*
X0016572Y0193388D01*
X0016319Y0194166D01*
X0015947Y0194895D01*
X0015466Y0195557D01*
X0014888Y0196136D01*
X0014225Y0196617D01*
X0013496Y0196989D01*
X0013276Y0197060D01*
X0014559Y0197592D01*
X0016078Y0199111D01*
X0016558Y0200270D01*
X0066324Y0200270D01*
X0066668Y0199441D01*
X0068271Y0197838D01*
X0070211Y0197034D01*
X0069389Y0196767D01*
X0068617Y0196374D01*
X0067917Y0195865D01*
X0067305Y0195253D01*
X0066796Y0194552D01*
X0066403Y0193781D01*
X0066135Y0192958D01*
X0066011Y0192170D01*
X0071000Y0192170D01*
X0071000Y0191170D01*
X0066011Y0191170D01*
X0066135Y0190382D01*
X0066403Y0189559D01*
X0066796Y0188787D01*
X0067305Y0188087D01*
X0067917Y0187475D01*
X0068617Y0186966D01*
X0069389Y0186573D01*
X0070212Y0186305D01*
X0071000Y0186180D01*
X0071000Y0191170D01*
X0072000Y0191170D01*
X0072000Y0192170D01*
X0076989Y0192170D01*
X0076865Y0192958D01*
X0076597Y0193781D01*
X0076204Y0194552D01*
X0075695Y0195253D01*
X0075083Y0195865D01*
X0074383Y0196374D01*
X0073611Y0196767D01*
X0072789Y0197034D01*
X0074729Y0197838D01*
X0076332Y0199441D01*
X0076758Y0200470D01*
X0081967Y0200470D01*
X0082904Y0199533D01*
X0084264Y0198970D01*
X0085736Y0198970D01*
X0087096Y0199533D01*
X0088033Y0200470D01*
X0149189Y0200470D01*
X0149389Y0200270D01*
X0161192Y0188466D01*
X0161100Y0188244D01*
X0161100Y0186096D01*
X0161922Y0184111D01*
X0163441Y0182592D01*
X0165426Y0181770D01*
X0167574Y0181770D01*
X0169559Y0182592D01*
X0171078Y0184111D01*
X0171500Y0185130D01*
X0171922Y0184111D01*
X0173441Y0182592D01*
X0173900Y0182402D01*
X0173900Y0182281D01*
X0135582Y0143963D01*
X0134258Y0143415D01*
X0132617Y0141774D01*
X0131729Y0139630D01*
X0131729Y0137309D01*
X0132617Y0135164D01*
X0134258Y0133523D01*
X0136403Y0132635D01*
X0138723Y0132635D01*
X0140868Y0133523D01*
X0142509Y0135164D01*
X0143397Y0137309D01*
X0143397Y0139630D01*
X0142509Y0141774D01*
X0141062Y0143220D01*
X0178300Y0180459D01*
X0178300Y0182071D01*
X0179559Y0182592D01*
X0181078Y0184111D01*
X0181900Y0186096D01*
X0181900Y0188244D01*
X0181078Y0190229D01*
X0179559Y0191748D01*
X0177574Y0192570D01*
X0176475Y0192570D01*
X0176900Y0193596D01*
X0176900Y0195744D01*
X0176078Y0197729D01*
X0174559Y0199248D01*
X0172574Y0200070D01*
X0170426Y0200070D01*
X0168441Y0199248D01*
X0166922Y0197729D01*
X0166100Y0195744D01*
X0166100Y0193596D01*
X0166525Y0192570D01*
X0165426Y0192570D01*
X0163931Y0191951D01*
X0155411Y0200470D01*
X0179489Y0200470D01*
X0191280Y0188679D01*
X0191100Y0188244D01*
X0191100Y0186096D01*
X0191922Y0184111D01*
X0193441Y0182592D01*
X0195426Y0181770D01*
X0197574Y0181770D01*
X0199559Y0182592D01*
X0201078Y0184111D01*
X0201500Y0185130D01*
X0201922Y0184111D01*
X0203441Y0182592D01*
X0205426Y0181770D01*
X0207089Y0181770D01*
X0210800Y0178059D01*
X0210800Y0119681D01*
X0204924Y0113805D01*
X0203723Y0114303D01*
X0201403Y0114303D01*
X0199258Y0113415D01*
X0197617Y0111774D01*
X0196729Y0109630D01*
X0196729Y0107309D01*
X0197617Y0105164D01*
X0199258Y0103523D01*
X0201403Y0102635D01*
X0203723Y0102635D01*
X0205868Y0103523D01*
X0207509Y0105164D01*
X0208397Y0107309D01*
X0208397Y0109630D01*
X0207979Y0110638D01*
X0215200Y0117859D01*
X0215200Y0179881D01*
X0213911Y0181170D01*
X0211024Y0184057D01*
X0211078Y0184111D01*
X0211900Y0186096D01*
X0211900Y0188244D01*
X0211078Y0190229D01*
X0209559Y0191748D01*
X0207574Y0192570D01*
X0206475Y0192570D01*
X0206900Y0193596D01*
X0206900Y0195744D01*
X0206699Y0196229D01*
X0208847Y0198070D01*
X0221100Y0198070D01*
X0221100Y0196096D01*
X0221922Y0194111D01*
X0223441Y0192592D01*
X0225426Y0191770D01*
X0227574Y0191770D01*
X0228362Y0192096D01*
X0244100Y0176359D01*
X0244100Y0171479D01*
X0243724Y0171324D01*
X0242346Y0169945D01*
X0241600Y0168145D01*
X0241600Y0166195D01*
X0242346Y0164394D01*
X0243724Y0163016D01*
X0245525Y0162270D01*
X0247475Y0162270D01*
X0249276Y0163016D01*
X0250654Y0164394D01*
X0251400Y0166195D01*
X0251400Y0168145D01*
X0250654Y0169945D01*
X0249276Y0171324D01*
X0248500Y0171645D01*
X0248500Y0178181D01*
X0231515Y0195166D01*
X0231900Y0196096D01*
X0231900Y0198244D01*
X0231078Y0200229D01*
X0229559Y0201748D01*
X0227574Y0202570D01*
X0225426Y0202570D01*
X0224567Y0202214D01*
X0224311Y0202470D01*
X0208118Y0202470D01*
X0207293Y0202533D01*
X0207219Y0202470D01*
X0207122Y0202470D01*
X0206537Y0201885D01*
X0203818Y0199555D01*
X0202574Y0200070D01*
X0200426Y0200070D01*
X0198441Y0199248D01*
X0196922Y0197729D01*
X0196100Y0195744D01*
X0196100Y0193596D01*
X0196525Y0192570D01*
X0195426Y0192570D01*
X0194143Y0192038D01*
X0182600Y0203581D01*
X0181311Y0204870D01*
X0088033Y0204870D01*
X0087096Y0205807D01*
X0085736Y0206370D01*
X0084264Y0206370D01*
X0082904Y0205807D01*
X0081967Y0204870D01*
X0076758Y0204870D01*
X0076332Y0205899D01*
X0074729Y0207502D01*
X0072634Y0208370D01*
X0070366Y0208370D01*
X0068271Y0207502D01*
X0066668Y0205899D01*
X0066159Y0204670D01*
X0016309Y0204670D01*
X0016078Y0205229D01*
X0014559Y0206748D01*
X0012574Y0207570D01*
X0010426Y0207570D01*
X0008441Y0206748D01*
X0006922Y0205229D01*
X0006100Y0203244D01*
X0006100Y0201096D01*
X0006922Y0199111D01*
X0008441Y0197592D01*
X0009724Y0197060D01*
X0009504Y0196989D01*
X0008775Y0196617D01*
X0008112Y0196136D01*
X0007534Y0195557D01*
X0007053Y0194895D01*
X0006681Y0194166D01*
X0006428Y0193388D01*
X0006314Y0192670D01*
X0011000Y0192670D01*
X0011000Y0191670D01*
X0006314Y0191670D01*
X0006428Y0190952D01*
X0006681Y0190174D01*
X0007053Y0189444D01*
X0007534Y0188782D01*
X0008112Y0188204D01*
X0008775Y0187722D01*
X0009504Y0187351D01*
X0009724Y0187279D01*
X0008441Y0186748D01*
X0006922Y0185229D01*
X0006100Y0183244D01*
X0006100Y0181096D01*
X0006922Y0179111D01*
X0008441Y0177592D01*
X0009724Y0177060D01*
X0009504Y0176989D01*
X0008775Y0176617D01*
X0008112Y0176136D01*
X0007534Y0175557D01*
X0007053Y0174895D01*
X0006681Y0174166D01*
X0006428Y0173388D01*
X0006314Y0172670D01*
X0011000Y0172670D01*
X0011000Y0171670D01*
X0006314Y0171670D01*
X0006428Y0170952D01*
X0006681Y0170174D01*
X0007053Y0169444D01*
X0007534Y0168782D01*
X0008112Y0168204D01*
X0008775Y0167722D01*
X0009504Y0167351D01*
X0009724Y0167279D01*
X0008441Y0166748D01*
X0006922Y0165229D01*
X0006100Y0163244D01*
X0006100Y0161096D01*
X0006922Y0159111D01*
X0008441Y0157592D01*
X0009724Y0157060D01*
X0009504Y0156989D01*
X0008775Y0156617D01*
X0008112Y0156136D01*
X0007534Y0155557D01*
X0007053Y0154895D01*
X0006681Y0154166D01*
X0006428Y0153388D01*
X0006314Y0152670D01*
X0011000Y0152670D01*
X0011000Y0151670D01*
X0006314Y0151670D01*
X0006428Y0150952D01*
X0006681Y0150174D01*
X0007053Y0149444D01*
X0007534Y0148782D01*
X0008112Y0148204D01*
X0008775Y0147722D01*
X0009504Y0147351D01*
X0009724Y0147279D01*
X0008441Y0146748D01*
X0006922Y0145229D01*
X0006100Y0143244D01*
X0006100Y0141096D01*
X0006922Y0139111D01*
X0008441Y0137592D01*
X0009724Y0137060D01*
X0009504Y0136989D01*
X0008775Y0136617D01*
X0008112Y0136136D01*
X0007534Y0135557D01*
X0007053Y0134895D01*
X0006681Y0134166D01*
X0006428Y0133388D01*
X0006314Y0132670D01*
X0011000Y0132670D01*
X0011000Y0131670D01*
X0006314Y0131670D01*
X0006428Y0130952D01*
X0006681Y0130174D01*
X0007053Y0129444D01*
X0007534Y0128782D01*
X0008112Y0128204D01*
X0008775Y0127722D01*
X0009504Y0127351D01*
X0009724Y0127279D01*
X0008441Y0126748D01*
X0006922Y0125229D01*
X0006100Y0123244D01*
X0006100Y0121096D01*
X0006922Y0119111D01*
X0008441Y0117592D01*
X0009724Y0117060D01*
X0009504Y0116989D01*
X0008775Y0116617D01*
X0008112Y0116136D01*
X0007534Y0115557D01*
X0007053Y0114895D01*
X0006681Y0114166D01*
X0006428Y0113388D01*
X0006314Y0112670D01*
X0011000Y0112670D01*
X0011000Y0111670D01*
X0006314Y0111670D01*
X0006428Y0110952D01*
X0006681Y0110174D01*
X0007053Y0109444D01*
X0007534Y0108782D01*
X0008112Y0108204D01*
X0008775Y0107722D01*
X0009504Y0107351D01*
X0009724Y0107279D01*
X0008441Y0106748D01*
X0006922Y0105229D01*
X0006100Y0103244D01*
X0006100Y0101096D01*
X0006922Y0099111D01*
X0008441Y0097592D01*
X0009724Y0097060D01*
X0009504Y0096989D01*
X0008775Y0096617D01*
X0008112Y0096136D01*
X0007534Y0095557D01*
X0007053Y0094895D01*
X0006681Y0094166D01*
X0006428Y0093388D01*
X0006314Y0092670D01*
X0011000Y0092670D01*
X0011000Y0091670D01*
X0006314Y0091670D01*
X0006428Y0090952D01*
X0006681Y0090174D01*
X0007053Y0089444D01*
X0007534Y0088782D01*
X0008112Y0088204D01*
X0008775Y0087722D01*
X0009504Y0087351D01*
X0010282Y0087098D01*
X0011000Y0086984D01*
X0011000Y0091670D01*
X0012000Y0091670D01*
X0012000Y0092670D01*
X0016686Y0092670D01*
X0016572Y0093388D01*
X0016319Y0094166D01*
X0015947Y0094895D01*
X0015466Y0095557D01*
X0014888Y0096136D01*
X0014225Y0096617D01*
X0013496Y0096989D01*
X0013276Y0097060D01*
X0014559Y0097592D01*
X0016078Y0099111D01*
X0016186Y0099372D01*
X0022800Y0092759D01*
X0022800Y0067428D01*
X0021771Y0067002D01*
X0020168Y0065399D01*
X0019500Y0063786D01*
X0018832Y0065399D01*
X0017229Y0067002D01*
X0015134Y0067870D01*
X0012866Y0067870D01*
X0010771Y0067002D01*
X0009168Y0065399D01*
X0008300Y0063304D01*
X0008300Y0061036D01*
X0009168Y0058941D01*
X0010771Y0057338D01*
X0012866Y0056470D01*
X0015134Y0056470D01*
X0017229Y0057338D01*
X0018832Y0058941D01*
X0019500Y0060553D01*
X0020168Y0058941D01*
X0021771Y0057338D01*
X0022800Y0056912D01*
X0022800Y0052759D01*
X0052557Y0023001D01*
X0073650Y0023001D01*
X0073650Y0022585D01*
X0073752Y0022204D01*
X0073950Y0021862D01*
X0074229Y0021583D01*
X0074571Y0021385D01*
X0074953Y0021283D01*
X0077950Y0021283D01*
X0080947Y0021283D01*
X0081329Y0021385D01*
X0081671Y0021583D01*
X0081950Y0021862D01*
X0082148Y0022204D01*
X0082250Y0022585D01*
X0082250Y0023233D01*
X0082250Y0023847D01*
X0082450Y0024047D01*
X0082450Y0032261D01*
X0081454Y0033257D01*
X0078911Y0033257D01*
X0078700Y0033468D01*
X0078700Y0057343D01*
X0077411Y0058632D01*
X0074104Y0061939D01*
X0074460Y0062798D01*
X0074460Y0064946D01*
X0073638Y0066931D01*
X0072119Y0068450D01*
X0070134Y0069272D01*
X0067986Y0069272D01*
X0066001Y0068450D01*
X0064482Y0066931D01*
X0063673Y0064976D01*
X0050827Y0064976D01*
X0050780Y0065091D02*
X0063720Y0065091D01*
X0064134Y0066089D02*
X0050217Y0066089D01*
X0049219Y0067088D02*
X0064639Y0067088D01*
X0065638Y0068087D02*
X0047185Y0068087D01*
X0044602Y0068087D02*
X0037200Y0068087D01*
X0037200Y0069085D02*
X0067535Y0069085D01*
X0070585Y0069085D02*
X0097655Y0069085D01*
X0098654Y0068087D02*
X0072482Y0068087D01*
X0073480Y0067088D02*
X0119300Y0067088D01*
X0119300Y0067777D02*
X0119300Y0066259D01*
X0124300Y0061259D01*
X0125589Y0059970D01*
X0137411Y0059970D01*
X0147411Y0069970D01*
X0246911Y0069970D01*
X0259526Y0082585D01*
X0260045Y0082370D01*
X0261955Y0082370D01*
X0263719Y0083101D01*
X0265069Y0084451D01*
X0265800Y0086215D01*
X0265800Y0088125D01*
X0265069Y0089889D01*
X0263719Y0091239D01*
X0261955Y0091970D01*
X0260045Y0091970D01*
X0258281Y0091239D01*
X0256931Y0089889D01*
X0256200Y0088125D01*
X0256200Y0086215D01*
X0256415Y0085696D01*
X0245089Y0074370D01*
X0145589Y0074370D01*
X0144300Y0073081D01*
X0135589Y0064370D01*
X0127411Y0064370D01*
X0123915Y0067866D01*
X0124276Y0068016D01*
X0125654Y0069394D01*
X0126400Y0071195D01*
X0126400Y0073145D01*
X0125654Y0074945D01*
X0124276Y0076324D01*
X0122475Y0077070D01*
X0120525Y0077070D01*
X0118724Y0076324D01*
X0117346Y0074945D01*
X0116600Y0073145D01*
X0116600Y0071195D01*
X0117346Y0069394D01*
X0118724Y0068016D01*
X0119300Y0067777D01*
X0118654Y0068087D02*
X0114346Y0068087D01*
X0114276Y0068016D02*
X0115654Y0069394D01*
X0116400Y0071195D01*
X0116400Y0073145D01*
X0115654Y0074945D01*
X0114276Y0076324D01*
X0113700Y0076562D01*
X0113700Y0077336D01*
X0107954Y0083081D01*
X0106666Y0084370D01*
X0086434Y0084370D01*
X0086078Y0085229D01*
X0084559Y0086748D01*
X0082574Y0087570D01*
X0080426Y0087570D01*
X0079567Y0087214D01*
X0068700Y0098081D01*
X0068700Y0107236D01*
X0069559Y0107592D01*
X0071078Y0109111D01*
X0071900Y0111096D01*
X0071900Y0113244D01*
X0071078Y0115229D01*
X0069559Y0116748D01*
X0067574Y0117570D01*
X0065426Y0117570D01*
X0063441Y0116748D01*
X0061922Y0115229D01*
X0061100Y0113244D01*
X0061100Y0111096D01*
X0061922Y0109111D01*
X0063441Y0107592D01*
X0064300Y0107236D01*
X0064300Y0096259D01*
X0076456Y0084103D01*
X0076100Y0083244D01*
X0076100Y0081096D01*
X0076922Y0079111D01*
X0078441Y0077592D01*
X0080426Y0076770D01*
X0082574Y0076770D01*
X0084559Y0077592D01*
X0086078Y0079111D01*
X0086434Y0079970D01*
X0104843Y0079970D01*
X0108607Y0076206D01*
X0107346Y0074945D01*
X0106600Y0073145D01*
X0106600Y0071195D01*
X0107346Y0069394D01*
X0108724Y0068016D01*
X0110525Y0067270D01*
X0112475Y0067270D01*
X0114276Y0068016D01*
X0115345Y0069085D02*
X0117655Y0069085D01*
X0117060Y0070084D02*
X0115940Y0070084D01*
X0116353Y0071082D02*
X0116647Y0071082D01*
X0116600Y0072081D02*
X0116400Y0072081D01*
X0116400Y0073079D02*
X0116600Y0073079D01*
X0116986Y0074078D02*
X0116014Y0074078D01*
X0115523Y0075076D02*
X0117477Y0075076D01*
X0118475Y0076075D02*
X0114525Y0076075D01*
X0113700Y0077073D02*
X0247792Y0077073D01*
X0246793Y0076075D02*
X0134122Y0076075D01*
X0133963Y0076190D02*
X0133304Y0076526D01*
X0132601Y0076754D01*
X0131870Y0076870D01*
X0131800Y0076870D01*
X0131800Y0072470D01*
X0131200Y0072470D01*
X0131200Y0076870D01*
X0131130Y0076870D01*
X0130399Y0076754D01*
X0129696Y0076526D01*
X0129037Y0076190D01*
X0128438Y0075755D01*
X0127915Y0075232D01*
X0127480Y0074633D01*
X0127144Y0073974D01*
X0126916Y0073270D01*
X0126800Y0072540D01*
X0126800Y0072470D01*
X0131200Y0072470D01*
X0131200Y0071870D01*
X0126800Y0071870D01*
X0126800Y0071800D01*
X0126916Y0071069D01*
X0127144Y0070366D01*
X0127480Y0069707D01*
X0127915Y0069108D01*
X0128438Y0068585D01*
X0129037Y0068150D01*
X0129696Y0067814D01*
X0130399Y0067586D01*
X0131130Y0067470D01*
X0131200Y0067470D01*
X0131200Y0071870D01*
X0131800Y0071870D01*
X0131800Y0072470D01*
X0136200Y0072470D01*
X0136200Y0072540D01*
X0136084Y0073270D01*
X0135856Y0073974D01*
X0135520Y0074633D01*
X0135085Y0075232D01*
X0134562Y0075755D01*
X0133963Y0076190D01*
X0135198Y0075076D02*
X0245795Y0075076D01*
X0248790Y0078072D02*
X0112964Y0078072D01*
X0111965Y0079070D02*
X0249789Y0079070D01*
X0250788Y0080069D02*
X0110967Y0080069D01*
X0109968Y0081067D02*
X0251786Y0081067D01*
X0251955Y0082370D02*
X0250045Y0082370D01*
X0248281Y0083101D01*
X0246931Y0084451D01*
X0246200Y0086215D01*
X0246200Y0088125D01*
X0246931Y0089889D01*
X0248281Y0091239D01*
X0250045Y0091970D01*
X0251955Y0091970D01*
X0253719Y0091239D01*
X0255069Y0089889D01*
X0255800Y0088125D01*
X0255800Y0086215D01*
X0255069Y0084451D01*
X0253719Y0083101D01*
X0251955Y0082370D01*
X0252785Y0082066D02*
X0108970Y0082066D01*
X0107971Y0083064D02*
X0208369Y0083064D01*
X0208281Y0083101D02*
X0210045Y0082370D01*
X0211955Y0082370D01*
X0213719Y0083101D01*
X0215069Y0084451D01*
X0215800Y0086215D01*
X0215800Y0088125D01*
X0215069Y0089889D01*
X0213719Y0091239D01*
X0211955Y0091970D01*
X0210045Y0091970D01*
X0208281Y0091239D01*
X0206931Y0089889D01*
X0206200Y0088125D01*
X0206200Y0086215D01*
X0206931Y0084451D01*
X0208281Y0083101D01*
X0207319Y0084063D02*
X0106973Y0084063D01*
X0105754Y0082170D02*
X0081500Y0082170D01*
X0066500Y0097170D01*
X0066500Y0112170D01*
X0071456Y0110024D02*
X0076757Y0110024D01*
X0076681Y0110174D02*
X0077053Y0109444D01*
X0077534Y0108782D01*
X0078112Y0108204D01*
X0078775Y0107722D01*
X0079504Y0107351D01*
X0080282Y0107098D01*
X0081091Y0106970D01*
X0081114Y0106970D01*
X0081114Y0111784D01*
X0076300Y0111784D01*
X0076300Y0111761D01*
X0076428Y0110952D01*
X0076681Y0110174D01*
X0076417Y0111022D02*
X0071870Y0111022D01*
X0071900Y0112021D02*
X0081114Y0112021D01*
X0081114Y0111784D02*
X0081114Y0112556D01*
X0081114Y0117370D01*
X0081091Y0117370D01*
X0080282Y0117242D01*
X0079504Y0116989D01*
X0078775Y0116617D01*
X0078112Y0116136D01*
X0077534Y0115557D01*
X0077053Y0114895D01*
X0076681Y0114166D01*
X0076428Y0113388D01*
X0076300Y0112579D01*
X0076300Y0112556D01*
X0081114Y0112556D01*
X0081886Y0112556D01*
X0081886Y0117370D01*
X0081909Y0117370D01*
X0082718Y0117242D01*
X0083496Y0116989D01*
X0084225Y0116617D01*
X0084888Y0116136D01*
X0085466Y0115557D01*
X0085947Y0114895D01*
X0086319Y0114166D01*
X0086572Y0113388D01*
X0086700Y0112579D01*
X0086700Y0112556D01*
X0081886Y0112556D01*
X0081886Y0111784D01*
X0086700Y0111784D01*
X0086700Y0111761D01*
X0086572Y0110952D01*
X0086319Y0110174D01*
X0085947Y0109444D01*
X0085466Y0108782D01*
X0084888Y0108204D01*
X0084225Y0107722D01*
X0083496Y0107351D01*
X0082718Y0107098D01*
X0081909Y0106970D01*
X0081886Y0106970D01*
X0081886Y0111784D01*
X0081114Y0111784D01*
X0081114Y0111022D02*
X0081886Y0111022D01*
X0081886Y0110024D02*
X0081114Y0110024D01*
X0081114Y0109025D02*
X0081886Y0109025D01*
X0081886Y0108027D02*
X0081114Y0108027D01*
X0081114Y0107028D02*
X0081886Y0107028D01*
X0082279Y0107028D02*
X0094530Y0107028D01*
X0095529Y0106030D02*
X0068700Y0106030D01*
X0068700Y0107028D02*
X0080721Y0107028D01*
X0078355Y0108027D02*
X0069994Y0108027D01*
X0070992Y0109025D02*
X0077357Y0109025D01*
X0076370Y0113020D02*
X0071900Y0113020D01*
X0071579Y0114018D02*
X0076633Y0114018D01*
X0077141Y0115017D02*
X0071166Y0115017D01*
X0070292Y0116015D02*
X0077991Y0116015D01*
X0079580Y0117014D02*
X0068917Y0117014D01*
X0064083Y0117014D02*
X0058700Y0117014D01*
X0058700Y0118012D02*
X0083547Y0118012D01*
X0083889Y0117670D02*
X0097131Y0104427D01*
X0096600Y0103145D01*
X0096600Y0101195D01*
X0097346Y0099394D01*
X0098724Y0098016D01*
X0100525Y0097270D01*
X0102475Y0097270D01*
X0104276Y0098016D01*
X0105654Y0099394D01*
X0106400Y0101195D01*
X0106400Y0103145D01*
X0105654Y0104945D01*
X0104276Y0106324D01*
X0102475Y0107070D01*
X0100711Y0107070D01*
X0087000Y0120781D01*
X0087000Y0143993D01*
X0087096Y0144033D01*
X0088137Y0145074D01*
X0088700Y0146434D01*
X0088700Y0147906D01*
X0088137Y0149266D01*
X0087096Y0150307D01*
X0085736Y0150870D01*
X0084264Y0150870D01*
X0082904Y0150307D01*
X0081863Y0149266D01*
X0081300Y0147906D01*
X0081300Y0146434D01*
X0081863Y0145074D01*
X0082600Y0144337D01*
X0082600Y0118959D01*
X0083889Y0117670D01*
X0083420Y0117014D02*
X0084545Y0117014D01*
X0085009Y0116015D02*
X0085544Y0116015D01*
X0085859Y0115017D02*
X0086542Y0115017D01*
X0086367Y0114018D02*
X0087541Y0114018D01*
X0086630Y0113020D02*
X0088539Y0113020D01*
X0089538Y0112021D02*
X0081886Y0112021D01*
X0081886Y0113020D02*
X0081114Y0113020D01*
X0081114Y0114018D02*
X0081886Y0114018D01*
X0081886Y0115017D02*
X0081114Y0115017D01*
X0081114Y0116015D02*
X0081886Y0116015D01*
X0081886Y0117014D02*
X0081114Y0117014D01*
X0082600Y0119011D02*
X0058700Y0119011D01*
X0058700Y0120009D02*
X0082600Y0120009D01*
X0082600Y0121008D02*
X0058700Y0121008D01*
X0058700Y0122006D02*
X0082600Y0122006D01*
X0082600Y0123005D02*
X0058277Y0123005D01*
X0057278Y0124003D02*
X0082600Y0124003D01*
X0082600Y0125002D02*
X0056279Y0125002D01*
X0055281Y0126000D02*
X0082600Y0126000D01*
X0082600Y0126999D02*
X0074428Y0126999D01*
X0074383Y0126966D02*
X0075083Y0127475D01*
X0075695Y0128087D01*
X0076204Y0128787D01*
X0076597Y0129559D01*
X0076865Y0130382D01*
X0076989Y0131170D01*
X0072000Y0131170D01*
X0072000Y0126180D01*
X0072788Y0126305D01*
X0073611Y0126573D01*
X0074383Y0126966D01*
X0075605Y0127997D02*
X0082600Y0127997D01*
X0082600Y0128996D02*
X0076310Y0128996D01*
X0076739Y0129994D02*
X0082600Y0129994D01*
X0082600Y0130993D02*
X0076961Y0130993D01*
X0076854Y0132990D02*
X0082600Y0132990D01*
X0082600Y0133988D02*
X0076492Y0133988D01*
X0075888Y0134987D02*
X0082600Y0134987D01*
X0082600Y0135985D02*
X0074917Y0135985D01*
X0074873Y0137982D02*
X0082600Y0137982D01*
X0082600Y0136984D02*
X0072944Y0136984D01*
X0070056Y0136984D02*
X0044297Y0136984D01*
X0043299Y0137982D02*
X0068127Y0137982D01*
X0067128Y0138981D02*
X0042300Y0138981D01*
X0041302Y0139979D02*
X0066445Y0139979D01*
X0066031Y0140978D02*
X0040303Y0140978D01*
X0039305Y0141976D02*
X0065800Y0141976D01*
X0065800Y0142975D02*
X0038306Y0142975D01*
X0037308Y0143973D02*
X0065870Y0143973D01*
X0065787Y0144972D02*
X0016184Y0144972D01*
X0015336Y0145970D02*
X0064788Y0145970D01*
X0063790Y0146969D02*
X0014025Y0146969D01*
X0014563Y0147967D02*
X0062791Y0147967D01*
X0061793Y0148966D02*
X0015600Y0148966D01*
X0016212Y0149964D02*
X0060794Y0149964D01*
X0059796Y0150963D02*
X0016574Y0150963D01*
X0016640Y0152960D02*
X0057799Y0152960D01*
X0058797Y0151961D02*
X0012000Y0151961D01*
X0011000Y0151961D02*
X0003200Y0151961D01*
X0003200Y0150963D02*
X0006426Y0150963D01*
X0006788Y0149964D02*
X0003200Y0149964D01*
X0003200Y0148966D02*
X0007400Y0148966D01*
X0008437Y0147967D02*
X0003200Y0147967D01*
X0003200Y0146969D02*
X0008975Y0146969D01*
X0007664Y0145970D02*
X0003200Y0145970D01*
X0003200Y0144972D02*
X0006816Y0144972D01*
X0006402Y0143973D02*
X0003200Y0143973D01*
X0003200Y0142975D02*
X0006100Y0142975D01*
X0006100Y0141976D02*
X0003200Y0141976D01*
X0003200Y0140978D02*
X0006149Y0140978D01*
X0006562Y0139979D02*
X0003200Y0139979D01*
X0003200Y0138981D02*
X0007052Y0138981D01*
X0008051Y0137982D02*
X0003200Y0137982D01*
X0003200Y0136984D02*
X0009494Y0136984D01*
X0007962Y0135985D02*
X0003200Y0135985D01*
X0003200Y0134987D02*
X0007119Y0134987D01*
X0006623Y0133988D02*
X0003200Y0133988D01*
X0003200Y0132990D02*
X0006365Y0132990D01*
X0006422Y0130993D02*
X0003200Y0130993D01*
X0003200Y0131991D02*
X0011000Y0131991D01*
X0012000Y0131991D02*
X0043067Y0131991D01*
X0042069Y0132990D02*
X0016635Y0132990D01*
X0016377Y0133988D02*
X0041070Y0133988D01*
X0040072Y0134987D02*
X0015881Y0134987D01*
X0015038Y0135985D02*
X0039073Y0135985D01*
X0038075Y0136984D02*
X0013506Y0136984D01*
X0014949Y0137982D02*
X0037076Y0137982D01*
X0036078Y0138981D02*
X0015948Y0138981D01*
X0011500Y0142170D02*
X0036000Y0142170D01*
X0056500Y0121670D01*
X0056500Y0092170D01*
X0066500Y0082170D01*
X0076500Y0072170D01*
X0101500Y0072170D01*
X0106014Y0074078D02*
X0106986Y0074078D01*
X0106600Y0073079D02*
X0106400Y0073079D01*
X0106400Y0072081D02*
X0106600Y0072081D01*
X0106647Y0071082D02*
X0106353Y0071082D01*
X0105940Y0070084D02*
X0107060Y0070084D01*
X0107655Y0069085D02*
X0105345Y0069085D01*
X0104346Y0068087D02*
X0108654Y0068087D01*
X0111500Y0072170D02*
X0111500Y0076424D01*
X0105754Y0082170D01*
X0105743Y0079070D02*
X0086037Y0079070D01*
X0085038Y0078072D02*
X0106741Y0078072D01*
X0107740Y0077073D02*
X0083306Y0077073D01*
X0079694Y0077073D02*
X0074708Y0077073D01*
X0075707Y0076075D02*
X0098475Y0076075D01*
X0097477Y0075076D02*
X0076705Y0075076D01*
X0077961Y0078072D02*
X0073710Y0078072D01*
X0072711Y0079070D02*
X0076963Y0079070D01*
X0076525Y0080069D02*
X0071712Y0080069D01*
X0071888Y0081067D02*
X0076112Y0081067D01*
X0076100Y0082066D02*
X0071900Y0082066D01*
X0071900Y0083064D02*
X0076100Y0083064D01*
X0076439Y0084063D02*
X0071561Y0084063D01*
X0071147Y0085061D02*
X0075497Y0085061D01*
X0074499Y0086060D02*
X0070247Y0086060D01*
X0068809Y0087058D02*
X0073500Y0087058D01*
X0072502Y0088057D02*
X0063724Y0088057D01*
X0062726Y0089055D02*
X0071503Y0089055D01*
X0070505Y0090054D02*
X0061727Y0090054D01*
X0060729Y0091052D02*
X0069506Y0091052D01*
X0068508Y0092051D02*
X0059730Y0092051D01*
X0058732Y0093049D02*
X0067509Y0093049D01*
X0066511Y0094048D02*
X0058700Y0094048D01*
X0058700Y0095046D02*
X0065512Y0095046D01*
X0064514Y0096045D02*
X0058700Y0096045D01*
X0058700Y0097043D02*
X0064300Y0097043D01*
X0064300Y0098042D02*
X0058700Y0098042D01*
X0058700Y0099040D02*
X0064300Y0099040D01*
X0064300Y0100039D02*
X0058700Y0100039D01*
X0058700Y0101037D02*
X0064300Y0101037D01*
X0064300Y0102036D02*
X0058700Y0102036D01*
X0058700Y0103034D02*
X0064300Y0103034D01*
X0064300Y0104033D02*
X0058700Y0104033D01*
X0058700Y0105031D02*
X0064300Y0105031D01*
X0064300Y0106030D02*
X0058700Y0106030D01*
X0058700Y0107028D02*
X0064300Y0107028D01*
X0063006Y0108027D02*
X0058700Y0108027D01*
X0058700Y0109025D02*
X0062008Y0109025D01*
X0061544Y0110024D02*
X0058700Y0110024D01*
X0058700Y0111022D02*
X0061130Y0111022D01*
X0061100Y0112021D02*
X0058700Y0112021D01*
X0058700Y0113020D02*
X0061100Y0113020D01*
X0061421Y0114018D02*
X0058700Y0114018D01*
X0058700Y0115017D02*
X0061834Y0115017D01*
X0062708Y0116015D02*
X0058700Y0116015D01*
X0054300Y0116015D02*
X0030266Y0116015D01*
X0029268Y0117014D02*
X0054300Y0117014D01*
X0054300Y0118012D02*
X0028269Y0118012D01*
X0027271Y0119011D02*
X0054300Y0119011D01*
X0054300Y0120009D02*
X0026272Y0120009D01*
X0025274Y0121008D02*
X0054051Y0121008D01*
X0053052Y0122006D02*
X0024275Y0122006D01*
X0023277Y0123005D02*
X0052054Y0123005D01*
X0051055Y0124003D02*
X0022278Y0124003D01*
X0021000Y0122170D02*
X0011500Y0122170D01*
X0015306Y0126000D02*
X0049058Y0126000D01*
X0048060Y0126999D02*
X0013953Y0126999D01*
X0014604Y0127997D02*
X0047061Y0127997D01*
X0046063Y0128996D02*
X0015621Y0128996D01*
X0016228Y0129994D02*
X0045064Y0129994D01*
X0044066Y0130993D02*
X0016578Y0130993D01*
X0009047Y0126999D02*
X0003200Y0126999D01*
X0003200Y0127997D02*
X0008396Y0127997D01*
X0007379Y0128996D02*
X0003200Y0128996D01*
X0003200Y0129994D02*
X0006772Y0129994D01*
X0007694Y0126000D02*
X0003200Y0126000D01*
X0003200Y0125002D02*
X0006828Y0125002D01*
X0006414Y0124003D02*
X0003200Y0124003D01*
X0003200Y0123005D02*
X0006100Y0123005D01*
X0006100Y0122006D02*
X0003200Y0122006D01*
X0003200Y0121008D02*
X0006137Y0121008D01*
X0006550Y0120009D02*
X0003200Y0120009D01*
X0003200Y0119011D02*
X0007023Y0119011D01*
X0008021Y0118012D02*
X0003200Y0118012D01*
X0003200Y0117014D02*
X0009580Y0117014D01*
X0007991Y0116015D02*
X0003200Y0116015D01*
X0003200Y0115017D02*
X0007141Y0115017D01*
X0006633Y0114018D02*
X0003200Y0114018D01*
X0003200Y0113020D02*
X0006370Y0113020D01*
X0006417Y0111022D02*
X0003200Y0111022D01*
X0003200Y0110024D02*
X0006757Y0110024D01*
X0007357Y0109025D02*
X0003200Y0109025D01*
X0003200Y0108027D02*
X0008355Y0108027D01*
X0009119Y0107028D02*
X0003200Y0107028D01*
X0003200Y0106030D02*
X0007723Y0106030D01*
X0006840Y0105031D02*
X0003200Y0105031D01*
X0003200Y0104033D02*
X0006427Y0104033D01*
X0006100Y0103034D02*
X0003200Y0103034D01*
X0003200Y0102036D02*
X0006100Y0102036D01*
X0006124Y0101037D02*
X0003200Y0101037D01*
X0003200Y0100039D02*
X0006538Y0100039D01*
X0006993Y0099040D02*
X0003200Y0099040D01*
X0003200Y0098042D02*
X0007991Y0098042D01*
X0009671Y0097043D02*
X0003200Y0097043D01*
X0003200Y0096045D02*
X0008021Y0096045D01*
X0007162Y0095046D02*
X0003200Y0095046D01*
X0003200Y0094048D02*
X0006643Y0094048D01*
X0006374Y0093049D02*
X0003200Y0093049D01*
X0003200Y0092051D02*
X0011000Y0092051D01*
X0011000Y0091052D02*
X0012000Y0091052D01*
X0012000Y0091670D02*
X0012000Y0086984D01*
X0012718Y0087098D01*
X0013496Y0087351D01*
X0014225Y0087722D01*
X0014888Y0088204D01*
X0015466Y0088782D01*
X0015947Y0089444D01*
X0016319Y0090174D01*
X0016572Y0090952D01*
X0016686Y0091670D01*
X0012000Y0091670D01*
X0012000Y0092051D02*
X0022800Y0092051D01*
X0022800Y0091052D02*
X0016588Y0091052D01*
X0016258Y0090054D02*
X0022800Y0090054D01*
X0022800Y0089055D02*
X0015665Y0089055D01*
X0014686Y0088057D02*
X0022800Y0088057D01*
X0022800Y0087058D02*
X0012467Y0087058D01*
X0012000Y0087058D02*
X0011000Y0087058D01*
X0010533Y0087058D02*
X0003200Y0087058D01*
X0003200Y0086060D02*
X0022800Y0086060D01*
X0022800Y0085061D02*
X0003200Y0085061D01*
X0003200Y0084063D02*
X0022800Y0084063D01*
X0022800Y0083064D02*
X0003200Y0083064D01*
X0003200Y0082066D02*
X0022800Y0082066D01*
X0022800Y0081067D02*
X0003200Y0081067D01*
X0003200Y0080069D02*
X0022800Y0080069D01*
X0022800Y0079070D02*
X0003200Y0079070D01*
X0003200Y0078072D02*
X0022800Y0078072D01*
X0022800Y0077073D02*
X0003200Y0077073D01*
X0003200Y0076075D02*
X0022800Y0076075D01*
X0022800Y0075076D02*
X0003200Y0075076D01*
X0003200Y0074078D02*
X0022800Y0074078D01*
X0022800Y0073079D02*
X0003200Y0073079D01*
X0003200Y0072081D02*
X0022800Y0072081D01*
X0022800Y0071082D02*
X0003200Y0071082D01*
X0003200Y0070084D02*
X0022800Y0070084D01*
X0022800Y0069085D02*
X0003200Y0069085D01*
X0003200Y0068087D02*
X0022800Y0068087D01*
X0021979Y0067088D02*
X0017021Y0067088D01*
X0018141Y0066089D02*
X0020859Y0066089D01*
X0020040Y0065091D02*
X0018960Y0065091D01*
X0019373Y0064092D02*
X0019627Y0064092D01*
X0019688Y0060098D02*
X0019312Y0060098D01*
X0018898Y0059100D02*
X0020102Y0059100D01*
X0021007Y0058101D02*
X0017993Y0058101D01*
X0016662Y0057103D02*
X0022338Y0057103D01*
X0022800Y0056104D02*
X0003200Y0056104D01*
X0003200Y0055106D02*
X0022800Y0055106D01*
X0022800Y0054107D02*
X0003200Y0054107D01*
X0003200Y0053109D02*
X0022800Y0053109D01*
X0023448Y0052110D02*
X0003200Y0052110D01*
X0003200Y0051112D02*
X0024447Y0051112D01*
X0025445Y0050113D02*
X0003200Y0050113D01*
X0003200Y0049115D02*
X0026444Y0049115D01*
X0027442Y0048116D02*
X0003200Y0048116D01*
X0003200Y0047118D02*
X0028441Y0047118D01*
X0029439Y0046119D02*
X0003200Y0046119D01*
X0003200Y0045121D02*
X0030438Y0045121D01*
X0031436Y0044122D02*
X0003200Y0044122D01*
X0003200Y0043124D02*
X0032435Y0043124D01*
X0033433Y0042125D02*
X0003200Y0042125D01*
X0003200Y0041127D02*
X0034432Y0041127D01*
X0035430Y0040128D02*
X0003200Y0040128D01*
X0003200Y0039130D02*
X0036429Y0039130D01*
X0037427Y0038131D02*
X0003200Y0038131D01*
X0003200Y0037133D02*
X0038426Y0037133D01*
X0039424Y0036134D02*
X0018899Y0036134D01*
X0018330Y0036370D02*
X0021711Y0034969D01*
X0024299Y0032381D01*
X0025700Y0029000D01*
X0025700Y0025340D01*
X0024299Y0021958D01*
X0021711Y0019370D01*
X0018330Y0017970D01*
X0014670Y0017970D01*
X0011289Y0019370D01*
X0008701Y0021958D01*
X0007300Y0025340D01*
X0007300Y0029000D01*
X0008701Y0032381D01*
X0011289Y0034969D01*
X0014670Y0036370D01*
X0018330Y0036370D01*
X0021310Y0035136D02*
X0040423Y0035136D01*
X0041421Y0034137D02*
X0022544Y0034137D01*
X0023542Y0033139D02*
X0042420Y0033139D01*
X0043418Y0032140D02*
X0024399Y0032140D01*
X0024813Y0031142D02*
X0044417Y0031142D01*
X0045416Y0030143D02*
X0025226Y0030143D01*
X0025640Y0029145D02*
X0046414Y0029145D01*
X0047413Y0028146D02*
X0025700Y0028146D01*
X0025700Y0027148D02*
X0048411Y0027148D01*
X0049410Y0026149D02*
X0025700Y0026149D01*
X0025622Y0025151D02*
X0050408Y0025151D01*
X0051407Y0024152D02*
X0025208Y0024152D01*
X0024794Y0023153D02*
X0052405Y0023153D01*
X0053469Y0025201D02*
X0025000Y0053670D01*
X0025000Y0062170D01*
X0025000Y0093670D01*
X0016500Y0102170D01*
X0011500Y0102170D01*
X0016434Y0104370D02*
X0016078Y0105229D01*
X0014559Y0106748D01*
X0013276Y0107279D01*
X0013496Y0107351D01*
X0014225Y0107722D01*
X0014888Y0108204D01*
X0015466Y0108782D01*
X0015947Y0109444D01*
X0016319Y0110174D01*
X0016572Y0110952D01*
X0016686Y0111670D01*
X0012000Y0111670D01*
X0012000Y0112670D01*
X0016686Y0112670D01*
X0016572Y0113388D01*
X0016319Y0114166D01*
X0015947Y0114895D01*
X0015466Y0115557D01*
X0014888Y0116136D01*
X0014225Y0116617D01*
X0013496Y0116989D01*
X0013276Y0117060D01*
X0014559Y0117592D01*
X0016078Y0119111D01*
X0016434Y0119970D01*
X0020089Y0119970D01*
X0030726Y0109332D01*
X0030300Y0108304D01*
X0030300Y0106036D01*
X0031168Y0103941D01*
X0032771Y0102338D01*
X0032800Y0102326D01*
X0032800Y0055759D01*
X0034089Y0054470D01*
X0061157Y0027401D01*
X0054380Y0027401D01*
X0027200Y0054581D01*
X0027200Y0056912D01*
X0028229Y0057338D01*
X0029832Y0058941D01*
X0030700Y0061036D01*
X0030700Y0063304D01*
X0029832Y0065399D01*
X0028229Y0067002D01*
X0027200Y0067428D01*
X0027200Y0094581D01*
X0018700Y0103081D01*
X0017411Y0104370D01*
X0016434Y0104370D01*
X0016160Y0105031D02*
X0030716Y0105031D01*
X0031130Y0104033D02*
X0017748Y0104033D01*
X0018747Y0103034D02*
X0032074Y0103034D01*
X0032800Y0102036D02*
X0019745Y0102036D01*
X0020744Y0101037D02*
X0032800Y0101037D01*
X0032800Y0100039D02*
X0021742Y0100039D01*
X0022741Y0099040D02*
X0032800Y0099040D01*
X0032800Y0098042D02*
X0023739Y0098042D01*
X0024738Y0097043D02*
X0032800Y0097043D01*
X0032800Y0096045D02*
X0025736Y0096045D01*
X0026735Y0095046D02*
X0032800Y0095046D01*
X0032800Y0094048D02*
X0027200Y0094048D01*
X0027200Y0093049D02*
X0032800Y0093049D01*
X0032800Y0092051D02*
X0027200Y0092051D01*
X0027200Y0091052D02*
X0032800Y0091052D01*
X0032800Y0090054D02*
X0027200Y0090054D01*
X0027200Y0089055D02*
X0032800Y0089055D01*
X0032800Y0088057D02*
X0027200Y0088057D01*
X0027200Y0087058D02*
X0032800Y0087058D01*
X0032800Y0086060D02*
X0027200Y0086060D01*
X0027200Y0085061D02*
X0032800Y0085061D01*
X0032800Y0084063D02*
X0027200Y0084063D01*
X0027200Y0083064D02*
X0032800Y0083064D01*
X0032800Y0082066D02*
X0027200Y0082066D01*
X0027200Y0081067D02*
X0032800Y0081067D01*
X0032800Y0080069D02*
X0027200Y0080069D01*
X0027200Y0079070D02*
X0032800Y0079070D01*
X0032800Y0078072D02*
X0027200Y0078072D01*
X0027200Y0077073D02*
X0032800Y0077073D01*
X0032800Y0076075D02*
X0027200Y0076075D01*
X0027200Y0075076D02*
X0032800Y0075076D01*
X0032800Y0074078D02*
X0027200Y0074078D01*
X0027200Y0073079D02*
X0032800Y0073079D01*
X0032800Y0072081D02*
X0027200Y0072081D01*
X0027200Y0071082D02*
X0032800Y0071082D01*
X0032800Y0070084D02*
X0027200Y0070084D01*
X0027200Y0069085D02*
X0032800Y0069085D01*
X0032800Y0068087D02*
X0027200Y0068087D01*
X0028021Y0067088D02*
X0032800Y0067088D01*
X0032800Y0066089D02*
X0029141Y0066089D01*
X0029960Y0065091D02*
X0032800Y0065091D01*
X0032800Y0064092D02*
X0030373Y0064092D01*
X0030700Y0063094D02*
X0032800Y0063094D01*
X0032800Y0062095D02*
X0030700Y0062095D01*
X0030700Y0061097D02*
X0032800Y0061097D01*
X0032800Y0060098D02*
X0030312Y0060098D01*
X0029898Y0059100D02*
X0032800Y0059100D01*
X0032800Y0058101D02*
X0028993Y0058101D01*
X0027662Y0057103D02*
X0032800Y0057103D01*
X0032800Y0056104D02*
X0027200Y0056104D01*
X0027200Y0055106D02*
X0033453Y0055106D01*
X0034089Y0054470D02*
X0034089Y0054470D01*
X0034451Y0054107D02*
X0027674Y0054107D01*
X0028672Y0053109D02*
X0035450Y0053109D01*
X0036448Y0052110D02*
X0029671Y0052110D01*
X0030669Y0051112D02*
X0037447Y0051112D01*
X0038445Y0050113D02*
X0031668Y0050113D01*
X0032666Y0049115D02*
X0039444Y0049115D01*
X0040442Y0048116D02*
X0033665Y0048116D01*
X0034663Y0047118D02*
X0041441Y0047118D01*
X0042439Y0046119D02*
X0035662Y0046119D01*
X0036660Y0045121D02*
X0043438Y0045121D01*
X0044436Y0044122D02*
X0037659Y0044122D01*
X0038657Y0043124D02*
X0045435Y0043124D01*
X0046433Y0042125D02*
X0039656Y0042125D01*
X0040654Y0041127D02*
X0047432Y0041127D01*
X0048430Y0040128D02*
X0041653Y0040128D01*
X0042651Y0039130D02*
X0049429Y0039130D01*
X0050427Y0038131D02*
X0043650Y0038131D01*
X0044648Y0037133D02*
X0051426Y0037133D01*
X0052424Y0036134D02*
X0045647Y0036134D01*
X0046645Y0035136D02*
X0053423Y0035136D01*
X0054421Y0034137D02*
X0047644Y0034137D01*
X0048643Y0033139D02*
X0055420Y0033139D01*
X0056419Y0032140D02*
X0049641Y0032140D01*
X0050640Y0031142D02*
X0057417Y0031142D01*
X0058416Y0030143D02*
X0051638Y0030143D01*
X0052637Y0029145D02*
X0059414Y0029145D01*
X0060413Y0028146D02*
X0053635Y0028146D01*
X0053469Y0025201D02*
X0077950Y0025201D01*
X0077950Y0027170D02*
X0073954Y0027170D01*
X0073454Y0027670D01*
X0064000Y0027670D01*
X0035000Y0056670D01*
X0035000Y0106170D01*
X0036000Y0107170D01*
X0021000Y0122170D01*
X0016172Y0125002D02*
X0050057Y0125002D01*
X0053284Y0127997D02*
X0067395Y0127997D01*
X0066690Y0128996D02*
X0052285Y0128996D01*
X0051287Y0129994D02*
X0066261Y0129994D01*
X0066039Y0130993D02*
X0050288Y0130993D01*
X0049290Y0131991D02*
X0071000Y0131991D01*
X0071000Y0130993D02*
X0072000Y0130993D01*
X0072000Y0131991D02*
X0082600Y0131991D01*
X0087000Y0131991D02*
X0210800Y0131991D01*
X0210800Y0130993D02*
X0087000Y0130993D01*
X0087000Y0129994D02*
X0210800Y0129994D01*
X0210800Y0128996D02*
X0087000Y0128996D01*
X0087000Y0127997D02*
X0210800Y0127997D01*
X0210800Y0126999D02*
X0087000Y0126999D01*
X0087000Y0126000D02*
X0210800Y0126000D01*
X0210800Y0125002D02*
X0087000Y0125002D01*
X0087000Y0124003D02*
X0210800Y0124003D01*
X0210800Y0123005D02*
X0087000Y0123005D01*
X0087000Y0122006D02*
X0210800Y0122006D01*
X0210800Y0121008D02*
X0087000Y0121008D01*
X0087772Y0120009D02*
X0210800Y0120009D01*
X0210129Y0119011D02*
X0088771Y0119011D01*
X0089769Y0118012D02*
X0209131Y0118012D01*
X0208132Y0117014D02*
X0090768Y0117014D01*
X0091766Y0116015D02*
X0207134Y0116015D01*
X0206135Y0115017D02*
X0092765Y0115017D01*
X0093763Y0114018D02*
X0159458Y0114018D01*
X0159118Y0113964D02*
X0158274Y0113690D01*
X0157484Y0113288D01*
X0156767Y0112766D01*
X0156140Y0112139D01*
X0155619Y0111422D01*
X0155216Y0110632D01*
X0154942Y0109788D01*
X0154812Y0108969D01*
X0159937Y0108969D01*
X0159937Y0107969D01*
X0160937Y0107969D01*
X0160937Y0102844D01*
X0161756Y0102974D01*
X0162600Y0103248D01*
X0163390Y0103651D01*
X0164107Y0104172D01*
X0164734Y0104799D01*
X0165255Y0105516D01*
X0165658Y0106306D01*
X0165932Y0107150D01*
X0166062Y0107969D01*
X0160937Y0107969D01*
X0160937Y0108969D01*
X0166062Y0108969D01*
X0165932Y0109788D01*
X0165658Y0110632D01*
X0165255Y0111422D01*
X0164734Y0112139D01*
X0164107Y0112766D01*
X0163390Y0113288D01*
X0162600Y0113690D01*
X0161756Y0113964D01*
X0160937Y0114094D01*
X0160937Y0108969D01*
X0159937Y0108969D01*
X0159937Y0114094D01*
X0159118Y0113964D01*
X0159937Y0114018D02*
X0160937Y0114018D01*
X0161416Y0114018D02*
X0200715Y0114018D01*
X0198863Y0113020D02*
X0163759Y0113020D01*
X0164820Y0112021D02*
X0197865Y0112021D01*
X0197306Y0111022D02*
X0165459Y0111022D01*
X0165856Y0110024D02*
X0196893Y0110024D01*
X0196729Y0109025D02*
X0166053Y0109025D01*
X0165893Y0107028D02*
X0196845Y0107028D01*
X0196729Y0108027D02*
X0160937Y0108027D01*
X0160937Y0109025D02*
X0159937Y0109025D01*
X0159937Y0108027D02*
X0099754Y0108027D01*
X0098756Y0109025D02*
X0154821Y0109025D01*
X0155018Y0110024D02*
X0097757Y0110024D01*
X0096759Y0111022D02*
X0155415Y0111022D01*
X0156054Y0112021D02*
X0095760Y0112021D01*
X0094762Y0113020D02*
X0157115Y0113020D01*
X0159937Y0113020D02*
X0160937Y0113020D01*
X0160937Y0112021D02*
X0159937Y0112021D01*
X0159937Y0111022D02*
X0160937Y0111022D01*
X0160937Y0110024D02*
X0159937Y0110024D01*
X0159937Y0107969D02*
X0154812Y0107969D01*
X0154942Y0107150D01*
X0155216Y0106306D01*
X0155619Y0105516D01*
X0156140Y0104799D01*
X0156767Y0104172D01*
X0157484Y0103651D01*
X0158274Y0103248D01*
X0159118Y0102974D01*
X0159937Y0102844D01*
X0159937Y0107969D01*
X0159937Y0107028D02*
X0160937Y0107028D01*
X0160937Y0106030D02*
X0159937Y0106030D01*
X0159937Y0105031D02*
X0160937Y0105031D01*
X0160937Y0104033D02*
X0159937Y0104033D01*
X0159937Y0103034D02*
X0160937Y0103034D01*
X0161942Y0103034D02*
X0200439Y0103034D01*
X0198749Y0104033D02*
X0163916Y0104033D01*
X0164903Y0105031D02*
X0197750Y0105031D01*
X0197259Y0106030D02*
X0165517Y0106030D01*
X0158932Y0103034D02*
X0136400Y0103034D01*
X0136400Y0103145D02*
X0135654Y0104945D01*
X0134276Y0106324D01*
X0132475Y0107070D01*
X0130525Y0107070D01*
X0128724Y0106324D01*
X0127346Y0104945D01*
X0126600Y0103145D01*
X0126600Y0101195D01*
X0127346Y0099394D01*
X0128724Y0098016D01*
X0130525Y0097270D01*
X0132475Y0097270D01*
X0134276Y0098016D01*
X0135654Y0099394D01*
X0136400Y0101195D01*
X0136400Y0103145D01*
X0136032Y0104033D02*
X0156958Y0104033D01*
X0155971Y0105031D02*
X0135568Y0105031D01*
X0134570Y0106030D02*
X0155357Y0106030D01*
X0154981Y0107028D02*
X0132575Y0107028D01*
X0130425Y0107028D02*
X0122575Y0107028D01*
X0122475Y0107070D02*
X0120525Y0107070D01*
X0118724Y0106324D01*
X0117346Y0104945D01*
X0117273Y0104770D01*
X0115727Y0104770D01*
X0115654Y0104945D01*
X0114276Y0106324D01*
X0112475Y0107070D01*
X0110525Y0107070D01*
X0108724Y0106324D01*
X0107346Y0104945D01*
X0106600Y0103145D01*
X0106600Y0101195D01*
X0107346Y0099394D01*
X0108724Y0098016D01*
X0110525Y0097270D01*
X0112475Y0097270D01*
X0114276Y0098016D01*
X0115654Y0099394D01*
X0116058Y0100370D01*
X0116942Y0100370D01*
X0117346Y0099394D01*
X0118724Y0098016D01*
X0120525Y0097270D01*
X0122475Y0097270D01*
X0124276Y0098016D01*
X0125654Y0099394D01*
X0126400Y0101195D01*
X0126400Y0103145D01*
X0125654Y0104945D01*
X0124276Y0106324D01*
X0122475Y0107070D01*
X0120425Y0107028D02*
X0112575Y0107028D01*
X0110425Y0107028D02*
X0102575Y0107028D01*
X0104570Y0106030D02*
X0108430Y0106030D01*
X0107432Y0105031D02*
X0105568Y0105031D01*
X0106032Y0104033D02*
X0106968Y0104033D01*
X0106600Y0103034D02*
X0106400Y0103034D01*
X0106400Y0102036D02*
X0106600Y0102036D01*
X0106665Y0101037D02*
X0106335Y0101037D01*
X0105921Y0100039D02*
X0107079Y0100039D01*
X0107700Y0099040D02*
X0105300Y0099040D01*
X0104302Y0098042D02*
X0108698Y0098042D01*
X0111500Y0102170D02*
X0112200Y0102570D01*
X0121200Y0102570D01*
X0121500Y0102170D01*
X0126032Y0104033D02*
X0126968Y0104033D01*
X0126600Y0103034D02*
X0126400Y0103034D01*
X0126400Y0102036D02*
X0126600Y0102036D01*
X0126665Y0101037D02*
X0126335Y0101037D01*
X0125921Y0100039D02*
X0127079Y0100039D01*
X0127700Y0099040D02*
X0125300Y0099040D01*
X0124302Y0098042D02*
X0128698Y0098042D01*
X0134302Y0098042D02*
X0295800Y0098042D01*
X0295800Y0099040D02*
X0135300Y0099040D01*
X0135921Y0100039D02*
X0295800Y0100039D01*
X0295800Y0101037D02*
X0136335Y0101037D01*
X0136400Y0102036D02*
X0295800Y0102036D01*
X0295800Y0103034D02*
X0204687Y0103034D01*
X0206377Y0104033D02*
X0295800Y0104033D01*
X0295800Y0105031D02*
X0207376Y0105031D01*
X0207867Y0106030D02*
X0295800Y0106030D01*
X0295800Y0107028D02*
X0278198Y0107028D01*
X0277574Y0106770D02*
X0275426Y0106770D01*
X0273441Y0107592D01*
X0271922Y0109111D01*
X0271100Y0111096D01*
X0271100Y0113244D01*
X0271456Y0114103D01*
X0270589Y0114970D01*
X0269300Y0116259D01*
X0269300Y0117236D01*
X0268441Y0117592D01*
X0266922Y0119111D01*
X0266100Y0121096D01*
X0266100Y0123244D01*
X0266456Y0124103D01*
X0265589Y0124970D01*
X0260589Y0124970D01*
X0255589Y0129970D01*
X0254300Y0131259D01*
X0254300Y0132777D01*
X0253724Y0133016D01*
X0252346Y0134394D01*
X0251600Y0136195D01*
X0251600Y0138145D01*
X0252346Y0139945D01*
X0253724Y0141324D01*
X0255525Y0142070D01*
X0257475Y0142070D01*
X0259276Y0141324D01*
X0260654Y0139945D01*
X0261400Y0138145D01*
X0261400Y0136195D01*
X0260654Y0134394D01*
X0259276Y0133016D01*
X0258915Y0132866D01*
X0262411Y0129370D01*
X0267411Y0129370D01*
X0268700Y0128081D01*
X0269567Y0127214D01*
X0270426Y0127570D01*
X0272574Y0127570D01*
X0274559Y0126748D01*
X0276078Y0125229D01*
X0276900Y0123244D01*
X0276900Y0121096D01*
X0276078Y0119111D01*
X0274559Y0117592D01*
X0274297Y0117484D01*
X0274567Y0117214D01*
X0275426Y0117570D01*
X0277574Y0117570D01*
X0279559Y0116748D01*
X0281078Y0115229D01*
X0281900Y0113244D01*
X0281900Y0111096D01*
X0281078Y0109111D01*
X0279559Y0107592D01*
X0277574Y0106770D01*
X0279994Y0108027D02*
X0295800Y0108027D01*
X0295800Y0109025D02*
X0280992Y0109025D01*
X0281456Y0110024D02*
X0295800Y0110024D01*
X0295800Y0111022D02*
X0281870Y0111022D01*
X0281900Y0112021D02*
X0295800Y0112021D01*
X0295800Y0113020D02*
X0281900Y0113020D01*
X0281579Y0114018D02*
X0295800Y0114018D01*
X0295800Y0115017D02*
X0281166Y0115017D01*
X0280292Y0116015D02*
X0295800Y0116015D01*
X0295800Y0117014D02*
X0278917Y0117014D01*
X0275977Y0119011D02*
X0295800Y0119011D01*
X0295800Y0119581D02*
X0295800Y0095081D01*
X0292474Y0091755D01*
X0291955Y0091970D01*
X0290045Y0091970D01*
X0288281Y0091239D01*
X0286931Y0089889D01*
X0286200Y0088125D01*
X0286200Y0086215D01*
X0286931Y0084451D01*
X0288281Y0083101D01*
X0290045Y0082370D01*
X0291955Y0082370D01*
X0293719Y0083101D01*
X0295069Y0084451D01*
X0295800Y0086215D01*
X0295800Y0088125D01*
X0295585Y0088644D01*
X0298911Y0091970D01*
X0300200Y0093259D01*
X0300200Y0116863D01*
X0300426Y0116770D01*
X0302574Y0116770D01*
X0304559Y0117592D01*
X0306078Y0119111D01*
X0306900Y0121096D01*
X0306900Y0123244D01*
X0306078Y0125229D01*
X0304559Y0126748D01*
X0302574Y0127570D01*
X0300426Y0127570D01*
X0298441Y0126748D01*
X0296922Y0125229D01*
X0296100Y0123244D01*
X0296100Y0121096D01*
X0296456Y0120237D01*
X0295800Y0119581D01*
X0296228Y0120009D02*
X0276450Y0120009D01*
X0276863Y0121008D02*
X0296137Y0121008D01*
X0296100Y0122006D02*
X0276900Y0122006D01*
X0276900Y0123005D02*
X0296100Y0123005D01*
X0296414Y0124003D02*
X0276586Y0124003D01*
X0276172Y0125002D02*
X0296828Y0125002D01*
X0297694Y0126000D02*
X0275306Y0126000D01*
X0273953Y0126999D02*
X0299047Y0126999D01*
X0303953Y0126999D02*
X0324300Y0126999D01*
X0324300Y0127997D02*
X0268784Y0127997D01*
X0267785Y0128996D02*
X0324300Y0128996D01*
X0324300Y0129994D02*
X0261787Y0129994D01*
X0260788Y0130993D02*
X0324300Y0130993D01*
X0324300Y0131991D02*
X0259790Y0131991D01*
X0259213Y0132990D02*
X0264351Y0132990D01*
X0264037Y0133150D02*
X0264696Y0132814D01*
X0265399Y0132586D01*
X0266130Y0132470D01*
X0266200Y0132470D01*
X0266200Y0136870D01*
X0261800Y0136870D01*
X0261800Y0136800D01*
X0261916Y0136069D01*
X0262144Y0135366D01*
X0262480Y0134707D01*
X0262915Y0134108D01*
X0263438Y0133585D01*
X0264037Y0133150D01*
X0263035Y0133988D02*
X0260248Y0133988D01*
X0260899Y0134987D02*
X0262337Y0134987D01*
X0261943Y0135985D02*
X0261313Y0135985D01*
X0261400Y0136984D02*
X0266200Y0136984D01*
X0266200Y0136870D02*
X0266200Y0137470D01*
X0266200Y0141870D01*
X0266130Y0141870D01*
X0265399Y0141754D01*
X0264696Y0141526D01*
X0264037Y0141190D01*
X0263438Y0140755D01*
X0262915Y0140232D01*
X0262480Y0139633D01*
X0262144Y0138974D01*
X0261916Y0138270D01*
X0261800Y0137540D01*
X0261800Y0137470D01*
X0266200Y0137470D01*
X0266800Y0137470D01*
X0266800Y0141870D01*
X0266870Y0141870D01*
X0267601Y0141754D01*
X0268304Y0141526D01*
X0268963Y0141190D01*
X0269562Y0140755D01*
X0270085Y0140232D01*
X0270520Y0139633D01*
X0270856Y0138974D01*
X0271084Y0138270D01*
X0271200Y0137540D01*
X0271200Y0137470D01*
X0266800Y0137470D01*
X0266800Y0136870D01*
X0271200Y0136870D01*
X0271200Y0136800D01*
X0271084Y0136069D01*
X0270856Y0135366D01*
X0270520Y0134707D01*
X0270085Y0134108D01*
X0269562Y0133585D01*
X0268963Y0133150D01*
X0268304Y0132814D01*
X0267601Y0132586D01*
X0266870Y0132470D01*
X0266800Y0132470D01*
X0266800Y0136870D01*
X0266200Y0136870D01*
X0266800Y0136984D02*
X0292540Y0136984D01*
X0292511Y0137170D02*
X0292635Y0136382D01*
X0292903Y0135559D01*
X0293296Y0134787D01*
X0293805Y0134087D01*
X0294417Y0133475D01*
X0295117Y0132966D01*
X0295889Y0132573D01*
X0296712Y0132305D01*
X0297500Y0132180D01*
X0297500Y0137170D01*
X0292511Y0137170D01*
X0292511Y0138170D02*
X0297500Y0138170D01*
X0297500Y0137170D01*
X0298500Y0137170D01*
X0298500Y0138170D01*
X0303489Y0138170D01*
X0303365Y0138958D01*
X0303097Y0139781D01*
X0302704Y0140552D01*
X0302195Y0141253D01*
X0301583Y0141865D01*
X0300883Y0142374D01*
X0300111Y0142767D01*
X0299289Y0143034D01*
X0301229Y0143838D01*
X0302832Y0145441D01*
X0303700Y0147536D01*
X0303700Y0149804D01*
X0302832Y0151899D01*
X0301229Y0153502D01*
X0299134Y0154370D01*
X0296866Y0154370D01*
X0294771Y0153502D01*
X0293168Y0151899D01*
X0292300Y0149804D01*
X0292300Y0147536D01*
X0293168Y0145441D01*
X0294771Y0143838D01*
X0296711Y0143034D01*
X0295889Y0142767D01*
X0295117Y0142374D01*
X0294417Y0141865D01*
X0293805Y0141253D01*
X0293296Y0140552D01*
X0292903Y0139781D01*
X0292635Y0138958D01*
X0292511Y0138170D01*
X0292643Y0138981D02*
X0270852Y0138981D01*
X0271130Y0137982D02*
X0297500Y0137982D01*
X0297500Y0136984D02*
X0298500Y0136984D01*
X0298500Y0137170D02*
X0298500Y0132180D01*
X0299288Y0132305D01*
X0300111Y0132573D01*
X0300883Y0132966D01*
X0301583Y0133475D01*
X0302195Y0134087D01*
X0302704Y0134787D01*
X0303097Y0135559D01*
X0303365Y0136382D01*
X0303489Y0137170D01*
X0298500Y0137170D01*
X0298500Y0137982D02*
X0324300Y0137982D01*
X0324300Y0136984D02*
X0303460Y0136984D01*
X0303236Y0135985D02*
X0324300Y0135985D01*
X0324300Y0134987D02*
X0302806Y0134987D01*
X0302097Y0133988D02*
X0324300Y0133988D01*
X0324300Y0132990D02*
X0300916Y0132990D01*
X0298500Y0132990D02*
X0297500Y0132990D01*
X0297500Y0133988D02*
X0298500Y0133988D01*
X0298500Y0134987D02*
X0297500Y0134987D01*
X0297500Y0135985D02*
X0298500Y0135985D01*
X0295084Y0132990D02*
X0268649Y0132990D01*
X0269965Y0133988D02*
X0293903Y0133988D01*
X0293194Y0134987D02*
X0270663Y0134987D01*
X0271057Y0135985D02*
X0292764Y0135985D01*
X0293004Y0139979D02*
X0270268Y0139979D01*
X0269255Y0140978D02*
X0293605Y0140978D01*
X0294570Y0141976D02*
X0257700Y0141976D01*
X0259622Y0140978D02*
X0263745Y0140978D01*
X0262732Y0139979D02*
X0260620Y0139979D01*
X0261054Y0138981D02*
X0262148Y0138981D01*
X0261870Y0137982D02*
X0261400Y0137982D01*
X0266200Y0137982D02*
X0266800Y0137982D01*
X0266800Y0138981D02*
X0266200Y0138981D01*
X0266200Y0139979D02*
X0266800Y0139979D01*
X0266800Y0140978D02*
X0266200Y0140978D01*
X0266200Y0135985D02*
X0266800Y0135985D01*
X0266800Y0134987D02*
X0266200Y0134987D01*
X0266200Y0133988D02*
X0266800Y0133988D01*
X0266800Y0132990D02*
X0266200Y0132990D01*
X0266500Y0127170D02*
X0261500Y0127170D01*
X0256500Y0132170D01*
X0256500Y0137170D01*
X0251946Y0138981D02*
X0251054Y0138981D01*
X0251400Y0138145D02*
X0250654Y0139945D01*
X0249276Y0141324D01*
X0247475Y0142070D01*
X0245525Y0142070D01*
X0243724Y0141324D01*
X0242346Y0139945D01*
X0241600Y0138145D01*
X0241600Y0136195D01*
X0242346Y0134394D01*
X0243724Y0133016D01*
X0245000Y0132487D01*
X0245000Y0125059D01*
X0246309Y0123749D01*
X0246100Y0123244D01*
X0246100Y0121096D01*
X0246922Y0119111D01*
X0248441Y0117592D01*
X0250426Y0116770D01*
X0252574Y0116770D01*
X0253079Y0116979D01*
X0253376Y0116683D01*
X0251922Y0115229D01*
X0251100Y0113244D01*
X0251100Y0111096D01*
X0251922Y0109111D01*
X0253441Y0107592D01*
X0255426Y0106770D01*
X0257574Y0106770D01*
X0259559Y0107592D01*
X0261078Y0109111D01*
X0261900Y0111096D01*
X0261900Y0113244D01*
X0261078Y0115229D01*
X0259559Y0116748D01*
X0258400Y0117228D01*
X0258400Y0117881D01*
X0256398Y0119883D01*
X0256900Y0121096D01*
X0256900Y0123244D01*
X0256078Y0125229D01*
X0254559Y0126748D01*
X0252574Y0127570D01*
X0250426Y0127570D01*
X0249400Y0127145D01*
X0249400Y0133140D01*
X0250654Y0134394D01*
X0251400Y0136195D01*
X0251400Y0138145D01*
X0251400Y0137982D02*
X0251600Y0137982D01*
X0251600Y0136984D02*
X0251400Y0136984D01*
X0251313Y0135985D02*
X0251687Y0135985D01*
X0252101Y0134987D02*
X0250899Y0134987D01*
X0250248Y0133988D02*
X0252752Y0133988D01*
X0253787Y0132990D02*
X0249400Y0132990D01*
X0249400Y0131991D02*
X0254300Y0131991D01*
X0254566Y0130993D02*
X0249400Y0130993D01*
X0249400Y0129994D02*
X0255564Y0129994D01*
X0256563Y0128996D02*
X0249400Y0128996D01*
X0249400Y0127997D02*
X0257561Y0127997D01*
X0258560Y0126999D02*
X0253953Y0126999D01*
X0255306Y0126000D02*
X0259558Y0126000D01*
X0260557Y0125002D02*
X0256172Y0125002D01*
X0256586Y0124003D02*
X0266414Y0124003D01*
X0266100Y0123005D02*
X0256900Y0123005D01*
X0256900Y0122006D02*
X0266100Y0122006D01*
X0266137Y0121008D02*
X0256863Y0121008D01*
X0256450Y0120009D02*
X0266550Y0120009D01*
X0267023Y0119011D02*
X0257271Y0119011D01*
X0258269Y0118012D02*
X0268021Y0118012D01*
X0269300Y0117014D02*
X0258917Y0117014D01*
X0260292Y0116015D02*
X0269544Y0116015D01*
X0270542Y0115017D02*
X0261166Y0115017D01*
X0261579Y0114018D02*
X0271421Y0114018D01*
X0271100Y0113020D02*
X0261900Y0113020D01*
X0261900Y0112021D02*
X0271100Y0112021D01*
X0271130Y0111022D02*
X0261870Y0111022D01*
X0261456Y0110024D02*
X0271544Y0110024D01*
X0272008Y0109025D02*
X0260992Y0109025D01*
X0259994Y0108027D02*
X0273006Y0108027D01*
X0274802Y0107028D02*
X0258198Y0107028D01*
X0254802Y0107028D02*
X0227279Y0107028D01*
X0226909Y0106970D02*
X0227718Y0107098D01*
X0228496Y0107351D01*
X0229225Y0107722D01*
X0229888Y0108204D01*
X0230466Y0108782D01*
X0230947Y0109444D01*
X0231319Y0110174D01*
X0231572Y0110952D01*
X0231700Y0111761D01*
X0231700Y0111784D01*
X0226886Y0111784D01*
X0226886Y0112556D01*
X0226114Y0112556D01*
X0226114Y0117370D01*
X0226091Y0117370D01*
X0225282Y0117242D01*
X0224504Y0116989D01*
X0223775Y0116617D01*
X0223112Y0116136D01*
X0222534Y0115557D01*
X0222053Y0114895D01*
X0221681Y0114166D01*
X0221428Y0113388D01*
X0221300Y0112579D01*
X0221300Y0112556D01*
X0226114Y0112556D01*
X0226114Y0111784D01*
X0221300Y0111784D01*
X0221300Y0111761D01*
X0221428Y0110952D01*
X0221681Y0110174D01*
X0222053Y0109444D01*
X0222534Y0108782D01*
X0223112Y0108204D01*
X0223775Y0107722D01*
X0224504Y0107351D01*
X0225282Y0107098D01*
X0226091Y0106970D01*
X0226114Y0106970D01*
X0226114Y0111784D01*
X0226886Y0111784D01*
X0226886Y0106970D01*
X0226909Y0106970D01*
X0226886Y0107028D02*
X0226114Y0107028D01*
X0225721Y0107028D02*
X0208281Y0107028D01*
X0208397Y0108027D02*
X0223355Y0108027D01*
X0222357Y0109025D02*
X0208397Y0109025D01*
X0208233Y0110024D02*
X0221757Y0110024D01*
X0221417Y0111022D02*
X0208364Y0111022D01*
X0209362Y0112021D02*
X0226114Y0112021D01*
X0226886Y0112021D02*
X0251100Y0112021D01*
X0251100Y0113020D02*
X0231630Y0113020D01*
X0231572Y0113388D02*
X0231700Y0112579D01*
X0231700Y0112556D01*
X0226886Y0112556D01*
X0226886Y0117370D01*
X0226909Y0117370D01*
X0227718Y0117242D01*
X0228496Y0116989D01*
X0229225Y0116617D01*
X0229888Y0116136D01*
X0230466Y0115557D01*
X0230947Y0114895D01*
X0231319Y0114166D01*
X0231572Y0113388D01*
X0231367Y0114018D02*
X0251421Y0114018D01*
X0251834Y0115017D02*
X0230859Y0115017D01*
X0230009Y0116015D02*
X0252708Y0116015D01*
X0249838Y0117014D02*
X0228420Y0117014D01*
X0226886Y0117014D02*
X0226114Y0117014D01*
X0226114Y0116015D02*
X0226886Y0116015D01*
X0226886Y0115017D02*
X0226114Y0115017D01*
X0226114Y0114018D02*
X0226886Y0114018D01*
X0226886Y0113020D02*
X0226114Y0113020D01*
X0226114Y0111022D02*
X0226886Y0111022D01*
X0226886Y0110024D02*
X0226114Y0110024D01*
X0226114Y0109025D02*
X0226886Y0109025D01*
X0226886Y0108027D02*
X0226114Y0108027D01*
X0229645Y0108027D02*
X0253006Y0108027D01*
X0252008Y0109025D02*
X0230643Y0109025D01*
X0231243Y0110024D02*
X0251544Y0110024D01*
X0251130Y0111022D02*
X0231583Y0111022D01*
X0222141Y0115017D02*
X0212358Y0115017D01*
X0213356Y0116015D02*
X0222991Y0116015D01*
X0222574Y0116770D02*
X0224559Y0117592D01*
X0226078Y0119111D01*
X0226900Y0121096D01*
X0226900Y0123244D01*
X0226632Y0123891D01*
X0235162Y0132420D01*
X0235525Y0132270D01*
X0237475Y0132270D01*
X0239276Y0133016D01*
X0240654Y0134394D01*
X0241400Y0136195D01*
X0241400Y0138145D01*
X0240654Y0139945D01*
X0239276Y0141324D01*
X0237475Y0142070D01*
X0235525Y0142070D01*
X0233724Y0141324D01*
X0232346Y0139945D01*
X0231600Y0138145D01*
X0231600Y0136195D01*
X0231926Y0135407D01*
X0223645Y0127126D01*
X0222574Y0127570D01*
X0220426Y0127570D01*
X0218441Y0126748D01*
X0216922Y0125229D01*
X0216100Y0123244D01*
X0216100Y0121096D01*
X0216922Y0119111D01*
X0218441Y0117592D01*
X0220426Y0116770D01*
X0222574Y0116770D01*
X0223162Y0117014D02*
X0224580Y0117014D01*
X0224979Y0118012D02*
X0248021Y0118012D01*
X0247023Y0119011D02*
X0225977Y0119011D01*
X0226450Y0120009D02*
X0246550Y0120009D01*
X0246137Y0121008D02*
X0226863Y0121008D01*
X0226900Y0122006D02*
X0246100Y0122006D01*
X0246100Y0123005D02*
X0226900Y0123005D01*
X0226745Y0124003D02*
X0246055Y0124003D01*
X0245057Y0125002D02*
X0227743Y0125002D01*
X0228742Y0126000D02*
X0245000Y0126000D01*
X0245000Y0126999D02*
X0229740Y0126999D01*
X0230739Y0127997D02*
X0245000Y0127997D01*
X0245000Y0128996D02*
X0231737Y0128996D01*
X0232736Y0129994D02*
X0245000Y0129994D01*
X0245000Y0130993D02*
X0233734Y0130993D01*
X0234733Y0131991D02*
X0245000Y0131991D01*
X0243787Y0132990D02*
X0239213Y0132990D01*
X0240248Y0133988D02*
X0242752Y0133988D01*
X0242101Y0134987D02*
X0240899Y0134987D01*
X0241313Y0135985D02*
X0241687Y0135985D01*
X0241600Y0136984D02*
X0241400Y0136984D01*
X0241400Y0137982D02*
X0241600Y0137982D01*
X0241946Y0138981D02*
X0241054Y0138981D01*
X0240620Y0139979D02*
X0242380Y0139979D01*
X0243378Y0140978D02*
X0239622Y0140978D01*
X0237700Y0141976D02*
X0245300Y0141976D01*
X0247700Y0141976D02*
X0255300Y0141976D01*
X0253378Y0140978D02*
X0249622Y0140978D01*
X0250620Y0139979D02*
X0252380Y0139979D01*
X0247200Y0136770D02*
X0246500Y0137170D01*
X0247200Y0136770D02*
X0247200Y0125970D01*
X0250800Y0122370D01*
X0251500Y0122170D01*
X0251700Y0121470D01*
X0256200Y0116970D01*
X0256200Y0112470D01*
X0256500Y0112170D01*
X0271500Y0117170D02*
X0271500Y0122170D01*
X0266500Y0127170D01*
X0274979Y0118012D02*
X0295800Y0118012D01*
X0298000Y0118670D02*
X0298000Y0094170D01*
X0291000Y0087170D01*
X0295800Y0087058D02*
X0296200Y0087058D01*
X0296200Y0086215D02*
X0296931Y0084451D01*
X0298281Y0083101D01*
X0300045Y0082370D01*
X0301955Y0082370D01*
X0303719Y0083101D01*
X0305069Y0084451D01*
X0305800Y0086215D01*
X0305800Y0088125D01*
X0305585Y0088644D01*
X0308700Y0091759D01*
X0308700Y0107236D01*
X0309559Y0107592D01*
X0311078Y0109111D01*
X0311900Y0111096D01*
X0311900Y0113244D01*
X0311078Y0115229D01*
X0309559Y0116748D01*
X0307574Y0117570D01*
X0305426Y0117570D01*
X0303441Y0116748D01*
X0301922Y0115229D01*
X0301100Y0113244D01*
X0301100Y0111096D01*
X0301922Y0109111D01*
X0303441Y0107592D01*
X0304300Y0107236D01*
X0304300Y0093581D01*
X0302474Y0091755D01*
X0301955Y0091970D01*
X0300045Y0091970D01*
X0298281Y0091239D01*
X0296931Y0089889D01*
X0296200Y0088125D01*
X0296200Y0086215D01*
X0296264Y0086060D02*
X0295736Y0086060D01*
X0295322Y0085061D02*
X0296678Y0085061D01*
X0297319Y0084063D02*
X0294681Y0084063D01*
X0293631Y0083064D02*
X0298369Y0083064D01*
X0303631Y0083064D02*
X0308369Y0083064D01*
X0308281Y0083101D02*
X0310045Y0082370D01*
X0311955Y0082370D01*
X0313719Y0083101D01*
X0315069Y0084451D01*
X0315800Y0086215D01*
X0315800Y0088125D01*
X0315069Y0089889D01*
X0313719Y0091239D01*
X0311955Y0091970D01*
X0310045Y0091970D01*
X0308281Y0091239D01*
X0306931Y0089889D01*
X0306200Y0088125D01*
X0306200Y0086215D01*
X0306931Y0084451D01*
X0308281Y0083101D01*
X0307319Y0084063D02*
X0304681Y0084063D01*
X0305322Y0085061D02*
X0306678Y0085061D01*
X0306264Y0086060D02*
X0305736Y0086060D01*
X0305800Y0087058D02*
X0306200Y0087058D01*
X0306200Y0088057D02*
X0305800Y0088057D01*
X0305997Y0089055D02*
X0306585Y0089055D01*
X0306995Y0090054D02*
X0307096Y0090054D01*
X0307994Y0091052D02*
X0308094Y0091052D01*
X0308700Y0092051D02*
X0358501Y0092051D01*
X0358501Y0093049D02*
X0308700Y0093049D01*
X0308700Y0094048D02*
X0358501Y0094048D01*
X0358501Y0095046D02*
X0308700Y0095046D01*
X0308700Y0096045D02*
X0358501Y0096045D01*
X0358501Y0097043D02*
X0349503Y0097043D01*
X0349276Y0096816D02*
X0350654Y0098194D01*
X0351400Y0099995D01*
X0351400Y0108345D01*
X0350654Y0110145D01*
X0349276Y0111524D01*
X0347475Y0112270D01*
X0345525Y0112270D01*
X0343724Y0111524D01*
X0342346Y0110145D01*
X0341600Y0108345D01*
X0341600Y0099995D01*
X0342346Y0098194D01*
X0343724Y0096816D01*
X0345525Y0096070D01*
X0347475Y0096070D01*
X0349276Y0096816D01*
X0350502Y0098042D02*
X0358501Y0098042D01*
X0358501Y0099040D02*
X0351004Y0099040D01*
X0351400Y0100039D02*
X0358501Y0100039D01*
X0358501Y0101037D02*
X0351400Y0101037D01*
X0351400Y0102036D02*
X0358501Y0102036D01*
X0358501Y0103034D02*
X0351400Y0103034D01*
X0351400Y0104033D02*
X0358501Y0104033D01*
X0358501Y0105031D02*
X0351400Y0105031D01*
X0351400Y0106030D02*
X0358501Y0106030D01*
X0358501Y0107028D02*
X0351400Y0107028D01*
X0351400Y0108027D02*
X0358501Y0108027D01*
X0358501Y0109025D02*
X0351118Y0109025D01*
X0350704Y0110024D02*
X0358501Y0110024D01*
X0358501Y0111022D02*
X0349777Y0111022D01*
X0348075Y0112021D02*
X0358501Y0112021D01*
X0358501Y0113020D02*
X0328700Y0113020D01*
X0328700Y0114018D02*
X0358501Y0114018D01*
X0358501Y0115017D02*
X0328700Y0115017D01*
X0328700Y0116015D02*
X0358501Y0116015D01*
X0358501Y0117014D02*
X0328700Y0117014D01*
X0328700Y0118012D02*
X0358501Y0118012D01*
X0358501Y0119011D02*
X0328700Y0119011D01*
X0328700Y0120009D02*
X0358501Y0120009D01*
X0358501Y0121008D02*
X0328700Y0121008D01*
X0328700Y0122006D02*
X0358501Y0122006D01*
X0358501Y0123005D02*
X0328700Y0123005D01*
X0328700Y0124003D02*
X0358501Y0124003D01*
X0358501Y0125002D02*
X0328700Y0125002D01*
X0328700Y0126000D02*
X0358501Y0126000D01*
X0358501Y0126999D02*
X0328700Y0126999D01*
X0328700Y0127997D02*
X0358501Y0127997D01*
X0358501Y0128996D02*
X0328700Y0128996D01*
X0328700Y0129994D02*
X0358501Y0129994D01*
X0358501Y0130993D02*
X0328700Y0130993D01*
X0328700Y0131991D02*
X0358501Y0131991D01*
X0358501Y0132990D02*
X0328700Y0132990D01*
X0328700Y0133988D02*
X0358501Y0133988D01*
X0358501Y0134987D02*
X0328700Y0134987D01*
X0328700Y0135985D02*
X0358501Y0135985D01*
X0358501Y0136984D02*
X0328700Y0136984D01*
X0328700Y0137982D02*
X0358501Y0137982D01*
X0358501Y0138981D02*
X0328700Y0138981D01*
X0328700Y0139979D02*
X0358501Y0139979D01*
X0358501Y0140978D02*
X0328700Y0140978D01*
X0328700Y0141976D02*
X0358501Y0141976D01*
X0358501Y0142975D02*
X0328700Y0142975D01*
X0328700Y0143973D02*
X0358501Y0143973D01*
X0358501Y0144972D02*
X0328700Y0144972D01*
X0328700Y0145970D02*
X0358501Y0145970D01*
X0358501Y0146969D02*
X0328612Y0146969D01*
X0328700Y0146881D02*
X0316700Y0158881D01*
X0315411Y0160170D01*
X0245711Y0160170D01*
X0240898Y0164983D01*
X0241400Y0166195D01*
X0241400Y0168145D01*
X0240654Y0169945D01*
X0239276Y0171324D01*
X0237475Y0172070D01*
X0235525Y0172070D01*
X0233724Y0171324D01*
X0232346Y0169945D01*
X0231600Y0168145D01*
X0231600Y0166195D01*
X0232346Y0164394D01*
X0233724Y0163016D01*
X0235525Y0162270D01*
X0237389Y0162270D01*
X0243889Y0155770D01*
X0313589Y0155770D01*
X0324300Y0145059D01*
X0324300Y0111762D01*
X0323724Y0111524D01*
X0322346Y0110145D01*
X0321600Y0108345D01*
X0321600Y0099995D01*
X0322346Y0098194D01*
X0323724Y0096816D01*
X0325525Y0096070D01*
X0327475Y0096070D01*
X0329276Y0096816D01*
X0330654Y0098194D01*
X0331400Y0099995D01*
X0331400Y0108345D01*
X0330654Y0110145D01*
X0329276Y0111524D01*
X0328700Y0111762D01*
X0328700Y0146881D01*
X0327614Y0147967D02*
X0358501Y0147967D01*
X0358501Y0148966D02*
X0326615Y0148966D01*
X0325617Y0149964D02*
X0358501Y0149964D01*
X0358501Y0150963D02*
X0324618Y0150963D01*
X0323620Y0151961D02*
X0358501Y0151961D01*
X0358501Y0152960D02*
X0322621Y0152960D01*
X0321623Y0153958D02*
X0358501Y0153958D01*
X0358501Y0154957D02*
X0320624Y0154957D01*
X0319626Y0155955D02*
X0332489Y0155955D01*
X0331855Y0156218D02*
X0334869Y0154970D01*
X0338131Y0154970D01*
X0341145Y0156218D01*
X0343452Y0158525D01*
X0344700Y0161539D01*
X0344700Y0164801D01*
X0343452Y0167815D01*
X0341145Y0170121D01*
X0338131Y0171370D01*
X0334869Y0171370D01*
X0331855Y0170121D01*
X0329548Y0167815D01*
X0328300Y0164801D01*
X0328300Y0161539D01*
X0329548Y0158525D01*
X0331855Y0156218D01*
X0331119Y0156954D02*
X0318627Y0156954D01*
X0317629Y0157953D02*
X0330121Y0157953D01*
X0329372Y0158951D02*
X0316630Y0158951D01*
X0315632Y0159950D02*
X0328958Y0159950D01*
X0328545Y0160948D02*
X0244933Y0160948D01*
X0243935Y0161947D02*
X0328300Y0161947D01*
X0328300Y0162945D02*
X0269105Y0162945D01*
X0269276Y0163016D02*
X0270654Y0164394D01*
X0271400Y0166195D01*
X0271400Y0168145D01*
X0270654Y0169945D01*
X0269276Y0171324D01*
X0268700Y0171562D01*
X0268700Y0182236D01*
X0269559Y0182592D01*
X0271078Y0184111D01*
X0271900Y0186096D01*
X0271900Y0188244D01*
X0271544Y0189103D01*
X0273700Y0191259D01*
X0273700Y0192236D01*
X0274559Y0192592D01*
X0276078Y0194111D01*
X0276900Y0196096D01*
X0276900Y0198244D01*
X0276078Y0200229D01*
X0274559Y0201748D01*
X0272574Y0202570D01*
X0270426Y0202570D01*
X0268441Y0201748D01*
X0266922Y0200229D01*
X0266100Y0198244D01*
X0266100Y0196096D01*
X0266922Y0194111D01*
X0268441Y0192592D01*
X0268703Y0192484D01*
X0268433Y0192214D01*
X0267574Y0192570D01*
X0265426Y0192570D01*
X0263441Y0191748D01*
X0261922Y0190229D01*
X0261100Y0188244D01*
X0261100Y0186096D01*
X0261922Y0184111D01*
X0263441Y0182592D01*
X0264300Y0182236D01*
X0264300Y0171562D01*
X0263724Y0171324D01*
X0262346Y0169945D01*
X0261600Y0168145D01*
X0261600Y0166195D01*
X0262346Y0164394D01*
X0263724Y0163016D01*
X0265525Y0162270D01*
X0267475Y0162270D01*
X0269276Y0163016D01*
X0270203Y0163944D02*
X0328300Y0163944D01*
X0328358Y0164942D02*
X0270881Y0164942D01*
X0271295Y0165941D02*
X0328772Y0165941D01*
X0329186Y0166939D02*
X0271400Y0166939D01*
X0271400Y0167938D02*
X0329671Y0167938D01*
X0330670Y0168936D02*
X0271072Y0168936D01*
X0270659Y0169935D02*
X0331668Y0169935D01*
X0333815Y0170933D02*
X0269666Y0170933D01*
X0268700Y0171932D02*
X0358501Y0171932D01*
X0358501Y0172930D02*
X0268700Y0172930D01*
X0268700Y0173929D02*
X0358501Y0173929D01*
X0358501Y0174927D02*
X0268700Y0174927D01*
X0268700Y0175926D02*
X0358501Y0175926D01*
X0358501Y0176924D02*
X0268700Y0176924D01*
X0268700Y0177923D02*
X0358501Y0177923D01*
X0358501Y0178921D02*
X0268700Y0178921D01*
X0268700Y0179920D02*
X0358501Y0179920D01*
X0358501Y0180918D02*
X0268700Y0180918D01*
X0268700Y0181917D02*
X0295071Y0181917D01*
X0295426Y0181770D02*
X0297574Y0181770D01*
X0299559Y0182592D01*
X0301078Y0184111D01*
X0301900Y0186096D01*
X0301900Y0188244D01*
X0301078Y0190229D01*
X0299559Y0191748D01*
X0297574Y0192570D01*
X0295426Y0192570D01*
X0293441Y0191748D01*
X0291922Y0190229D01*
X0291100Y0188244D01*
X0291100Y0186096D01*
X0291922Y0184111D01*
X0293441Y0182592D01*
X0295426Y0181770D01*
X0297929Y0181917D02*
X0358501Y0181917D01*
X0358501Y0182915D02*
X0299882Y0182915D01*
X0300881Y0183914D02*
X0358501Y0183914D01*
X0358501Y0184912D02*
X0301410Y0184912D01*
X0301823Y0185911D02*
X0358501Y0185911D01*
X0358501Y0186909D02*
X0301900Y0186909D01*
X0301900Y0187908D02*
X0358501Y0187908D01*
X0358501Y0188906D02*
X0350591Y0188906D01*
X0351711Y0189370D02*
X0354299Y0191958D01*
X0355700Y0195340D01*
X0355700Y0199000D01*
X0354299Y0202381D01*
X0351711Y0204969D01*
X0348330Y0206370D01*
X0344670Y0206370D01*
X0341289Y0204969D01*
X0338701Y0202381D01*
X0337300Y0199000D01*
X0337300Y0195340D01*
X0338701Y0191958D01*
X0341289Y0189370D01*
X0344670Y0187970D01*
X0348330Y0187970D01*
X0351711Y0189370D01*
X0352246Y0189905D02*
X0358501Y0189905D01*
X0358501Y0190903D02*
X0353244Y0190903D01*
X0354243Y0191902D02*
X0358501Y0191902D01*
X0358501Y0192900D02*
X0354690Y0192900D01*
X0355103Y0193899D02*
X0358501Y0193899D01*
X0358501Y0194897D02*
X0355517Y0194897D01*
X0355700Y0195896D02*
X0358501Y0195896D01*
X0358501Y0196894D02*
X0355700Y0196894D01*
X0355700Y0197893D02*
X0358501Y0197893D01*
X0358501Y0198891D02*
X0355700Y0198891D01*
X0355331Y0199890D02*
X0358501Y0199890D01*
X0358501Y0200889D02*
X0354918Y0200889D01*
X0354504Y0201887D02*
X0358501Y0201887D01*
X0358501Y0202886D02*
X0353795Y0202886D01*
X0352797Y0203884D02*
X0358501Y0203884D01*
X0358501Y0204883D02*
X0351798Y0204883D01*
X0349510Y0205881D02*
X0358501Y0205881D01*
X0358501Y0206880D02*
X0075351Y0206880D01*
X0076340Y0205881D02*
X0083084Y0205881D01*
X0081980Y0204883D02*
X0076753Y0204883D01*
X0073821Y0207878D02*
X0358501Y0207878D01*
X0358501Y0208877D02*
X0003200Y0208877D01*
X0003200Y0209875D02*
X0358501Y0209875D01*
X0358501Y0210430D02*
X0358501Y0013870D01*
X0003200Y0013870D01*
X0003200Y0210430D01*
X0358501Y0210430D01*
X0343490Y0205881D02*
X0086916Y0205881D01*
X0088020Y0204883D02*
X0341202Y0204883D01*
X0340203Y0203884D02*
X0182297Y0203884D01*
X0183296Y0202886D02*
X0339205Y0202886D01*
X0338496Y0201887D02*
X0304223Y0201887D01*
X0304559Y0201748D02*
X0302574Y0202570D01*
X0300426Y0202570D01*
X0298441Y0201748D01*
X0296922Y0200229D01*
X0296100Y0198244D01*
X0296100Y0196096D01*
X0296922Y0194111D01*
X0298441Y0192592D01*
X0300426Y0191770D01*
X0302574Y0191770D01*
X0304559Y0192592D01*
X0306078Y0194111D01*
X0306900Y0196096D01*
X0306900Y0198244D01*
X0306078Y0200229D01*
X0304559Y0201748D01*
X0305418Y0200889D02*
X0338082Y0200889D01*
X0337669Y0199890D02*
X0306218Y0199890D01*
X0306632Y0198891D02*
X0337300Y0198891D01*
X0337300Y0197893D02*
X0306900Y0197893D01*
X0306900Y0196894D02*
X0337300Y0196894D01*
X0337300Y0195896D02*
X0306817Y0195896D01*
X0306404Y0194897D02*
X0337483Y0194897D01*
X0337897Y0193899D02*
X0305866Y0193899D01*
X0304867Y0192900D02*
X0338310Y0192900D01*
X0338757Y0191902D02*
X0302893Y0191902D01*
X0301212Y0189905D02*
X0340754Y0189905D01*
X0339756Y0190903D02*
X0300403Y0190903D01*
X0300107Y0191902D02*
X0299187Y0191902D01*
X0298133Y0192900D02*
X0274867Y0192900D01*
X0275866Y0193899D02*
X0297134Y0193899D01*
X0296596Y0194897D02*
X0276404Y0194897D01*
X0276817Y0195896D02*
X0296183Y0195896D01*
X0296100Y0196894D02*
X0276900Y0196894D01*
X0276900Y0197893D02*
X0296100Y0197893D01*
X0296368Y0198891D02*
X0276632Y0198891D01*
X0276218Y0199890D02*
X0296782Y0199890D01*
X0297582Y0200889D02*
X0275418Y0200889D01*
X0274223Y0201887D02*
X0298777Y0201887D01*
X0293813Y0191902D02*
X0273700Y0191902D01*
X0273345Y0190903D02*
X0292597Y0190903D01*
X0291788Y0189905D02*
X0272346Y0189905D01*
X0271626Y0188906D02*
X0291374Y0188906D01*
X0291100Y0187908D02*
X0271900Y0187908D01*
X0271900Y0186909D02*
X0291100Y0186909D01*
X0291177Y0185911D02*
X0271823Y0185911D01*
X0271410Y0184912D02*
X0291590Y0184912D01*
X0292119Y0183914D02*
X0270881Y0183914D01*
X0269882Y0182915D02*
X0293118Y0182915D01*
X0301626Y0188906D02*
X0342409Y0188906D01*
X0339185Y0170933D02*
X0358501Y0170933D01*
X0358501Y0169935D02*
X0341332Y0169935D01*
X0342330Y0168936D02*
X0358501Y0168936D01*
X0358501Y0167938D02*
X0343329Y0167938D01*
X0343814Y0166939D02*
X0358501Y0166939D01*
X0358501Y0165941D02*
X0344228Y0165941D01*
X0344642Y0164942D02*
X0358501Y0164942D01*
X0358501Y0163944D02*
X0344700Y0163944D01*
X0344700Y0162945D02*
X0358501Y0162945D01*
X0358501Y0161947D02*
X0344700Y0161947D01*
X0344455Y0160948D02*
X0358501Y0160948D01*
X0358501Y0159950D02*
X0344042Y0159950D01*
X0343628Y0158951D02*
X0358501Y0158951D01*
X0358501Y0157953D02*
X0342879Y0157953D01*
X0341881Y0156954D02*
X0358501Y0156954D01*
X0358501Y0155955D02*
X0340511Y0155955D01*
X0326500Y0145970D02*
X0314500Y0157970D01*
X0244800Y0157970D01*
X0236500Y0166270D01*
X0236500Y0167170D01*
X0241072Y0168936D02*
X0241928Y0168936D01*
X0241600Y0167938D02*
X0241400Y0167938D01*
X0241400Y0166939D02*
X0241600Y0166939D01*
X0241705Y0165941D02*
X0241295Y0165941D01*
X0240939Y0164942D02*
X0242119Y0164942D01*
X0241938Y0163944D02*
X0242797Y0163944D01*
X0242936Y0162945D02*
X0243895Y0162945D01*
X0249105Y0162945D02*
X0253895Y0162945D01*
X0253724Y0163016D02*
X0255525Y0162270D01*
X0257475Y0162270D01*
X0259276Y0163016D01*
X0260654Y0164394D01*
X0261400Y0166195D01*
X0261400Y0168145D01*
X0260654Y0169945D01*
X0259276Y0171324D01*
X0258400Y0171687D01*
X0258400Y0183581D01*
X0256603Y0185378D01*
X0256900Y0186096D01*
X0256900Y0188244D01*
X0256603Y0188961D01*
X0258400Y0190759D01*
X0258400Y0192112D01*
X0259559Y0192592D01*
X0261078Y0194111D01*
X0261900Y0196096D01*
X0261900Y0198244D01*
X0261078Y0200229D01*
X0259559Y0201748D01*
X0257574Y0202570D01*
X0255426Y0202570D01*
X0253441Y0201748D01*
X0251922Y0200229D01*
X0251100Y0198244D01*
X0251100Y0196096D01*
X0251922Y0194111D01*
X0253441Y0192592D01*
X0253844Y0192425D01*
X0253574Y0192156D01*
X0252574Y0192570D01*
X0250426Y0192570D01*
X0248441Y0191748D01*
X0246922Y0190229D01*
X0246100Y0188244D01*
X0246100Y0186096D01*
X0246922Y0184111D01*
X0248441Y0182592D01*
X0250426Y0181770D01*
X0252574Y0181770D01*
X0253574Y0182184D01*
X0254000Y0181759D01*
X0254000Y0171438D01*
X0253724Y0171324D01*
X0252346Y0169945D01*
X0251600Y0168145D01*
X0251600Y0166195D01*
X0252346Y0164394D01*
X0253724Y0163016D01*
X0252797Y0163944D02*
X0250203Y0163944D01*
X0250881Y0164942D02*
X0252119Y0164942D01*
X0251705Y0165941D02*
X0251295Y0165941D01*
X0251400Y0166939D02*
X0251600Y0166939D01*
X0251600Y0167938D02*
X0251400Y0167938D01*
X0251072Y0168936D02*
X0251928Y0168936D01*
X0252341Y0169935D02*
X0250659Y0169935D01*
X0249666Y0170933D02*
X0253334Y0170933D01*
X0254000Y0171932D02*
X0248500Y0171932D01*
X0248500Y0172930D02*
X0254000Y0172930D01*
X0254000Y0173929D02*
X0248500Y0173929D01*
X0248500Y0174927D02*
X0254000Y0174927D01*
X0254000Y0175926D02*
X0248500Y0175926D01*
X0248500Y0176924D02*
X0254000Y0176924D01*
X0254000Y0177923D02*
X0248500Y0177923D01*
X0247760Y0178921D02*
X0254000Y0178921D01*
X0254000Y0179920D02*
X0246761Y0179920D01*
X0245763Y0180918D02*
X0254000Y0180918D01*
X0253842Y0181917D02*
X0252929Y0181917D01*
X0250071Y0181917D02*
X0244764Y0181917D01*
X0243766Y0182915D02*
X0248118Y0182915D01*
X0247119Y0183914D02*
X0242767Y0183914D01*
X0241769Y0184912D02*
X0246590Y0184912D01*
X0246177Y0185911D02*
X0240770Y0185911D01*
X0239772Y0186909D02*
X0246100Y0186909D01*
X0246100Y0187908D02*
X0238773Y0187908D01*
X0237775Y0188906D02*
X0246374Y0188906D01*
X0246788Y0189905D02*
X0236776Y0189905D01*
X0235778Y0190903D02*
X0247597Y0190903D01*
X0248813Y0191902D02*
X0234779Y0191902D01*
X0233781Y0192900D02*
X0253133Y0192900D01*
X0252134Y0193899D02*
X0232782Y0193899D01*
X0231784Y0194897D02*
X0251596Y0194897D01*
X0251183Y0195896D02*
X0231817Y0195896D01*
X0231900Y0196894D02*
X0251100Y0196894D01*
X0251100Y0197893D02*
X0231900Y0197893D01*
X0231632Y0198891D02*
X0251368Y0198891D01*
X0251782Y0199890D02*
X0231218Y0199890D01*
X0230418Y0200889D02*
X0252582Y0200889D01*
X0253777Y0201887D02*
X0229223Y0201887D01*
X0226500Y0197170D02*
X0226500Y0197070D01*
X0246300Y0177270D01*
X0246300Y0167370D01*
X0246500Y0167170D01*
X0243334Y0170933D02*
X0239666Y0170933D01*
X0240659Y0169935D02*
X0242341Y0169935D01*
X0244100Y0171932D02*
X0237808Y0171932D01*
X0235192Y0171932D02*
X0215200Y0171932D01*
X0215200Y0172930D02*
X0244100Y0172930D01*
X0244100Y0173929D02*
X0215200Y0173929D01*
X0215200Y0174927D02*
X0244100Y0174927D01*
X0244100Y0175926D02*
X0215200Y0175926D01*
X0215200Y0176924D02*
X0243534Y0176924D01*
X0242536Y0177923D02*
X0215200Y0177923D01*
X0215200Y0178921D02*
X0241537Y0178921D01*
X0240539Y0179920D02*
X0215161Y0179920D01*
X0214163Y0180918D02*
X0239540Y0180918D01*
X0238542Y0181917D02*
X0213164Y0181917D01*
X0212166Y0182915D02*
X0218509Y0182915D01*
X0218775Y0182722D02*
X0219504Y0182351D01*
X0220282Y0182098D01*
X0221091Y0181970D01*
X0221114Y0181970D01*
X0221114Y0186784D01*
X0216300Y0186784D01*
X0216300Y0186761D01*
X0216428Y0185952D01*
X0216681Y0185174D01*
X0217053Y0184444D01*
X0217534Y0183782D01*
X0218112Y0183204D01*
X0218775Y0182722D01*
X0217438Y0183914D02*
X0211167Y0183914D01*
X0211410Y0184912D02*
X0216814Y0184912D01*
X0216441Y0185911D02*
X0211823Y0185911D01*
X0211900Y0186909D02*
X0221114Y0186909D01*
X0221114Y0186784D02*
X0221114Y0187556D01*
X0221114Y0192370D01*
X0221091Y0192370D01*
X0220282Y0192242D01*
X0219504Y0191989D01*
X0218775Y0191617D01*
X0218112Y0191136D01*
X0217534Y0190557D01*
X0217053Y0189895D01*
X0216681Y0189166D01*
X0216428Y0188388D01*
X0216300Y0187579D01*
X0216300Y0187556D01*
X0221114Y0187556D01*
X0221886Y0187556D01*
X0221886Y0192370D01*
X0221909Y0192370D01*
X0222718Y0192242D01*
X0223496Y0191989D01*
X0224225Y0191617D01*
X0224888Y0191136D01*
X0225466Y0190557D01*
X0225947Y0189895D01*
X0226319Y0189166D01*
X0226572Y0188388D01*
X0226700Y0187579D01*
X0226700Y0187556D01*
X0221886Y0187556D01*
X0221886Y0186784D01*
X0226700Y0186784D01*
X0226700Y0186761D01*
X0226572Y0185952D01*
X0226319Y0185174D01*
X0225947Y0184444D01*
X0225466Y0183782D01*
X0224888Y0183204D01*
X0224225Y0182722D01*
X0223496Y0182351D01*
X0222718Y0182098D01*
X0221909Y0181970D01*
X0221886Y0181970D01*
X0221886Y0186784D01*
X0221114Y0186784D01*
X0221886Y0186909D02*
X0233549Y0186909D01*
X0234548Y0185911D02*
X0226559Y0185911D01*
X0226186Y0184912D02*
X0235546Y0184912D01*
X0236545Y0183914D02*
X0225562Y0183914D01*
X0224491Y0182915D02*
X0237543Y0182915D01*
X0232551Y0187908D02*
X0226648Y0187908D01*
X0226403Y0188906D02*
X0231552Y0188906D01*
X0230554Y0189905D02*
X0225940Y0189905D01*
X0225120Y0190903D02*
X0229555Y0190903D01*
X0228557Y0191902D02*
X0227893Y0191902D01*
X0225107Y0191902D02*
X0223667Y0191902D01*
X0223133Y0192900D02*
X0206612Y0192900D01*
X0206900Y0193899D02*
X0222134Y0193899D01*
X0221596Y0194897D02*
X0206900Y0194897D01*
X0206837Y0195896D02*
X0221183Y0195896D01*
X0221100Y0196894D02*
X0207476Y0196894D01*
X0208641Y0197893D02*
X0221100Y0197893D01*
X0223400Y0200270D02*
X0208033Y0200270D01*
X0201500Y0194670D01*
X0196577Y0196894D02*
X0189287Y0196894D01*
X0190285Y0195896D02*
X0196163Y0195896D01*
X0196100Y0194897D02*
X0191284Y0194897D01*
X0192282Y0193899D02*
X0196100Y0193899D01*
X0196388Y0192900D02*
X0193281Y0192900D01*
X0189055Y0190903D02*
X0180403Y0190903D01*
X0181212Y0189905D02*
X0190054Y0189905D01*
X0191052Y0188906D02*
X0181626Y0188906D01*
X0181900Y0187908D02*
X0191100Y0187908D01*
X0191100Y0186909D02*
X0181900Y0186909D01*
X0181823Y0185911D02*
X0191177Y0185911D01*
X0191590Y0184912D02*
X0181410Y0184912D01*
X0180881Y0183914D02*
X0192119Y0183914D01*
X0193118Y0182915D02*
X0179882Y0182915D01*
X0178300Y0181917D02*
X0195071Y0181917D01*
X0197929Y0181917D02*
X0205071Y0181917D01*
X0203118Y0182915D02*
X0199882Y0182915D01*
X0200881Y0183914D02*
X0202119Y0183914D01*
X0201590Y0184912D02*
X0201410Y0184912D01*
X0206700Y0185270D02*
X0206700Y0187170D01*
X0206500Y0187170D01*
X0206700Y0185270D02*
X0213000Y0178970D01*
X0213000Y0118770D01*
X0203100Y0108870D01*
X0202563Y0108469D01*
X0210361Y0113020D02*
X0221370Y0113020D01*
X0221633Y0114018D02*
X0211359Y0114018D01*
X0214355Y0117014D02*
X0219838Y0117014D01*
X0218021Y0118012D02*
X0215200Y0118012D01*
X0215200Y0119011D02*
X0217023Y0119011D01*
X0216550Y0120009D02*
X0215200Y0120009D01*
X0215200Y0121008D02*
X0216137Y0121008D01*
X0216100Y0122006D02*
X0215200Y0122006D01*
X0215200Y0123005D02*
X0216100Y0123005D01*
X0216414Y0124003D02*
X0215200Y0124003D01*
X0215200Y0125002D02*
X0216828Y0125002D01*
X0217694Y0126000D02*
X0215200Y0126000D01*
X0215200Y0126999D02*
X0219047Y0126999D01*
X0215200Y0127997D02*
X0224516Y0127997D01*
X0225515Y0128996D02*
X0215200Y0128996D01*
X0215200Y0129994D02*
X0226513Y0129994D01*
X0227512Y0130993D02*
X0215200Y0130993D01*
X0215200Y0131991D02*
X0228510Y0131991D01*
X0229509Y0132990D02*
X0215200Y0132990D01*
X0215200Y0133988D02*
X0230507Y0133988D01*
X0231506Y0134987D02*
X0215200Y0134987D01*
X0215200Y0135985D02*
X0231687Y0135985D01*
X0231600Y0136984D02*
X0215200Y0136984D01*
X0215200Y0137982D02*
X0231600Y0137982D01*
X0231946Y0138981D02*
X0215200Y0138981D01*
X0215200Y0139979D02*
X0232380Y0139979D01*
X0233378Y0140978D02*
X0215200Y0140978D01*
X0215200Y0141976D02*
X0235300Y0141976D01*
X0236500Y0137170D02*
X0236400Y0136770D01*
X0222000Y0122370D01*
X0221500Y0122170D01*
X0210800Y0132990D02*
X0139579Y0132990D01*
X0141332Y0133988D02*
X0210800Y0133988D01*
X0210800Y0134987D02*
X0142331Y0134987D01*
X0142849Y0135985D02*
X0210800Y0135985D01*
X0210800Y0136984D02*
X0143262Y0136984D01*
X0143397Y0137982D02*
X0210800Y0137982D01*
X0210800Y0138981D02*
X0143397Y0138981D01*
X0143252Y0139979D02*
X0210800Y0139979D01*
X0210800Y0140978D02*
X0205370Y0140978D01*
X0205516Y0141052D02*
X0204726Y0140650D01*
X0203882Y0140376D01*
X0203063Y0140246D01*
X0203063Y0145371D01*
X0203063Y0146371D01*
X0202063Y0146371D01*
X0202063Y0151496D01*
X0201244Y0151366D01*
X0200400Y0151092D01*
X0199610Y0150689D01*
X0198893Y0150168D01*
X0198266Y0149541D01*
X0197744Y0148823D01*
X0197342Y0148033D01*
X0197068Y0147190D01*
X0196938Y0146371D01*
X0202063Y0146371D01*
X0202063Y0145371D01*
X0196938Y0145371D01*
X0197068Y0144551D01*
X0197342Y0143708D01*
X0197744Y0142918D01*
X0198266Y0142200D01*
X0198893Y0141573D01*
X0199610Y0141052D01*
X0200400Y0140650D01*
X0201244Y0140376D01*
X0202063Y0140246D01*
X0202063Y0145371D01*
X0203063Y0145371D01*
X0208188Y0145371D01*
X0208058Y0144551D01*
X0207784Y0143708D01*
X0207381Y0142918D01*
X0206860Y0142200D01*
X0206233Y0141573D01*
X0205516Y0141052D01*
X0206636Y0141976D02*
X0210800Y0141976D01*
X0210800Y0142975D02*
X0207411Y0142975D01*
X0207870Y0143973D02*
X0210800Y0143973D01*
X0210800Y0144972D02*
X0208125Y0144972D01*
X0208188Y0146371D02*
X0208058Y0147190D01*
X0207784Y0148033D01*
X0207381Y0148823D01*
X0206860Y0149541D01*
X0206233Y0150168D01*
X0205516Y0150689D01*
X0204726Y0151092D01*
X0203882Y0151366D01*
X0203063Y0151496D01*
X0203063Y0146371D01*
X0208188Y0146371D01*
X0208093Y0146969D02*
X0210800Y0146969D01*
X0210800Y0147967D02*
X0207805Y0147967D01*
X0207278Y0148966D02*
X0210800Y0148966D01*
X0210800Y0149964D02*
X0206437Y0149964D01*
X0204978Y0150963D02*
X0210800Y0150963D01*
X0210800Y0151961D02*
X0149803Y0151961D01*
X0148804Y0150963D02*
X0157486Y0150963D01*
X0157132Y0150816D02*
X0155491Y0149175D01*
X0154603Y0147031D01*
X0154603Y0144710D01*
X0155491Y0142566D01*
X0157132Y0140925D01*
X0159277Y0140037D01*
X0161597Y0140037D01*
X0163742Y0140925D01*
X0165383Y0142566D01*
X0166271Y0144710D01*
X0166271Y0147031D01*
X0165383Y0149175D01*
X0163742Y0150816D01*
X0161597Y0151705D01*
X0159277Y0151705D01*
X0157132Y0150816D01*
X0156280Y0149964D02*
X0147806Y0149964D01*
X0146807Y0148966D02*
X0155405Y0148966D01*
X0154991Y0147967D02*
X0145809Y0147967D01*
X0144810Y0146969D02*
X0154603Y0146969D01*
X0154603Y0145970D02*
X0143812Y0145970D01*
X0142813Y0144972D02*
X0154603Y0144972D01*
X0154908Y0143973D02*
X0141815Y0143973D01*
X0141308Y0142975D02*
X0155322Y0142975D01*
X0156081Y0141976D02*
X0142306Y0141976D01*
X0142838Y0140978D02*
X0157080Y0140978D01*
X0163795Y0140978D02*
X0199756Y0140978D01*
X0198490Y0141976D02*
X0164793Y0141976D01*
X0165552Y0142975D02*
X0197715Y0142975D01*
X0197256Y0143973D02*
X0165966Y0143973D01*
X0166271Y0144972D02*
X0197001Y0144972D01*
X0197033Y0146969D02*
X0166271Y0146969D01*
X0166271Y0145970D02*
X0202063Y0145970D01*
X0202063Y0144972D02*
X0203063Y0144972D01*
X0203063Y0145970D02*
X0210800Y0145970D01*
X0215200Y0145970D02*
X0292949Y0145970D01*
X0292535Y0146969D02*
X0215200Y0146969D01*
X0215200Y0147967D02*
X0292300Y0147967D01*
X0292300Y0148966D02*
X0215200Y0148966D01*
X0215200Y0149964D02*
X0292367Y0149964D01*
X0292780Y0150963D02*
X0215200Y0150963D01*
X0215200Y0151961D02*
X0293231Y0151961D01*
X0294229Y0152960D02*
X0215200Y0152960D01*
X0215200Y0153958D02*
X0295873Y0153958D01*
X0300127Y0153958D02*
X0315400Y0153958D01*
X0316399Y0152960D02*
X0301771Y0152960D01*
X0302769Y0151961D02*
X0317397Y0151961D01*
X0318396Y0150963D02*
X0303220Y0150963D01*
X0303633Y0149964D02*
X0319394Y0149964D01*
X0320393Y0148966D02*
X0303700Y0148966D01*
X0303700Y0147967D02*
X0321391Y0147967D01*
X0322390Y0146969D02*
X0303465Y0146969D01*
X0303051Y0145970D02*
X0323388Y0145970D01*
X0324300Y0144972D02*
X0302363Y0144972D01*
X0301365Y0143973D02*
X0324300Y0143973D01*
X0324300Y0142975D02*
X0299471Y0142975D01*
X0301430Y0141976D02*
X0324300Y0141976D01*
X0324300Y0140978D02*
X0302395Y0140978D01*
X0302996Y0139979D02*
X0324300Y0139979D01*
X0324300Y0138981D02*
X0303357Y0138981D01*
X0296529Y0142975D02*
X0215200Y0142975D01*
X0215200Y0143973D02*
X0294635Y0143973D01*
X0293637Y0144972D02*
X0215200Y0144972D01*
X0210800Y0152960D02*
X0150801Y0152960D01*
X0151800Y0153958D02*
X0210800Y0153958D01*
X0210800Y0154957D02*
X0152798Y0154957D01*
X0153797Y0155955D02*
X0210800Y0155955D01*
X0210800Y0156954D02*
X0154795Y0156954D01*
X0155794Y0157953D02*
X0210800Y0157953D01*
X0210800Y0158951D02*
X0156792Y0158951D01*
X0157791Y0159950D02*
X0210800Y0159950D01*
X0210800Y0160948D02*
X0158789Y0160948D01*
X0159788Y0161947D02*
X0210800Y0161947D01*
X0210800Y0162945D02*
X0160786Y0162945D01*
X0161785Y0163944D02*
X0210800Y0163944D01*
X0210800Y0164942D02*
X0162783Y0164942D01*
X0163782Y0165941D02*
X0210800Y0165941D01*
X0210800Y0166939D02*
X0164781Y0166939D01*
X0165779Y0167938D02*
X0210800Y0167938D01*
X0210800Y0168936D02*
X0166778Y0168936D01*
X0167776Y0169935D02*
X0210800Y0169935D01*
X0210800Y0170933D02*
X0168775Y0170933D01*
X0169773Y0171932D02*
X0210800Y0171932D01*
X0210800Y0172930D02*
X0170772Y0172930D01*
X0171770Y0173929D02*
X0210800Y0173929D01*
X0210800Y0174927D02*
X0172769Y0174927D01*
X0173767Y0175926D02*
X0210800Y0175926D01*
X0210800Y0176924D02*
X0174766Y0176924D01*
X0175764Y0177923D02*
X0210800Y0177923D01*
X0209937Y0178921D02*
X0176763Y0178921D01*
X0177761Y0179920D02*
X0208939Y0179920D01*
X0207940Y0180918D02*
X0178300Y0180918D01*
X0176100Y0181370D02*
X0137563Y0142833D01*
X0137563Y0138469D01*
X0132277Y0135985D02*
X0100494Y0135985D01*
X0100658Y0136306D02*
X0100932Y0137150D01*
X0101062Y0137969D01*
X0095937Y0137969D01*
X0095937Y0132844D01*
X0096756Y0132974D01*
X0097600Y0133248D01*
X0098390Y0133651D01*
X0099107Y0134172D01*
X0099734Y0134799D01*
X0100255Y0135516D01*
X0100658Y0136306D01*
X0100878Y0136984D02*
X0131864Y0136984D01*
X0131729Y0137982D02*
X0095937Y0137982D01*
X0095937Y0137969D02*
X0095937Y0138969D01*
X0101062Y0138969D01*
X0100932Y0139788D01*
X0100658Y0140632D01*
X0100255Y0141422D01*
X0099734Y0142139D01*
X0099107Y0142766D01*
X0098390Y0143288D01*
X0097600Y0143690D01*
X0096756Y0143964D01*
X0095937Y0144094D01*
X0095937Y0138969D01*
X0094937Y0138969D01*
X0094937Y0137969D01*
X0095937Y0137969D01*
X0095937Y0136984D02*
X0094937Y0136984D01*
X0094937Y0137969D02*
X0094937Y0132844D01*
X0094118Y0132974D01*
X0093274Y0133248D01*
X0092484Y0133651D01*
X0091767Y0134172D01*
X0091140Y0134799D01*
X0090619Y0135516D01*
X0090216Y0136306D01*
X0089942Y0137150D01*
X0089812Y0137969D01*
X0094937Y0137969D01*
X0094937Y0137982D02*
X0087000Y0137982D01*
X0087000Y0136984D02*
X0089996Y0136984D01*
X0090380Y0135985D02*
X0087000Y0135985D01*
X0087000Y0134987D02*
X0091003Y0134987D01*
X0092019Y0133988D02*
X0087000Y0133988D01*
X0087000Y0132990D02*
X0094069Y0132990D01*
X0094937Y0132990D02*
X0095937Y0132990D01*
X0096805Y0132990D02*
X0135547Y0132990D01*
X0133793Y0133988D02*
X0098855Y0133988D01*
X0099871Y0134987D02*
X0132795Y0134987D01*
X0131729Y0138981D02*
X0101060Y0138981D01*
X0100870Y0139979D02*
X0131874Y0139979D01*
X0132288Y0140978D02*
X0100482Y0140978D01*
X0099853Y0141976D02*
X0132820Y0141976D01*
X0133818Y0142975D02*
X0098820Y0142975D01*
X0096698Y0143973D02*
X0135592Y0143973D01*
X0136591Y0144972D02*
X0088035Y0144972D01*
X0088508Y0145970D02*
X0137589Y0145970D01*
X0138588Y0146969D02*
X0088700Y0146969D01*
X0088674Y0147967D02*
X0139586Y0147967D01*
X0140585Y0148966D02*
X0088261Y0148966D01*
X0087438Y0149964D02*
X0141583Y0149964D01*
X0142582Y0150963D02*
X0066018Y0150963D01*
X0065020Y0151961D02*
X0143580Y0151961D01*
X0144579Y0152960D02*
X0064021Y0152960D01*
X0063023Y0153958D02*
X0145577Y0153958D01*
X0146576Y0154957D02*
X0062024Y0154957D01*
X0061026Y0155955D02*
X0147574Y0155955D01*
X0148573Y0156954D02*
X0074359Y0156954D01*
X0074383Y0156966D02*
X0075083Y0157475D01*
X0075695Y0158087D01*
X0076204Y0158787D01*
X0076597Y0159559D01*
X0076865Y0160382D01*
X0076989Y0161170D01*
X0072000Y0161170D01*
X0072000Y0156180D01*
X0072788Y0156305D01*
X0073611Y0156573D01*
X0074383Y0156966D01*
X0075561Y0157953D02*
X0149571Y0157953D01*
X0150570Y0158951D02*
X0076287Y0158951D01*
X0076724Y0159950D02*
X0151568Y0159950D01*
X0152567Y0160948D02*
X0076954Y0160948D01*
X0076867Y0162945D02*
X0154564Y0162945D01*
X0153565Y0161947D02*
X0072000Y0161947D01*
X0072000Y0160948D02*
X0071000Y0160948D01*
X0071000Y0159950D02*
X0072000Y0159950D01*
X0072000Y0158951D02*
X0071000Y0158951D01*
X0071000Y0157953D02*
X0072000Y0157953D01*
X0072000Y0156954D02*
X0071000Y0156954D01*
X0068641Y0156954D02*
X0060027Y0156954D01*
X0059029Y0157953D02*
X0067439Y0157953D01*
X0066713Y0158951D02*
X0058030Y0158951D01*
X0057032Y0159950D02*
X0066276Y0159950D01*
X0066046Y0160948D02*
X0056033Y0160948D01*
X0055035Y0161947D02*
X0071000Y0161947D01*
X0066486Y0163944D02*
X0053038Y0163944D01*
X0054036Y0162945D02*
X0066133Y0162945D01*
X0067079Y0164942D02*
X0016197Y0164942D01*
X0015366Y0165941D02*
X0068021Y0165941D01*
X0068171Y0167938D02*
X0014522Y0167938D01*
X0014097Y0166939D02*
X0069919Y0166939D01*
X0073081Y0166939D02*
X0158558Y0166939D01*
X0157559Y0165941D02*
X0074979Y0165941D01*
X0075921Y0164942D02*
X0156561Y0164942D01*
X0155562Y0163944D02*
X0076514Y0163944D01*
X0074829Y0167938D02*
X0159557Y0167938D01*
X0160555Y0168936D02*
X0075827Y0168936D01*
X0076537Y0169935D02*
X0161554Y0169935D01*
X0162552Y0170933D02*
X0140282Y0170933D01*
X0140516Y0171052D02*
X0139726Y0170650D01*
X0138882Y0170376D01*
X0138063Y0170246D01*
X0138063Y0175371D01*
X0138063Y0176371D01*
X0137063Y0176371D01*
X0137063Y0181496D01*
X0136244Y0181366D01*
X0135400Y0181092D01*
X0134610Y0180689D01*
X0133893Y0180168D01*
X0133266Y0179541D01*
X0132744Y0178823D01*
X0132342Y0178033D01*
X0132068Y0177190D01*
X0131938Y0176371D01*
X0137063Y0176371D01*
X0137063Y0175371D01*
X0131938Y0175371D01*
X0132068Y0174551D01*
X0132342Y0173708D01*
X0132744Y0172918D01*
X0133266Y0172200D01*
X0133893Y0171573D01*
X0134610Y0171052D01*
X0135400Y0170650D01*
X0136244Y0170376D01*
X0137063Y0170246D01*
X0137063Y0175371D01*
X0138063Y0175371D01*
X0143188Y0175371D01*
X0143058Y0174551D01*
X0142784Y0173708D01*
X0142381Y0172918D01*
X0141860Y0172200D01*
X0141233Y0171573D01*
X0140516Y0171052D01*
X0141591Y0171932D02*
X0163551Y0171932D01*
X0164549Y0172930D02*
X0142388Y0172930D01*
X0142856Y0173929D02*
X0165548Y0173929D01*
X0166546Y0174927D02*
X0143118Y0174927D01*
X0143188Y0176371D02*
X0138063Y0176371D01*
X0138063Y0181496D01*
X0138882Y0181366D01*
X0139726Y0181092D01*
X0140516Y0180689D01*
X0141233Y0180168D01*
X0141860Y0179541D01*
X0142381Y0178823D01*
X0142784Y0178033D01*
X0143058Y0177190D01*
X0143188Y0176371D01*
X0143100Y0176924D02*
X0168543Y0176924D01*
X0167545Y0175926D02*
X0138063Y0175926D01*
X0138063Y0176924D02*
X0137063Y0176924D01*
X0137063Y0175926D02*
X0101271Y0175926D01*
X0101271Y0176924D02*
X0132026Y0176924D01*
X0132306Y0177923D02*
X0100902Y0177923D01*
X0100488Y0178921D02*
X0132816Y0178921D01*
X0133645Y0179920D02*
X0099638Y0179920D01*
X0098496Y0180918D02*
X0135060Y0180918D01*
X0137063Y0180918D02*
X0138063Y0180918D01*
X0138063Y0179920D02*
X0137063Y0179920D01*
X0137063Y0178921D02*
X0138063Y0178921D01*
X0138063Y0177923D02*
X0137063Y0177923D01*
X0140066Y0180918D02*
X0172537Y0180918D01*
X0171539Y0179920D02*
X0141481Y0179920D01*
X0142310Y0178921D02*
X0170540Y0178921D01*
X0169542Y0177923D02*
X0142820Y0177923D01*
X0138063Y0174927D02*
X0137063Y0174927D01*
X0137063Y0173929D02*
X0138063Y0173929D01*
X0138063Y0172930D02*
X0137063Y0172930D01*
X0137063Y0171932D02*
X0138063Y0171932D01*
X0138063Y0170933D02*
X0137063Y0170933D01*
X0134844Y0170933D02*
X0098750Y0170933D01*
X0099748Y0171932D02*
X0133534Y0171932D01*
X0132738Y0172930D02*
X0100534Y0172930D01*
X0100947Y0173929D02*
X0132270Y0173929D01*
X0132008Y0174927D02*
X0101271Y0174927D01*
X0095437Y0175871D02*
X0095100Y0175470D01*
X0074400Y0175470D01*
X0071700Y0172770D01*
X0071500Y0172670D01*
X0070800Y0172770D01*
X0061800Y0181770D01*
X0012300Y0181770D01*
X0011500Y0182170D01*
X0016209Y0184912D02*
X0161590Y0184912D01*
X0161177Y0185911D02*
X0015396Y0185911D01*
X0014169Y0186909D02*
X0068728Y0186909D01*
X0067484Y0187908D02*
X0014481Y0187908D01*
X0015556Y0188906D02*
X0066735Y0188906D01*
X0066290Y0189905D02*
X0016182Y0189905D01*
X0016556Y0190903D02*
X0066053Y0190903D01*
X0066126Y0192900D02*
X0016649Y0192900D01*
X0016406Y0193899D02*
X0066463Y0193899D01*
X0067047Y0194897D02*
X0015946Y0194897D01*
X0015128Y0195896D02*
X0067960Y0195896D01*
X0068216Y0197893D02*
X0014860Y0197893D01*
X0015858Y0198891D02*
X0067217Y0198891D01*
X0066482Y0199890D02*
X0016401Y0199890D01*
X0013681Y0196894D02*
X0069781Y0196894D01*
X0073219Y0196894D02*
X0152764Y0196894D01*
X0153763Y0195896D02*
X0075040Y0195896D01*
X0075953Y0194897D02*
X0154761Y0194897D01*
X0155760Y0193899D02*
X0076537Y0193899D01*
X0076874Y0192900D02*
X0156758Y0192900D01*
X0157757Y0191902D02*
X0072000Y0191902D01*
X0072000Y0191170D02*
X0076989Y0191170D01*
X0076865Y0190382D01*
X0076597Y0189559D01*
X0076204Y0188787D01*
X0075695Y0188087D01*
X0075083Y0187475D01*
X0074383Y0186966D01*
X0073611Y0186573D01*
X0072788Y0186305D01*
X0072000Y0186180D01*
X0072000Y0191170D01*
X0072000Y0190903D02*
X0071000Y0190903D01*
X0071000Y0189905D02*
X0072000Y0189905D01*
X0072000Y0188906D02*
X0071000Y0188906D01*
X0071000Y0187908D02*
X0072000Y0187908D01*
X0072000Y0186909D02*
X0071000Y0186909D01*
X0074272Y0186909D02*
X0161100Y0186909D01*
X0161100Y0187908D02*
X0075516Y0187908D01*
X0076265Y0188906D02*
X0160752Y0188906D01*
X0159754Y0189905D02*
X0076710Y0189905D01*
X0076947Y0190903D02*
X0158755Y0190903D01*
X0161982Y0193899D02*
X0166100Y0193899D01*
X0166100Y0194897D02*
X0160984Y0194897D01*
X0159985Y0195896D02*
X0166163Y0195896D01*
X0166577Y0196894D02*
X0158987Y0196894D01*
X0157988Y0197893D02*
X0167086Y0197893D01*
X0168085Y0198891D02*
X0156990Y0198891D01*
X0155991Y0199890D02*
X0169992Y0199890D01*
X0173008Y0199890D02*
X0180069Y0199890D01*
X0181067Y0198891D02*
X0174915Y0198891D01*
X0175914Y0197893D02*
X0182066Y0197893D01*
X0183064Y0196894D02*
X0176423Y0196894D01*
X0176837Y0195896D02*
X0184063Y0195896D01*
X0185061Y0194897D02*
X0176900Y0194897D01*
X0176900Y0193899D02*
X0186060Y0193899D01*
X0187058Y0192900D02*
X0176612Y0192900D01*
X0179187Y0191902D02*
X0188057Y0191902D01*
X0195900Y0187170D02*
X0196500Y0187170D01*
X0195900Y0187170D02*
X0180400Y0202670D01*
X0150500Y0202670D01*
X0085000Y0202670D01*
X0071500Y0202670D01*
X0070800Y0202470D01*
X0012300Y0202470D01*
X0011500Y0202170D01*
X0016221Y0204883D02*
X0066247Y0204883D01*
X0066660Y0205881D02*
X0015426Y0205881D01*
X0014241Y0206880D02*
X0067649Y0206880D01*
X0069179Y0207878D02*
X0003200Y0207878D01*
X0003200Y0206880D02*
X0008759Y0206880D01*
X0007574Y0205881D02*
X0003200Y0205881D01*
X0003200Y0204883D02*
X0006779Y0204883D01*
X0006365Y0203884D02*
X0003200Y0203884D01*
X0003200Y0202886D02*
X0006100Y0202886D01*
X0006100Y0201887D02*
X0003200Y0201887D01*
X0003200Y0200889D02*
X0006186Y0200889D01*
X0006599Y0199890D02*
X0003200Y0199890D01*
X0003200Y0198891D02*
X0007142Y0198891D01*
X0008140Y0197893D02*
X0003200Y0197893D01*
X0003200Y0196894D02*
X0009319Y0196894D01*
X0007872Y0195896D02*
X0003200Y0195896D01*
X0003200Y0194897D02*
X0007054Y0194897D01*
X0006594Y0193899D02*
X0003200Y0193899D01*
X0003200Y0192900D02*
X0006351Y0192900D01*
X0006444Y0190903D02*
X0003200Y0190903D01*
X0003200Y0189905D02*
X0006818Y0189905D01*
X0007444Y0188906D02*
X0003200Y0188906D01*
X0003200Y0187908D02*
X0008519Y0187908D01*
X0008831Y0186909D02*
X0003200Y0186909D01*
X0003200Y0185911D02*
X0007604Y0185911D01*
X0006791Y0184912D02*
X0003200Y0184912D01*
X0003200Y0183914D02*
X0006377Y0183914D01*
X0006100Y0182915D02*
X0003200Y0182915D01*
X0003200Y0181917D02*
X0006100Y0181917D01*
X0006173Y0180918D02*
X0003200Y0180918D01*
X0003200Y0179920D02*
X0006587Y0179920D01*
X0007112Y0178921D02*
X0003200Y0178921D01*
X0003200Y0177923D02*
X0008110Y0177923D01*
X0009377Y0176924D02*
X0003200Y0176924D01*
X0003200Y0175926D02*
X0007902Y0175926D01*
X0007076Y0174927D02*
X0003200Y0174927D01*
X0003200Y0173929D02*
X0006604Y0173929D01*
X0006356Y0172930D02*
X0003200Y0172930D01*
X0003200Y0171932D02*
X0011000Y0171932D01*
X0012000Y0171932D02*
X0065800Y0171932D01*
X0065800Y0172930D02*
X0016644Y0172930D01*
X0016396Y0173929D02*
X0065852Y0173929D01*
X0065531Y0174927D02*
X0015924Y0174927D01*
X0015098Y0175926D02*
X0064533Y0175926D01*
X0063534Y0176924D02*
X0013623Y0176924D01*
X0014890Y0177923D02*
X0062536Y0177923D01*
X0061537Y0178921D02*
X0015888Y0178921D01*
X0016566Y0170933D02*
X0066050Y0170933D01*
X0066463Y0169935D02*
X0016197Y0169935D01*
X0015578Y0168936D02*
X0067173Y0168936D01*
X0076950Y0170933D02*
X0092124Y0170933D01*
X0091126Y0171932D02*
X0077200Y0171932D01*
X0077200Y0172930D02*
X0090340Y0172930D01*
X0089973Y0177923D02*
X0073713Y0177923D01*
X0069287Y0177923D02*
X0068758Y0177923D01*
X0067760Y0178921D02*
X0090386Y0178921D01*
X0091236Y0179920D02*
X0066761Y0179920D01*
X0065763Y0180918D02*
X0092378Y0180918D01*
X0071000Y0191902D02*
X0012000Y0191902D01*
X0011000Y0191902D02*
X0003200Y0191902D01*
X0003200Y0170933D02*
X0006434Y0170933D01*
X0006803Y0169935D02*
X0003200Y0169935D01*
X0003200Y0168936D02*
X0007422Y0168936D01*
X0008478Y0167938D02*
X0003200Y0167938D01*
X0003200Y0166939D02*
X0008903Y0166939D01*
X0007634Y0165941D02*
X0003200Y0165941D01*
X0003200Y0164942D02*
X0006803Y0164942D01*
X0006390Y0163944D02*
X0003200Y0163944D01*
X0003200Y0162945D02*
X0006100Y0162945D01*
X0006100Y0161947D02*
X0003200Y0161947D01*
X0003200Y0160948D02*
X0006161Y0160948D01*
X0006575Y0159950D02*
X0003200Y0159950D01*
X0003200Y0158951D02*
X0007082Y0158951D01*
X0008081Y0157953D02*
X0003200Y0157953D01*
X0003200Y0156954D02*
X0009435Y0156954D01*
X0007932Y0155955D02*
X0003200Y0155955D01*
X0003200Y0154957D02*
X0007097Y0154957D01*
X0006614Y0153958D02*
X0003200Y0153958D01*
X0003200Y0152960D02*
X0006360Y0152960D01*
X0013565Y0156954D02*
X0053805Y0156954D01*
X0054803Y0155955D02*
X0015068Y0155955D01*
X0015903Y0154957D02*
X0055802Y0154957D01*
X0056800Y0153958D02*
X0016386Y0153958D01*
X0014919Y0157953D02*
X0052806Y0157953D01*
X0051808Y0158951D02*
X0015918Y0158951D01*
X0012300Y0161970D02*
X0011500Y0162170D01*
X0012300Y0161970D02*
X0051900Y0161970D01*
X0070800Y0143070D01*
X0071500Y0142670D01*
X0075872Y0138981D02*
X0082600Y0138981D01*
X0082600Y0139979D02*
X0076555Y0139979D01*
X0076969Y0140978D02*
X0082600Y0140978D01*
X0082600Y0141976D02*
X0077200Y0141976D01*
X0077200Y0142975D02*
X0082600Y0142975D01*
X0082600Y0143973D02*
X0077130Y0143973D01*
X0076716Y0144972D02*
X0081965Y0144972D01*
X0081492Y0145970D02*
X0076260Y0145970D01*
X0075262Y0146969D02*
X0081300Y0146969D01*
X0081326Y0147967D02*
X0073605Y0147967D01*
X0069395Y0147967D02*
X0069014Y0147967D01*
X0068015Y0148966D02*
X0081739Y0148966D01*
X0082562Y0149964D02*
X0067017Y0149964D01*
X0084800Y0146970D02*
X0084800Y0119870D01*
X0101500Y0103170D01*
X0101500Y0102170D01*
X0096968Y0104033D02*
X0068700Y0104033D01*
X0068700Y0105031D02*
X0096527Y0105031D01*
X0096600Y0103034D02*
X0068700Y0103034D01*
X0068700Y0102036D02*
X0096600Y0102036D01*
X0096665Y0101037D02*
X0068700Y0101037D01*
X0068700Y0100039D02*
X0097079Y0100039D01*
X0097700Y0099040D02*
X0068700Y0099040D01*
X0068739Y0098042D02*
X0098698Y0098042D01*
X0114302Y0098042D02*
X0118698Y0098042D01*
X0117700Y0099040D02*
X0115300Y0099040D01*
X0115921Y0100039D02*
X0117079Y0100039D01*
X0117432Y0105031D02*
X0115568Y0105031D01*
X0114570Y0106030D02*
X0118430Y0106030D01*
X0124570Y0106030D02*
X0128430Y0106030D01*
X0127432Y0105031D02*
X0125568Y0105031D01*
X0093532Y0108027D02*
X0084645Y0108027D01*
X0085643Y0109025D02*
X0092533Y0109025D01*
X0091535Y0110024D02*
X0086243Y0110024D01*
X0086583Y0111022D02*
X0090536Y0111022D01*
X0069738Y0097043D02*
X0295800Y0097043D01*
X0295800Y0096045D02*
X0070736Y0096045D01*
X0071735Y0095046D02*
X0295765Y0095046D01*
X0294767Y0094048D02*
X0072733Y0094048D01*
X0073732Y0093049D02*
X0293768Y0093049D01*
X0292770Y0092051D02*
X0074730Y0092051D01*
X0075729Y0091052D02*
X0208094Y0091052D01*
X0207096Y0090054D02*
X0076727Y0090054D01*
X0077726Y0089055D02*
X0206585Y0089055D01*
X0206200Y0088057D02*
X0078724Y0088057D01*
X0083809Y0087058D02*
X0206200Y0087058D01*
X0206264Y0086060D02*
X0085247Y0086060D01*
X0086147Y0085061D02*
X0206678Y0085061D01*
X0213631Y0083064D02*
X0218369Y0083064D01*
X0218281Y0083101D02*
X0220045Y0082370D01*
X0221955Y0082370D01*
X0223719Y0083101D01*
X0225069Y0084451D01*
X0225800Y0086215D01*
X0225800Y0088125D01*
X0225069Y0089889D01*
X0223719Y0091239D01*
X0221955Y0091970D01*
X0220045Y0091970D01*
X0218281Y0091239D01*
X0216931Y0089889D01*
X0216200Y0088125D01*
X0216200Y0086215D01*
X0216931Y0084451D01*
X0218281Y0083101D01*
X0217319Y0084063D02*
X0214681Y0084063D01*
X0215322Y0085061D02*
X0216678Y0085061D01*
X0216264Y0086060D02*
X0215736Y0086060D01*
X0215800Y0087058D02*
X0216200Y0087058D01*
X0216200Y0088057D02*
X0215800Y0088057D01*
X0215415Y0089055D02*
X0216585Y0089055D01*
X0217096Y0090054D02*
X0214904Y0090054D01*
X0213906Y0091052D02*
X0218094Y0091052D01*
X0223906Y0091052D02*
X0228094Y0091052D01*
X0228281Y0091239D02*
X0226931Y0089889D01*
X0226200Y0088125D01*
X0226200Y0086215D01*
X0226931Y0084451D01*
X0228281Y0083101D01*
X0230045Y0082370D01*
X0231955Y0082370D01*
X0233719Y0083101D01*
X0235069Y0084451D01*
X0235800Y0086215D01*
X0235800Y0088125D01*
X0235069Y0089889D01*
X0233719Y0091239D01*
X0231955Y0091970D01*
X0230045Y0091970D01*
X0228281Y0091239D01*
X0227096Y0090054D02*
X0224904Y0090054D01*
X0225415Y0089055D02*
X0226585Y0089055D01*
X0226200Y0088057D02*
X0225800Y0088057D01*
X0225800Y0087058D02*
X0226200Y0087058D01*
X0226264Y0086060D02*
X0225736Y0086060D01*
X0225322Y0085061D02*
X0226678Y0085061D01*
X0227319Y0084063D02*
X0224681Y0084063D01*
X0223631Y0083064D02*
X0228369Y0083064D01*
X0233631Y0083064D02*
X0238369Y0083064D01*
X0238281Y0083101D02*
X0240045Y0082370D01*
X0241955Y0082370D01*
X0243719Y0083101D01*
X0245069Y0084451D01*
X0245800Y0086215D01*
X0245800Y0088125D01*
X0245069Y0089889D01*
X0243719Y0091239D01*
X0241955Y0091970D01*
X0240045Y0091970D01*
X0238281Y0091239D01*
X0236931Y0089889D01*
X0236200Y0088125D01*
X0236200Y0086215D01*
X0236931Y0084451D01*
X0238281Y0083101D01*
X0237319Y0084063D02*
X0234681Y0084063D01*
X0235322Y0085061D02*
X0236678Y0085061D01*
X0236264Y0086060D02*
X0235736Y0086060D01*
X0235800Y0087058D02*
X0236200Y0087058D01*
X0236200Y0088057D02*
X0235800Y0088057D01*
X0235415Y0089055D02*
X0236585Y0089055D01*
X0237096Y0090054D02*
X0234904Y0090054D01*
X0233906Y0091052D02*
X0238094Y0091052D01*
X0243906Y0091052D02*
X0248094Y0091052D01*
X0247096Y0090054D02*
X0244904Y0090054D01*
X0245415Y0089055D02*
X0246585Y0089055D01*
X0246200Y0088057D02*
X0245800Y0088057D01*
X0245800Y0087058D02*
X0246200Y0087058D01*
X0246264Y0086060D02*
X0245736Y0086060D01*
X0245322Y0085061D02*
X0246678Y0085061D01*
X0247319Y0084063D02*
X0244681Y0084063D01*
X0243631Y0083064D02*
X0248369Y0083064D01*
X0253631Y0083064D02*
X0253783Y0083064D01*
X0254681Y0084063D02*
X0254782Y0084063D01*
X0255322Y0085061D02*
X0255780Y0085061D01*
X0255736Y0086060D02*
X0256264Y0086060D01*
X0256200Y0087058D02*
X0255800Y0087058D01*
X0255800Y0088057D02*
X0256200Y0088057D01*
X0256585Y0089055D02*
X0255415Y0089055D01*
X0254904Y0090054D02*
X0257096Y0090054D01*
X0258094Y0091052D02*
X0253906Y0091052D01*
X0261000Y0087170D02*
X0246000Y0072170D01*
X0146500Y0072170D01*
X0136500Y0062170D01*
X0126500Y0062170D01*
X0121500Y0067170D01*
X0121500Y0072170D01*
X0126014Y0074078D02*
X0127197Y0074078D01*
X0126885Y0073079D02*
X0126400Y0073079D01*
X0126400Y0072081D02*
X0131200Y0072081D01*
X0131800Y0072081D02*
X0143299Y0072081D01*
X0144298Y0073079D02*
X0136115Y0073079D01*
X0135803Y0074078D02*
X0145296Y0074078D01*
X0142301Y0071082D02*
X0136086Y0071082D01*
X0136084Y0071069D02*
X0136200Y0071800D01*
X0136200Y0071870D01*
X0131800Y0071870D01*
X0131800Y0067470D01*
X0131870Y0067470D01*
X0132601Y0067586D01*
X0133304Y0067814D01*
X0133963Y0068150D01*
X0134562Y0068585D01*
X0135085Y0069108D01*
X0135520Y0069707D01*
X0135856Y0070366D01*
X0136084Y0071069D01*
X0135712Y0070084D02*
X0141302Y0070084D01*
X0140304Y0069085D02*
X0135062Y0069085D01*
X0133839Y0068087D02*
X0139305Y0068087D01*
X0138307Y0067088D02*
X0124693Y0067088D01*
X0124346Y0068087D02*
X0129161Y0068087D01*
X0127938Y0069085D02*
X0125345Y0069085D01*
X0125940Y0070084D02*
X0127288Y0070084D01*
X0126914Y0071082D02*
X0126353Y0071082D01*
X0125523Y0075076D02*
X0127802Y0075076D01*
X0128878Y0076075D02*
X0124525Y0076075D01*
X0131200Y0076075D02*
X0131800Y0076075D01*
X0131800Y0075076D02*
X0131200Y0075076D01*
X0131200Y0074078D02*
X0131800Y0074078D01*
X0131800Y0073079D02*
X0131200Y0073079D01*
X0131200Y0071082D02*
X0131800Y0071082D01*
X0131800Y0070084D02*
X0131200Y0070084D01*
X0131200Y0069085D02*
X0131800Y0069085D01*
X0131800Y0068087D02*
X0131200Y0068087D01*
X0126690Y0065091D02*
X0136310Y0065091D01*
X0137308Y0066089D02*
X0125692Y0066089D01*
X0122465Y0063094D02*
X0074460Y0063094D01*
X0074460Y0064092D02*
X0121466Y0064092D01*
X0120468Y0065091D02*
X0074400Y0065091D01*
X0073986Y0066089D02*
X0119469Y0066089D01*
X0123463Y0062095D02*
X0074169Y0062095D01*
X0074946Y0061097D02*
X0124462Y0061097D01*
X0125460Y0060098D02*
X0075945Y0060098D01*
X0076943Y0059100D02*
X0146933Y0059100D01*
X0146922Y0059111D02*
X0148441Y0057592D01*
X0150426Y0056770D01*
X0152574Y0056770D01*
X0154559Y0057592D01*
X0156078Y0059111D01*
X0156900Y0061096D01*
X0156900Y0063244D01*
X0156078Y0065229D01*
X0154559Y0066748D01*
X0152574Y0067570D01*
X0150426Y0067570D01*
X0148441Y0066748D01*
X0146922Y0065229D01*
X0146100Y0063244D01*
X0146100Y0061096D01*
X0146922Y0059111D01*
X0146513Y0060098D02*
X0137540Y0060098D01*
X0138538Y0061097D02*
X0146100Y0061097D01*
X0146100Y0062095D02*
X0139537Y0062095D01*
X0140535Y0063094D02*
X0146100Y0063094D01*
X0146451Y0064092D02*
X0141534Y0064092D01*
X0142532Y0065091D02*
X0146865Y0065091D01*
X0147783Y0066089D02*
X0143531Y0066089D01*
X0144529Y0067088D02*
X0149263Y0067088D01*
X0146526Y0069085D02*
X0358501Y0069085D01*
X0358501Y0068087D02*
X0145528Y0068087D01*
X0153737Y0067088D02*
X0164263Y0067088D01*
X0163441Y0066748D02*
X0161922Y0065229D01*
X0161100Y0063244D01*
X0161100Y0061096D01*
X0161456Y0060237D01*
X0155589Y0054370D01*
X0150589Y0054370D01*
X0149300Y0053081D01*
X0132776Y0036557D01*
X0092300Y0036557D01*
X0091012Y0035268D01*
X0088750Y0033007D01*
X0088750Y0027239D01*
X0089512Y0026477D01*
X0090550Y0025439D01*
X0090550Y0022079D01*
X0091546Y0021083D01*
X0094524Y0021083D01*
X0095152Y0020854D01*
X0095644Y0021083D01*
X0098554Y0021083D01*
X0098641Y0021170D01*
X0173911Y0021170D01*
X0179779Y0027038D01*
X0180426Y0026770D01*
X0182574Y0026770D01*
X0184559Y0027592D01*
X0185513Y0028546D01*
X0199189Y0014870D01*
X0261811Y0014870D01*
X0269526Y0022585D01*
X0270045Y0022370D01*
X0271955Y0022370D01*
X0273719Y0023101D01*
X0275069Y0024451D01*
X0275800Y0026215D01*
X0275800Y0028125D01*
X0275069Y0029889D01*
X0273719Y0031239D01*
X0271955Y0031970D01*
X0270045Y0031970D01*
X0268281Y0031239D01*
X0266931Y0029889D01*
X0266200Y0028125D01*
X0266200Y0026215D01*
X0266415Y0025696D01*
X0259989Y0019270D01*
X0201011Y0019270D01*
X0186803Y0033478D01*
X0186078Y0035229D01*
X0184559Y0036748D01*
X0182574Y0037570D01*
X0180426Y0037570D01*
X0178441Y0036748D01*
X0176922Y0035229D01*
X0176100Y0033244D01*
X0176100Y0031096D01*
X0176544Y0030025D01*
X0172089Y0025570D01*
X0148011Y0025570D01*
X0149567Y0027126D01*
X0150426Y0026770D01*
X0152574Y0026770D01*
X0154559Y0027592D01*
X0156078Y0029111D01*
X0156900Y0031096D01*
X0156900Y0033244D01*
X0156078Y0035229D01*
X0154559Y0036748D01*
X0152574Y0037570D01*
X0150426Y0037570D01*
X0149718Y0037277D01*
X0151411Y0038970D01*
X0216089Y0038970D01*
X0226415Y0028644D01*
X0226200Y0028125D01*
X0226200Y0026215D01*
X0226931Y0024451D01*
X0228281Y0023101D01*
X0230045Y0022370D01*
X0231955Y0022370D01*
X0233719Y0023101D01*
X0235069Y0024451D01*
X0235800Y0026215D01*
X0235800Y0028125D01*
X0235069Y0029889D01*
X0233719Y0031239D01*
X0231955Y0031970D01*
X0230045Y0031970D01*
X0229526Y0031755D01*
X0217911Y0043370D01*
X0150811Y0043370D01*
X0152411Y0044970D01*
X0220089Y0044970D01*
X0236415Y0028644D01*
X0236200Y0028125D01*
X0236200Y0026215D01*
X0236931Y0024451D01*
X0238281Y0023101D01*
X0240045Y0022370D01*
X0241955Y0022370D01*
X0243719Y0023101D01*
X0245069Y0024451D01*
X0245800Y0026215D01*
X0245800Y0028125D01*
X0245069Y0029889D01*
X0243719Y0031239D01*
X0241955Y0031970D01*
X0240045Y0031970D01*
X0239526Y0031755D01*
X0221911Y0049370D01*
X0151811Y0049370D01*
X0152411Y0049970D01*
X0157411Y0049970D01*
X0164567Y0057126D01*
X0165426Y0056770D01*
X0167574Y0056770D01*
X0168787Y0057272D01*
X0175089Y0050970D01*
X0224989Y0050970D01*
X0246679Y0029280D01*
X0246200Y0028125D01*
X0246200Y0026215D01*
X0246931Y0024451D01*
X0248281Y0023101D01*
X0250045Y0022370D01*
X0251955Y0022370D01*
X0253719Y0023101D01*
X0255069Y0024451D01*
X0255800Y0026215D01*
X0255800Y0028125D01*
X0255069Y0029889D01*
X0253719Y0031239D01*
X0251955Y0031970D01*
X0250211Y0031970D01*
X0226811Y0055370D01*
X0176911Y0055370D01*
X0171691Y0060590D01*
X0171900Y0061096D01*
X0171900Y0063244D01*
X0171078Y0065229D01*
X0169559Y0066748D01*
X0167574Y0067570D01*
X0165426Y0067570D01*
X0163441Y0066748D01*
X0162783Y0066089D02*
X0155217Y0066089D01*
X0156135Y0065091D02*
X0161865Y0065091D01*
X0161451Y0064092D02*
X0156549Y0064092D01*
X0156900Y0063094D02*
X0161100Y0063094D01*
X0161100Y0062095D02*
X0156900Y0062095D01*
X0156900Y0061097D02*
X0161100Y0061097D01*
X0161317Y0060098D02*
X0156487Y0060098D01*
X0156067Y0059100D02*
X0160319Y0059100D01*
X0159320Y0058101D02*
X0155068Y0058101D01*
X0153378Y0057103D02*
X0158322Y0057103D01*
X0157323Y0056104D02*
X0078700Y0056104D01*
X0078700Y0055106D02*
X0156325Y0055106D01*
X0156500Y0052170D02*
X0166500Y0062170D01*
X0167100Y0062070D01*
X0176000Y0053170D01*
X0225900Y0053170D01*
X0251000Y0028070D01*
X0251000Y0027170D01*
X0255800Y0027148D02*
X0256200Y0027148D01*
X0256200Y0026215D02*
X0256931Y0024451D01*
X0258281Y0023101D01*
X0260045Y0022370D01*
X0261955Y0022370D01*
X0263719Y0023101D01*
X0265069Y0024451D01*
X0265800Y0026215D01*
X0265800Y0028125D01*
X0265069Y0029889D01*
X0263719Y0031239D01*
X0261955Y0031970D01*
X0260045Y0031970D01*
X0258281Y0031239D01*
X0256931Y0029889D01*
X0256200Y0028125D01*
X0256200Y0026215D01*
X0256227Y0026149D02*
X0255773Y0026149D01*
X0255359Y0025151D02*
X0256641Y0025151D01*
X0257230Y0024152D02*
X0254770Y0024152D01*
X0253772Y0023153D02*
X0258228Y0023153D01*
X0260877Y0020158D02*
X0200123Y0020158D01*
X0199125Y0021156D02*
X0261875Y0021156D01*
X0262874Y0022155D02*
X0198126Y0022155D01*
X0197128Y0023153D02*
X0208228Y0023153D01*
X0208281Y0023101D02*
X0210045Y0022370D01*
X0211955Y0022370D01*
X0213719Y0023101D01*
X0215069Y0024451D01*
X0215800Y0026215D01*
X0215800Y0028125D01*
X0215069Y0029889D01*
X0213719Y0031239D01*
X0211955Y0031970D01*
X0210045Y0031970D01*
X0208281Y0031239D01*
X0206931Y0029889D01*
X0206200Y0028125D01*
X0206200Y0026215D01*
X0206931Y0024451D01*
X0208281Y0023101D01*
X0207230Y0024152D02*
X0196129Y0024152D01*
X0195131Y0025151D02*
X0206641Y0025151D01*
X0206227Y0026149D02*
X0194132Y0026149D01*
X0193134Y0027148D02*
X0206200Y0027148D01*
X0206209Y0028146D02*
X0192135Y0028146D01*
X0191137Y0029145D02*
X0206622Y0029145D01*
X0207185Y0030143D02*
X0190138Y0030143D01*
X0189140Y0031142D02*
X0208184Y0031142D01*
X0213816Y0031142D02*
X0218184Y0031142D01*
X0218281Y0031239D02*
X0216931Y0029889D01*
X0216200Y0028125D01*
X0216200Y0026215D01*
X0216931Y0024451D01*
X0218281Y0023101D01*
X0220045Y0022370D01*
X0221955Y0022370D01*
X0223719Y0023101D01*
X0225069Y0024451D01*
X0225800Y0026215D01*
X0225800Y0028125D01*
X0225069Y0029889D01*
X0223719Y0031239D01*
X0221955Y0031970D01*
X0220045Y0031970D01*
X0218281Y0031239D01*
X0217185Y0030143D02*
X0214815Y0030143D01*
X0215378Y0029145D02*
X0216622Y0029145D01*
X0216209Y0028146D02*
X0215791Y0028146D01*
X0215800Y0027148D02*
X0216200Y0027148D01*
X0216227Y0026149D02*
X0215773Y0026149D01*
X0215359Y0025151D02*
X0216641Y0025151D01*
X0217230Y0024152D02*
X0214770Y0024152D01*
X0213772Y0023153D02*
X0218228Y0023153D01*
X0223772Y0023153D02*
X0228228Y0023153D01*
X0227230Y0024152D02*
X0224770Y0024152D01*
X0225359Y0025151D02*
X0226641Y0025151D01*
X0226227Y0026149D02*
X0225773Y0026149D01*
X0225800Y0027148D02*
X0226200Y0027148D01*
X0226209Y0028146D02*
X0225791Y0028146D01*
X0225914Y0029145D02*
X0225378Y0029145D01*
X0224916Y0030143D02*
X0224815Y0030143D01*
X0223917Y0031142D02*
X0223816Y0031142D01*
X0222918Y0032140D02*
X0188141Y0032140D01*
X0187143Y0033139D02*
X0221920Y0033139D01*
X0220921Y0034137D02*
X0186530Y0034137D01*
X0186116Y0035136D02*
X0219923Y0035136D01*
X0218924Y0036134D02*
X0185172Y0036134D01*
X0183630Y0037133D02*
X0217926Y0037133D01*
X0216927Y0038131D02*
X0150573Y0038131D01*
X0153630Y0037133D02*
X0164370Y0037133D01*
X0163441Y0036748D02*
X0161922Y0035229D01*
X0161100Y0033244D01*
X0161100Y0031096D01*
X0161922Y0029111D01*
X0163441Y0027592D01*
X0165426Y0026770D01*
X0167574Y0026770D01*
X0169559Y0027592D01*
X0171078Y0029111D01*
X0171900Y0031096D01*
X0171900Y0033244D01*
X0171078Y0035229D01*
X0169559Y0036748D01*
X0167574Y0037570D01*
X0165426Y0037570D01*
X0163441Y0036748D01*
X0162828Y0036134D02*
X0155172Y0036134D01*
X0156116Y0035136D02*
X0161884Y0035136D01*
X0161470Y0034137D02*
X0156530Y0034137D01*
X0156900Y0033139D02*
X0161100Y0033139D01*
X0161100Y0032140D02*
X0156900Y0032140D01*
X0156900Y0031142D02*
X0161100Y0031142D01*
X0161495Y0030143D02*
X0156505Y0030143D01*
X0156092Y0029145D02*
X0161908Y0029145D01*
X0162887Y0028146D02*
X0155113Y0028146D01*
X0153486Y0027148D02*
X0164514Y0027148D01*
X0168486Y0027148D02*
X0173666Y0027148D01*
X0174665Y0028146D02*
X0170113Y0028146D01*
X0171092Y0029145D02*
X0175663Y0029145D01*
X0176495Y0030143D02*
X0171505Y0030143D01*
X0171900Y0031142D02*
X0176100Y0031142D01*
X0176100Y0032140D02*
X0171900Y0032140D01*
X0171900Y0033139D02*
X0176100Y0033139D01*
X0176470Y0034137D02*
X0171530Y0034137D01*
X0171116Y0035136D02*
X0176884Y0035136D01*
X0177828Y0036134D02*
X0170172Y0036134D01*
X0168630Y0037133D02*
X0179370Y0037133D01*
X0181500Y0032170D02*
X0185000Y0032170D01*
X0200100Y0017070D01*
X0260900Y0017070D01*
X0271000Y0027170D01*
X0275800Y0027148D02*
X0276200Y0027148D01*
X0276200Y0026215D02*
X0276931Y0024451D01*
X0278281Y0023101D01*
X0280045Y0022370D01*
X0281955Y0022370D01*
X0283719Y0023101D01*
X0285069Y0024451D01*
X0285800Y0026215D01*
X0285800Y0028125D01*
X0285069Y0029889D01*
X0283719Y0031239D01*
X0281955Y0031970D01*
X0280045Y0031970D01*
X0278281Y0031239D01*
X0276931Y0029889D01*
X0276200Y0028125D01*
X0276200Y0026215D01*
X0276227Y0026149D02*
X0275773Y0026149D01*
X0275359Y0025151D02*
X0276641Y0025151D01*
X0277230Y0024152D02*
X0274770Y0024152D01*
X0273772Y0023153D02*
X0278228Y0023153D01*
X0283772Y0023153D02*
X0288228Y0023153D01*
X0288281Y0023101D02*
X0290045Y0022370D01*
X0291955Y0022370D01*
X0293719Y0023101D01*
X0295069Y0024451D01*
X0295800Y0026215D01*
X0295800Y0028125D01*
X0295069Y0029889D01*
X0293719Y0031239D01*
X0291955Y0031970D01*
X0290045Y0031970D01*
X0288281Y0031239D01*
X0286931Y0029889D01*
X0286200Y0028125D01*
X0286200Y0026215D01*
X0286931Y0024451D01*
X0288281Y0023101D01*
X0287230Y0024152D02*
X0284770Y0024152D01*
X0285359Y0025151D02*
X0286641Y0025151D01*
X0286227Y0026149D02*
X0285773Y0026149D01*
X0285800Y0027148D02*
X0286200Y0027148D01*
X0286209Y0028146D02*
X0285791Y0028146D01*
X0285378Y0029145D02*
X0286622Y0029145D01*
X0287185Y0030143D02*
X0284815Y0030143D01*
X0283816Y0031142D02*
X0288184Y0031142D01*
X0293816Y0031142D02*
X0298184Y0031142D01*
X0298281Y0031239D02*
X0296931Y0029889D01*
X0296200Y0028125D01*
X0296200Y0026215D01*
X0296931Y0024451D01*
X0298281Y0023101D01*
X0300045Y0022370D01*
X0301955Y0022370D01*
X0303719Y0023101D01*
X0305069Y0024451D01*
X0305800Y0026215D01*
X0305800Y0028125D01*
X0305069Y0029889D01*
X0303719Y0031239D01*
X0301955Y0031970D01*
X0300045Y0031970D01*
X0298281Y0031239D01*
X0297185Y0030143D02*
X0294815Y0030143D01*
X0295378Y0029145D02*
X0296622Y0029145D01*
X0296209Y0028146D02*
X0295791Y0028146D01*
X0295800Y0027148D02*
X0296200Y0027148D01*
X0296227Y0026149D02*
X0295773Y0026149D01*
X0295359Y0025151D02*
X0296641Y0025151D01*
X0297230Y0024152D02*
X0294770Y0024152D01*
X0293772Y0023153D02*
X0298228Y0023153D01*
X0303772Y0023153D02*
X0308228Y0023153D01*
X0308281Y0023101D02*
X0310045Y0022370D01*
X0311955Y0022370D01*
X0313719Y0023101D01*
X0315069Y0024451D01*
X0315800Y0026215D01*
X0315800Y0028125D01*
X0315069Y0029889D01*
X0313719Y0031239D01*
X0311955Y0031970D01*
X0310045Y0031970D01*
X0308281Y0031239D01*
X0306931Y0029889D01*
X0306200Y0028125D01*
X0306200Y0026215D01*
X0306931Y0024451D01*
X0308281Y0023101D01*
X0307230Y0024152D02*
X0304770Y0024152D01*
X0305359Y0025151D02*
X0306641Y0025151D01*
X0306227Y0026149D02*
X0305773Y0026149D01*
X0305800Y0027148D02*
X0306200Y0027148D01*
X0306209Y0028146D02*
X0305791Y0028146D01*
X0305378Y0029145D02*
X0306622Y0029145D01*
X0307185Y0030143D02*
X0304815Y0030143D01*
X0303816Y0031142D02*
X0308184Y0031142D01*
X0313816Y0031142D02*
X0318184Y0031142D01*
X0318281Y0031239D02*
X0316931Y0029889D01*
X0316200Y0028125D01*
X0316200Y0026215D01*
X0316931Y0024451D01*
X0318281Y0023101D01*
X0320045Y0022370D01*
X0321955Y0022370D01*
X0323719Y0023101D01*
X0325069Y0024451D01*
X0325800Y0026215D01*
X0325800Y0028125D01*
X0325069Y0029889D01*
X0323719Y0031239D01*
X0321955Y0031970D01*
X0320045Y0031970D01*
X0318281Y0031239D01*
X0317185Y0030143D02*
X0314815Y0030143D01*
X0315378Y0029145D02*
X0316622Y0029145D01*
X0316209Y0028146D02*
X0315791Y0028146D01*
X0315800Y0027148D02*
X0316200Y0027148D01*
X0316227Y0026149D02*
X0315773Y0026149D01*
X0315359Y0025151D02*
X0316641Y0025151D01*
X0317230Y0024152D02*
X0314770Y0024152D01*
X0313772Y0023153D02*
X0318228Y0023153D01*
X0323772Y0023153D02*
X0328228Y0023153D01*
X0328281Y0023101D02*
X0330045Y0022370D01*
X0331955Y0022370D01*
X0333719Y0023101D01*
X0335069Y0024451D01*
X0335800Y0026215D01*
X0335800Y0028125D01*
X0335069Y0029889D01*
X0333719Y0031239D01*
X0331955Y0031970D01*
X0330045Y0031970D01*
X0328281Y0031239D01*
X0326931Y0029889D01*
X0326200Y0028125D01*
X0326200Y0026215D01*
X0326931Y0024451D01*
X0328281Y0023101D01*
X0327230Y0024152D02*
X0324770Y0024152D01*
X0325359Y0025151D02*
X0326641Y0025151D01*
X0326227Y0026149D02*
X0325773Y0026149D01*
X0325800Y0027148D02*
X0326200Y0027148D01*
X0326209Y0028146D02*
X0325791Y0028146D01*
X0325378Y0029145D02*
X0326622Y0029145D01*
X0327185Y0030143D02*
X0324815Y0030143D01*
X0323816Y0031142D02*
X0328184Y0031142D01*
X0333816Y0031142D02*
X0338184Y0031142D01*
X0338281Y0031239D02*
X0336931Y0029889D01*
X0336200Y0028125D01*
X0336200Y0026215D01*
X0336931Y0024451D01*
X0338281Y0023101D01*
X0340045Y0022370D01*
X0341955Y0022370D01*
X0343719Y0023101D01*
X0345069Y0024451D01*
X0345800Y0026215D01*
X0345800Y0028125D01*
X0345069Y0029889D01*
X0343719Y0031239D01*
X0341955Y0031970D01*
X0340045Y0031970D01*
X0338281Y0031239D01*
X0337185Y0030143D02*
X0334815Y0030143D01*
X0335378Y0029145D02*
X0336622Y0029145D01*
X0336209Y0028146D02*
X0335791Y0028146D01*
X0335800Y0027148D02*
X0336200Y0027148D01*
X0336227Y0026149D02*
X0335773Y0026149D01*
X0335359Y0025151D02*
X0336641Y0025151D01*
X0337230Y0024152D02*
X0334770Y0024152D01*
X0333772Y0023153D02*
X0338228Y0023153D01*
X0343772Y0023153D02*
X0358501Y0023153D01*
X0358501Y0022155D02*
X0269096Y0022155D01*
X0268098Y0021156D02*
X0358501Y0021156D01*
X0358501Y0020158D02*
X0267099Y0020158D01*
X0266101Y0019159D02*
X0358501Y0019159D01*
X0358501Y0018161D02*
X0265102Y0018161D01*
X0264104Y0017162D02*
X0358501Y0017162D01*
X0358501Y0016164D02*
X0263105Y0016164D01*
X0262107Y0015165D02*
X0358501Y0015165D01*
X0358501Y0014167D02*
X0003200Y0014167D01*
X0003200Y0015165D02*
X0198893Y0015165D01*
X0197895Y0016164D02*
X0003200Y0016164D01*
X0003200Y0017162D02*
X0196896Y0017162D01*
X0195898Y0018161D02*
X0018791Y0018161D01*
X0021202Y0019159D02*
X0194899Y0019159D01*
X0193901Y0020158D02*
X0022499Y0020158D01*
X0023497Y0021156D02*
X0091472Y0021156D01*
X0090550Y0022155D02*
X0082120Y0022155D01*
X0082250Y0023153D02*
X0090550Y0023153D01*
X0090550Y0024152D02*
X0082450Y0024152D01*
X0082250Y0023233D02*
X0081636Y0023233D01*
X0081636Y0023233D01*
X0082250Y0023233D01*
X0082450Y0025151D02*
X0090550Y0025151D01*
X0089840Y0026149D02*
X0082450Y0026149D01*
X0082450Y0027148D02*
X0088841Y0027148D01*
X0088750Y0028146D02*
X0082450Y0028146D01*
X0082450Y0029145D02*
X0088750Y0029145D01*
X0088750Y0030143D02*
X0082450Y0030143D01*
X0082450Y0031142D02*
X0088750Y0031142D01*
X0088750Y0032140D02*
X0082450Y0032140D01*
X0081572Y0033139D02*
X0088882Y0033139D01*
X0089880Y0034137D02*
X0078700Y0034137D01*
X0078700Y0035136D02*
X0090879Y0035136D01*
X0091878Y0036134D02*
X0078700Y0036134D01*
X0078700Y0037133D02*
X0133352Y0037133D01*
X0134350Y0038131D02*
X0078700Y0038131D01*
X0078700Y0039130D02*
X0090717Y0039130D01*
X0090866Y0039068D02*
X0088881Y0039890D01*
X0087362Y0041409D01*
X0086540Y0043394D01*
X0086540Y0045542D01*
X0087362Y0047527D01*
X0088881Y0049046D01*
X0090866Y0049868D01*
X0093014Y0049868D01*
X0094999Y0049046D01*
X0096518Y0047527D01*
X0097340Y0045542D01*
X0097340Y0043394D01*
X0096518Y0041409D01*
X0094999Y0039890D01*
X0093014Y0039068D01*
X0090866Y0039068D01*
X0093163Y0039130D02*
X0135349Y0039130D01*
X0136347Y0040128D02*
X0095237Y0040128D01*
X0096235Y0041127D02*
X0137346Y0041127D01*
X0138344Y0042125D02*
X0096815Y0042125D01*
X0097228Y0043124D02*
X0139343Y0043124D01*
X0140341Y0044122D02*
X0097340Y0044122D01*
X0097340Y0045121D02*
X0141340Y0045121D01*
X0142338Y0046119D02*
X0097101Y0046119D01*
X0096687Y0047118D02*
X0143337Y0047118D01*
X0144335Y0048116D02*
X0095928Y0048116D01*
X0094833Y0049115D02*
X0145334Y0049115D01*
X0146332Y0050113D02*
X0078700Y0050113D01*
X0078700Y0049115D02*
X0089047Y0049115D01*
X0087952Y0048116D02*
X0078700Y0048116D01*
X0078700Y0047118D02*
X0087193Y0047118D01*
X0086779Y0046119D02*
X0078700Y0046119D01*
X0078700Y0045121D02*
X0086540Y0045121D01*
X0086540Y0044122D02*
X0078700Y0044122D01*
X0078700Y0043124D02*
X0086652Y0043124D01*
X0087066Y0042125D02*
X0078700Y0042125D01*
X0078700Y0041127D02*
X0087645Y0041127D01*
X0088643Y0040128D02*
X0078700Y0040128D01*
X0074300Y0040128D02*
X0072357Y0040128D01*
X0072507Y0041127D02*
X0074300Y0041127D01*
X0074300Y0042125D02*
X0072507Y0042125D01*
X0072305Y0043124D02*
X0074300Y0043124D01*
X0074300Y0044122D02*
X0071892Y0044122D01*
X0071186Y0045121D02*
X0074300Y0045121D01*
X0074300Y0046119D02*
X0070187Y0046119D01*
X0074300Y0047118D02*
X0047663Y0047118D01*
X0046665Y0048116D02*
X0074300Y0048116D01*
X0074300Y0049115D02*
X0045666Y0049115D01*
X0044668Y0050113D02*
X0074300Y0050113D01*
X0074300Y0051112D02*
X0043669Y0051112D01*
X0042671Y0052110D02*
X0074300Y0052110D01*
X0074300Y0053109D02*
X0041672Y0053109D01*
X0040674Y0054107D02*
X0074300Y0054107D01*
X0074300Y0055106D02*
X0039675Y0055106D01*
X0038677Y0056104D02*
X0073716Y0056104D01*
X0072718Y0057103D02*
X0037678Y0057103D01*
X0037200Y0058101D02*
X0043069Y0058101D01*
X0041933Y0059100D02*
X0037200Y0059100D01*
X0037200Y0060098D02*
X0041158Y0060098D01*
X0040744Y0061097D02*
X0037200Y0061097D01*
X0037200Y0062095D02*
X0040493Y0062095D01*
X0040493Y0063094D02*
X0037200Y0063094D01*
X0037200Y0064092D02*
X0040594Y0064092D01*
X0041007Y0065091D02*
X0037200Y0065091D01*
X0037200Y0066089D02*
X0041570Y0066089D01*
X0042568Y0067088D02*
X0037200Y0067088D01*
X0037200Y0070084D02*
X0075475Y0070084D01*
X0074477Y0071082D02*
X0037200Y0071082D01*
X0037200Y0072081D02*
X0073478Y0072081D01*
X0072480Y0073079D02*
X0037200Y0073079D01*
X0037200Y0074078D02*
X0071481Y0074078D01*
X0070483Y0075076D02*
X0037200Y0075076D01*
X0037200Y0076075D02*
X0069484Y0076075D01*
X0068485Y0077073D02*
X0068306Y0077073D01*
X0064694Y0077073D02*
X0037200Y0077073D01*
X0037200Y0078072D02*
X0062961Y0078072D01*
X0061963Y0079070D02*
X0037200Y0079070D01*
X0037200Y0080069D02*
X0061525Y0080069D01*
X0061112Y0081067D02*
X0037200Y0081067D01*
X0037200Y0082066D02*
X0061100Y0082066D01*
X0061100Y0083064D02*
X0037200Y0083064D01*
X0037200Y0084063D02*
X0061439Y0084063D01*
X0060497Y0085061D02*
X0037200Y0085061D01*
X0037200Y0086060D02*
X0059499Y0086060D01*
X0058500Y0087058D02*
X0037200Y0087058D01*
X0037200Y0088057D02*
X0057502Y0088057D01*
X0056503Y0089055D02*
X0037200Y0089055D01*
X0037200Y0090054D02*
X0055505Y0090054D01*
X0054506Y0091052D02*
X0037200Y0091052D01*
X0037200Y0092051D02*
X0054300Y0092051D01*
X0054300Y0093049D02*
X0037200Y0093049D01*
X0037200Y0094048D02*
X0054300Y0094048D01*
X0054300Y0095046D02*
X0037200Y0095046D01*
X0037200Y0096045D02*
X0054300Y0096045D01*
X0054300Y0097043D02*
X0037200Y0097043D01*
X0037200Y0098042D02*
X0054300Y0098042D01*
X0054300Y0099040D02*
X0037200Y0099040D01*
X0037200Y0100039D02*
X0054300Y0100039D01*
X0054300Y0101037D02*
X0037200Y0101037D01*
X0038500Y0102036D02*
X0044500Y0102036D01*
X0043074Y0103034D02*
X0039926Y0103034D01*
X0040870Y0104033D02*
X0042130Y0104033D01*
X0041716Y0105031D02*
X0041284Y0105031D01*
X0041401Y0109025D02*
X0041599Y0109025D01*
X0042013Y0110024D02*
X0040987Y0110024D01*
X0040208Y0111022D02*
X0042792Y0111022D01*
X0043817Y0112021D02*
X0039183Y0112021D01*
X0033262Y0113020D02*
X0054300Y0113020D01*
X0054300Y0114018D02*
X0032263Y0114018D01*
X0031265Y0115017D02*
X0054300Y0115017D01*
X0054300Y0112021D02*
X0050183Y0112021D01*
X0051208Y0111022D02*
X0054300Y0111022D01*
X0054300Y0110024D02*
X0051987Y0110024D01*
X0052401Y0109025D02*
X0054300Y0109025D01*
X0054300Y0108027D02*
X0052700Y0108027D01*
X0052700Y0107028D02*
X0054300Y0107028D01*
X0054300Y0106030D02*
X0052697Y0106030D01*
X0052284Y0105031D02*
X0054300Y0105031D01*
X0054300Y0104033D02*
X0051870Y0104033D01*
X0050926Y0103034D02*
X0054300Y0103034D01*
X0054300Y0102036D02*
X0049500Y0102036D01*
X0030303Y0106030D02*
X0015277Y0106030D01*
X0013881Y0107028D02*
X0030300Y0107028D01*
X0030300Y0108027D02*
X0014645Y0108027D01*
X0015643Y0109025D02*
X0030599Y0109025D01*
X0030035Y0110024D02*
X0016243Y0110024D01*
X0016583Y0111022D02*
X0029036Y0111022D01*
X0028038Y0112021D02*
X0012000Y0112021D01*
X0011000Y0112021D02*
X0003200Y0112021D01*
X0013420Y0117014D02*
X0023045Y0117014D01*
X0022047Y0118012D02*
X0014979Y0118012D01*
X0015977Y0119011D02*
X0021048Y0119011D01*
X0024044Y0116015D02*
X0015009Y0116015D01*
X0015859Y0115017D02*
X0025042Y0115017D01*
X0026041Y0114018D02*
X0016367Y0114018D01*
X0016630Y0113020D02*
X0027039Y0113020D01*
X0016518Y0099040D02*
X0016007Y0099040D01*
X0015009Y0098042D02*
X0017517Y0098042D01*
X0018515Y0097043D02*
X0013329Y0097043D01*
X0014979Y0096045D02*
X0019514Y0096045D01*
X0020512Y0095046D02*
X0015838Y0095046D01*
X0016357Y0094048D02*
X0021511Y0094048D01*
X0022509Y0093049D02*
X0016626Y0093049D01*
X0012000Y0090054D02*
X0011000Y0090054D01*
X0011000Y0089055D02*
X0012000Y0089055D01*
X0012000Y0088057D02*
X0011000Y0088057D01*
X0008314Y0088057D02*
X0003200Y0088057D01*
X0003200Y0089055D02*
X0007335Y0089055D01*
X0006742Y0090054D02*
X0003200Y0090054D01*
X0003200Y0091052D02*
X0006412Y0091052D01*
X0003200Y0067088D02*
X0010979Y0067088D01*
X0009859Y0066089D02*
X0003200Y0066089D01*
X0003200Y0065091D02*
X0009040Y0065091D01*
X0008627Y0064092D02*
X0003200Y0064092D01*
X0003200Y0063094D02*
X0008300Y0063094D01*
X0008300Y0062095D02*
X0003200Y0062095D01*
X0003200Y0061097D02*
X0008300Y0061097D01*
X0008688Y0060098D02*
X0003200Y0060098D01*
X0003200Y0059100D02*
X0009102Y0059100D01*
X0010007Y0058101D02*
X0003200Y0058101D01*
X0003200Y0057103D02*
X0011338Y0057103D01*
X0014101Y0036134D02*
X0003200Y0036134D01*
X0003200Y0035136D02*
X0011690Y0035136D01*
X0010456Y0034137D02*
X0003200Y0034137D01*
X0003200Y0033139D02*
X0009458Y0033139D01*
X0008601Y0032140D02*
X0003200Y0032140D01*
X0003200Y0031142D02*
X0008187Y0031142D01*
X0007774Y0030143D02*
X0003200Y0030143D01*
X0003200Y0029145D02*
X0007360Y0029145D01*
X0007300Y0028146D02*
X0003200Y0028146D01*
X0003200Y0027148D02*
X0007300Y0027148D01*
X0007300Y0026149D02*
X0003200Y0026149D01*
X0003200Y0025151D02*
X0007378Y0025151D01*
X0007792Y0024152D02*
X0003200Y0024152D01*
X0003200Y0023153D02*
X0008206Y0023153D01*
X0008619Y0022155D02*
X0003200Y0022155D01*
X0003200Y0021156D02*
X0009503Y0021156D01*
X0010501Y0020158D02*
X0003200Y0020158D01*
X0003200Y0019159D02*
X0011798Y0019159D01*
X0014209Y0018161D02*
X0003200Y0018161D01*
X0024381Y0022155D02*
X0073780Y0022155D01*
X0077950Y0022155D02*
X0077950Y0022155D01*
X0077950Y0023001D02*
X0077950Y0021283D01*
X0077950Y0023001D01*
X0077950Y0023001D01*
X0077950Y0029138D02*
X0074531Y0029138D01*
X0066500Y0037170D01*
X0066500Y0040957D01*
X0067107Y0041563D01*
X0071943Y0039130D02*
X0074300Y0039130D01*
X0074300Y0038131D02*
X0071311Y0038131D01*
X0070313Y0037133D02*
X0074300Y0037133D01*
X0074300Y0036134D02*
X0070647Y0036134D01*
X0071645Y0035136D02*
X0074300Y0035136D01*
X0074300Y0034137D02*
X0072644Y0034137D01*
X0073643Y0033139D02*
X0074300Y0033139D01*
X0070416Y0030143D02*
X0064638Y0030143D01*
X0063640Y0031142D02*
X0069417Y0031142D01*
X0068418Y0032140D02*
X0062641Y0032140D01*
X0061643Y0033139D02*
X0067420Y0033139D01*
X0066421Y0034137D02*
X0060644Y0034137D01*
X0059645Y0035136D02*
X0065423Y0035136D01*
X0064424Y0036134D02*
X0058647Y0036134D01*
X0057648Y0037133D02*
X0063900Y0037133D01*
X0062902Y0038131D02*
X0056650Y0038131D01*
X0055651Y0039130D02*
X0062270Y0039130D01*
X0061856Y0040128D02*
X0054653Y0040128D01*
X0053654Y0041127D02*
X0061707Y0041127D01*
X0061707Y0042125D02*
X0052656Y0042125D01*
X0051657Y0043124D02*
X0061908Y0043124D01*
X0062322Y0044122D02*
X0050659Y0044122D01*
X0049660Y0045121D02*
X0063027Y0045121D01*
X0064026Y0046119D02*
X0048662Y0046119D01*
X0048718Y0058101D02*
X0071719Y0058101D01*
X0066469Y0059100D02*
X0049854Y0059100D01*
X0050629Y0060098D02*
X0065197Y0060098D01*
X0077411Y0058632D02*
X0077411Y0058632D01*
X0077942Y0058101D02*
X0147932Y0058101D01*
X0149622Y0057103D02*
X0078700Y0057103D01*
X0078700Y0054107D02*
X0150326Y0054107D01*
X0149328Y0053109D02*
X0078700Y0053109D01*
X0078700Y0052110D02*
X0148329Y0052110D01*
X0147331Y0051112D02*
X0078700Y0051112D01*
X0093212Y0034357D02*
X0133687Y0034357D01*
X0151500Y0052170D01*
X0156500Y0052170D01*
X0158553Y0051112D02*
X0174947Y0051112D01*
X0173948Y0052110D02*
X0159552Y0052110D01*
X0160550Y0053109D02*
X0172950Y0053109D01*
X0171951Y0054107D02*
X0161549Y0054107D01*
X0162547Y0055106D02*
X0170953Y0055106D01*
X0169954Y0056104D02*
X0163546Y0056104D01*
X0164544Y0057103D02*
X0164622Y0057103D01*
X0168378Y0057103D02*
X0168956Y0057103D01*
X0173181Y0059100D02*
X0176933Y0059100D01*
X0176922Y0059111D02*
X0178441Y0057592D01*
X0180426Y0056770D01*
X0182574Y0056770D01*
X0184559Y0057592D01*
X0186078Y0059111D01*
X0186900Y0061096D01*
X0186900Y0063244D01*
X0186078Y0065229D01*
X0184559Y0066748D01*
X0182574Y0067570D01*
X0180426Y0067570D01*
X0178441Y0066748D01*
X0176922Y0065229D01*
X0176100Y0063244D01*
X0176100Y0061096D01*
X0176922Y0059111D01*
X0176513Y0060098D02*
X0172183Y0060098D01*
X0171900Y0061097D02*
X0176100Y0061097D01*
X0176100Y0062095D02*
X0171900Y0062095D01*
X0171900Y0063094D02*
X0176100Y0063094D01*
X0176451Y0064092D02*
X0171549Y0064092D01*
X0171135Y0065091D02*
X0176865Y0065091D01*
X0177783Y0066089D02*
X0170217Y0066089D01*
X0168737Y0067088D02*
X0179263Y0067088D01*
X0183737Y0067088D02*
X0358501Y0067088D01*
X0358501Y0066089D02*
X0185217Y0066089D01*
X0186135Y0065091D02*
X0358501Y0065091D01*
X0358501Y0064092D02*
X0186549Y0064092D01*
X0186900Y0063094D02*
X0358501Y0063094D01*
X0358501Y0062095D02*
X0186900Y0062095D01*
X0186900Y0061097D02*
X0358501Y0061097D01*
X0358501Y0060098D02*
X0186487Y0060098D01*
X0186067Y0059100D02*
X0358501Y0059100D01*
X0358501Y0058101D02*
X0185068Y0058101D01*
X0183378Y0057103D02*
X0358501Y0057103D01*
X0358501Y0056104D02*
X0176177Y0056104D01*
X0175178Y0057103D02*
X0179622Y0057103D01*
X0177932Y0058101D02*
X0174180Y0058101D01*
X0157555Y0050113D02*
X0225845Y0050113D01*
X0226844Y0049115D02*
X0222166Y0049115D01*
X0223165Y0048116D02*
X0227842Y0048116D01*
X0228841Y0047118D02*
X0224163Y0047118D01*
X0225162Y0046119D02*
X0229839Y0046119D01*
X0230838Y0045121D02*
X0226160Y0045121D01*
X0227159Y0044122D02*
X0231836Y0044122D01*
X0232835Y0043124D02*
X0228157Y0043124D01*
X0229156Y0042125D02*
X0233833Y0042125D01*
X0234832Y0041127D02*
X0230154Y0041127D01*
X0231153Y0040128D02*
X0235830Y0040128D01*
X0236829Y0039130D02*
X0232151Y0039130D01*
X0233150Y0038131D02*
X0237827Y0038131D01*
X0238826Y0037133D02*
X0234148Y0037133D01*
X0235147Y0036134D02*
X0239824Y0036134D01*
X0240823Y0035136D02*
X0236145Y0035136D01*
X0237144Y0034137D02*
X0241821Y0034137D01*
X0242820Y0033139D02*
X0238143Y0033139D01*
X0239141Y0032140D02*
X0243818Y0032140D01*
X0243816Y0031142D02*
X0244817Y0031142D01*
X0244815Y0030143D02*
X0245816Y0030143D01*
X0245378Y0029145D02*
X0246622Y0029145D01*
X0246209Y0028146D02*
X0245791Y0028146D01*
X0245800Y0027148D02*
X0246200Y0027148D01*
X0246227Y0026149D02*
X0245773Y0026149D01*
X0245359Y0025151D02*
X0246641Y0025151D01*
X0247230Y0024152D02*
X0244770Y0024152D01*
X0243772Y0023153D02*
X0248228Y0023153D01*
X0241000Y0027170D02*
X0221000Y0047170D01*
X0151500Y0047170D01*
X0135937Y0031607D01*
X0095550Y0031607D01*
X0095050Y0031107D01*
X0095050Y0029138D02*
X0138469Y0029138D01*
X0150500Y0041170D01*
X0217000Y0041170D01*
X0231000Y0027170D01*
X0235800Y0027148D02*
X0236200Y0027148D01*
X0236209Y0028146D02*
X0235791Y0028146D01*
X0235914Y0029145D02*
X0235378Y0029145D01*
X0234916Y0030143D02*
X0234815Y0030143D01*
X0233917Y0031142D02*
X0233816Y0031142D01*
X0232918Y0032140D02*
X0229141Y0032140D01*
X0228143Y0033139D02*
X0231920Y0033139D01*
X0230921Y0034137D02*
X0227144Y0034137D01*
X0226145Y0035136D02*
X0229923Y0035136D01*
X0228924Y0036134D02*
X0225147Y0036134D01*
X0224148Y0037133D02*
X0227926Y0037133D01*
X0226927Y0038131D02*
X0223150Y0038131D01*
X0222151Y0039130D02*
X0225929Y0039130D01*
X0224930Y0040128D02*
X0221153Y0040128D01*
X0220154Y0041127D02*
X0223932Y0041127D01*
X0222933Y0042125D02*
X0219156Y0042125D01*
X0218157Y0043124D02*
X0221935Y0043124D01*
X0220936Y0044122D02*
X0151564Y0044122D01*
X0151500Y0032170D02*
X0145500Y0026170D01*
X0100000Y0026170D01*
X0099031Y0025201D01*
X0095050Y0025201D01*
X0095100Y0023370D02*
X0095050Y0023233D01*
X0095100Y0023370D02*
X0173000Y0023370D01*
X0181500Y0031870D01*
X0181500Y0032170D01*
X0185113Y0028146D02*
X0185913Y0028146D01*
X0186911Y0027148D02*
X0183486Y0027148D01*
X0187910Y0026149D02*
X0178890Y0026149D01*
X0177892Y0025151D02*
X0188908Y0025151D01*
X0189907Y0024152D02*
X0176893Y0024152D01*
X0175895Y0023153D02*
X0190905Y0023153D01*
X0191904Y0022155D02*
X0174896Y0022155D01*
X0172668Y0026149D02*
X0148590Y0026149D01*
X0192902Y0021156D02*
X0098628Y0021156D01*
X0095050Y0027170D02*
X0092550Y0027170D01*
X0092331Y0027388D01*
X0091712Y0027388D01*
X0090950Y0028150D01*
X0090950Y0032095D01*
X0093212Y0034357D01*
X0105523Y0075076D02*
X0107477Y0075076D01*
X0108475Y0076075D02*
X0104525Y0076075D01*
X0072000Y0126999D02*
X0071000Y0126999D01*
X0071000Y0127997D02*
X0072000Y0127997D01*
X0072000Y0128996D02*
X0071000Y0128996D01*
X0071000Y0129994D02*
X0072000Y0129994D01*
X0068572Y0126999D02*
X0054282Y0126999D01*
X0048291Y0132990D02*
X0066146Y0132990D01*
X0066508Y0133988D02*
X0047293Y0133988D01*
X0046294Y0134987D02*
X0067112Y0134987D01*
X0068083Y0135985D02*
X0045296Y0135985D01*
X0084800Y0146970D02*
X0085000Y0147170D01*
X0087000Y0143973D02*
X0094176Y0143973D01*
X0094118Y0143964D02*
X0093274Y0143690D01*
X0092484Y0143288D01*
X0091767Y0142766D01*
X0091140Y0142139D01*
X0090619Y0141422D01*
X0090216Y0140632D01*
X0089942Y0139788D01*
X0089812Y0138969D01*
X0094937Y0138969D01*
X0094937Y0144094D01*
X0094118Y0143964D01*
X0094937Y0143973D02*
X0095937Y0143973D01*
X0095937Y0142975D02*
X0094937Y0142975D01*
X0094937Y0141976D02*
X0095937Y0141976D01*
X0095937Y0140978D02*
X0094937Y0140978D01*
X0094937Y0139979D02*
X0095937Y0139979D01*
X0095937Y0138981D02*
X0094937Y0138981D01*
X0092054Y0142975D02*
X0087000Y0142975D01*
X0087000Y0141976D02*
X0091021Y0141976D01*
X0090392Y0140978D02*
X0087000Y0140978D01*
X0087000Y0139979D02*
X0090004Y0139979D01*
X0089814Y0138981D02*
X0087000Y0138981D01*
X0094937Y0135985D02*
X0095937Y0135985D01*
X0095937Y0134987D02*
X0094937Y0134987D01*
X0094937Y0133988D02*
X0095937Y0133988D01*
X0163388Y0150963D02*
X0200148Y0150963D01*
X0198689Y0149964D02*
X0164594Y0149964D01*
X0165469Y0148966D02*
X0197848Y0148966D01*
X0197320Y0147967D02*
X0165883Y0147967D01*
X0202063Y0147967D02*
X0203063Y0147967D01*
X0203063Y0146969D02*
X0202063Y0146969D01*
X0202063Y0148966D02*
X0203063Y0148966D01*
X0203063Y0149964D02*
X0202063Y0149964D01*
X0202063Y0150963D02*
X0203063Y0150963D01*
X0203063Y0143973D02*
X0202063Y0143973D01*
X0202063Y0142975D02*
X0203063Y0142975D01*
X0203063Y0141976D02*
X0202063Y0141976D01*
X0202063Y0140978D02*
X0203063Y0140978D01*
X0215200Y0154957D02*
X0314402Y0154957D01*
X0326500Y0145970D02*
X0326500Y0104170D01*
X0321600Y0104033D02*
X0308700Y0104033D01*
X0308700Y0105031D02*
X0321600Y0105031D01*
X0321600Y0106030D02*
X0308700Y0106030D01*
X0308700Y0107028D02*
X0321600Y0107028D01*
X0321600Y0108027D02*
X0309994Y0108027D01*
X0310992Y0109025D02*
X0321882Y0109025D01*
X0322296Y0110024D02*
X0311456Y0110024D01*
X0311870Y0111022D02*
X0323223Y0111022D01*
X0324300Y0112021D02*
X0311900Y0112021D01*
X0311900Y0113020D02*
X0324300Y0113020D01*
X0324300Y0114018D02*
X0311579Y0114018D01*
X0311166Y0115017D02*
X0324300Y0115017D01*
X0324300Y0116015D02*
X0310292Y0116015D01*
X0308917Y0117014D02*
X0324300Y0117014D01*
X0324300Y0118012D02*
X0304979Y0118012D01*
X0304083Y0117014D02*
X0303162Y0117014D01*
X0302708Y0116015D02*
X0300200Y0116015D01*
X0300200Y0115017D02*
X0301834Y0115017D01*
X0301421Y0114018D02*
X0300200Y0114018D01*
X0300200Y0113020D02*
X0301100Y0113020D01*
X0301100Y0112021D02*
X0300200Y0112021D01*
X0300200Y0111022D02*
X0301130Y0111022D01*
X0301544Y0110024D02*
X0300200Y0110024D01*
X0300200Y0109025D02*
X0302008Y0109025D01*
X0303006Y0108027D02*
X0300200Y0108027D01*
X0300200Y0107028D02*
X0304300Y0107028D01*
X0304300Y0106030D02*
X0300200Y0106030D01*
X0300200Y0105031D02*
X0304300Y0105031D01*
X0304300Y0104033D02*
X0300200Y0104033D01*
X0300200Y0103034D02*
X0304300Y0103034D01*
X0304300Y0102036D02*
X0300200Y0102036D01*
X0300200Y0101037D02*
X0304300Y0101037D01*
X0304300Y0100039D02*
X0300200Y0100039D01*
X0300200Y0099040D02*
X0304300Y0099040D01*
X0304300Y0098042D02*
X0300200Y0098042D01*
X0300200Y0097043D02*
X0304300Y0097043D01*
X0304300Y0096045D02*
X0300200Y0096045D01*
X0300200Y0095046D02*
X0304300Y0095046D01*
X0304300Y0094048D02*
X0300200Y0094048D01*
X0299991Y0093049D02*
X0303768Y0093049D01*
X0302770Y0092051D02*
X0298992Y0092051D01*
X0298094Y0091052D02*
X0297994Y0091052D01*
X0297096Y0090054D02*
X0296995Y0090054D01*
X0296585Y0089055D02*
X0295997Y0089055D01*
X0295800Y0088057D02*
X0296200Y0088057D01*
X0301000Y0087170D02*
X0306500Y0092670D01*
X0306500Y0112170D01*
X0305977Y0119011D02*
X0324300Y0119011D01*
X0324300Y0120009D02*
X0306450Y0120009D01*
X0306863Y0121008D02*
X0324300Y0121008D01*
X0324300Y0122006D02*
X0306900Y0122006D01*
X0306900Y0123005D02*
X0324300Y0123005D01*
X0324300Y0124003D02*
X0306586Y0124003D01*
X0306172Y0125002D02*
X0324300Y0125002D01*
X0324300Y0126000D02*
X0305306Y0126000D01*
X0301500Y0122170D02*
X0298000Y0118670D01*
X0276500Y0112170D02*
X0271500Y0117170D01*
X0271955Y0091970D02*
X0270045Y0091970D01*
X0268281Y0091239D01*
X0266931Y0089889D01*
X0266200Y0088125D01*
X0266200Y0086215D01*
X0266931Y0084451D01*
X0268281Y0083101D01*
X0270045Y0082370D01*
X0271955Y0082370D01*
X0273719Y0083101D01*
X0275069Y0084451D01*
X0275800Y0086215D01*
X0275800Y0088125D01*
X0275069Y0089889D01*
X0273719Y0091239D01*
X0271955Y0091970D01*
X0273906Y0091052D02*
X0278094Y0091052D01*
X0278281Y0091239D02*
X0276931Y0089889D01*
X0276200Y0088125D01*
X0276200Y0086215D01*
X0276931Y0084451D01*
X0278281Y0083101D01*
X0280045Y0082370D01*
X0281955Y0082370D01*
X0283719Y0083101D01*
X0285069Y0084451D01*
X0285800Y0086215D01*
X0285800Y0088125D01*
X0285069Y0089889D01*
X0283719Y0091239D01*
X0281955Y0091970D01*
X0280045Y0091970D01*
X0278281Y0091239D01*
X0277096Y0090054D02*
X0274904Y0090054D01*
X0275415Y0089055D02*
X0276585Y0089055D01*
X0276200Y0088057D02*
X0275800Y0088057D01*
X0275800Y0087058D02*
X0276200Y0087058D01*
X0276264Y0086060D02*
X0275736Y0086060D01*
X0275322Y0085061D02*
X0276678Y0085061D01*
X0277319Y0084063D02*
X0274681Y0084063D01*
X0273631Y0083064D02*
X0278369Y0083064D01*
X0283631Y0083064D02*
X0288369Y0083064D01*
X0287319Y0084063D02*
X0284681Y0084063D01*
X0285322Y0085061D02*
X0286678Y0085061D01*
X0286264Y0086060D02*
X0285736Y0086060D01*
X0285800Y0087058D02*
X0286200Y0087058D01*
X0286200Y0088057D02*
X0285800Y0088057D01*
X0285415Y0089055D02*
X0286585Y0089055D01*
X0287096Y0090054D02*
X0284904Y0090054D01*
X0283906Y0091052D02*
X0288094Y0091052D01*
X0268094Y0091052D02*
X0263906Y0091052D01*
X0264904Y0090054D02*
X0267096Y0090054D01*
X0266585Y0089055D02*
X0265415Y0089055D01*
X0265800Y0088057D02*
X0266200Y0088057D01*
X0266200Y0087058D02*
X0265800Y0087058D01*
X0265736Y0086060D02*
X0266264Y0086060D01*
X0266678Y0085061D02*
X0265322Y0085061D01*
X0264681Y0084063D02*
X0267319Y0084063D01*
X0268369Y0083064D02*
X0263631Y0083064D01*
X0259007Y0082066D02*
X0358501Y0082066D01*
X0358501Y0083064D02*
X0343074Y0083064D01*
X0342766Y0082907D02*
X0343411Y0083236D01*
X0343997Y0083661D01*
X0344509Y0084173D01*
X0344934Y0084759D01*
X0345263Y0085404D01*
X0345487Y0086093D01*
X0345586Y0086720D01*
X0341450Y0086720D01*
X0341450Y0087620D01*
X0340550Y0087620D01*
X0340550Y0091756D01*
X0339923Y0091657D01*
X0339234Y0091433D01*
X0338589Y0091104D01*
X0338003Y0090679D01*
X0337491Y0090167D01*
X0337066Y0089581D01*
X0336737Y0088936D01*
X0336513Y0088247D01*
X0336414Y0087620D01*
X0340550Y0087620D01*
X0340550Y0086720D01*
X0336414Y0086720D01*
X0336513Y0086093D01*
X0336737Y0085404D01*
X0337066Y0084759D01*
X0337491Y0084173D01*
X0338003Y0083661D01*
X0338589Y0083236D01*
X0339234Y0082907D01*
X0339923Y0082683D01*
X0340550Y0082584D01*
X0340550Y0086720D01*
X0341450Y0086720D01*
X0341450Y0082584D01*
X0342077Y0082683D01*
X0342766Y0082907D01*
X0341450Y0083064D02*
X0340550Y0083064D01*
X0340550Y0084063D02*
X0341450Y0084063D01*
X0341450Y0085061D02*
X0340550Y0085061D01*
X0340550Y0086060D02*
X0341450Y0086060D01*
X0341450Y0087058D02*
X0358501Y0087058D01*
X0358501Y0086060D02*
X0345476Y0086060D01*
X0345088Y0085061D02*
X0358501Y0085061D01*
X0358501Y0084063D02*
X0344398Y0084063D01*
X0340550Y0087058D02*
X0335800Y0087058D01*
X0335800Y0086215D02*
X0335069Y0084451D01*
X0333719Y0083101D01*
X0331955Y0082370D01*
X0330045Y0082370D01*
X0328281Y0083101D01*
X0326931Y0084451D01*
X0326200Y0086215D01*
X0326200Y0088125D01*
X0326931Y0089889D01*
X0328281Y0091239D01*
X0330045Y0091970D01*
X0331955Y0091970D01*
X0333719Y0091239D01*
X0335069Y0089889D01*
X0335800Y0088125D01*
X0335800Y0086215D01*
X0335736Y0086060D02*
X0336524Y0086060D01*
X0336912Y0085061D02*
X0335322Y0085061D01*
X0334681Y0084063D02*
X0337602Y0084063D01*
X0338925Y0083064D02*
X0333631Y0083064D01*
X0328369Y0083064D02*
X0323631Y0083064D01*
X0323719Y0083101D02*
X0325069Y0084451D01*
X0325800Y0086215D01*
X0325800Y0088125D01*
X0325069Y0089889D01*
X0323719Y0091239D01*
X0321955Y0091970D01*
X0320045Y0091970D01*
X0318281Y0091239D01*
X0316931Y0089889D01*
X0316200Y0088125D01*
X0316200Y0086215D01*
X0316931Y0084451D01*
X0318281Y0083101D01*
X0320045Y0082370D01*
X0321955Y0082370D01*
X0323719Y0083101D01*
X0324681Y0084063D02*
X0327319Y0084063D01*
X0326678Y0085061D02*
X0325322Y0085061D01*
X0325736Y0086060D02*
X0326264Y0086060D01*
X0326200Y0087058D02*
X0325800Y0087058D01*
X0325800Y0088057D02*
X0326200Y0088057D01*
X0326585Y0089055D02*
X0325415Y0089055D01*
X0324904Y0090054D02*
X0327096Y0090054D01*
X0328094Y0091052D02*
X0323906Y0091052D01*
X0318094Y0091052D02*
X0313906Y0091052D01*
X0314904Y0090054D02*
X0317096Y0090054D01*
X0316585Y0089055D02*
X0315415Y0089055D01*
X0315800Y0088057D02*
X0316200Y0088057D01*
X0316200Y0087058D02*
X0315800Y0087058D01*
X0315736Y0086060D02*
X0316264Y0086060D01*
X0316678Y0085061D02*
X0315322Y0085061D01*
X0314681Y0084063D02*
X0317319Y0084063D01*
X0318369Y0083064D02*
X0313631Y0083064D01*
X0333906Y0091052D02*
X0338518Y0091052D01*
X0337409Y0090054D02*
X0334904Y0090054D01*
X0335415Y0089055D02*
X0336798Y0089055D01*
X0336483Y0088057D02*
X0335800Y0088057D01*
X0340550Y0088057D02*
X0341450Y0088057D01*
X0341450Y0087620D02*
X0341450Y0091756D01*
X0342077Y0091657D01*
X0342766Y0091433D01*
X0343411Y0091104D01*
X0343997Y0090679D01*
X0344509Y0090167D01*
X0344934Y0089581D01*
X0345263Y0088936D01*
X0345487Y0088247D01*
X0345586Y0087620D01*
X0341450Y0087620D01*
X0341450Y0089055D02*
X0340550Y0089055D01*
X0340550Y0090054D02*
X0341450Y0090054D01*
X0341450Y0091052D02*
X0340550Y0091052D01*
X0343482Y0091052D02*
X0358501Y0091052D01*
X0358501Y0090054D02*
X0344591Y0090054D01*
X0345202Y0089055D02*
X0358501Y0089055D01*
X0358501Y0088057D02*
X0345517Y0088057D01*
X0343497Y0097043D02*
X0339092Y0097043D01*
X0338963Y0096950D02*
X0339562Y0097385D01*
X0340085Y0097908D01*
X0340520Y0098507D01*
X0340856Y0099166D01*
X0341084Y0099869D01*
X0341200Y0100600D01*
X0341200Y0103670D01*
X0337000Y0103670D01*
X0337000Y0104670D01*
X0336000Y0104670D01*
X0336000Y0112049D01*
X0335399Y0111954D01*
X0334696Y0111726D01*
X0334037Y0111390D01*
X0333438Y0110955D01*
X0332915Y0110432D01*
X0332480Y0109833D01*
X0332144Y0109174D01*
X0331916Y0108470D01*
X0331800Y0107740D01*
X0331800Y0104670D01*
X0336000Y0104670D01*
X0336000Y0103670D01*
X0331800Y0103670D01*
X0331800Y0100600D01*
X0331916Y0099869D01*
X0332144Y0099166D01*
X0332480Y0098507D01*
X0332915Y0097908D01*
X0333438Y0097385D01*
X0334037Y0096950D01*
X0334696Y0096614D01*
X0335399Y0096386D01*
X0336000Y0096290D01*
X0336000Y0103670D01*
X0337000Y0103670D01*
X0337000Y0096290D01*
X0337601Y0096386D01*
X0338304Y0096614D01*
X0338963Y0096950D01*
X0340182Y0098042D02*
X0342498Y0098042D01*
X0341995Y0099040D02*
X0340792Y0099040D01*
X0341111Y0100039D02*
X0341600Y0100039D01*
X0341600Y0101037D02*
X0341200Y0101037D01*
X0341200Y0102036D02*
X0341600Y0102036D01*
X0341600Y0103034D02*
X0341200Y0103034D01*
X0341600Y0104033D02*
X0337000Y0104033D01*
X0337000Y0104670D02*
X0341200Y0104670D01*
X0341200Y0107740D01*
X0341084Y0108470D01*
X0340856Y0109174D01*
X0340520Y0109833D01*
X0340085Y0110432D01*
X0339562Y0110955D01*
X0338963Y0111390D01*
X0338304Y0111726D01*
X0337601Y0111954D01*
X0337000Y0112049D01*
X0337000Y0104670D01*
X0337000Y0105031D02*
X0336000Y0105031D01*
X0336000Y0104033D02*
X0331400Y0104033D01*
X0331400Y0105031D02*
X0331800Y0105031D01*
X0331800Y0106030D02*
X0331400Y0106030D01*
X0331400Y0107028D02*
X0331800Y0107028D01*
X0331845Y0108027D02*
X0331400Y0108027D01*
X0331118Y0109025D02*
X0332096Y0109025D01*
X0332619Y0110024D02*
X0330704Y0110024D01*
X0329777Y0111022D02*
X0333531Y0111022D01*
X0336000Y0111022D02*
X0337000Y0111022D01*
X0337000Y0110024D02*
X0336000Y0110024D01*
X0336000Y0109025D02*
X0337000Y0109025D01*
X0337000Y0108027D02*
X0336000Y0108027D01*
X0336000Y0107028D02*
X0337000Y0107028D01*
X0337000Y0106030D02*
X0336000Y0106030D01*
X0336000Y0103034D02*
X0337000Y0103034D01*
X0337000Y0102036D02*
X0336000Y0102036D01*
X0336000Y0101037D02*
X0337000Y0101037D01*
X0337000Y0100039D02*
X0336000Y0100039D01*
X0336000Y0099040D02*
X0337000Y0099040D01*
X0337000Y0098042D02*
X0336000Y0098042D01*
X0336000Y0097043D02*
X0337000Y0097043D01*
X0333908Y0097043D02*
X0329503Y0097043D01*
X0330502Y0098042D02*
X0332818Y0098042D01*
X0332208Y0099040D02*
X0331004Y0099040D01*
X0331400Y0100039D02*
X0331889Y0100039D01*
X0331800Y0101037D02*
X0331400Y0101037D01*
X0331400Y0102036D02*
X0331800Y0102036D01*
X0331800Y0103034D02*
X0331400Y0103034D01*
X0341200Y0105031D02*
X0341600Y0105031D01*
X0341600Y0106030D02*
X0341200Y0106030D01*
X0341200Y0107028D02*
X0341600Y0107028D01*
X0341600Y0108027D02*
X0341155Y0108027D01*
X0340904Y0109025D02*
X0341882Y0109025D01*
X0342296Y0110024D02*
X0340381Y0110024D01*
X0339469Y0111022D02*
X0343223Y0111022D01*
X0344925Y0112021D02*
X0337178Y0112021D01*
X0337000Y0112021D02*
X0336000Y0112021D01*
X0335822Y0112021D02*
X0328700Y0112021D01*
X0321600Y0103034D02*
X0308700Y0103034D01*
X0308700Y0102036D02*
X0321600Y0102036D01*
X0321600Y0101037D02*
X0308700Y0101037D01*
X0308700Y0100039D02*
X0321600Y0100039D01*
X0321995Y0099040D02*
X0308700Y0099040D01*
X0308700Y0098042D02*
X0322498Y0098042D01*
X0323497Y0097043D02*
X0308700Y0097043D01*
X0358501Y0081067D02*
X0258009Y0081067D01*
X0257010Y0080069D02*
X0358501Y0080069D01*
X0358501Y0079070D02*
X0256012Y0079070D01*
X0255013Y0078072D02*
X0358501Y0078072D01*
X0358501Y0077073D02*
X0254014Y0077073D01*
X0253016Y0076075D02*
X0358501Y0076075D01*
X0358501Y0075076D02*
X0252017Y0075076D01*
X0251019Y0074078D02*
X0358501Y0074078D01*
X0358501Y0073079D02*
X0250020Y0073079D01*
X0249022Y0072081D02*
X0358501Y0072081D01*
X0358501Y0071082D02*
X0248023Y0071082D01*
X0247025Y0070084D02*
X0358501Y0070084D01*
X0358501Y0055106D02*
X0227075Y0055106D01*
X0228074Y0054107D02*
X0358501Y0054107D01*
X0358501Y0053109D02*
X0229072Y0053109D01*
X0230071Y0052110D02*
X0358501Y0052110D01*
X0358501Y0051112D02*
X0231069Y0051112D01*
X0232068Y0050113D02*
X0358501Y0050113D01*
X0358501Y0049115D02*
X0233066Y0049115D01*
X0234065Y0048116D02*
X0358501Y0048116D01*
X0358501Y0047118D02*
X0235063Y0047118D01*
X0236062Y0046119D02*
X0358501Y0046119D01*
X0358501Y0045121D02*
X0237060Y0045121D01*
X0238059Y0044122D02*
X0358501Y0044122D01*
X0358501Y0043124D02*
X0239057Y0043124D01*
X0240056Y0042125D02*
X0358501Y0042125D01*
X0358501Y0041127D02*
X0241054Y0041127D01*
X0242053Y0040128D02*
X0358501Y0040128D01*
X0358501Y0039130D02*
X0243051Y0039130D01*
X0244050Y0038131D02*
X0358501Y0038131D01*
X0358501Y0037133D02*
X0245048Y0037133D01*
X0246047Y0036134D02*
X0358501Y0036134D01*
X0358501Y0035136D02*
X0247045Y0035136D01*
X0248044Y0034137D02*
X0358501Y0034137D01*
X0358501Y0033139D02*
X0249043Y0033139D01*
X0250041Y0032140D02*
X0358501Y0032140D01*
X0358501Y0031142D02*
X0343816Y0031142D01*
X0344815Y0030143D02*
X0358501Y0030143D01*
X0358501Y0029145D02*
X0345378Y0029145D01*
X0345791Y0028146D02*
X0358501Y0028146D01*
X0358501Y0027148D02*
X0345800Y0027148D01*
X0345773Y0026149D02*
X0358501Y0026149D01*
X0358501Y0025151D02*
X0345359Y0025151D01*
X0344770Y0024152D02*
X0358501Y0024152D01*
X0278184Y0031142D02*
X0273816Y0031142D01*
X0274815Y0030143D02*
X0277185Y0030143D01*
X0276622Y0029145D02*
X0275378Y0029145D01*
X0275791Y0028146D02*
X0276209Y0028146D01*
X0268184Y0031142D02*
X0263816Y0031142D01*
X0264815Y0030143D02*
X0267185Y0030143D01*
X0266622Y0029145D02*
X0265378Y0029145D01*
X0265791Y0028146D02*
X0266209Y0028146D01*
X0266200Y0027148D02*
X0265800Y0027148D01*
X0265773Y0026149D02*
X0266227Y0026149D01*
X0265869Y0025151D02*
X0265359Y0025151D01*
X0264871Y0024152D02*
X0264770Y0024152D01*
X0263872Y0023153D02*
X0263772Y0023153D01*
X0256209Y0028146D02*
X0255791Y0028146D01*
X0255378Y0029145D02*
X0256622Y0029145D01*
X0257185Y0030143D02*
X0254815Y0030143D01*
X0253816Y0031142D02*
X0258184Y0031142D01*
X0238228Y0023153D02*
X0233772Y0023153D01*
X0234770Y0024152D02*
X0237230Y0024152D01*
X0236641Y0025151D02*
X0235359Y0025151D01*
X0235773Y0026149D02*
X0236227Y0026149D01*
X0205137Y0114018D02*
X0204411Y0114018D01*
X0215200Y0155955D02*
X0243703Y0155955D01*
X0242705Y0156954D02*
X0215200Y0156954D01*
X0215200Y0157953D02*
X0241706Y0157953D01*
X0240708Y0158951D02*
X0215200Y0158951D01*
X0215200Y0159950D02*
X0239709Y0159950D01*
X0238711Y0160948D02*
X0215200Y0160948D01*
X0215200Y0161947D02*
X0237712Y0161947D01*
X0233895Y0162945D02*
X0215200Y0162945D01*
X0215200Y0163944D02*
X0232797Y0163944D01*
X0232119Y0164942D02*
X0215200Y0164942D01*
X0215200Y0165941D02*
X0231705Y0165941D01*
X0231600Y0166939D02*
X0215200Y0166939D01*
X0215200Y0167938D02*
X0231600Y0167938D01*
X0231928Y0168936D02*
X0215200Y0168936D01*
X0215200Y0169935D02*
X0232341Y0169935D01*
X0233334Y0170933D02*
X0215200Y0170933D01*
X0221114Y0182915D02*
X0221886Y0182915D01*
X0221886Y0183914D02*
X0221114Y0183914D01*
X0221114Y0184912D02*
X0221886Y0184912D01*
X0221886Y0185911D02*
X0221114Y0185911D01*
X0221114Y0187908D02*
X0221886Y0187908D01*
X0221886Y0188906D02*
X0221114Y0188906D01*
X0221114Y0189905D02*
X0221886Y0189905D01*
X0221886Y0190903D02*
X0221114Y0190903D01*
X0221114Y0191902D02*
X0221886Y0191902D01*
X0219333Y0191902D02*
X0209187Y0191902D01*
X0210403Y0190903D02*
X0217880Y0190903D01*
X0217060Y0189905D02*
X0211212Y0189905D01*
X0211626Y0188906D02*
X0216597Y0188906D01*
X0216352Y0187908D02*
X0211900Y0187908D01*
X0223400Y0200270D02*
X0226500Y0197170D01*
X0206539Y0201887D02*
X0184294Y0201887D01*
X0185293Y0200889D02*
X0205375Y0200889D01*
X0204210Y0199890D02*
X0203008Y0199890D01*
X0199992Y0199890D02*
X0186291Y0199890D01*
X0187290Y0198891D02*
X0198085Y0198891D01*
X0197086Y0197893D02*
X0188288Y0197893D01*
X0176500Y0187170D02*
X0176100Y0187170D01*
X0176100Y0181370D01*
X0173536Y0181917D02*
X0167929Y0181917D01*
X0169882Y0182915D02*
X0173118Y0182915D01*
X0172119Y0183914D02*
X0170881Y0183914D01*
X0171410Y0184912D02*
X0171590Y0184912D01*
X0166500Y0187170D02*
X0166200Y0187170D01*
X0165900Y0186870D01*
X0150300Y0202470D01*
X0150500Y0202670D01*
X0149769Y0199890D02*
X0087453Y0199890D01*
X0082547Y0199890D02*
X0076518Y0199890D01*
X0075783Y0198891D02*
X0150767Y0198891D01*
X0151766Y0197893D02*
X0074784Y0197893D01*
X0062767Y0183914D02*
X0162119Y0183914D01*
X0163118Y0182915D02*
X0063766Y0182915D01*
X0064764Y0181917D02*
X0165071Y0181917D01*
X0166388Y0192900D02*
X0162981Y0192900D01*
X0251500Y0187170D02*
X0251700Y0187170D01*
X0256200Y0191670D01*
X0256200Y0197070D01*
X0256500Y0197170D01*
X0261218Y0199890D02*
X0266782Y0199890D01*
X0266368Y0198891D02*
X0261632Y0198891D01*
X0261900Y0197893D02*
X0266100Y0197893D01*
X0266100Y0196894D02*
X0261900Y0196894D01*
X0261817Y0195896D02*
X0266183Y0195896D01*
X0266596Y0194897D02*
X0261404Y0194897D01*
X0260866Y0193899D02*
X0267134Y0193899D01*
X0268133Y0192900D02*
X0259867Y0192900D01*
X0258400Y0191902D02*
X0263813Y0191902D01*
X0262597Y0190903D02*
X0258400Y0190903D01*
X0257546Y0189905D02*
X0261788Y0189905D01*
X0261374Y0188906D02*
X0256626Y0188906D01*
X0256900Y0187908D02*
X0261100Y0187908D01*
X0261100Y0186909D02*
X0256900Y0186909D01*
X0256823Y0185911D02*
X0261177Y0185911D01*
X0261590Y0184912D02*
X0257069Y0184912D01*
X0258067Y0183914D02*
X0262119Y0183914D01*
X0263118Y0182915D02*
X0258400Y0182915D01*
X0258400Y0181917D02*
X0264300Y0181917D01*
X0264300Y0180918D02*
X0258400Y0180918D01*
X0258400Y0179920D02*
X0264300Y0179920D01*
X0264300Y0178921D02*
X0258400Y0178921D01*
X0258400Y0177923D02*
X0264300Y0177923D01*
X0264300Y0176924D02*
X0258400Y0176924D01*
X0258400Y0175926D02*
X0264300Y0175926D01*
X0264300Y0174927D02*
X0258400Y0174927D01*
X0258400Y0173929D02*
X0264300Y0173929D01*
X0264300Y0172930D02*
X0258400Y0172930D01*
X0258400Y0171932D02*
X0264300Y0171932D01*
X0263334Y0170933D02*
X0259666Y0170933D01*
X0260659Y0169935D02*
X0262341Y0169935D01*
X0261928Y0168936D02*
X0261072Y0168936D01*
X0261400Y0167938D02*
X0261600Y0167938D01*
X0261600Y0166939D02*
X0261400Y0166939D01*
X0261295Y0165941D02*
X0261705Y0165941D01*
X0262119Y0164942D02*
X0260881Y0164942D01*
X0260203Y0163944D02*
X0262797Y0163944D01*
X0263895Y0162945D02*
X0259105Y0162945D01*
X0256500Y0167170D02*
X0256200Y0167370D01*
X0256200Y0182670D01*
X0251700Y0187170D01*
X0266500Y0187170D02*
X0266500Y0167170D01*
X0266500Y0187170D02*
X0271500Y0192170D01*
X0271500Y0197170D01*
X0267582Y0200889D02*
X0260418Y0200889D01*
X0259223Y0201887D02*
X0268777Y0201887D01*
D19*
X0085000Y0202670D03*
X0085000Y0147170D03*
M02*
